<?xml version="1.0" encoding="us-ascii" standalone="no"?><svg xmlns="http://www.w3.org/2000/svg" xmlns:xlink="http://www.w3.org/1999/xlink" contentStyleType="text/css" height="230px" preserveAspectRatio="none" style="width:907px;height:230px;background:#FFFFFF;" version="1.1" viewBox="0 0 907 230" width="907px" zoomAndPan="magnify"><defs/><g><!--class Command--><g id="elem_Command"><rect codeLine="3" fill="#F1F1F1" height="32" id="Command" rx="2.5" ry="2.5" style="stroke:#181818;stroke-width:0.5;" width="96" x="394.5" y="99"/><ellipse cx="409.5" cy="115" fill="#B4A7E5" rx="11" ry="11" style="stroke:#181818;stroke-width:1.0;"/><path d="M405.4219,110.7656 L405.4219,108.6094 L412.8125,108.6094 L412.8125,110.7656 L410.3438,110.7656 L410.3438,118.8438 L412.8125,118.8438 L412.8125,121 L405.4219,121 L405.4219,118.8438 L407.8906,118.8438 L407.8906,110.7656 L405.4219,110.7656 Z " fill="#000000"/><text fill="#000000" font-family="sans-serif" font-size="14" font-style="italic" lengthAdjust="spacing" textLength="64" x="423.5" y="120.432">Command</text></g><!--class Editor--><g id="elem_Editor"><rect fill="#F1F1F1" height="32" id="Editor" rx="2.5" ry="2.5" style="stroke:#181818;stroke-width:0.5;" width="72" x="540.5" y="7"/><ellipse cx="555.5" cy="23" fill="#ADD1B2" rx="11" ry="11" style="stroke:#181818;stroke-width:1.0;"/><path d="M558.4688,28.6406 Q557.8906,28.9375 557.25,29.0781 Q556.6094,29.2344 555.9063,29.2344 Q553.4063,29.2344 552.0781,27.5938 Q550.7656,25.9375 550.7656,22.8125 Q550.7656,19.6875 552.0781,18.0313 Q553.4063,16.375 555.9063,16.375 Q556.6094,16.375 557.25,16.5313 Q557.9063,16.6875 558.4688,16.9844 L558.4688,19.7031 Q557.8438,19.125 557.25,18.8594 Q556.6563,18.5781 556.0313,18.5781 Q554.6875,18.5781 554,19.6563 Q553.3125,20.7188 553.3125,22.8125 Q553.3125,24.9063 554,25.9844 Q554.6875,27.0469 556.0313,27.0469 Q556.6563,27.0469 557.25,26.7813 Q557.8438,26.5 558.4688,25.9219 L558.4688,28.6406 Z " fill="#000000"/><text fill="#000000" font-family="sans-serif" font-size="14" lengthAdjust="spacing" textLength="40" x="569.5" y="28.432">Editor</text></g><!--class Document--><g id="elem_Document"><rect fill="#F1F1F1" height="32" id="Document" rx="2.5" ry="2.5" style="stroke:#181818;stroke-width:0.5;" width="101" x="526" y="99"/><ellipse cx="541" cy="115" fill="#ADD1B2" rx="11" ry="11" style="stroke:#181818;stroke-width:1.0;"/><path d="M543.9688,120.6406 Q543.3906,120.9375 542.75,121.0781 Q542.1094,121.2344 541.4063,121.2344 Q538.9063,121.2344 537.5781,119.5938 Q536.2656,117.9375 536.2656,114.8125 Q536.2656,111.6875 537.5781,110.0313 Q538.9063,108.375 541.4063,108.375 Q542.1094,108.375 542.75,108.5313 Q543.4063,108.6875 543.9688,108.9844 L543.9688,111.7031 Q543.3438,111.125 542.75,110.8594 Q542.1563,110.5781 541.5313,110.5781 Q540.1875,110.5781 539.5,111.6563 Q538.8125,112.7188 538.8125,114.8125 Q538.8125,116.9063 539.5,117.9844 Q540.1875,119.0469 541.5313,119.0469 Q542.1563,119.0469 542.75,118.7813 Q543.3438,118.5 543.9688,117.9219 L543.9688,120.6406 Z " fill="#000000"/><text fill="#000000" font-family="sans-serif" font-size="14" lengthAdjust="spacing" textLength="69" x="555" y="120.432">Document</text></g><!--class UserInterface--><g id="elem_UserInterface"><rect fill="#F1F1F1" height="32" id="UserInterface" rx="2.5" ry="2.5" style="stroke:#181818;stroke-width:0.5;" width="124" x="662.5" y="99"/><ellipse cx="677.5" cy="115" fill="#ADD1B2" rx="11" ry="11" style="stroke:#181818;stroke-width:1.0;"/><path d="M680.4688,120.6406 Q679.8906,120.9375 679.25,121.0781 Q678.6094,121.2344 677.9063,121.2344 Q675.4063,121.2344 674.0781,119.5938 Q672.7656,117.9375 672.7656,114.8125 Q672.7656,111.6875 674.0781,110.0313 Q675.4063,108.375 677.9063,108.375 Q678.6094,108.375 679.25,108.5313 Q679.9063,108.6875 680.4688,108.9844 L680.4688,111.7031 Q679.8438,111.125 679.25,110.8594 Q678.6563,110.5781 678.0313,110.5781 Q676.6875,110.5781 676,111.6563 Q675.3125,112.7188 675.3125,114.8125 Q675.3125,116.9063 676,117.9844 Q676.6875,119.0469 678.0313,119.0469 Q678.6563,119.0469 679.25,118.7813 Q679.8438,118.5 680.4688,117.9219 L680.4688,120.6406 Z " fill="#000000"/><text fill="#000000" font-family="sans-serif" font-size="14" lengthAdjust="spacing" textLength="92" x="691.5" y="120.432">UserInterface</text></g><!--class EditCommand--><g id="elem_EditCommand"><rect fill="#F1F1F1" height="32" id="EditCommand" rx="2.5" ry="2.5" style="stroke:#181818;stroke-width:0.5;" width="127" x="7" y="191"/><ellipse cx="22" cy="207" fill="#ADD1B2" rx="11" ry="11" style="stroke:#181818;stroke-width:1.0;"/><path d="M24.9688,212.6406 Q24.3906,212.9375 23.75,213.0781 Q23.1094,213.2344 22.4063,213.2344 Q19.9063,213.2344 18.5781,211.5938 Q17.2656,209.9375 17.2656,206.8125 Q17.2656,203.6875 18.5781,202.0313 Q19.9063,200.375 22.4063,200.375 Q23.1094,200.375 23.75,200.5313 Q24.4063,200.6875 24.9688,200.9844 L24.9688,203.7031 Q24.3438,203.125 23.75,202.8594 Q23.1563,202.5781 22.5313,202.5781 Q21.1875,202.5781 20.5,203.6563 Q19.8125,204.7188 19.8125,206.8125 Q19.8125,208.9063 20.5,209.9844 Q21.1875,211.0469 22.5313,211.0469 Q23.1563,211.0469 23.75,210.7813 Q24.3438,210.5 24.9688,209.9219 L24.9688,212.6406 Z " fill="#000000"/><text fill="#000000" font-family="sans-serif" font-size="14" lengthAdjust="spacing" textLength="95" x="36" y="212.432">EditCommand</text></g><!--class ExchangeCommand--><g id="elem_ExchangeCommand"><rect fill="#F1F1F1" height="32" id="ExchangeCommand" rx="2.5" ry="2.5" style="stroke:#181818;stroke-width:0.5;" width="166" x="169.5" y="191"/><ellipse cx="184.5" cy="207" fill="#ADD1B2" rx="11" ry="11" style="stroke:#181818;stroke-width:1.0;"/><path d="M187.4688,212.6406 Q186.8906,212.9375 186.25,213.0781 Q185.6094,213.2344 184.9063,213.2344 Q182.4063,213.2344 181.0781,211.5938 Q179.7656,209.9375 179.7656,206.8125 Q179.7656,203.6875 181.0781,202.0313 Q182.4063,200.375 184.9063,200.375 Q185.6094,200.375 186.25,200.5313 Q186.9063,200.6875 187.4688,200.9844 L187.4688,203.7031 Q186.8438,203.125 186.25,202.8594 Q185.6563,202.5781 185.0313,202.5781 Q183.6875,202.5781 183,203.6563 Q182.3125,204.7188 182.3125,206.8125 Q182.3125,208.9063 183,209.9844 Q183.6875,211.0469 185.0313,211.0469 Q185.6563,211.0469 186.25,210.7813 Q186.8438,210.5 187.4688,209.9219 L187.4688,212.6406 Z " fill="#000000"/><text fill="#000000" font-family="sans-serif" font-size="14" lengthAdjust="spacing" textLength="134" x="198.5" y="212.432">ExchangeCommand</text></g><!--class DeleteCommand--><g id="elem_DeleteCommand"><rect fill="#F1F1F1" height="32" id="DeleteCommand" rx="2.5" ry="2.5" style="stroke:#181818;stroke-width:0.5;" width="144" x="370.5" y="191"/><ellipse cx="385.5" cy="207" fill="#ADD1B2" rx="11" ry="11" style="stroke:#181818;stroke-width:1.0;"/><path d="M388.4688,212.6406 Q387.8906,212.9375 387.25,213.0781 Q386.6094,213.2344 385.9063,213.2344 Q383.4063,213.2344 382.0781,211.5938 Q380.7656,209.9375 380.7656,206.8125 Q380.7656,203.6875 382.0781,202.0313 Q383.4063,200.375 385.9063,200.375 Q386.6094,200.375 387.25,200.5313 Q387.9063,200.6875 388.4688,200.9844 L388.4688,203.7031 Q387.8438,203.125 387.25,202.8594 Q386.6563,202.5781 386.0313,202.5781 Q384.6875,202.5781 384,203.6563 Q383.3125,204.7188 383.3125,206.8125 Q383.3125,208.9063 384,209.9844 Q384.6875,211.0469 386.0313,211.0469 Q386.6563,211.0469 387.25,210.7813 Q387.8438,210.5 388.4688,209.9219 L388.4688,212.6406 Z " fill="#000000"/><text fill="#000000" font-family="sans-serif" font-size="14" lengthAdjust="spacing" textLength="112" x="399.5" y="212.432">DeleteCommand</text></g><!--class SetActiveLineCommand--><g id="elem_SetActiveLineCommand"><rect fill="#F1F1F1" height="32" id="SetActiveLineCommand" rx="2.5" ry="2.5" style="stroke:#181818;stroke-width:0.5;" width="190" x="549.5" y="191"/><ellipse cx="564.5" cy="207" fill="#ADD1B2" rx="11" ry="11" style="stroke:#181818;stroke-width:1.0;"/><path d="M567.4688,212.6406 Q566.8906,212.9375 566.25,213.0781 Q565.6094,213.2344 564.9063,213.2344 Q562.4063,213.2344 561.0781,211.5938 Q559.7656,209.9375 559.7656,206.8125 Q559.7656,203.6875 561.0781,202.0313 Q562.4063,200.375 564.9063,200.375 Q565.6094,200.375 566.25,200.5313 Q566.9063,200.6875 567.4688,200.9844 L567.4688,203.7031 Q566.8438,203.125 566.25,202.8594 Q565.6563,202.5781 565.0313,202.5781 Q563.6875,202.5781 563,203.6563 Q562.3125,204.7188 562.3125,206.8125 Q562.3125,208.9063 563,209.9844 Q563.6875,211.0469 565.0313,211.0469 Q565.6563,211.0469 566.25,210.7813 Q566.8438,210.5 567.4688,209.9219 L567.4688,212.6406 Z " fill="#000000"/><text fill="#000000" font-family="sans-serif" font-size="14" lengthAdjust="spacing" textLength="158" x="578.5" y="212.432">SetActiveLineCommand</text></g><!--class ExitCommand--><g id="elem_ExitCommand"><rect fill="#F1F1F1" height="32" id="ExitCommand" rx="2.5" ry="2.5" style="stroke:#181818;stroke-width:0.5;" width="125" x="775" y="191"/><ellipse cx="790" cy="207" fill="#ADD1B2" rx="11" ry="11" style="stroke:#181818;stroke-width:1.0;"/><path d="M792.9688,212.6406 Q792.3906,212.9375 791.75,213.0781 Q791.1094,213.2344 790.4063,213.2344 Q787.9063,213.2344 786.5781,211.5938 Q785.2656,209.9375 785.2656,206.8125 Q785.2656,203.6875 786.5781,202.0313 Q787.9063,200.375 790.4063,200.375 Q791.1094,200.375 791.75,200.5313 Q792.4063,200.6875 792.9688,200.9844 L792.9688,203.7031 Q792.3438,203.125 791.75,202.8594 Q791.1563,202.5781 790.5313,202.5781 Q789.1875,202.5781 788.5,203.6563 Q787.8125,204.7188 787.8125,206.8125 Q787.8125,208.9063 788.5,209.9844 Q789.1875,211.0469 790.5313,211.0469 Q791.1563,211.0469 791.75,210.7813 Q792.3438,210.5 792.9688,209.9219 L792.9688,212.6406 Z " fill="#000000"/><text fill="#000000" font-family="sans-serif" font-size="14" lengthAdjust="spacing" textLength="93" x="804" y="212.432">ExitCommand</text></g><!--link Editor to Document--><g id="link_Editor_Document"><path codeLine="5" d="M576.5,39.27 C576.5,55.92 576.5,76.4 576.5,92.96 " fill="none" id="Editor-to-Document" style="stroke:#181818;stroke-width:1.0;"/><polygon fill="#181818" points="576.5,98.96,580.5,89.96,576.5,93.96,572.5,89.96,576.5,98.96" style="stroke:#181818;stroke-width:1.0;"/></g><!--link Editor to UserInterface--><g id="link_Editor_UserInterface"><path codeLine="6" d="M601.27,39.06 C628.59,55.68 667.1742,79.1314 694.5242,95.7714 " fill="none" id="Editor-to-UserInterface" style="stroke:#181818;stroke-width:1.0;"/><polygon fill="#181818" points="699.65,98.89,694.0403,90.7949,695.3785,96.2912,689.8822,97.6293,699.65,98.89" style="stroke:#181818;stroke-width:1.0;"/></g><!--link Editor to Command--><g id="link_Editor_Command"><path codeLine="7" d="M554.07,39.06 C529.34,55.68 494.7505,78.9042 469.9805,95.5442 " fill="none" id="Editor-to-Command" style="stroke:#181818;stroke-width:1.0;"/><polygon fill="#181818" points="465,98.89,474.7013,97.1916,469.1504,96.1018,470.2402,90.5509,465,98.89" style="stroke:#181818;stroke-width:1.0;"/></g><!--reverse link Command to EditCommand--><g id="link_Command_EditCommand"><path codeLine="8" d="M376.755,131.9039 C309.815,148.1039 206.22,173.16 132.61,190.97 " fill="none" id="Command-backto-EditCommand" style="stroke:#181818;stroke-width:1.0;stroke-dasharray:7.0,7.0;"/><polygon fill="none" points="394.25,127.67,375.3437,126.0723,378.1663,137.7356,394.25,127.67" style="stroke:#181818;stroke-width:1.0;"/></g><!--reverse link Command to ExchangeCommand--><g id="link_Command_ExchangeCommand"><path codeLine="9" d="M394.4341,138.7685 C359.3641,155.3885 319.52,174.25 284.41,190.89 " fill="none" id="Command-backto-ExchangeCommand" style="stroke:#181818;stroke-width:1.0;stroke-dasharray:7.0,7.0;"/><polygon fill="none" points="410.7,131.06,391.8646,133.3466,397.0037,144.1905,410.7,131.06" style="stroke:#181818;stroke-width:1.0;"/></g><!--reverse link Command to DeleteCommand--><g id="link_Command_DeleteCommand"><path codeLine="10" d="M442.5,149.27 C442.5,165.92 442.5,174.4 442.5,190.96 " fill="none" id="Command-backto-DeleteCommand" style="stroke:#181818;stroke-width:1.0;stroke-dasharray:7.0,7.0;"/><polygon fill="none" points="442.5,131.27,436.5,149.27,448.5,149.27,442.5,131.27" style="stroke:#181818;stroke-width:1.0;"/></g><!--reverse link Command to SetActiveLineCommand--><g id="link_Command_SetActiveLineCommand"><path codeLine="11" d="M492.751,138.3877 C530.041,155.0077 573.25,174.25 610.58,190.89 " fill="none" id="Command-backto-SetActiveLineCommand" style="stroke:#181818;stroke-width:1.0;stroke-dasharray:7.0,7.0;"/><polygon fill="none" points="476.31,131.06,490.3084,143.868,495.1935,132.9073,476.31,131.06" style="stroke:#181818;stroke-width:1.0;"/></g><!--reverse link Command to ExitCommand--><g id="link_Command_ExitCommand"><path codeLine="12" d="M508.0905,130.9477 C579.4305,147.1977 695.89,173.73 774.85,191.73 " fill="none" id="Command-backto-ExitCommand" style="stroke:#181818;stroke-width:1.0;stroke-dasharray:7.0,7.0;"/><polygon fill="none" points="490.54,126.95,506.7579,136.7978,509.423,125.0975,490.54,126.95" style="stroke:#181818;stroke-width:1.0;"/></g><!--SRC=[TSr12i9038NXVKwH2xGd445Q5u8xyG3ZpDC6J4QcKInuU16iT35kyv7_3PB0q9jFhD0JoaWavYZd4C5TLWsMc6YRn7FXfbbpd-DTORwy7KUKtVosX6-1vjBgrRRyyJeyun3iWYhskCBhT81leii3Up7yAVyctm00]--></g></svg>