<?xml version="1.0" encoding="us-ascii" standalone="no"?><svg xmlns="http://www.w3.org/2000/svg" xmlns:xlink="http://www.w3.org/1999/xlink" contentStyleType="text/css" height="602px" preserveAspectRatio="none" style="width:1579px;height:602px;background:#FFFFFF;" version="1.1" viewBox="0 0 1579 602" width="1579px" zoomAndPan="magnify"><defs/><g><!--class Command--><g id="elem_Command"><rect codeLine="1" fill="#F1F1F1" height="48" id="Command" rx="2.5" ry="2.5" style="stroke:#181818;stroke-width:0.5;" width="96" x="715" y="115"/><ellipse cx="730" cy="131" fill="#B4A7E5" rx="11" ry="11" style="stroke:#181818;stroke-width:1.0;"/><path d="M725.9219,126.7656 L725.9219,124.6094 L733.3125,124.6094 L733.3125,126.7656 L730.8438,126.7656 L730.8438,134.8438 L733.3125,134.8438 L733.3125,137 L725.9219,137 L725.9219,134.8438 L728.3906,134.8438 L728.3906,126.7656 L725.9219,126.7656 Z " fill="#000000"/><text fill="#000000" font-family="sans-serif" font-size="14" font-style="italic" lengthAdjust="spacing" textLength="64" x="744" y="136.432">Command</text><line style="stroke:#181818;stroke-width:0.5;" x1="716" x2="810" y1="147" y2="147"/><line style="stroke:#181818;stroke-width:0.5;" x1="716" x2="810" y1="155" y2="155"/></g><!--class DocumentStorage--><g id="elem_DocumentStorage"><rect codeLine="2" fill="#F1F1F1" height="48" id="DocumentStorage" rx="2.5" ry="2.5" style="stroke:#181818;stroke-width:0.5;" width="144" x="691" y="331"/><ellipse cx="706" cy="347" fill="#B4A7E5" rx="11" ry="11" style="stroke:#181818;stroke-width:1.0;"/><path d="M701.9219,342.7656 L701.9219,340.6094 L709.3125,340.6094 L709.3125,342.7656 L706.8438,342.7656 L706.8438,350.8438 L709.3125,350.8438 L709.3125,353 L701.9219,353 L701.9219,350.8438 L704.3906,350.8438 L704.3906,342.7656 L701.9219,342.7656 Z " fill="#000000"/><text fill="#000000" font-family="sans-serif" font-size="14" font-style="italic" lengthAdjust="spacing" textLength="112" x="720" y="352.432">DocumentStorage</text><line style="stroke:#181818;stroke-width:0.5;" x1="692" x2="834" y1="363" y2="363"/><line style="stroke:#181818;stroke-width:0.5;" x1="692" x2="834" y1="371" y2="371"/></g><!--class DocumentSerializer--><g id="elem_DocumentSerializer"><rect codeLine="3" fill="#F1F1F1" height="48" id="DocumentSerializer" rx="2.5" ry="2.5" style="stroke:#181818;stroke-width:0.5;" width="154" x="1418" y="223"/><ellipse cx="1433" cy="239" fill="#B4A7E5" rx="11" ry="11" style="stroke:#181818;stroke-width:1.0;"/><path d="M1428.9219,234.7656 L1428.9219,232.6094 L1436.3125,232.6094 L1436.3125,234.7656 L1433.8438,234.7656 L1433.8438,242.8438 L1436.3125,242.8438 L1436.3125,245 L1428.9219,245 L1428.9219,242.8438 L1431.3906,242.8438 L1431.3906,234.7656 L1428.9219,234.7656 Z " fill="#000000"/><text fill="#000000" font-family="sans-serif" font-size="14" font-style="italic" lengthAdjust="spacing" textLength="122" x="1447" y="244.432">DocumentSerializer</text><line style="stroke:#181818;stroke-width:0.5;" x1="1419" x2="1571" y1="255" y2="255"/><line style="stroke:#181818;stroke-width:0.5;" x1="1419" x2="1571" y1="263" y2="263"/></g><!--class Editor--><g id="elem_Editor"><rect fill="#F1F1F1" height="48" id="Editor" rx="2.5" ry="2.5" style="stroke:#181818;stroke-width:0.5;" width="72" x="568" y="7"/><ellipse cx="583" cy="23" fill="#ADD1B2" rx="11" ry="11" style="stroke:#181818;stroke-width:1.0;"/><path d="M585.9688,28.6406 Q585.3906,28.9375 584.75,29.0781 Q584.1094,29.2344 583.4063,29.2344 Q580.9063,29.2344 579.5781,27.5938 Q578.2656,25.9375 578.2656,22.8125 Q578.2656,19.6875 579.5781,18.0313 Q580.9063,16.375 583.4063,16.375 Q584.1094,16.375 584.75,16.5313 Q585.4063,16.6875 585.9688,16.9844 L585.9688,19.7031 Q585.3438,19.125 584.75,18.8594 Q584.1563,18.5781 583.5313,18.5781 Q582.1875,18.5781 581.5,19.6563 Q580.8125,20.7188 580.8125,22.8125 Q580.8125,24.9063 581.5,25.9844 Q582.1875,27.0469 583.5313,27.0469 Q584.1563,27.0469 584.75,26.7813 Q585.3438,26.5 585.9688,25.9219 L585.9688,28.6406 Z " fill="#000000"/><text fill="#000000" font-family="sans-serif" font-size="14" lengthAdjust="spacing" textLength="40" x="597" y="28.432">Editor</text><line style="stroke:#181818;stroke-width:0.5;" x1="569" x2="639" y1="39" y2="39"/><line style="stroke:#181818;stroke-width:0.5;" x1="569" x2="639" y1="47" y2="47"/></g><!--class Document--><g id="elem_Document"><rect fill="#F1F1F1" height="48" id="Document" rx="2.5" ry="2.5" style="stroke:#181818;stroke-width:0.5;" width="101" x="1145.5" y="115"/><ellipse cx="1160.5" cy="131" fill="#ADD1B2" rx="11" ry="11" style="stroke:#181818;stroke-width:1.0;"/><path d="M1163.4688,136.6406 Q1162.8906,136.9375 1162.25,137.0781 Q1161.6094,137.2344 1160.9063,137.2344 Q1158.4063,137.2344 1157.0781,135.5938 Q1155.7656,133.9375 1155.7656,130.8125 Q1155.7656,127.6875 1157.0781,126.0313 Q1158.4063,124.375 1160.9063,124.375 Q1161.6094,124.375 1162.25,124.5313 Q1162.9063,124.6875 1163.4688,124.9844 L1163.4688,127.7031 Q1162.8438,127.125 1162.25,126.8594 Q1161.6563,126.5781 1161.0313,126.5781 Q1159.6875,126.5781 1159,127.6563 Q1158.3125,128.7188 1158.3125,130.8125 Q1158.3125,132.9063 1159,133.9844 Q1159.6875,135.0469 1161.0313,135.0469 Q1161.6563,135.0469 1162.25,134.7813 Q1162.8438,134.5 1163.4688,133.9219 L1163.4688,136.6406 Z " fill="#000000"/><text fill="#000000" font-family="sans-serif" font-size="14" lengthAdjust="spacing" textLength="69" x="1174.5" y="136.432">Document</text><line style="stroke:#181818;stroke-width:0.5;" x1="1146.5" x2="1245.5" y1="147" y2="147"/><line style="stroke:#181818;stroke-width:0.5;" x1="1146.5" x2="1245.5" y1="155" y2="155"/></g><!--class UserInterface--><g id="elem_UserInterface"><rect fill="#F1F1F1" height="48" id="UserInterface" rx="2.5" ry="2.5" style="stroke:#181818;stroke-width:0.5;" width="124" x="542" y="115"/><ellipse cx="557" cy="131" fill="#ADD1B2" rx="11" ry="11" style="stroke:#181818;stroke-width:1.0;"/><path d="M559.9688,136.6406 Q559.3906,136.9375 558.75,137.0781 Q558.1094,137.2344 557.4063,137.2344 Q554.9063,137.2344 553.5781,135.5938 Q552.2656,133.9375 552.2656,130.8125 Q552.2656,127.6875 553.5781,126.0313 Q554.9063,124.375 557.4063,124.375 Q558.1094,124.375 558.75,124.5313 Q559.4063,124.6875 559.9688,124.9844 L559.9688,127.7031 Q559.3438,127.125 558.75,126.8594 Q558.1563,126.5781 557.5313,126.5781 Q556.1875,126.5781 555.5,127.6563 Q554.8125,128.7188 554.8125,130.8125 Q554.8125,132.9063 555.5,133.9844 Q556.1875,135.0469 557.5313,135.0469 Q558.1563,135.0469 558.75,134.7813 Q559.3438,134.5 559.9688,133.9219 L559.9688,136.6406 Z " fill="#000000"/><text fill="#000000" font-family="sans-serif" font-size="14" lengthAdjust="spacing" textLength="92" x="571" y="136.432">UserInterface</text><line style="stroke:#181818;stroke-width:0.5;" x1="543" x2="665" y1="147" y2="147"/><line style="stroke:#181818;stroke-width:0.5;" x1="543" x2="665" y1="155" y2="155"/></g><!--class EditCommand--><g id="elem_EditCommand"><rect fill="#F1F1F1" height="48" id="EditCommand" rx="2.5" ry="2.5" style="stroke:#181818;stroke-width:0.5;" width="127" x="154.5" y="223"/><ellipse cx="169.5" cy="239" fill="#ADD1B2" rx="11" ry="11" style="stroke:#181818;stroke-width:1.0;"/><path d="M172.4688,244.6406 Q171.8906,244.9375 171.25,245.0781 Q170.6094,245.2344 169.9063,245.2344 Q167.4063,245.2344 166.0781,243.5938 Q164.7656,241.9375 164.7656,238.8125 Q164.7656,235.6875 166.0781,234.0313 Q167.4063,232.375 169.9063,232.375 Q170.6094,232.375 171.25,232.5313 Q171.9063,232.6875 172.4688,232.9844 L172.4688,235.7031 Q171.8438,235.125 171.25,234.8594 Q170.6563,234.5781 170.0313,234.5781 Q168.6875,234.5781 168,235.6563 Q167.3125,236.7188 167.3125,238.8125 Q167.3125,240.9063 168,241.9844 Q168.6875,243.0469 170.0313,243.0469 Q170.6563,243.0469 171.25,242.7813 Q171.8438,242.5 172.4688,241.9219 L172.4688,244.6406 Z " fill="#000000"/><text fill="#000000" font-family="sans-serif" font-size="14" lengthAdjust="spacing" textLength="95" x="183.5" y="244.432">EditCommand</text><line style="stroke:#181818;stroke-width:0.5;" x1="155.5" x2="280.5" y1="255" y2="255"/><line style="stroke:#181818;stroke-width:0.5;" x1="155.5" x2="280.5" y1="263" y2="263"/></g><!--class ExchangeCommand--><g id="elem_ExchangeCommand"><rect fill="#F1F1F1" height="48" id="ExchangeCommand" rx="2.5" ry="2.5" style="stroke:#181818;stroke-width:0.5;" width="166" x="317" y="223"/><ellipse cx="332" cy="239" fill="#ADD1B2" rx="11" ry="11" style="stroke:#181818;stroke-width:1.0;"/><path d="M334.9688,244.6406 Q334.3906,244.9375 333.75,245.0781 Q333.1094,245.2344 332.4063,245.2344 Q329.9063,245.2344 328.5781,243.5938 Q327.2656,241.9375 327.2656,238.8125 Q327.2656,235.6875 328.5781,234.0313 Q329.9063,232.375 332.4063,232.375 Q333.1094,232.375 333.75,232.5313 Q334.4063,232.6875 334.9688,232.9844 L334.9688,235.7031 Q334.3438,235.125 333.75,234.8594 Q333.1563,234.5781 332.5313,234.5781 Q331.1875,234.5781 330.5,235.6563 Q329.8125,236.7188 329.8125,238.8125 Q329.8125,240.9063 330.5,241.9844 Q331.1875,243.0469 332.5313,243.0469 Q333.1563,243.0469 333.75,242.7813 Q334.3438,242.5 334.9688,241.9219 L334.9688,244.6406 Z " fill="#000000"/><text fill="#000000" font-family="sans-serif" font-size="14" lengthAdjust="spacing" textLength="134" x="346" y="244.432">ExchangeCommand</text><line style="stroke:#181818;stroke-width:0.5;" x1="318" x2="482" y1="255" y2="255"/><line style="stroke:#181818;stroke-width:0.5;" x1="318" x2="482" y1="263" y2="263"/></g><!--class DeleteCommand--><g id="elem_DeleteCommand"><rect fill="#F1F1F1" height="48" id="DeleteCommand" rx="2.5" ry="2.5" style="stroke:#181818;stroke-width:0.5;" width="144" x="518" y="223"/><ellipse cx="533" cy="239" fill="#ADD1B2" rx="11" ry="11" style="stroke:#181818;stroke-width:1.0;"/><path d="M535.9688,244.6406 Q535.3906,244.9375 534.75,245.0781 Q534.1094,245.2344 533.4063,245.2344 Q530.9063,245.2344 529.5781,243.5938 Q528.2656,241.9375 528.2656,238.8125 Q528.2656,235.6875 529.5781,234.0313 Q530.9063,232.375 533.4063,232.375 Q534.1094,232.375 534.75,232.5313 Q535.4063,232.6875 535.9688,232.9844 L535.9688,235.7031 Q535.3438,235.125 534.75,234.8594 Q534.1563,234.5781 533.5313,234.5781 Q532.1875,234.5781 531.5,235.6563 Q530.8125,236.7188 530.8125,238.8125 Q530.8125,240.9063 531.5,241.9844 Q532.1875,243.0469 533.5313,243.0469 Q534.1563,243.0469 534.75,242.7813 Q535.3438,242.5 535.9688,241.9219 L535.9688,244.6406 Z " fill="#000000"/><text fill="#000000" font-family="sans-serif" font-size="14" lengthAdjust="spacing" textLength="112" x="547" y="244.432">DeleteCommand</text><line style="stroke:#181818;stroke-width:0.5;" x1="519" x2="661" y1="255" y2="255"/><line style="stroke:#181818;stroke-width:0.5;" x1="519" x2="661" y1="263" y2="263"/></g><!--class SetActiveLineCommand--><g id="elem_SetActiveLineCommand"><rect fill="#F1F1F1" height="48" id="SetActiveLineCommand" rx="2.5" ry="2.5" style="stroke:#181818;stroke-width:0.5;" width="190" x="864" y="223"/><ellipse cx="879" cy="239" fill="#ADD1B2" rx="11" ry="11" style="stroke:#181818;stroke-width:1.0;"/><path d="M881.9688,244.6406 Q881.3906,244.9375 880.75,245.0781 Q880.1094,245.2344 879.4063,245.2344 Q876.9063,245.2344 875.5781,243.5938 Q874.2656,241.9375 874.2656,238.8125 Q874.2656,235.6875 875.5781,234.0313 Q876.9063,232.375 879.4063,232.375 Q880.1094,232.375 880.75,232.5313 Q881.4063,232.6875 881.9688,232.9844 L881.9688,235.7031 Q881.3438,235.125 880.75,234.8594 Q880.1563,234.5781 879.5313,234.5781 Q878.1875,234.5781 877.5,235.6563 Q876.8125,236.7188 876.8125,238.8125 Q876.8125,240.9063 877.5,241.9844 Q878.1875,243.0469 879.5313,243.0469 Q880.1563,243.0469 880.75,242.7813 Q881.3438,242.5 881.9688,241.9219 L881.9688,244.6406 Z " fill="#000000"/><text fill="#000000" font-family="sans-serif" font-size="14" lengthAdjust="spacing" textLength="158" x="893" y="244.432">SetActiveLineCommand</text><line style="stroke:#181818;stroke-width:0.5;" x1="865" x2="1053" y1="255" y2="255"/><line style="stroke:#181818;stroke-width:0.5;" x1="865" x2="1053" y1="263" y2="263"/></g><!--class ExitCommand--><g id="elem_ExitCommand"><rect fill="#F1F1F1" height="48" id="ExitCommand" rx="2.5" ry="2.5" style="stroke:#181818;stroke-width:0.5;" width="125" x="1257.5" y="223"/><ellipse cx="1272.5" cy="239" fill="#ADD1B2" rx="11" ry="11" style="stroke:#181818;stroke-width:1.0;"/><path d="M1275.4688,244.6406 Q1274.8906,244.9375 1274.25,245.0781 Q1273.6094,245.2344 1272.9063,245.2344 Q1270.4063,245.2344 1269.0781,243.5938 Q1267.7656,241.9375 1267.7656,238.8125 Q1267.7656,235.6875 1269.0781,234.0313 Q1270.4063,232.375 1272.9063,232.375 Q1273.6094,232.375 1274.25,232.5313 Q1274.9063,232.6875 1275.4688,232.9844 L1275.4688,235.7031 Q1274.8438,235.125 1274.25,234.8594 Q1273.6563,234.5781 1273.0313,234.5781 Q1271.6875,234.5781 1271,235.6563 Q1270.3125,236.7188 1270.3125,238.8125 Q1270.3125,240.9063 1271,241.9844 Q1271.6875,243.0469 1273.0313,243.0469 Q1273.6563,243.0469 1274.25,242.7813 Q1274.8438,242.5 1275.4688,241.9219 L1275.4688,244.6406 Z " fill="#000000"/><text fill="#000000" font-family="sans-serif" font-size="14" lengthAdjust="spacing" textLength="93" x="1286.5" y="244.432">ExitCommand</text><line style="stroke:#181818;stroke-width:0.5;" x1="1258.5" x2="1381.5" y1="255" y2="255"/><line style="stroke:#181818;stroke-width:0.5;" x1="1258.5" x2="1381.5" y1="263" y2="263"/></g><!--class SaveCommand--><g id="elem_SaveCommand"><rect fill="#F1F1F1" height="48" id="SaveCommand" rx="2.5" ry="2.5" style="stroke:#181818;stroke-width:0.5;" width="132" x="697" y="223"/><ellipse cx="712" cy="239" fill="#ADD1B2" rx="11" ry="11" style="stroke:#181818;stroke-width:1.0;"/><path d="M714.9688,244.6406 Q714.3906,244.9375 713.75,245.0781 Q713.1094,245.2344 712.4063,245.2344 Q709.9063,245.2344 708.5781,243.5938 Q707.2656,241.9375 707.2656,238.8125 Q707.2656,235.6875 708.5781,234.0313 Q709.9063,232.375 712.4063,232.375 Q713.1094,232.375 713.75,232.5313 Q714.4063,232.6875 714.9688,232.9844 L714.9688,235.7031 Q714.3438,235.125 713.75,234.8594 Q713.1563,234.5781 712.5313,234.5781 Q711.1875,234.5781 710.5,235.6563 Q709.8125,236.7188 709.8125,238.8125 Q709.8125,240.9063 710.5,241.9844 Q711.1875,243.0469 712.5313,243.0469 Q713.1563,243.0469 713.75,242.7813 Q714.3438,242.5 714.9688,241.9219 L714.9688,244.6406 Z " fill="#000000"/><text fill="#000000" font-family="sans-serif" font-size="14" lengthAdjust="spacing" textLength="100" x="726" y="244.432">SaveCommand</text><line style="stroke:#181818;stroke-width:0.5;" x1="698" x2="828" y1="255" y2="255"/><line style="stroke:#181818;stroke-width:0.5;" x1="698" x2="828" y1="263" y2="263"/></g><!--class LoadCommand--><g id="elem_LoadCommand"><rect fill="#F1F1F1" height="48" id="LoadCommand" rx="2.5" ry="2.5" style="stroke:#181818;stroke-width:0.5;" width="133" x="1089.5" y="223"/><ellipse cx="1104.5" cy="239" fill="#ADD1B2" rx="11" ry="11" style="stroke:#181818;stroke-width:1.0;"/><path d="M1107.4688,244.6406 Q1106.8906,244.9375 1106.25,245.0781 Q1105.6094,245.2344 1104.9063,245.2344 Q1102.4063,245.2344 1101.0781,243.5938 Q1099.7656,241.9375 1099.7656,238.8125 Q1099.7656,235.6875 1101.0781,234.0313 Q1102.4063,232.375 1104.9063,232.375 Q1105.6094,232.375 1106.25,232.5313 Q1106.9063,232.6875 1107.4688,232.9844 L1107.4688,235.7031 Q1106.8438,235.125 1106.25,234.8594 Q1105.6563,234.5781 1105.0313,234.5781 Q1103.6875,234.5781 1103,235.6563 Q1102.3125,236.7188 1102.3125,238.8125 Q1102.3125,240.9063 1103,241.9844 Q1103.6875,243.0469 1105.0313,243.0469 Q1105.6563,243.0469 1106.25,242.7813 Q1106.8438,242.5 1107.4688,241.9219 L1107.4688,244.6406 Z " fill="#000000"/><text fill="#000000" font-family="sans-serif" font-size="14" lengthAdjust="spacing" textLength="101" x="1118.5" y="244.432">LoadCommand</text><line style="stroke:#181818;stroke-width:0.5;" x1="1090.5" x2="1221.5" y1="255" y2="255"/><line style="stroke:#181818;stroke-width:0.5;" x1="1090.5" x2="1221.5" y1="263" y2="263"/></g><!--class FileManagerAdapter--><g id="elem_FileManagerAdapter"><rect fill="#F1F1F1" height="48" id="FileManagerAdapter" rx="2.5" ry="2.5" style="stroke:#181818;stroke-width:0.5;" width="170" x="678" y="439"/><ellipse cx="693" cy="455" fill="#ADD1B2" rx="11" ry="11" style="stroke:#181818;stroke-width:1.0;"/><path d="M695.9688,460.6406 Q695.3906,460.9375 694.75,461.0781 Q694.1094,461.2344 693.4063,461.2344 Q690.9063,461.2344 689.5781,459.5938 Q688.2656,457.9375 688.2656,454.8125 Q688.2656,451.6875 689.5781,450.0313 Q690.9063,448.375 693.4063,448.375 Q694.1094,448.375 694.75,448.5313 Q695.4063,448.6875 695.9688,448.9844 L695.9688,451.7031 Q695.3438,451.125 694.75,450.8594 Q694.1563,450.5781 693.5313,450.5781 Q692.1875,450.5781 691.5,451.6563 Q690.8125,452.7188 690.8125,454.8125 Q690.8125,456.9063 691.5,457.9844 Q692.1875,459.0469 693.5313,459.0469 Q694.1563,459.0469 694.75,458.7813 Q695.3438,458.5 695.9688,457.9219 L695.9688,460.6406 Z " fill="#000000"/><text fill="#000000" font-family="sans-serif" font-size="14" lengthAdjust="spacing" textLength="138" x="707" y="460.432">FileManagerAdapter</text><line style="stroke:#181818;stroke-width:0.5;" x1="679" x2="847" y1="471" y2="471"/><line style="stroke:#181818;stroke-width:0.5;" x1="679" x2="847" y1="479" y2="479"/></g><!--class SimpleSerializer--><g id="elem_SimpleSerializer"><rect fill="#F1F1F1" height="48" id="SimpleSerializer" rx="2.5" ry="2.5" style="stroke:#181818;stroke-width:0.5;" width="141" x="1424.5" y="331"/><ellipse cx="1439.5" cy="347" fill="#ADD1B2" rx="11" ry="11" style="stroke:#181818;stroke-width:1.0;"/><path d="M1442.4688,352.6406 Q1441.8906,352.9375 1441.25,353.0781 Q1440.6094,353.2344 1439.9063,353.2344 Q1437.4063,353.2344 1436.0781,351.5938 Q1434.7656,349.9375 1434.7656,346.8125 Q1434.7656,343.6875 1436.0781,342.0313 Q1437.4063,340.375 1439.9063,340.375 Q1440.6094,340.375 1441.25,340.5313 Q1441.9063,340.6875 1442.4688,340.9844 L1442.4688,343.7031 Q1441.8438,343.125 1441.25,342.8594 Q1440.6563,342.5781 1440.0313,342.5781 Q1438.6875,342.5781 1438,343.6563 Q1437.3125,344.7188 1437.3125,346.8125 Q1437.3125,348.9063 1438,349.9844 Q1438.6875,351.0469 1440.0313,351.0469 Q1440.6563,351.0469 1441.25,350.7813 Q1441.8438,350.5 1442.4688,349.9219 L1442.4688,352.6406 Z " fill="#000000"/><text fill="#000000" font-family="sans-serif" font-size="14" lengthAdjust="spacing" textLength="109" x="1453.5" y="352.432">SimpleSerializer</text><line style="stroke:#181818;stroke-width:0.5;" x1="1425.5" x2="1564.5" y1="363" y2="363"/><line style="stroke:#181818;stroke-width:0.5;" x1="1425.5" x2="1564.5" y1="371" y2="371"/></g><!--class FileManager--><g id="elem_FileManager"><rect fill="#F1F1F1" height="48" id="FileManager" rx="2.5" ry="2.5" style="stroke:#181818;stroke-width:0.5;" width="116" x="705" y="547"/><ellipse cx="720" cy="563" fill="#ADD1B2" rx="11" ry="11" style="stroke:#181818;stroke-width:1.0;"/><path d="M722.9688,568.6406 Q722.3906,568.9375 721.75,569.0781 Q721.1094,569.2344 720.4063,569.2344 Q717.9063,569.2344 716.5781,567.5938 Q715.2656,565.9375 715.2656,562.8125 Q715.2656,559.6875 716.5781,558.0313 Q717.9063,556.375 720.4063,556.375 Q721.1094,556.375 721.75,556.5313 Q722.4063,556.6875 722.9688,556.9844 L722.9688,559.7031 Q722.3438,559.125 721.75,558.8594 Q721.1563,558.5781 720.5313,558.5781 Q719.1875,558.5781 718.5,559.6563 Q717.8125,560.7188 717.8125,562.8125 Q717.8125,564.9063 718.5,565.9844 Q719.1875,567.0469 720.5313,567.0469 Q721.1563,567.0469 721.75,566.7813 Q722.3438,566.5 722.9688,565.9219 L722.9688,568.6406 Z " fill="#000000"/><text fill="#000000" font-family="sans-serif" font-size="14" lengthAdjust="spacing" textLength="84" x="734" y="568.432">FileManager</text><line style="stroke:#181818;stroke-width:0.5;" x1="706" x2="820" y1="579" y2="579"/><line style="stroke:#181818;stroke-width:0.5;" x1="706" x2="820" y1="587" y2="587"/></g><!--link Editor to Document--><g id="link_Editor_Document"><path codeLine="5" d="M640.14,38.47 C741.43,56.61 1022.394,106.9123 1139.434,127.8723 " fill="none" id="Editor-to-Document" style="stroke:#181818;stroke-width:1.0;"/><polygon fill="#181818" points="1145.34,128.93,1137.1861,123.4061,1140.4183,128.0486,1135.7758,131.2808,1145.34,128.93" style="stroke:#181818;stroke-width:1.0;"/></g><!--link Editor to UserInterface--><g id="link_Editor_UserInterface"><path codeLine="6" d="M604,55 C604,72.66 604,90.94 604,108.68 " fill="none" id="Editor-to-UserInterface" style="stroke:#181818;stroke-width:1.0;"/><polygon fill="#181818" points="604,114.68,608,105.68,604,109.68,600,105.68,604,114.68" style="stroke:#181818;stroke-width:1.0;"/></g><!--link Editor to DocumentStorage--><g id="link_Editor_DocumentStorage"><path codeLine="7" d="M567.98,36.31 C437.79,53.2 6,121.49 137,271 C173.08,312.18 527.9923,339.2456 684.8523,349.3156 " fill="none" id="Editor-to-DocumentStorage" style="stroke:#181818;stroke-width:1.0;"/><polygon fill="#181818" points="690.84,349.7,682.1148,345.1316,685.8503,349.3797,681.6022,353.1152,690.84,349.7" style="stroke:#181818;stroke-width:1.0;"/></g><!--link Document to DocumentSerializer--><g id="link_Document_DocumentSerializer"><path codeLine="8" d="M1246.72,157.98 C1297.2,175.88 1369.2348,201.4153 1424.2448,220.9153 " fill="none" id="Document-to-DocumentSerializer" style="stroke:#181818;stroke-width:1.0;"/><polygon fill="#181818" points="1429.9,222.92,1422.7536,216.1429,1425.1873,221.2494,1420.0808,223.6831,1429.9,222.92" style="stroke:#181818;stroke-width:1.0;"/></g><!--reverse link Command to EditCommand--><g id="link_Command_EditCommand"><path codeLine="9" d="M697.2694,159.8333 C686.8994,162.7433 693.3,160.72 683,163 C514.33,200.27 467.73,186.01 299,223 C293.43,224.22 287.68,225.6 281.93,227.07 " fill="none" id="Command-backto-EditCommand" style="stroke:#181818;stroke-width:1.0;stroke-dasharray:7.0,7.0;"/><polygon fill="none" points="714.6,154.97,695.6483,154.0564,698.8905,165.6101,714.6,154.97" style="stroke:#181818;stroke-width:1.0;"/></g><!--reverse link Command to ExchangeCommand--><g id="link_Command_ExchangeCommand"><path codeLine="10" d="M697.5116,159.1254 C637.3416,176.6954 550.89,201.94 479.03,222.92 " fill="none" id="Command-backto-ExchangeCommand" style="stroke:#181818;stroke-width:1.0;stroke-dasharray:7.0,7.0;"/><polygon fill="none" points="714.79,154.08,695.8298,153.3659,699.1934,164.8849,714.79,154.08" style="stroke:#181818;stroke-width:1.0;"/></g><!--reverse link Command to DeleteCommand--><g id="link_Command_DeleteCommand"><path codeLine="11" d="M710.112,172.4041 C681.192,190.1241 656.74,205.11 627.76,222.86 " fill="none" id="Command-backto-DeleteCommand" style="stroke:#181818;stroke-width:1.0;stroke-dasharray:7.0,7.0;"/><polygon fill="none" points="725.46,163,706.9772,167.2881,713.2467,177.5201,725.46,163" style="stroke:#181818;stroke-width:1.0;"/></g><!--reverse link Command to SetActiveLineCommand--><g id="link_Command_SetActiveLineCommand"><path codeLine="12" d="M821.3623,171.5638 C854.1223,189.2838 883.39,205.11 916.21,222.86 " fill="none" id="Command-backto-SetActiveLineCommand" style="stroke:#181818;stroke-width:1.0;stroke-dasharray:7.0,7.0;"/><polygon fill="none" points="805.53,163,818.5077,176.8412,824.2169,166.2863,805.53,163" style="stroke:#181818;stroke-width:1.0;"/></g><!--reverse link Command to ExitCommand--><g id="link_Command_ExitCommand"><path codeLine="13" d="M828.891,149.1423 C915.311,161.4223 1084.56,187.24 1240,223 C1245.63,224.3 1251.46,225.75 1257.28,227.28 " fill="none" id="Command-backto-ExitCommand" style="stroke:#181818;stroke-width:1.0;stroke-dasharray:7.0,7.0;"/><polygon fill="none" points="811.07,146.61,828.0469,155.0826,829.7351,143.202,811.07,146.61" style="stroke:#181818;stroke-width:1.0;"/></g><!--reverse link Command to SaveCommand--><g id="link_Command_SaveCommand"><path codeLine="14" d="M763,181 C763,198.66 763,204.94 763,222.68 " fill="none" id="Command-backto-SaveCommand" style="stroke:#181818;stroke-width:1.0;stroke-dasharray:7.0,7.0;"/><polygon fill="none" points="763,163,757,181,769,181,763,163" style="stroke:#181818;stroke-width:1.0;"/></g><!--reverse link Command to LoadCommand--><g id="link_Command_LoadCommand"><path codeLine="15" d="M828.5798,157.517 C889.3898,173.767 979.79,197.99 1072,223 C1077.54,224.5 1083.29,226.07 1089.06,227.64 " fill="none" id="Command-backto-LoadCommand" style="stroke:#181818;stroke-width:1.0;stroke-dasharray:7.0,7.0;"/><polygon fill="none" points="811.19,152.87,827.0308,163.3136,830.1288,151.7204,811.19,152.87" style="stroke:#181818;stroke-width:1.0;"/></g><!--reverse link DocumentStorage to FileManagerAdapter--><g id="link_DocumentStorage_FileManagerAdapter"><path codeLine="16" d="M763,397 C763,414.66 763,420.94 763,438.68 " fill="none" id="DocumentStorage-backto-FileManagerAdapter" style="stroke:#181818;stroke-width:1.0;stroke-dasharray:7.0,7.0;"/><polygon fill="none" points="763,379,757,397,769,397,763,379" style="stroke:#181818;stroke-width:1.0;"/></g><!--reverse link DocumentSerializer to SimpleSerializer--><g id="link_DocumentSerializer_SimpleSerializer"><path codeLine="17" d="M1495,289 C1495,306.66 1495,312.94 1495,330.68 " fill="none" id="DocumentSerializer-backto-SimpleSerializer" style="stroke:#181818;stroke-width:1.0;stroke-dasharray:7.0,7.0;"/><polygon fill="none" points="1495,271,1489,289,1501,289,1495,271" style="stroke:#181818;stroke-width:1.0;"/></g><!--link FileManagerAdapter to FileManager--><g id="link_FileManagerAdapter_FileManager"><path codeLine="18" d="M763,487 C763,504.66 763,522.94 763,540.68 " fill="none" id="FileManagerAdapter-to-FileManager" style="stroke:#181818;stroke-width:1.0;"/><polygon fill="#181818" points="763,546.68,767,537.68,763,541.68,759,537.68,763,546.68" style="stroke:#181818;stroke-width:1.0;"/></g><!--reverse link UserInterface to EditCommand--><g id="link_UserInterface_EditCommand"><path codeLine="19" d="M535.9366,158.2911 C474.2566,174.9111 382.93,199.66 299,223 C293.36,224.57 287.51,226.2 281.65,227.85 " fill="none" id="UserInterface-backto-EditCommand" style="stroke:#181818;stroke-width:1.0;"/><polygon fill="#181818" points="541.73,156.73,531.9992,155.2093,536.9022,158.0309,534.0807,162.9338,541.73,156.73" style="stroke:#181818;stroke-width:1.0;"/></g><!--reverse link UserInterface to ExchangeCommand--><g id="link_UserInterface_ExchangeCommand"><path codeLine="20" d="M554.4059,165.7666 C520.3059,183.4866 478.7,205.11 444.53,222.86 " fill="none" id="UserInterface-backto-ExchangeCommand" style="stroke:#181818;stroke-width:1.0;"/><polygon fill="#181818" points="559.73,163,549.8995,163.6006,555.2933,165.3055,553.5883,170.6993,559.73,163" style="stroke:#181818;stroke-width:1.0;"/></g><!--reverse link UserInterface to DeleteCommand--><g id="link_UserInterface_DeleteCommand"><path codeLine="21" d="M600.1752,168.9485 C597.8452,186.6085 595.42,204.94 593.08,222.68 " fill="none" id="UserInterface-backto-DeleteCommand" style="stroke:#181818;stroke-width:1.0;"/><polygon fill="#181818" points="600.96,163,595.8171,171.3995,600.306,167.957,603.7484,172.4459,600.96,163" style="stroke:#181818;stroke-width:1.0;"/></g><!--reverse link UserInterface to SetActiveLineCommand--><g id="link_UserInterface_SetActiveLineCommand"><path codeLine="22" d="M671.9892,160.3066 C732.0392,178.2366 817.36,203.71 881.96,223 " fill="none" id="UserInterface-backto-SetActiveLineCommand" style="stroke:#181818;stroke-width:1.0;"/><polygon fill="#181818" points="666.24,158.59,673.7194,164.9977,671.031,160.0205,676.0082,157.3321,666.24,158.59" style="stroke:#181818;stroke-width:1.0;"/></g><!--reverse link UserInterface to SaveCommand--><g id="link_UserInterface_SaveCommand"><path codeLine="23" d="M643.4923,166.3282 C670.0723,184.0482 701.66,205.11 728.29,222.86 " fill="none" id="UserInterface-backto-SaveCommand" style="stroke:#181818;stroke-width:1.0;"/><polygon fill="#181818" points="638.5,163,643.7697,171.3205,642.6603,165.7735,648.2073,164.6641,638.5,163" style="stroke:#181818;stroke-width:1.0;"/></g><!--link SaveCommand to DocumentStorage--><g id="link_SaveCommand_DocumentStorage"><path codeLine="24" d="M763,271 C763,288.66 763,306.94 763,324.68 " fill="none" id="SaveCommand-to-DocumentStorage" style="stroke:#181818;stroke-width:1.0;"/><polygon fill="#181818" points="763,330.68,767,321.68,763,325.68,759,321.68,763,330.68" style="stroke:#181818;stroke-width:1.0;"/></g><!--reverse link UserInterface to LoadCommand--><g id="link_UserInterface_LoadCommand"><path codeLine="25" d="M671.9565,157.521 C682.2365,159.971 686.97,160.96 697,163 C862.4,196.62 907.02,187.33 1072,223 C1077.61,224.21 1083.41,225.57 1089.22,227.01 " fill="none" id="UserInterface-backto-LoadCommand" style="stroke:#181818;stroke-width:1.0;"/><polygon fill="#181818" points="666.12,156.13,673.9475,162.1075,670.9838,157.2892,675.8021,154.3255,666.12,156.13" style="stroke:#181818;stroke-width:1.0;"/></g><!--link LoadCommand to DocumentStorage--><g id="link_LoadCommand_DocumentStorage"><path codeLine="26" d="M1089.06,266.36 C1083.29,267.93 1077.54,269.5 1072,271 C990.91,292.99 903.5761,316.4192 840.9361,333.1792 " fill="none" id="LoadCommand-to-DocumentStorage" style="stroke:#181818;stroke-width:1.0;"/><polygon fill="#181818" points="835.14,334.73,844.8681,336.2679,839.9701,333.4377,842.8003,328.5397,835.14,334.73" style="stroke:#181818;stroke-width:1.0;"/></g><!--SRC=[XP9H3e8m38RVTufT04vWJ8XeOe9Fn0Cqh68J66GEOeo75vN19YK-hj_VTlk0j4LpWGBbhgbhq4hGL4cRegjHszms1aha21g2YXveXDWh6d8oKj5sua7nV4DpT2FOk5lapZBouRnhlAhSFEDOlWUvkuVWNbn1byZ252kqFChH9eMb7ZFIk39vPMKEFT-HDQ0S-7djDt2W2a-WXxD95BI39R5y-BY4whP2JyUozoFEAmjFaeowvSS8LN6HG1WNuBInkTdHNypy6vv9hZt0o_ON]--></g></svg>