<?xml version="1.0" encoding="us-ascii" standalone="no"?><svg xmlns="http://www.w3.org/2000/svg" xmlns:xlink="http://www.w3.org/1999/xlink" contentStyleType="text/css" height="545px" preserveAspectRatio="none" style="width:1239px;height:545px;background:#FFFFFF;" version="1.1" viewBox="0 0 1239 545" width="1239px" zoomAndPan="magnify"><defs/><g><!--class Editor--><g id="elem_Editor"><rect codeLine="1" fill="#F1F1F1" height="143.3396" id="Editor" rx="2.5" ry="2.5" style="stroke:#181818;stroke-width:0.5;" width="217" x="266" y="7"/><ellipse cx="350.25" cy="23" fill="#ADD1B2" rx="11" ry="11" style="stroke:#181818;stroke-width:1.0;"/><path d="M353.2188,28.6406 Q352.6406,28.9375 352,29.0781 Q351.3594,29.2344 350.6563,29.2344 Q348.1563,29.2344 346.8281,27.5938 Q345.5156,25.9375 345.5156,22.8125 Q345.5156,19.6875 346.8281,18.0313 Q348.1563,16.375 350.6563,16.375 Q351.3594,16.375 352,16.5313 Q352.6563,16.6875 353.2188,16.9844 L353.2188,19.7031 Q352.5938,19.125 352,18.8594 Q351.4063,18.5781 350.7813,18.5781 Q349.4375,18.5781 348.75,19.6563 Q348.0625,20.7188 348.0625,22.8125 Q348.0625,24.9063 348.75,25.9844 Q349.4375,27.0469 350.7813,27.0469 Q351.4063,27.0469 352,26.7813 Q352.5938,26.5 353.2188,25.9219 L353.2188,28.6406 Z " fill="#000000"/><text fill="#000000" font-family="sans-serif" font-size="14" lengthAdjust="spacing" textLength="40" x="370.75" y="28.432">Editor</text><line style="stroke:#181818;stroke-width:0.5;" x1="267" x2="482" y1="39" y2="39"/><rect fill="none" height="6" style="stroke:#C82930;stroke-width:1.0;" width="6" x="274" y="51.034"/><text fill="#000000" font-family="sans-serif" font-size="14" lengthAdjust="spacing" textLength="141" x="286" y="57.9659">Document document</text><rect fill="none" height="6" style="stroke:#C82930;stroke-width:1.0;" width="6" x="274" y="70.1019"/><text fill="#000000" font-family="sans-serif" font-size="14" lengthAdjust="spacing" textLength="109" x="286" y="77.0339">UserInterface ui</text><line style="stroke:#181818;stroke-width:0.5;" x1="267" x2="482" y1="85.1358" y2="85.1358"/><ellipse cx="277" cy="100.1698" fill="#84BE84" rx="3" ry="3" style="stroke:#038048;stroke-width:1.0;"/><text fill="#000000" font-family="sans-serif" font-size="14" lengthAdjust="spacing" textLength="48" x="286" y="104.1018">Editor()</text><ellipse cx="277" cy="119.2377" fill="#84BE84" rx="3" ry="3" style="stroke:#038048;stroke-width:1.0;"/><text fill="#000000" font-family="sans-serif" font-size="14" lengthAdjust="spacing" textLength="32" x="286" y="123.1697">run()</text><rect fill="#F24D5C" height="6" style="stroke:#C82930;stroke-width:1.0;" width="6" x="274" y="135.3056"/><text fill="#000000" font-family="sans-serif" font-size="14" lengthAdjust="spacing" textLength="191" x="286" y="142.2376">processCommand(): boolean</text></g><!--class Document--><g id="elem_Document"><rect codeLine="9" fill="#F1F1F1" height="200.5433" id="Document" rx="2.5" ry="2.5" style="stroke:#181818;stroke-width:0.5;" width="159" x="79" y="210"/><ellipse cx="120.1" cy="226" fill="#ADD1B2" rx="11" ry="11" style="stroke:#181818;stroke-width:1.0;"/><path d="M123.0688,231.6406 Q122.4906,231.9375 121.85,232.0781 Q121.2094,232.2344 120.5063,232.2344 Q118.0063,232.2344 116.6781,230.5938 Q115.3656,228.9375 115.3656,225.8125 Q115.3656,222.6875 116.6781,221.0313 Q118.0063,219.375 120.5063,219.375 Q121.2094,219.375 121.85,219.5313 Q122.5063,219.6875 123.0688,219.9844 L123.0688,222.7031 Q122.4438,222.125 121.85,221.8594 Q121.2563,221.5781 120.6313,221.5781 Q119.2875,221.5781 118.6,222.6563 Q117.9125,223.7188 117.9125,225.8125 Q117.9125,227.9063 118.6,228.9844 Q119.2875,230.0469 120.6313,230.0469 Q121.2563,230.0469 121.85,229.7813 Q122.4438,229.5 123.0688,228.9219 L123.0688,231.6406 Z " fill="#000000"/><text fill="#000000" font-family="sans-serif" font-size="14" lengthAdjust="spacing" textLength="69" x="139.9" y="231.432">Document</text><line style="stroke:#181818;stroke-width:0.5;" x1="80" x2="237" y1="242" y2="242"/><rect fill="none" height="6" style="stroke:#C82930;stroke-width:1.0;" width="6" x="87" y="254.034"/><text fill="#000000" font-family="sans-serif" font-size="14" lengthAdjust="spacing" textLength="87" x="99" y="260.9659">String[] lines</text><rect fill="none" height="6" style="stroke:#C82930;stroke-width:1.0;" width="6" x="87" y="273.1019"/><text fill="#000000" font-family="sans-serif" font-size="14" lengthAdjust="spacing" textLength="89" x="99" y="280.0339">int activeLine</text><line style="stroke:#181818;stroke-width:0.5;" x1="80" x2="237" y1="288.1358" y2="288.1358"/><ellipse cx="90" cy="303.1698" fill="#84BE84" rx="3" ry="3" style="stroke:#038048;stroke-width:1.0;"/><text fill="#000000" font-family="sans-serif" font-size="14" lengthAdjust="spacing" textLength="77" x="99" y="307.1018">Document()</text><ellipse cx="90" cy="322.2377" fill="#84BE84" rx="3" ry="3" style="stroke:#038048;stroke-width:1.0;"/><text fill="#000000" font-family="sans-serif" font-size="14" lengthAdjust="spacing" textLength="125" x="99" y="326.1697">getLine(int): String</text><ellipse cx="90" cy="341.3056" fill="#84BE84" rx="3" ry="3" style="stroke:#038048;stroke-width:1.0;"/><text fill="#000000" font-family="sans-serif" font-size="14" lengthAdjust="spacing" textLength="123" x="99" y="345.2376">setLine(int, String)</text><ellipse cx="90" cy="360.3735" fill="#84BE84" rx="3" ry="3" style="stroke:#038048;stroke-width:1.0;"/><text fill="#000000" font-family="sans-serif" font-size="14" lengthAdjust="spacing" textLength="124" x="99" y="364.3055">getActiveLine(): int</text><ellipse cx="90" cy="379.4415" fill="#84BE84" rx="3" ry="3" style="stroke:#038048;stroke-width:1.0;"/><text fill="#000000" font-family="sans-serif" font-size="14" lengthAdjust="spacing" textLength="114" x="99" y="383.3734">setActiveLine(int)</text><ellipse cx="90" cy="398.5094" fill="#84BE84" rx="3" ry="3" style="stroke:#038048;stroke-width:1.0;"/><text fill="#000000" font-family="sans-serif" font-size="14" lengthAdjust="spacing" textLength="133" x="99" y="402.4414">print(UserInterface)</text></g><!--class UserInterface--><g id="elem_UserInterface"><rect codeLine="20" fill="#F1F1F1" height="181.4754" id="UserInterface" rx="2.5" ry="2.5" style="stroke:#181818;stroke-width:0.5;" width="202" x="273.5" y="220"/><ellipse cx="324.25" cy="236" fill="#ADD1B2" rx="11" ry="11" style="stroke:#181818;stroke-width:1.0;"/><path d="M327.2188,241.6406 Q326.6406,241.9375 326,242.0781 Q325.3594,242.2344 324.6563,242.2344 Q322.1563,242.2344 320.8281,240.5938 Q319.5156,238.9375 319.5156,235.8125 Q319.5156,232.6875 320.8281,231.0313 Q322.1563,229.375 324.6563,229.375 Q325.3594,229.375 326,229.5313 Q326.6563,229.6875 327.2188,229.9844 L327.2188,232.7031 Q326.5938,232.125 326,231.8594 Q325.4063,231.5781 324.7813,231.5781 Q323.4375,231.5781 322.75,232.6563 Q322.0625,233.7188 322.0625,235.8125 Q322.0625,237.9063 322.75,238.9844 Q323.4375,240.0469 324.7813,240.0469 Q325.4063,240.0469 326,239.7813 Q326.5938,239.5 327.2188,238.9219 L327.2188,241.6406 Z " fill="#000000"/><text fill="#000000" font-family="sans-serif" font-size="14" lengthAdjust="spacing" textLength="92" x="344.75" y="241.432">UserInterface</text><line style="stroke:#181818;stroke-width:0.5;" x1="274.5" x2="474.5" y1="252" y2="252"/><rect fill="none" height="6" style="stroke:#C82930;stroke-width:1.0;" width="6" x="281.5" y="264.034"/><text fill="#000000" font-family="sans-serif" font-size="14" lengthAdjust="spacing" textLength="113" x="293.5" y="270.9659">Scanner scanner</text><line style="stroke:#181818;stroke-width:0.5;" x1="274.5" x2="474.5" y1="279.0679" y2="279.0679"/><ellipse cx="284.5" cy="294.1019" fill="#84BE84" rx="3" ry="3" style="stroke:#038048;stroke-width:1.0;"/><text fill="#000000" font-family="sans-serif" font-size="14" lengthAdjust="spacing" textLength="100" x="293.5" y="298.0339">UserInterface()</text><ellipse cx="284.5" cy="313.1698" fill="#84BE84" rx="3" ry="3" style="stroke:#038048;stroke-width:1.0;"/><text fill="#000000" font-family="sans-serif" font-size="14" lengthAdjust="spacing" textLength="147" x="293.5" y="317.1018">showLines(Document)</text><ellipse cx="284.5" cy="332.2377" fill="#84BE84" rx="3" ry="3" style="stroke:#038048;stroke-width:1.0;"/><text fill="#000000" font-family="sans-serif" font-size="14" lengthAdjust="spacing" textLength="176" x="293.5" y="336.1697">getCommand(): Command</text><ellipse cx="284.5" cy="351.3056" fill="#84BE84" rx="3" ry="3" style="stroke:#038048;stroke-width:1.0;"/><text fill="#000000" font-family="sans-serif" font-size="14" lengthAdjust="spacing" textLength="84" x="293.5" y="355.2376">readInt(): int</text><ellipse cx="284.5" cy="370.3735" fill="#84BE84" rx="3" ry="3" style="stroke:#038048;stroke-width:1.0;"/><text fill="#000000" font-family="sans-serif" font-size="14" lengthAdjust="spacing" textLength="129" x="293.5" y="374.3055">readString(): String</text><ellipse cx="284.5" cy="389.4415" fill="#84BE84" rx="3" ry="3" style="stroke:#038048;stroke-width:1.0;"/><text fill="#000000" font-family="sans-serif" font-size="14" lengthAdjust="spacing" textLength="87" x="293.5" y="393.3734">clearScreen()</text></g><!--class Command--><g id="elem_Command"><rect codeLine="30" fill="#F1F1F1" height="67.0679" id="Command" rx="2.5" ry="2.5" style="stroke:#181818;stroke-width:0.5;" width="217" x="511" y="277"/><ellipse cx="583.25" cy="293" fill="#B4A7E5" rx="11" ry="11" style="stroke:#181818;stroke-width:1.0;"/><path d="M579.1719,288.7656 L579.1719,286.6094 L586.5625,286.6094 L586.5625,288.7656 L584.0938,288.7656 L584.0938,296.8438 L586.5625,296.8438 L586.5625,299 L579.1719,299 L579.1719,296.8438 L581.6406,296.8438 L581.6406,288.7656 L579.1719,288.7656 Z " fill="#000000"/><text fill="#000000" font-family="sans-serif" font-size="14" font-style="italic" lengthAdjust="spacing" textLength="64" x="603.75" y="298.432">Command</text><line style="stroke:#181818;stroke-width:0.5;" x1="512" x2="727" y1="309" y2="309"/><line style="stroke:#181818;stroke-width:0.5;" x1="512" x2="727" y1="317" y2="317"/><ellipse cx="522" cy="332.034" fill="#84BE84" rx="3" ry="3" style="stroke:#038048;stroke-width:1.0;"/><text fill="#000000" font-family="sans-serif" font-size="14" lengthAdjust="spacing" textLength="191" x="531" y="335.9659">execute(Document): boolean</text></g><!--class EditCommand--><g id="elem_EditCommand"><rect codeLine="34" fill="#F1F1F1" height="67.0679" id="EditCommand" rx="2.5" ry="2.5" style="stroke:#181818;stroke-width:0.5;" width="217" x="7" y="471"/><ellipse cx="63.75" cy="487" fill="#ADD1B2" rx="11" ry="11" style="stroke:#181818;stroke-width:1.0;"/><path d="M66.7188,492.6406 Q66.1406,492.9375 65.5,493.0781 Q64.8594,493.2344 64.1563,493.2344 Q61.6563,493.2344 60.3281,491.5938 Q59.0156,489.9375 59.0156,486.8125 Q59.0156,483.6875 60.3281,482.0313 Q61.6563,480.375 64.1563,480.375 Q64.8594,480.375 65.5,480.5313 Q66.1563,480.6875 66.7188,480.9844 L66.7188,483.7031 Q66.0938,483.125 65.5,482.8594 Q64.9063,482.5781 64.2813,482.5781 Q62.9375,482.5781 62.25,483.6563 Q61.5625,484.7188 61.5625,486.8125 Q61.5625,488.9063 62.25,489.9844 Q62.9375,491.0469 64.2813,491.0469 Q64.9063,491.0469 65.5,490.7813 Q66.0938,490.5 66.7188,489.9219 L66.7188,492.6406 Z " fill="#000000"/><text fill="#000000" font-family="sans-serif" font-size="14" lengthAdjust="spacing" textLength="95" x="84.25" y="492.432">EditCommand</text><line style="stroke:#181818;stroke-width:0.5;" x1="8" x2="223" y1="503" y2="503"/><line style="stroke:#181818;stroke-width:0.5;" x1="8" x2="223" y1="511" y2="511"/><ellipse cx="18" cy="526.034" fill="#84BE84" rx="3" ry="3" style="stroke:#038048;stroke-width:1.0;"/><text fill="#000000" font-family="sans-serif" font-size="14" lengthAdjust="spacing" textLength="191" x="27" y="529.9659">execute(Document): boolean</text></g><!--class ExchangeCommand--><g id="elem_ExchangeCommand"><rect codeLine="38" fill="#F1F1F1" height="67.0679" id="ExchangeCommand" rx="2.5" ry="2.5" style="stroke:#181818;stroke-width:0.5;" width="217" x="259" y="471"/><ellipse cx="296.95" cy="487" fill="#ADD1B2" rx="11" ry="11" style="stroke:#181818;stroke-width:1.0;"/><path d="M299.9188,492.6406 Q299.3406,492.9375 298.7,493.0781 Q298.0594,493.2344 297.3563,493.2344 Q294.8563,493.2344 293.5281,491.5938 Q292.2156,489.9375 292.2156,486.8125 Q292.2156,483.6875 293.5281,482.0313 Q294.8563,480.375 297.3563,480.375 Q298.0594,480.375 298.7,480.5313 Q299.3563,480.6875 299.9188,480.9844 L299.9188,483.7031 Q299.2938,483.125 298.7,482.8594 Q298.1063,482.5781 297.4813,482.5781 Q296.1375,482.5781 295.45,483.6563 Q294.7625,484.7188 294.7625,486.8125 Q294.7625,488.9063 295.45,489.9844 Q296.1375,491.0469 297.4813,491.0469 Q298.1063,491.0469 298.7,490.7813 Q299.2938,490.5 299.9188,489.9219 L299.9188,492.6406 Z " fill="#000000"/><text fill="#000000" font-family="sans-serif" font-size="14" lengthAdjust="spacing" textLength="134" x="316.05" y="492.432">ExchangeCommand</text><line style="stroke:#181818;stroke-width:0.5;" x1="260" x2="475" y1="503" y2="503"/><line style="stroke:#181818;stroke-width:0.5;" x1="260" x2="475" y1="511" y2="511"/><ellipse cx="270" cy="526.034" fill="#84BE84" rx="3" ry="3" style="stroke:#038048;stroke-width:1.0;"/><text fill="#000000" font-family="sans-serif" font-size="14" lengthAdjust="spacing" textLength="191" x="279" y="529.9659">execute(Document): boolean</text></g><!--class DeleteCommand--><g id="elem_DeleteCommand"><rect codeLine="42" fill="#F1F1F1" height="67.0679" id="DeleteCommand" rx="2.5" ry="2.5" style="stroke:#181818;stroke-width:0.5;" width="217" x="511" y="471"/><ellipse cx="559.25" cy="487" fill="#ADD1B2" rx="11" ry="11" style="stroke:#181818;stroke-width:1.0;"/><path d="M562.2188,492.6406 Q561.6406,492.9375 561,493.0781 Q560.3594,493.2344 559.6563,493.2344 Q557.1563,493.2344 555.8281,491.5938 Q554.5156,489.9375 554.5156,486.8125 Q554.5156,483.6875 555.8281,482.0313 Q557.1563,480.375 559.6563,480.375 Q560.3594,480.375 561,480.5313 Q561.6563,480.6875 562.2188,480.9844 L562.2188,483.7031 Q561.5938,483.125 561,482.8594 Q560.4063,482.5781 559.7813,482.5781 Q558.4375,482.5781 557.75,483.6563 Q557.0625,484.7188 557.0625,486.8125 Q557.0625,488.9063 557.75,489.9844 Q558.4375,491.0469 559.7813,491.0469 Q560.4063,491.0469 561,490.7813 Q561.5938,490.5 562.2188,489.9219 L562.2188,492.6406 Z " fill="#000000"/><text fill="#000000" font-family="sans-serif" font-size="14" lengthAdjust="spacing" textLength="112" x="579.75" y="492.432">DeleteCommand</text><line style="stroke:#181818;stroke-width:0.5;" x1="512" x2="727" y1="503" y2="503"/><line style="stroke:#181818;stroke-width:0.5;" x1="512" x2="727" y1="511" y2="511"/><ellipse cx="522" cy="526.034" fill="#84BE84" rx="3" ry="3" style="stroke:#038048;stroke-width:1.0;"/><text fill="#000000" font-family="sans-serif" font-size="14" lengthAdjust="spacing" textLength="191" x="531" y="529.9659">execute(Document): boolean</text></g><!--class SetActiveLineCommand--><g id="elem_SetActiveLineCommand"><rect codeLine="46" fill="#F1F1F1" height="67.0679" id="SetActiveLineCommand" rx="2.5" ry="2.5" style="stroke:#181818;stroke-width:0.5;" width="217" x="763" y="471"/><ellipse cx="790.15" cy="487" fill="#ADD1B2" rx="11" ry="11" style="stroke:#181818;stroke-width:1.0;"/><path d="M793.1188,492.6406 Q792.5406,492.9375 791.9,493.0781 Q791.2594,493.2344 790.5563,493.2344 Q788.0563,493.2344 786.7281,491.5938 Q785.4156,489.9375 785.4156,486.8125 Q785.4156,483.6875 786.7281,482.0313 Q788.0563,480.375 790.5563,480.375 Q791.2594,480.375 791.9,480.5313 Q792.5563,480.6875 793.1188,480.9844 L793.1188,483.7031 Q792.4938,483.125 791.9,482.8594 Q791.3063,482.5781 790.6813,482.5781 Q789.3375,482.5781 788.65,483.6563 Q787.9625,484.7188 787.9625,486.8125 Q787.9625,488.9063 788.65,489.9844 Q789.3375,491.0469 790.6813,491.0469 Q791.3063,491.0469 791.9,490.7813 Q792.4938,490.5 793.1188,489.9219 L793.1188,492.6406 Z " fill="#000000"/><text fill="#000000" font-family="sans-serif" font-size="14" lengthAdjust="spacing" textLength="158" x="806.85" y="492.432">SetActiveLineCommand</text><line style="stroke:#181818;stroke-width:0.5;" x1="764" x2="979" y1="503" y2="503"/><line style="stroke:#181818;stroke-width:0.5;" x1="764" x2="979" y1="511" y2="511"/><ellipse cx="774" cy="526.034" fill="#84BE84" rx="3" ry="3" style="stroke:#038048;stroke-width:1.0;"/><text fill="#000000" font-family="sans-serif" font-size="14" lengthAdjust="spacing" textLength="191" x="783" y="529.9659">execute(Document): boolean</text></g><!--class ExitCommand--><g id="elem_ExitCommand"><rect codeLine="50" fill="#F1F1F1" height="67.0679" id="ExitCommand" rx="2.5" ry="2.5" style="stroke:#181818;stroke-width:0.5;" width="217" x="1015" y="471"/><ellipse cx="1072.75" cy="487" fill="#ADD1B2" rx="11" ry="11" style="stroke:#181818;stroke-width:1.0;"/><path d="M1075.7188,492.6406 Q1075.1406,492.9375 1074.5,493.0781 Q1073.8594,493.2344 1073.1563,493.2344 Q1070.6563,493.2344 1069.3281,491.5938 Q1068.0156,489.9375 1068.0156,486.8125 Q1068.0156,483.6875 1069.3281,482.0313 Q1070.6563,480.375 1073.1563,480.375 Q1073.8594,480.375 1074.5,480.5313 Q1075.1563,480.6875 1075.7188,480.9844 L1075.7188,483.7031 Q1075.0938,483.125 1074.5,482.8594 Q1073.9063,482.5781 1073.2813,482.5781 Q1071.9375,482.5781 1071.25,483.6563 Q1070.5625,484.7188 1070.5625,486.8125 Q1070.5625,488.9063 1071.25,489.9844 Q1071.9375,491.0469 1073.2813,491.0469 Q1073.9063,491.0469 1074.5,490.7813 Q1075.0938,490.5 1075.7188,489.9219 L1075.7188,492.6406 Z " fill="#000000"/><text fill="#000000" font-family="sans-serif" font-size="14" lengthAdjust="spacing" textLength="93" x="1093.25" y="492.432">ExitCommand</text><line style="stroke:#181818;stroke-width:0.5;" x1="1016" x2="1231" y1="503" y2="503"/><line style="stroke:#181818;stroke-width:0.5;" x1="1016" x2="1231" y1="511" y2="511"/><ellipse cx="1026" cy="526.034" fill="#84BE84" rx="3" ry="3" style="stroke:#038048;stroke-width:1.0;"/><text fill="#000000" font-family="sans-serif" font-size="14" lengthAdjust="spacing" textLength="191" x="1035" y="529.9659">execute(Document): boolean</text></g><!--link Editor to Document--><g id="link_Editor_Document"><path codeLine="54" d="M308.22,150.07 C286.15,173.58 265.4374,195.6363 242.4474,220.1163 " fill="none" id="Editor-to-Document" style="stroke:#181818;stroke-width:1.0;"/><polygon fill="#181818" points="238.34,224.49,247.4169,220.6678,241.7629,220.8453,241.5854,215.1912,238.34,224.49" style="stroke:#181818;stroke-width:1.0;"/></g><!--link Editor to UserInterface--><g id="link_Editor_UserInterface"><path codeLine="55" d="M374.5,150.07 C374.5,172.12 374.5,190.75 374.5,213.93 " fill="none" id="Editor-to-UserInterface" style="stroke:#181818;stroke-width:1.0;"/><polygon fill="#181818" points="374.5,219.93,378.5,210.93,374.5,214.93,370.5,210.93,374.5,219.93" style="stroke:#181818;stroke-width:1.0;"/></g><!--link Editor to Command--><g id="link_Editor_Command"><path codeLine="56" d="M449.67,150.07 C494.68,192.33 545.3951,239.9339 580.3851,272.7739 " fill="none" id="Editor-to-Command" style="stroke:#181818;stroke-width:1.0;"/><polygon fill="#181818" points="584.76,276.88,580.935,267.8042,581.1142,273.4582,575.4602,273.6375,584.76,276.88" style="stroke:#181818;stroke-width:1.0;"/></g><!--reverse link Command to EditCommand--><g id="link_Command_EditCommand"><path codeLine="57" d="M573.0883,356.1261 C548.9283,378.1161 527.69,394.02 492.5,411 C389.2,460.85 352.81,443.34 241.5,471 C235.8,472.42 229.96,473.88 224.06,475.37 " fill="none" id="Command-backto-EditCommand" style="stroke:#181818;stroke-width:1.0;stroke-dasharray:7.0,7.0;"/><polygon fill="none" points="586.4,344.01,569.0496,351.6888,577.127,360.5633,586.4,344.01" style="stroke:#181818;stroke-width:1.0;"/></g><!--reverse link Command to ExchangeCommand--><g id="link_Command_ExchangeCommand"><path codeLine="58" d="M564.419,355.2123 C539.649,374.7923 521.47,388.94 492.5,411 C466.08,431.12 436.19,453.26 412.27,470.83 " fill="none" id="Command-backto-ExchangeCommand" style="stroke:#181818;stroke-width:1.0;stroke-dasharray:7.0,7.0;"/><polygon fill="none" points="578.54,344.05,560.6982,350.5053,568.1397,359.9193,578.54,344.05" style="stroke:#181818;stroke-width:1.0;"/></g><!--reverse link Command to DeleteCommand--><g id="link_Command_DeleteCommand"><path codeLine="59" d="M619.5,362.07 C619.5,397.38 619.5,435.4 619.5,470.77 " fill="none" id="Command-backto-DeleteCommand" style="stroke:#181818;stroke-width:1.0;stroke-dasharray:7.0,7.0;"/><polygon fill="none" points="619.5,344.07,613.5,362.07,625.5,362.07,619.5,344.07" style="stroke:#181818;stroke-width:1.0;"/></g><!--reverse link Command to SetActiveLineCommand--><g id="link_Command_SetActiveLineCommand"><path codeLine="60" d="M676.5673,354.9794 C722.9073,390.2894 782.12,435.4 828.54,470.77 " fill="none" id="Command-backto-SetActiveLineCommand" style="stroke:#181818;stroke-width:1.0;stroke-dasharray:7.0,7.0;"/><polygon fill="none" points="662.25,344.07,672.9308,359.7519,680.2038,350.207,662.25,344.07" style="stroke:#181818;stroke-width:1.0;"/></g><!--reverse link Command to ExitCommand--><g id="link_Command_ExitCommand"><path codeLine="61" d="M721.8208,350.4779 C814.6408,385.8379 945.19,435.57 1038.01,470.93 " fill="none" id="Command-backto-ExitCommand" style="stroke:#181818;stroke-width:1.0;stroke-dasharray:7.0,7.0;"/><polygon fill="none" points="705,344.07,719.6848,356.0848,723.9568,344.871,705,344.07" style="stroke:#181818;stroke-width:1.0;"/></g><!--SRC=[dLD1JiCm4Bpd5JuwAka34492b4CbRX4dnC5ibjPIObUs0vM0lsDtxSIEUY6vnDd9xCpE9j0BQzbJ9vqsxBjY_cfs6iO1bMDTF53vnQBPAuVcGm2oKLwg6wBocfxCgEAnEHaDQEsZ7WQXEbxVidUjUnIg-gqgkCXEGb6uTKQgm-iRwwL2IpNfOG5EVkApBv9AuYNL0xe0Sl-kbw4kXDWPkOd0p7cOsWPtCiuPE1aIUbBzvDcE5odKyonbEcaW44gXOPRkrATuCurWZ_ehw5cUXfjzPX76OmmRHRSFAMJcGutcv8iem6TlMZ28OKNUjvpSngxHzGRF2AF3sScLrOMrhw6TuIZK0LTGTzYZMqDiytskylpFKUFVr3JtqnUUruhzvq1QRXAx-zbkyw0NG1bb2HPXbT2rE9QT9ya_]--></g></svg>