<?xml version="1.0" encoding="us-ascii" standalone="no"?><svg xmlns="http://www.w3.org/2000/svg" xmlns:xlink="http://www.w3.org/1999/xlink" contentStyleType="text/css" height="983px" preserveAspectRatio="none" style="width:2474px;height:983px;background:#FFFFFF;" version="1.1" viewBox="0 0 2474 983" width="2474px" zoomAndPan="magnify"><defs/><g><!--class Editor--><g id="elem_Editor"><rect codeLine="1" fill="#F1F1F1" height="181.4754" id="Editor" rx="2.5" ry="2.5" style="stroke:#181818;stroke-width:0.5;" width="202" x="1058.5" y="7"/><ellipse cx="1135.25" cy="23" fill="#ADD1B2" rx="11" ry="11" style="stroke:#181818;stroke-width:1.0;"/><path d="M1138.2188,28.6406 Q1137.6406,28.9375 1137,29.0781 Q1136.3594,29.2344 1135.6563,29.2344 Q1133.1563,29.2344 1131.8281,27.5938 Q1130.5156,25.9375 1130.5156,22.8125 Q1130.5156,19.6875 1131.8281,18.0313 Q1133.1563,16.375 1135.6563,16.375 Q1136.3594,16.375 1137,16.5313 Q1137.6563,16.6875 1138.2188,16.9844 L1138.2188,19.7031 Q1137.5938,19.125 1137,18.8594 Q1136.4063,18.5781 1135.7813,18.5781 Q1134.4375,18.5781 1133.75,19.6563 Q1133.0625,20.7188 1133.0625,22.8125 Q1133.0625,24.9063 1133.75,25.9844 Q1134.4375,27.0469 1135.7813,27.0469 Q1136.4063,27.0469 1137,26.7813 Q1137.5938,26.5 1138.2188,25.9219 L1138.2188,28.6406 Z " fill="#000000"/><text fill="#000000" font-family="sans-serif" font-size="14" lengthAdjust="spacing" textLength="40" x="1155.75" y="28.432">Editor</text><line style="stroke:#181818;stroke-width:0.5;" x1="1059.5" x2="1259.5" y1="39" y2="39"/><rect fill="none" height="6" style="stroke:#C82930;stroke-width:1.0;" width="6" x="1066.5" y="51.034"/><text fill="#000000" font-family="sans-serif" font-size="14" lengthAdjust="spacing" textLength="141" x="1078.5" y="57.9659">Document document</text><rect fill="none" height="6" style="stroke:#C82930;stroke-width:1.0;" width="6" x="1066.5" y="70.1019"/><text fill="#000000" font-family="sans-serif" font-size="14" lengthAdjust="spacing" textLength="109" x="1078.5" y="77.0339">UserInterface ui</text><rect fill="none" height="6" style="stroke:#C82930;stroke-width:1.0;" width="6" x="1066.5" y="89.1698"/><text fill="#000000" font-family="sans-serif" font-size="14" lengthAdjust="spacing" textLength="176" x="1078.5" y="96.1018">DocumentStorage storage</text><line style="stroke:#181818;stroke-width:0.5;" x1="1059.5" x2="1259.5" y1="104.2038" y2="104.2038"/><ellipse cx="1069.5" cy="119.2377" fill="#84BE84" rx="3" ry="3" style="stroke:#038048;stroke-width:1.0;"/><text fill="#000000" font-family="sans-serif" font-size="14" lengthAdjust="spacing" textLength="48" x="1078.5" y="123.1697">Editor()</text><ellipse cx="1069.5" cy="138.3056" fill="#84BE84" rx="3" ry="3" style="stroke:#038048;stroke-width:1.0;"/><text fill="#000000" font-family="sans-serif" font-size="14" lengthAdjust="spacing" textLength="121" x="1078.5" y="142.2376">setStorage(String)</text><ellipse cx="1069.5" cy="157.3735" fill="#84BE84" rx="3" ry="3" style="stroke:#038048;stroke-width:1.0;"/><text fill="#000000" font-family="sans-serif" font-size="14" lengthAdjust="spacing" textLength="146" x="1078.5" y="161.3055">hasStorage(): boolean</text><ellipse cx="1069.5" cy="176.4415" fill="#84BE84" rx="3" ry="3" style="stroke:#038048;stroke-width:1.0;"/><text fill="#000000" font-family="sans-serif" font-size="14" lengthAdjust="spacing" textLength="32" x="1078.5" y="180.3734">run()</text></g><!--class Document--><g id="elem_Document"><rect codeLine="11" fill="#F1F1F1" height="238.6792" id="Document" rx="2.5" ry="2.5" style="stroke:#181818;stroke-width:0.5;" width="224" x="557.5" y="248"/><ellipse cx="630.75" cy="264" fill="#ADD1B2" rx="11" ry="11" style="stroke:#181818;stroke-width:1.0;"/><path d="M633.7188,269.6406 Q633.1406,269.9375 632.5,270.0781 Q631.8594,270.2344 631.1563,270.2344 Q628.6563,270.2344 627.3281,268.5938 Q626.0156,266.9375 626.0156,263.8125 Q626.0156,260.6875 627.3281,259.0313 Q628.6563,257.375 631.1563,257.375 Q631.8594,257.375 632.5,257.5313 Q633.1563,257.6875 633.7188,257.9844 L633.7188,260.7031 Q633.0938,260.125 632.5,259.8594 Q631.9063,259.5781 631.2813,259.5781 Q629.9375,259.5781 629.25,260.6563 Q628.5625,261.7188 628.5625,263.8125 Q628.5625,265.9063 629.25,266.9844 Q629.9375,268.0469 631.2813,268.0469 Q631.9063,268.0469 632.5,267.7813 Q633.0938,267.5 633.7188,266.9219 L633.7188,269.6406 Z " fill="#000000"/><text fill="#000000" font-family="sans-serif" font-size="14" lengthAdjust="spacing" textLength="69" x="651.25" y="269.432">Document</text><line style="stroke:#181818;stroke-width:0.5;" x1="558.5" x2="780.5" y1="280" y2="280"/><rect fill="none" height="6" style="stroke:#C82930;stroke-width:1.0;" width="6" x="565.5" y="292.034"/><text fill="#000000" font-family="sans-serif" font-size="14" lengthAdjust="spacing" textLength="87" x="577.5" y="298.9659">String[] lines</text><rect fill="none" height="6" style="stroke:#C82930;stroke-width:1.0;" width="6" x="565.5" y="311.1019"/><text fill="#000000" font-family="sans-serif" font-size="14" lengthAdjust="spacing" textLength="89" x="577.5" y="318.0339">int activeLine</text><rect fill="none" height="6" style="stroke:#C82930;stroke-width:1.0;" width="6" x="565.5" y="330.1698"/><text fill="#000000" font-family="sans-serif" font-size="14" lengthAdjust="spacing" textLength="198" x="577.5" y="337.1018">DocumentSerializer serializer</text><line style="stroke:#181818;stroke-width:0.5;" x1="558.5" x2="780.5" y1="345.2038" y2="345.2038"/><ellipse cx="568.5" cy="360.2377" fill="#84BE84" rx="3" ry="3" style="stroke:#038048;stroke-width:1.0;"/><text fill="#000000" font-family="sans-serif" font-size="14" lengthAdjust="spacing" textLength="77" x="577.5" y="364.1697">Document()</text><ellipse cx="568.5" cy="379.3056" fill="#84BE84" rx="3" ry="3" style="stroke:#038048;stroke-width:1.0;"/><text fill="#000000" font-family="sans-serif" font-size="14" lengthAdjust="spacing" textLength="128" x="577.5" y="383.2376">Document(String[])</text><ellipse cx="568.5" cy="398.3735" fill="#84BE84" rx="3" ry="3" style="stroke:#038048;stroke-width:1.0;"/><text fill="#000000" font-family="sans-serif" font-size="14" lengthAdjust="spacing" textLength="125" x="577.5" y="402.3055">getLine(int): String</text><ellipse cx="568.5" cy="417.4415" fill="#84BE84" rx="3" ry="3" style="stroke:#038048;stroke-width:1.0;"/><text fill="#000000" font-family="sans-serif" font-size="14" lengthAdjust="spacing" textLength="123" x="577.5" y="421.3734">setLine(int, String)</text><ellipse cx="568.5" cy="436.5094" fill="#84BE84" rx="3" ry="3" style="stroke:#038048;stroke-width:1.0;"/><text fill="#000000" font-family="sans-serif" font-size="14" lengthAdjust="spacing" textLength="124" x="577.5" y="440.4414">getActiveLine(): int</text><ellipse cx="568.5" cy="455.5773" fill="#84BE84" rx="3" ry="3" style="stroke:#038048;stroke-width:1.0;"/><text fill="#000000" font-family="sans-serif" font-size="14" lengthAdjust="spacing" textLength="114" x="577.5" y="459.5093">setActiveLine(int)</text><ellipse cx="568.5" cy="474.6452" fill="#84BE84" rx="3" ry="3" style="stroke:#038048;stroke-width:1.0;"/><text fill="#000000" font-family="sans-serif" font-size="14" lengthAdjust="spacing" textLength="133" x="577.5" y="478.5772">print(UserInterface)</text></g><!--class UserInterface--><g id="elem_UserInterface"><rect codeLine="24" fill="#F1F1F1" height="238.6792" id="UserInterface" rx="2.5" ry="2.5" style="stroke:#181818;stroke-width:0.5;" width="278" x="1020.5" y="248"/><ellipse cx="1109.25" cy="264" fill="#ADD1B2" rx="11" ry="11" style="stroke:#181818;stroke-width:1.0;"/><path d="M1112.2188,269.6406 Q1111.6406,269.9375 1111,270.0781 Q1110.3594,270.2344 1109.6563,270.2344 Q1107.1563,270.2344 1105.8281,268.5938 Q1104.5156,266.9375 1104.5156,263.8125 Q1104.5156,260.6875 1105.8281,259.0313 Q1107.1563,257.375 1109.6563,257.375 Q1110.3594,257.375 1111,257.5313 Q1111.6563,257.6875 1112.2188,257.9844 L1112.2188,260.7031 Q1111.5938,260.125 1111,259.8594 Q1110.4063,259.5781 1109.7813,259.5781 Q1108.4375,259.5781 1107.75,260.6563 Q1107.0625,261.7188 1107.0625,263.8125 Q1107.0625,265.9063 1107.75,266.9844 Q1108.4375,268.0469 1109.7813,268.0469 Q1110.4063,268.0469 1111,267.7813 Q1111.5938,267.5 1112.2188,266.9219 L1112.2188,269.6406 Z " fill="#000000"/><text fill="#000000" font-family="sans-serif" font-size="14" lengthAdjust="spacing" textLength="92" x="1129.75" y="269.432">UserInterface</text><line style="stroke:#181818;stroke-width:0.5;" x1="1021.5" x2="1297.5" y1="280" y2="280"/><rect fill="none" height="6" style="stroke:#C82930;stroke-width:1.0;" width="6" x="1028.5" y="292.034"/><text fill="#000000" font-family="sans-serif" font-size="14" lengthAdjust="spacing" textLength="113" x="1040.5" y="298.9659">Scanner scanner</text><rect fill="none" height="6" style="stroke:#C82930;stroke-width:1.0;" width="6" x="1028.5" y="311.1019"/><text fill="#000000" font-family="sans-serif" font-size="14" lengthAdjust="spacing" textLength="176" x="1040.5" y="318.0339">DocumentStorage storage</text><rect fill="none" height="6" style="stroke:#C82930;stroke-width:1.0;" width="6" x="1028.5" y="330.1698"/><text fill="#000000" font-family="sans-serif" font-size="14" lengthAdjust="spacing" textLength="196" x="1040.5" y="337.1018">DocumentRenderer renderer</text><rect fill="none" height="6" style="stroke:#C82930;stroke-width:1.0;" width="6" x="1028.5" y="349.2377"/><text fill="#000000" font-family="sans-serif" font-size="14" lengthAdjust="spacing" textLength="239" x="1040.5" y="356.1697">DocumentRenderer editorRenderer</text><rect fill="none" height="6" style="stroke:#C82930;stroke-width:1.0;" width="6" x="1028.5" y="368.3056"/><text fill="#000000" font-family="sans-serif" font-size="14" lengthAdjust="spacing" textLength="252" x="1040.5" y="375.2376">DocumentRenderer previewRenderer</text><rect fill="none" height="6" style="stroke:#C82930;stroke-width:1.0;" width="6" x="1028.5" y="387.3735"/><text fill="#000000" font-family="sans-serif" font-size="14" lengthAdjust="spacing" textLength="161" x="1040.5" y="394.3055">boolean inPreviewMode</text><line style="stroke:#181818;stroke-width:0.5;" x1="1021.5" x2="1297.5" y1="402.4075" y2="402.4075"/><ellipse cx="1031.5" cy="417.4415" fill="#84BE84" rx="3" ry="3" style="stroke:#038048;stroke-width:1.0;"/><text fill="#000000" font-family="sans-serif" font-size="14" lengthAdjust="spacing" textLength="221" x="1040.5" y="421.3734">UserInterface(DocumentStorage)</text><ellipse cx="1031.5" cy="436.5094" fill="#84BE84" rx="3" ry="3" style="stroke:#038048;stroke-width:1.0;"/><text fill="#000000" font-family="sans-serif" font-size="14" lengthAdjust="spacing" textLength="123" x="1040.5" y="440.4414">render(Document)</text><ellipse cx="1031.5" cy="455.5773" fill="#84BE84" rx="3" ry="3" style="stroke:#038048;stroke-width:1.0;"/><text fill="#000000" font-family="sans-serif" font-size="14" lengthAdjust="spacing" textLength="82" x="1040.5" y="459.5093">toggleView()</text><ellipse cx="1031.5" cy="474.6452" fill="#84BE84" rx="3" ry="3" style="stroke:#038048;stroke-width:1.0;"/><text fill="#000000" font-family="sans-serif" font-size="14" lengthAdjust="spacing" textLength="176" x="1040.5" y="478.5772">getCommand(): Command</text></g><!--class RenderUtils--><g id="elem_RenderUtils"><rect codeLine="37" fill="#F1F1F1" height="118.6158" id="RenderUtils" rx="2.5" ry="2.5" style="stroke:#181818;stroke-width:0.5;" width="200" x="433.5" y="858"/><ellipse cx="489.75" cy="880.706" fill="#ADD1B2" rx="11" ry="11" style="stroke:#181818;stroke-width:1.0;"/><path d="M492.7188,886.3466 Q492.1406,886.6435 491.5,886.7841 Q490.8594,886.9404 490.1563,886.9404 Q487.6563,886.9404 486.3281,885.2998 Q485.0156,883.6435 485.0156,880.5185 Q485.0156,877.3935 486.3281,875.7373 Q487.6563,874.081 490.1563,874.081 Q490.8594,874.081 491.5,874.2373 Q492.1563,874.3935 492.7188,874.6904 L492.7188,877.4091 Q492.0938,876.831 491.5,876.5654 Q490.9063,876.2841 490.2813,876.2841 Q488.9375,876.2841 488.25,877.3623 Q487.5625,878.4248 487.5625,880.5185 Q487.5625,882.6123 488.25,883.6904 Q488.9375,884.7529 490.2813,884.7529 Q490.9063,884.7529 491.5,884.4873 Q492.0938,884.206 492.7188,883.6279 L492.7188,886.3466 Z " fill="#000000"/><text fill="#000000" font-family="sans-serif" font-size="12" font-style="italic" lengthAdjust="spacing" textLength="42" x="528.75" y="875.8281">&#171;utility&#187;</text><text fill="#000000" font-family="sans-serif" font-size="14" lengthAdjust="spacing" textLength="79" x="510.25" y="894.31">RenderUtils</text><line style="stroke:#181818;stroke-width:0.5;" x1="434.5" x2="632.5" y1="903.412" y2="903.412"/><line style="stroke:#181818;stroke-width:0.5;" x1="434.5" x2="632.5" y1="911.412" y2="911.412"/><ellipse cx="444.5" cy="926.446" fill="#84BE84" rx="3" ry="3" style="stroke:#038048;stroke-width:1.0;"/><text fill="#000000" font-family="sans-serif" font-size="14" lengthAdjust="spacing" textLength="95" x="453.5" y="930.378">clearScreen()$</text><ellipse cx="444.5" cy="945.5139" fill="#84BE84" rx="3" ry="3" style="stroke:#038048;stroke-width:1.0;"/><text fill="#000000" font-family="sans-serif" font-size="14" lengthAdjust="spacing" textLength="146" x="453.5" y="949.4459">printHorizontalLine()$</text><ellipse cx="444.5" cy="964.5818" fill="#84BE84" rx="3" ry="3" style="stroke:#038048;stroke-width:1.0;"/><text fill="#000000" font-family="sans-serif" font-size="14" lengthAdjust="spacing" textLength="174" x="453.5" y="968.5138">separator(int, int)$: String</text></g><!--class DocumentRenderer--><g id="elem_DocumentRenderer"><rect codeLine="44" fill="#F1F1F1" height="67.0679" id="DocumentRenderer" rx="2.5" ry="2.5" style="stroke:#181818;stroke-width:0.5;" width="249" x="551" y="566"/><ellipse cx="611.25" cy="582" fill="#B4A7E5" rx="11" ry="11" style="stroke:#181818;stroke-width:1.0;"/><path d="M607.1719,577.7656 L607.1719,575.6094 L614.5625,575.6094 L614.5625,577.7656 L612.0938,577.7656 L612.0938,585.8438 L614.5625,585.8438 L614.5625,588 L607.1719,588 L607.1719,585.8438 L609.6406,585.8438 L609.6406,577.7656 L607.1719,577.7656 Z " fill="#000000"/><text fill="#000000" font-family="sans-serif" font-size="14" font-style="italic" lengthAdjust="spacing" textLength="120" x="631.75" y="587.432">DocumentRenderer</text><line style="stroke:#181818;stroke-width:0.5;" x1="552" x2="799" y1="598" y2="598"/><line style="stroke:#181818;stroke-width:0.5;" x1="552" x2="799" y1="606" y2="606"/><ellipse cx="562" cy="621.034" fill="#84BE84" rx="3" ry="3" style="stroke:#038048;stroke-width:1.0;"/><text fill="#000000" font-family="sans-serif" font-size="14" lengthAdjust="spacing" textLength="223" x="571" y="624.9659">render(Document, UserInterface)</text></g><!--class EditorRenderer--><g id="elem_EditorRenderer"><rect codeLine="48" fill="#F1F1F1" height="67.0679" id="EditorRenderer" rx="2.5" ry="2.5" style="stroke:#181818;stroke-width:0.5;" width="249" x="267" y="721.5"/><ellipse cx="335.75" cy="737.5" fill="#ADD1B2" rx="11" ry="11" style="stroke:#181818;stroke-width:1.0;"/><path d="M338.7188,743.1406 Q338.1406,743.4375 337.5,743.5781 Q336.8594,743.7344 336.1563,743.7344 Q333.6563,743.7344 332.3281,742.0938 Q331.0156,740.4375 331.0156,737.3125 Q331.0156,734.1875 332.3281,732.5313 Q333.6563,730.875 336.1563,730.875 Q336.8594,730.875 337.5,731.0313 Q338.1563,731.1875 338.7188,731.4844 L338.7188,734.2031 Q338.0938,733.625 337.5,733.3594 Q336.9063,733.0781 336.2813,733.0781 Q334.9375,733.0781 334.25,734.1563 Q333.5625,735.2188 333.5625,737.3125 Q333.5625,739.4063 334.25,740.4844 Q334.9375,741.5469 336.2813,741.5469 Q336.9063,741.5469 337.5,741.2813 Q338.0938,741 338.7188,740.4219 L338.7188,743.1406 Z " fill="#000000"/><text fill="#000000" font-family="sans-serif" font-size="14" lengthAdjust="spacing" textLength="103" x="356.25" y="742.932">EditorRenderer</text><line style="stroke:#181818;stroke-width:0.5;" x1="268" x2="515" y1="753.5" y2="753.5"/><line style="stroke:#181818;stroke-width:0.5;" x1="268" x2="515" y1="761.5" y2="761.5"/><ellipse cx="278" cy="776.534" fill="#84BE84" rx="3" ry="3" style="stroke:#038048;stroke-width:1.0;"/><text fill="#000000" font-family="sans-serif" font-size="14" lengthAdjust="spacing" textLength="223" x="287" y="780.4659">render(Document, UserInterface)</text></g><!--class PreviewRenderer--><g id="elem_PreviewRenderer"><rect codeLine="52" fill="#F1F1F1" height="67.0679" id="PreviewRenderer" rx="2.5" ry="2.5" style="stroke:#181818;stroke-width:0.5;" width="249" x="551" y="721.5"/><ellipse cx="613.75" cy="737.5" fill="#ADD1B2" rx="11" ry="11" style="stroke:#181818;stroke-width:1.0;"/><path d="M616.7188,743.1406 Q616.1406,743.4375 615.5,743.5781 Q614.8594,743.7344 614.1563,743.7344 Q611.6563,743.7344 610.3281,742.0938 Q609.0156,740.4375 609.0156,737.3125 Q609.0156,734.1875 610.3281,732.5313 Q611.6563,730.875 614.1563,730.875 Q614.8594,730.875 615.5,731.0313 Q616.1563,731.1875 616.7188,731.4844 L616.7188,734.2031 Q616.0938,733.625 615.5,733.3594 Q614.9063,733.0781 614.2813,733.0781 Q612.9375,733.0781 612.25,734.1563 Q611.5625,735.2188 611.5625,737.3125 Q611.5625,739.4063 612.25,740.4844 Q612.9375,741.5469 614.2813,741.5469 Q614.9063,741.5469 615.5,741.2813 Q616.0938,741 616.7188,740.4219 L616.7188,743.1406 Z " fill="#000000"/><text fill="#000000" font-family="sans-serif" font-size="14" lengthAdjust="spacing" textLength="115" x="634.25" y="742.932">PreviewRenderer</text><line style="stroke:#181818;stroke-width:0.5;" x1="552" x2="799" y1="753.5" y2="753.5"/><line style="stroke:#181818;stroke-width:0.5;" x1="552" x2="799" y1="761.5" y2="761.5"/><ellipse cx="562" cy="776.534" fill="#84BE84" rx="3" ry="3" style="stroke:#038048;stroke-width:1.0;"/><text fill="#000000" font-family="sans-serif" font-size="14" lengthAdjust="spacing" textLength="223" x="571" y="780.4659">render(Document, UserInterface)</text></g><!--class Command--><g id="elem_Command"><rect codeLine="56" fill="#F1F1F1" height="67.0679" id="Command" rx="2.5" ry="2.5" style="stroke:#181818;stroke-width:0.5;" width="217" x="1414" y="566"/><ellipse cx="1486.25" cy="582" fill="#B4A7E5" rx="11" ry="11" style="stroke:#181818;stroke-width:1.0;"/><path d="M1482.1719,577.7656 L1482.1719,575.6094 L1489.5625,575.6094 L1489.5625,577.7656 L1487.0938,577.7656 L1487.0938,585.8438 L1489.5625,585.8438 L1489.5625,588 L1482.1719,588 L1482.1719,585.8438 L1484.6406,585.8438 L1484.6406,577.7656 L1482.1719,577.7656 Z " fill="#000000"/><text fill="#000000" font-family="sans-serif" font-size="14" font-style="italic" lengthAdjust="spacing" textLength="64" x="1506.75" y="587.432">Command</text><line style="stroke:#181818;stroke-width:0.5;" x1="1415" x2="1630" y1="598" y2="598"/><line style="stroke:#181818;stroke-width:0.5;" x1="1415" x2="1630" y1="606" y2="606"/><ellipse cx="1425" cy="621.034" fill="#84BE84" rx="3" ry="3" style="stroke:#038048;stroke-width:1.0;"/><text fill="#000000" font-family="sans-serif" font-size="14" lengthAdjust="spacing" textLength="191" x="1434" y="624.9659">execute(Document): boolean</text></g><!--class ChangeViewCommand--><g id="elem_ChangeViewCommand"><rect codeLine="60" fill="#F1F1F1" height="86.1358" id="ChangeViewCommand" rx="2.5" ry="2.5" style="stroke:#181818;stroke-width:0.5;" width="217" x="835" y="712"/><ellipse cx="864.85" cy="728" fill="#ADD1B2" rx="11" ry="11" style="stroke:#181818;stroke-width:1.0;"/><path d="M867.8188,733.6406 Q867.2406,733.9375 866.6,734.0781 Q865.9594,734.2344 865.2563,734.2344 Q862.7563,734.2344 861.4281,732.5938 Q860.1156,730.9375 860.1156,727.8125 Q860.1156,724.6875 861.4281,723.0313 Q862.7563,721.375 865.2563,721.375 Q865.9594,721.375 866.6,721.5313 Q867.2563,721.6875 867.8188,721.9844 L867.8188,724.7031 Q867.1938,724.125 866.6,723.8594 Q866.0063,723.5781 865.3813,723.5781 Q864.0375,723.5781 863.35,724.6563 Q862.6625,725.7188 862.6625,727.8125 Q862.6625,729.9063 863.35,730.9844 Q864.0375,732.0469 865.3813,732.0469 Q866.0063,732.0469 866.6,731.7813 Q867.1938,731.5 867.8188,730.9219 L867.8188,733.6406 Z " fill="#000000"/><text fill="#000000" font-family="sans-serif" font-size="14" lengthAdjust="spacing" textLength="152" x="882.15" y="733.432">ChangeViewCommand</text><line style="stroke:#181818;stroke-width:0.5;" x1="836" x2="1051" y1="744" y2="744"/><rect fill="none" height="6" style="stroke:#C82930;stroke-width:1.0;" width="6" x="843" y="756.034"/><text fill="#000000" font-family="sans-serif" font-size="14" lengthAdjust="spacing" textLength="109" x="855" y="762.9659">UserInterface ui</text><line style="stroke:#181818;stroke-width:0.5;" x1="836" x2="1051" y1="771.0679" y2="771.0679"/><ellipse cx="846" cy="786.1019" fill="#84BE84" rx="3" ry="3" style="stroke:#038048;stroke-width:1.0;"/><text fill="#000000" font-family="sans-serif" font-size="14" lengthAdjust="spacing" textLength="191" x="855" y="790.0339">execute(Document): boolean</text></g><!--class DocumentStorage--><g id="elem_DocumentStorage"><rect codeLine="65" fill="#F1F1F1" height="86.1358" id="DocumentStorage" rx="2.5" ry="2.5" style="stroke:#181818;stroke-width:0.5;" width="167" x="1436" y="324.5"/><ellipse cx="1461.35" cy="340.5" fill="#B4A7E5" rx="11" ry="11" style="stroke:#181818;stroke-width:1.0;"/><path d="M1457.2719,336.2656 L1457.2719,334.1094 L1464.6625,334.1094 L1464.6625,336.2656 L1462.1938,336.2656 L1462.1938,344.3438 L1464.6625,344.3438 L1464.6625,346.5 L1457.2719,346.5 L1457.2719,344.3438 L1459.7406,344.3438 L1459.7406,336.2656 L1457.2719,336.2656 Z " fill="#000000"/><text fill="#000000" font-family="sans-serif" font-size="14" font-style="italic" lengthAdjust="spacing" textLength="112" x="1477.65" y="345.932">DocumentStorage</text><line style="stroke:#181818;stroke-width:0.5;" x1="1437" x2="1602" y1="356.5" y2="356.5"/><line style="stroke:#181818;stroke-width:0.5;" x1="1437" x2="1602" y1="364.5" y2="364.5"/><ellipse cx="1447" cy="379.534" fill="#84BE84" rx="3" ry="3" style="stroke:#038048;stroke-width:1.0;"/><text fill="#000000" font-family="sans-serif" font-size="14" lengthAdjust="spacing" textLength="141" x="1456" y="383.4659">save(String): boolean</text><ellipse cx="1447" cy="398.6019" fill="#84BE84" rx="3" ry="3" style="stroke:#038048;stroke-width:1.0;"/><text fill="#000000" font-family="sans-serif" font-size="14" lengthAdjust="spacing" textLength="86" x="1456" y="402.5339">load(): String</text></g><!--class DocumentSerializer--><g id="elem_DocumentSerializer"><rect codeLine="70" fill="#F1F1F1" height="86.1358" id="DocumentSerializer" rx="2.5" ry="2.5" style="stroke:#181818;stroke-width:0.5;" width="225" x="149" y="556.5"/><ellipse cx="196.25" cy="572.5" fill="#B4A7E5" rx="11" ry="11" style="stroke:#181818;stroke-width:1.0;"/><path d="M192.1719,568.2656 L192.1719,566.1094 L199.5625,566.1094 L199.5625,568.2656 L197.0938,568.2656 L197.0938,576.3438 L199.5625,576.3438 L199.5625,578.5 L192.1719,578.5 L192.1719,576.3438 L194.6406,576.3438 L194.6406,568.2656 L192.1719,568.2656 Z " fill="#000000"/><text fill="#000000" font-family="sans-serif" font-size="14" font-style="italic" lengthAdjust="spacing" textLength="122" x="216.75" y="577.932">DocumentSerializer</text><line style="stroke:#181818;stroke-width:0.5;" x1="150" x2="373" y1="588.5" y2="588.5"/><line style="stroke:#181818;stroke-width:0.5;" x1="150" x2="373" y1="596.5" y2="596.5"/><ellipse cx="160" cy="611.534" fill="#84BE84" rx="3" ry="3" style="stroke:#038048;stroke-width:1.0;"/><text fill="#000000" font-family="sans-serif" font-size="14" lengthAdjust="spacing" textLength="182" x="169" y="615.4659">serialize(Document): String</text><ellipse cx="160" cy="630.6019" fill="#84BE84" rx="3" ry="3" style="stroke:#038048;stroke-width:1.0;"/><text fill="#000000" font-family="sans-serif" font-size="14" lengthAdjust="spacing" textLength="199" x="169" y="634.5339">deserialize(String): Document</text></g><!--class FileManagerAdapter--><g id="elem_FileManagerAdapter"><rect codeLine="75" fill="#F1F1F1" height="105.2038" id="FileManagerAdapter" rx="2.5" ry="2.5" style="stroke:#181818;stroke-width:0.5;" width="196" x="1988.5" y="547"/><ellipse cx="2015.2" cy="563" fill="#ADD1B2" rx="11" ry="11" style="stroke:#181818;stroke-width:1.0;"/><path d="M2018.1688,568.6406 Q2017.5906,568.9375 2016.95,569.0781 Q2016.3094,569.2344 2015.6063,569.2344 Q2013.1063,569.2344 2011.7781,567.5938 Q2010.4656,565.9375 2010.4656,562.8125 Q2010.4656,559.6875 2011.7781,558.0313 Q2013.1063,556.375 2015.6063,556.375 Q2016.3094,556.375 2016.95,556.5313 Q2017.6063,556.6875 2018.1688,556.9844 L2018.1688,559.7031 Q2017.5438,559.125 2016.95,558.8594 Q2016.3563,558.5781 2015.7313,558.5781 Q2014.3875,558.5781 2013.7,559.6563 Q2013.0125,560.7188 2013.0125,562.8125 Q2013.0125,564.9063 2013.7,565.9844 Q2014.3875,567.0469 2015.7313,567.0469 Q2016.3563,567.0469 2016.95,566.7813 Q2017.5438,566.5 2018.1688,565.9219 L2018.1688,568.6406 Z " fill="#000000"/><text fill="#000000" font-family="sans-serif" font-size="14" lengthAdjust="spacing" textLength="138" x="2031.8" y="568.432">FileManagerAdapter</text><line style="stroke:#181818;stroke-width:0.5;" x1="1989.5" x2="2183.5" y1="579" y2="579"/><rect fill="none" height="6" style="stroke:#C82930;stroke-width:1.0;" width="6" x="1996.5" y="591.034"/><text fill="#000000" font-family="sans-serif" font-size="14" lengthAdjust="spacing" textLength="170" x="2008.5" y="597.9659">FileManager fileManager</text><line style="stroke:#181818;stroke-width:0.5;" x1="1989.5" x2="2183.5" y1="606.0679" y2="606.0679"/><ellipse cx="1999.5" cy="621.1019" fill="#84BE84" rx="3" ry="3" style="stroke:#038048;stroke-width:1.0;"/><text fill="#000000" font-family="sans-serif" font-size="14" lengthAdjust="spacing" textLength="141" x="2008.5" y="625.0339">save(String): boolean</text><ellipse cx="1999.5" cy="640.1698" fill="#84BE84" rx="3" ry="3" style="stroke:#038048;stroke-width:1.0;"/><text fill="#000000" font-family="sans-serif" font-size="14" lengthAdjust="spacing" textLength="86" x="2008.5" y="644.1018">load(): String</text></g><!--class SimpleSerializer--><g id="elem_SimpleSerializer"><rect codeLine="81" fill="#F1F1F1" height="86.1358" id="SimpleSerializer" rx="2.5" ry="2.5" style="stroke:#181818;stroke-width:0.5;" width="225" x="7" y="712"/><ellipse cx="60.75" cy="728" fill="#ADD1B2" rx="11" ry="11" style="stroke:#181818;stroke-width:1.0;"/><path d="M63.7188,733.6406 Q63.1406,733.9375 62.5,734.0781 Q61.8594,734.2344 61.1563,734.2344 Q58.6563,734.2344 57.3281,732.5938 Q56.0156,730.9375 56.0156,727.8125 Q56.0156,724.6875 57.3281,723.0313 Q58.6563,721.375 61.1563,721.375 Q61.8594,721.375 62.5,721.5313 Q63.1563,721.6875 63.7188,721.9844 L63.7188,724.7031 Q63.0938,724.125 62.5,723.8594 Q61.9063,723.5781 61.2813,723.5781 Q59.9375,723.5781 59.25,724.6563 Q58.5625,725.7188 58.5625,727.8125 Q58.5625,729.9063 59.25,730.9844 Q59.9375,732.0469 61.2813,732.0469 Q61.9063,732.0469 62.5,731.7813 Q63.0938,731.5 63.7188,730.9219 L63.7188,733.6406 Z " fill="#000000"/><text fill="#000000" font-family="sans-serif" font-size="14" lengthAdjust="spacing" textLength="109" x="81.25" y="733.432">SimpleSerializer</text><line style="stroke:#181818;stroke-width:0.5;" x1="8" x2="231" y1="744" y2="744"/><line style="stroke:#181818;stroke-width:0.5;" x1="8" x2="231" y1="752" y2="752"/><ellipse cx="18" cy="767.034" fill="#84BE84" rx="3" ry="3" style="stroke:#038048;stroke-width:1.0;"/><text fill="#000000" font-family="sans-serif" font-size="14" lengthAdjust="spacing" textLength="182" x="27" y="770.9659">serialize(Document): String</text><ellipse cx="18" cy="786.1019" fill="#84BE84" rx="3" ry="3" style="stroke:#038048;stroke-width:1.0;"/><text fill="#000000" font-family="sans-serif" font-size="14" lengthAdjust="spacing" textLength="199" x="27" y="790.0339">deserialize(String): Document</text></g><!--class EditCommand--><g id="elem_EditCommand"><rect fill="#F1F1F1" height="48" id="EditCommand" rx="2.5" ry="2.5" style="stroke:#181818;stroke-width:0.5;" width="127" x="1087" y="731"/><ellipse cx="1102" cy="747" fill="#ADD1B2" rx="11" ry="11" style="stroke:#181818;stroke-width:1.0;"/><path d="M1104.9688,752.6406 Q1104.3906,752.9375 1103.75,753.0781 Q1103.1094,753.2344 1102.4063,753.2344 Q1099.9063,753.2344 1098.5781,751.5938 Q1097.2656,749.9375 1097.2656,746.8125 Q1097.2656,743.6875 1098.5781,742.0313 Q1099.9063,740.375 1102.4063,740.375 Q1103.1094,740.375 1103.75,740.5313 Q1104.4063,740.6875 1104.9688,740.9844 L1104.9688,743.7031 Q1104.3438,743.125 1103.75,742.8594 Q1103.1563,742.5781 1102.5313,742.5781 Q1101.1875,742.5781 1100.5,743.6563 Q1099.8125,744.7188 1099.8125,746.8125 Q1099.8125,748.9063 1100.5,749.9844 Q1101.1875,751.0469 1102.5313,751.0469 Q1103.1563,751.0469 1103.75,750.7813 Q1104.3438,750.5 1104.9688,749.9219 L1104.9688,752.6406 Z " fill="#000000"/><text fill="#000000" font-family="sans-serif" font-size="14" lengthAdjust="spacing" textLength="95" x="1116" y="752.432">EditCommand</text><line style="stroke:#181818;stroke-width:0.5;" x1="1088" x2="1213" y1="763" y2="763"/><line style="stroke:#181818;stroke-width:0.5;" x1="1088" x2="1213" y1="771" y2="771"/></g><!--class ExchangeCommand--><g id="elem_ExchangeCommand"><rect fill="#F1F1F1" height="48" id="ExchangeCommand" rx="2.5" ry="2.5" style="stroke:#181818;stroke-width:0.5;" width="166" x="1249.5" y="731"/><ellipse cx="1264.5" cy="747" fill="#ADD1B2" rx="11" ry="11" style="stroke:#181818;stroke-width:1.0;"/><path d="M1267.4688,752.6406 Q1266.8906,752.9375 1266.25,753.0781 Q1265.6094,753.2344 1264.9063,753.2344 Q1262.4063,753.2344 1261.0781,751.5938 Q1259.7656,749.9375 1259.7656,746.8125 Q1259.7656,743.6875 1261.0781,742.0313 Q1262.4063,740.375 1264.9063,740.375 Q1265.6094,740.375 1266.25,740.5313 Q1266.9063,740.6875 1267.4688,740.9844 L1267.4688,743.7031 Q1266.8438,743.125 1266.25,742.8594 Q1265.6563,742.5781 1265.0313,742.5781 Q1263.6875,742.5781 1263,743.6563 Q1262.3125,744.7188 1262.3125,746.8125 Q1262.3125,748.9063 1263,749.9844 Q1263.6875,751.0469 1265.0313,751.0469 Q1265.6563,751.0469 1266.25,750.7813 Q1266.8438,750.5 1267.4688,749.9219 L1267.4688,752.6406 Z " fill="#000000"/><text fill="#000000" font-family="sans-serif" font-size="14" lengthAdjust="spacing" textLength="134" x="1278.5" y="752.432">ExchangeCommand</text><line style="stroke:#181818;stroke-width:0.5;" x1="1250.5" x2="1414.5" y1="763" y2="763"/><line style="stroke:#181818;stroke-width:0.5;" x1="1250.5" x2="1414.5" y1="771" y2="771"/></g><!--class DeleteCommand--><g id="elem_DeleteCommand"><rect fill="#F1F1F1" height="48" id="DeleteCommand" rx="2.5" ry="2.5" style="stroke:#181818;stroke-width:0.5;" width="144" x="1450.5" y="731"/><ellipse cx="1465.5" cy="747" fill="#ADD1B2" rx="11" ry="11" style="stroke:#181818;stroke-width:1.0;"/><path d="M1468.4688,752.6406 Q1467.8906,752.9375 1467.25,753.0781 Q1466.6094,753.2344 1465.9063,753.2344 Q1463.4063,753.2344 1462.0781,751.5938 Q1460.7656,749.9375 1460.7656,746.8125 Q1460.7656,743.6875 1462.0781,742.0313 Q1463.4063,740.375 1465.9063,740.375 Q1466.6094,740.375 1467.25,740.5313 Q1467.9063,740.6875 1468.4688,740.9844 L1468.4688,743.7031 Q1467.8438,743.125 1467.25,742.8594 Q1466.6563,742.5781 1466.0313,742.5781 Q1464.6875,742.5781 1464,743.6563 Q1463.3125,744.7188 1463.3125,746.8125 Q1463.3125,748.9063 1464,749.9844 Q1464.6875,751.0469 1466.0313,751.0469 Q1466.6563,751.0469 1467.25,750.7813 Q1467.8438,750.5 1468.4688,749.9219 L1468.4688,752.6406 Z " fill="#000000"/><text fill="#000000" font-family="sans-serif" font-size="14" lengthAdjust="spacing" textLength="112" x="1479.5" y="752.432">DeleteCommand</text><line style="stroke:#181818;stroke-width:0.5;" x1="1451.5" x2="1593.5" y1="763" y2="763"/><line style="stroke:#181818;stroke-width:0.5;" x1="1451.5" x2="1593.5" y1="771" y2="771"/></g><!--class SetActiveLineCommand--><g id="elem_SetActiveLineCommand"><rect fill="#F1F1F1" height="48" id="SetActiveLineCommand" rx="2.5" ry="2.5" style="stroke:#181818;stroke-width:0.5;" width="190" x="1629.5" y="731"/><ellipse cx="1644.5" cy="747" fill="#ADD1B2" rx="11" ry="11" style="stroke:#181818;stroke-width:1.0;"/><path d="M1647.4688,752.6406 Q1646.8906,752.9375 1646.25,753.0781 Q1645.6094,753.2344 1644.9063,753.2344 Q1642.4063,753.2344 1641.0781,751.5938 Q1639.7656,749.9375 1639.7656,746.8125 Q1639.7656,743.6875 1641.0781,742.0313 Q1642.4063,740.375 1644.9063,740.375 Q1645.6094,740.375 1646.25,740.5313 Q1646.9063,740.6875 1647.4688,740.9844 L1647.4688,743.7031 Q1646.8438,743.125 1646.25,742.8594 Q1645.6563,742.5781 1645.0313,742.5781 Q1643.6875,742.5781 1643,743.6563 Q1642.3125,744.7188 1642.3125,746.8125 Q1642.3125,748.9063 1643,749.9844 Q1643.6875,751.0469 1645.0313,751.0469 Q1645.6563,751.0469 1646.25,750.7813 Q1646.8438,750.5 1647.4688,749.9219 L1647.4688,752.6406 Z " fill="#000000"/><text fill="#000000" font-family="sans-serif" font-size="14" lengthAdjust="spacing" textLength="158" x="1658.5" y="752.432">SetActiveLineCommand</text><line style="stroke:#181818;stroke-width:0.5;" x1="1630.5" x2="1818.5" y1="763" y2="763"/><line style="stroke:#181818;stroke-width:0.5;" x1="1630.5" x2="1818.5" y1="771" y2="771"/></g><!--class ExitCommand--><g id="elem_ExitCommand"><rect fill="#F1F1F1" height="48" id="ExitCommand" rx="2.5" ry="2.5" style="stroke:#181818;stroke-width:0.5;" width="125" x="1855" y="731"/><ellipse cx="1870" cy="747" fill="#ADD1B2" rx="11" ry="11" style="stroke:#181818;stroke-width:1.0;"/><path d="M1872.9688,752.6406 Q1872.3906,752.9375 1871.75,753.0781 Q1871.1094,753.2344 1870.4063,753.2344 Q1867.9063,753.2344 1866.5781,751.5938 Q1865.2656,749.9375 1865.2656,746.8125 Q1865.2656,743.6875 1866.5781,742.0313 Q1867.9063,740.375 1870.4063,740.375 Q1871.1094,740.375 1871.75,740.5313 Q1872.4063,740.6875 1872.9688,740.9844 L1872.9688,743.7031 Q1872.3438,743.125 1871.75,742.8594 Q1871.1563,742.5781 1870.5313,742.5781 Q1869.1875,742.5781 1868.5,743.6563 Q1867.8125,744.7188 1867.8125,746.8125 Q1867.8125,748.9063 1868.5,749.9844 Q1869.1875,751.0469 1870.5313,751.0469 Q1871.1563,751.0469 1871.75,750.7813 Q1872.3438,750.5 1872.9688,749.9219 L1872.9688,752.6406 Z " fill="#000000"/><text fill="#000000" font-family="sans-serif" font-size="14" lengthAdjust="spacing" textLength="93" x="1884" y="752.432">ExitCommand</text><line style="stroke:#181818;stroke-width:0.5;" x1="1856" x2="1979" y1="763" y2="763"/><line style="stroke:#181818;stroke-width:0.5;" x1="1856" x2="1979" y1="771" y2="771"/></g><!--class SaveCommand--><g id="elem_SaveCommand"><rect fill="#F1F1F1" height="48" id="SaveCommand" rx="2.5" ry="2.5" style="stroke:#181818;stroke-width:0.5;" width="132" x="2015.5" y="731"/><ellipse cx="2030.5" cy="747" fill="#ADD1B2" rx="11" ry="11" style="stroke:#181818;stroke-width:1.0;"/><path d="M2033.4688,752.6406 Q2032.8906,752.9375 2032.25,753.0781 Q2031.6094,753.2344 2030.9063,753.2344 Q2028.4063,753.2344 2027.0781,751.5938 Q2025.7656,749.9375 2025.7656,746.8125 Q2025.7656,743.6875 2027.0781,742.0313 Q2028.4063,740.375 2030.9063,740.375 Q2031.6094,740.375 2032.25,740.5313 Q2032.9063,740.6875 2033.4688,740.9844 L2033.4688,743.7031 Q2032.8438,743.125 2032.25,742.8594 Q2031.6563,742.5781 2031.0313,742.5781 Q2029.6875,742.5781 2029,743.6563 Q2028.3125,744.7188 2028.3125,746.8125 Q2028.3125,748.9063 2029,749.9844 Q2029.6875,751.0469 2031.0313,751.0469 Q2031.6563,751.0469 2032.25,750.7813 Q2032.8438,750.5 2033.4688,749.9219 L2033.4688,752.6406 Z " fill="#000000"/><text fill="#000000" font-family="sans-serif" font-size="14" lengthAdjust="spacing" textLength="100" x="2044.5" y="752.432">SaveCommand</text><line style="stroke:#181818;stroke-width:0.5;" x1="2016.5" x2="2146.5" y1="763" y2="763"/><line style="stroke:#181818;stroke-width:0.5;" x1="2016.5" x2="2146.5" y1="771" y2="771"/></g><!--class LoadCommand--><g id="elem_LoadCommand"><rect fill="#F1F1F1" height="48" id="LoadCommand" rx="2.5" ry="2.5" style="stroke:#181818;stroke-width:0.5;" width="133" x="2183" y="731"/><ellipse cx="2198" cy="747" fill="#ADD1B2" rx="11" ry="11" style="stroke:#181818;stroke-width:1.0;"/><path d="M2200.9688,752.6406 Q2200.3906,752.9375 2199.75,753.0781 Q2199.1094,753.2344 2198.4063,753.2344 Q2195.9063,753.2344 2194.5781,751.5938 Q2193.2656,749.9375 2193.2656,746.8125 Q2193.2656,743.6875 2194.5781,742.0313 Q2195.9063,740.375 2198.4063,740.375 Q2199.1094,740.375 2199.75,740.5313 Q2200.4063,740.6875 2200.9688,740.9844 L2200.9688,743.7031 Q2200.3438,743.125 2199.75,742.8594 Q2199.1563,742.5781 2198.5313,742.5781 Q2197.1875,742.5781 2196.5,743.6563 Q2195.8125,744.7188 2195.8125,746.8125 Q2195.8125,748.9063 2196.5,749.9844 Q2197.1875,751.0469 2198.5313,751.0469 Q2199.1563,751.0469 2199.75,750.7813 Q2200.3438,750.5 2200.9688,749.9219 L2200.9688,752.6406 Z " fill="#000000"/><text fill="#000000" font-family="sans-serif" font-size="14" lengthAdjust="spacing" textLength="101" x="2212" y="752.432">LoadCommand</text><line style="stroke:#181818;stroke-width:0.5;" x1="2184" x2="2315" y1="763" y2="763"/><line style="stroke:#181818;stroke-width:0.5;" x1="2184" x2="2315" y1="771" y2="771"/></g><!--class FileManager--><g id="elem_FileManager"><rect fill="#F1F1F1" height="48" id="FileManager" rx="2.5" ry="2.5" style="stroke:#181818;stroke-width:0.5;" width="116" x="2351.5" y="731"/><ellipse cx="2366.5" cy="747" fill="#ADD1B2" rx="11" ry="11" style="stroke:#181818;stroke-width:1.0;"/><path d="M2369.4688,752.6406 Q2368.8906,752.9375 2368.25,753.0781 Q2367.6094,753.2344 2366.9063,753.2344 Q2364.4063,753.2344 2363.0781,751.5938 Q2361.7656,749.9375 2361.7656,746.8125 Q2361.7656,743.6875 2363.0781,742.0313 Q2364.4063,740.375 2366.9063,740.375 Q2367.6094,740.375 2368.25,740.5313 Q2368.9063,740.6875 2369.4688,740.9844 L2369.4688,743.7031 Q2368.8438,743.125 2368.25,742.8594 Q2367.6563,742.5781 2367.0313,742.5781 Q2365.6875,742.5781 2365,743.6563 Q2364.3125,744.7188 2364.3125,746.8125 Q2364.3125,748.9063 2365,749.9844 Q2365.6875,751.0469 2367.0313,751.0469 Q2367.6563,751.0469 2368.25,750.7813 Q2368.8438,750.5 2369.4688,749.9219 L2369.4688,752.6406 Z " fill="#000000"/><text fill="#000000" font-family="sans-serif" font-size="14" lengthAdjust="spacing" textLength="84" x="2380.5" y="752.432">FileManager</text><line style="stroke:#181818;stroke-width:0.5;" x1="2352.5" x2="2466.5" y1="763" y2="763"/><line style="stroke:#181818;stroke-width:0.5;" x1="2352.5" x2="2466.5" y1="771" y2="771"/></g><!--link Editor to Document--><g id="link_Editor_Document"><path codeLine="86" d="M1058.27,153.87 C977.7,197.93 870.2942,256.6811 786.9842,302.2411 " fill="none" id="Editor-to-Document" style="stroke:#181818;stroke-width:1.0;"/><polygon fill="#181818" points="781.72,305.12,791.5356,304.3112,786.1069,302.7209,787.6971,297.2922,781.72,305.12" style="stroke:#181818;stroke-width:1.0;"/></g><!--link Editor to UserInterface--><g id="link_Editor_UserInterface"><path codeLine="87" d="M1159.5,188.11 C1159.5,207.29 1159.5,221.83 1159.5,241.9 " fill="none" id="Editor-to-UserInterface" style="stroke:#181818;stroke-width:1.0;"/><polygon fill="#181818" points="1159.5,247.9,1163.5,238.9,1159.5,242.9,1155.5,238.9,1159.5,247.9" style="stroke:#181818;stroke-width:1.0;"/></g><!--link Editor to DocumentStorage--><g id="link_Editor_DocumentStorage"><path codeLine="88" d="M1260.74,173.87 C1326.14,222.56 1404.0174,280.5268 1458.0774,320.7768 " fill="none" id="Editor-to-DocumentStorage" style="stroke:#181818;stroke-width:1.0;"/><polygon fill="#181818" points="1462.89,324.36,1458.0599,315.7769,1458.8795,321.374,1453.2824,322.1936,1462.89,324.36" style="stroke:#181818;stroke-width:1.0;"/></g><!--link Document to DocumentSerializer--><g id="link_Document_DocumentSerializer"><path codeLine="89" d="M557.47,431.65 C487.05,471.35 403.3665,518.5232 341.4665,553.4232 " fill="none" id="Document-to-DocumentSerializer" style="stroke:#181818;stroke-width:1.0;"/><polygon fill="#181818" points="336.24,556.37,346.0443,555.4342,340.5954,553.9144,342.1153,548.4655,336.24,556.37" style="stroke:#181818;stroke-width:1.0;"/></g><!--link UserInterface to DocumentRenderer--><g id="link_UserInterface_DocumentRenderer"><path codeLine="90" d="M1020.48,434.56 C929.85,477.63 820.9392,529.3848 749.3692,563.3948 " fill="none" id="UserInterface-to-DocumentRenderer" style="stroke:#181818;stroke-width:1.0;"/><polygon fill="#181818" points="743.95,565.97,753.7957,565.72,748.466,563.824,750.3621,558.4943,743.95,565.97" style="stroke:#181818;stroke-width:1.0;"/></g><!--link UserInterface to Command--><g id="link_UserInterface_Command"><path codeLine="91" d="M1298.55,456.6 C1358.96,494.88 1420.9519,534.1585 1465.8019,562.5785 " fill="none" id="UserInterface-to-Command" style="stroke:#181818;stroke-width:1.0;"/><polygon fill="#181818" points="1470.87,565.79,1465.4088,557.594,1466.6465,563.1137,1461.1268,564.3515,1470.87,565.79" style="stroke:#181818;stroke-width:1.0;"/></g><!--reverse link DocumentRenderer to EditorRenderer--><g id="link_DocumentRenderer_EditorRenderer"><path codeLine="92" d="M599.4355,641.6097 C551.2455,667.6597 499.82,695.46 451.64,721.49 " fill="none" id="DocumentRenderer-backto-EditorRenderer" style="stroke:#181818;stroke-width:1.0;stroke-dasharray:7.0,7.0;"/><polygon fill="none" points="615.27,633.05,596.5823,636.3315,602.2887,646.8878,615.27,633.05" style="stroke:#181818;stroke-width:1.0;"/></g><!--reverse link DocumentRenderer to PreviewRenderer--><g id="link_DocumentRenderer_PreviewRenderer"><path codeLine="93" d="M675.5,651.05 C675.5,677.1 675.5,695.46 675.5,721.49 " fill="none" id="DocumentRenderer-backto-PreviewRenderer" style="stroke:#181818;stroke-width:1.0;stroke-dasharray:7.0,7.0;"/><polygon fill="none" points="675.5,633.05,669.5,651.05,681.5,651.05,675.5,633.05" style="stroke:#181818;stroke-width:1.0;"/></g><!--reverse link Command to EditCommand--><g id="link_Command_EditCommand"><path codeLine="94" d="M1412.7529,639.1893 C1355.0629,660.1593 1296.65,682.74 1231.5,712 C1218.78,717.71 1205.24,724.46 1192.94,730.86 " fill="none" id="Command-backto-EditCommand" style="stroke:#181818;stroke-width:1.0;stroke-dasharray:7.0,7.0;"/><polygon fill="none" points="1429.67,633.04,1410.7032,633.5502,1414.8027,644.8283,1429.67,633.04" style="stroke:#181818;stroke-width:1.0;"/></g><!--reverse link Command to ExchangeCommand--><g id="link_Command_ExchangeCommand"><path codeLine="95" d="M1468.2086,644.3619 C1431.8186,673.7619 1393.2,704.96 1361.01,730.97 " fill="none" id="Command-backto-ExchangeCommand" style="stroke:#181818;stroke-width:1.0;stroke-dasharray:7.0,7.0;"/><polygon fill="none" points="1482.21,633.05,1464.4379,639.6948,1471.9792,649.0291,1482.21,633.05" style="stroke:#181818;stroke-width:1.0;"/></g><!--reverse link Command to DeleteCommand--><g id="link_Command_DeleteCommand"><path codeLine="96" d="M1522.5,651.05 C1522.5,680.45 1522.5,704.96 1522.5,730.97 " fill="none" id="Command-backto-DeleteCommand" style="stroke:#181818;stroke-width:1.0;stroke-dasharray:7.0,7.0;"/><polygon fill="none" points="1522.5,633.05,1516.5,651.05,1528.5,651.05,1522.5,633.05" style="stroke:#181818;stroke-width:1.0;"/></g><!--reverse link Command to SetActiveLineCommand--><g id="link_Command_SetActiveLineCommand"><path codeLine="97" d="M1579.6703,643.9423 C1618.3503,673.3423 1659.97,704.96 1694.19,730.97 " fill="none" id="Command-backto-SetActiveLineCommand" style="stroke:#181818;stroke-width:1.0;stroke-dasharray:7.0,7.0;"/><polygon fill="none" points="1565.34,633.05,1576.0396,648.719,1583.3011,639.1655,1565.34,633.05" style="stroke:#181818;stroke-width:1.0;"/></g><!--reverse link Command to ExitCommand--><g id="link_Command_ExitCommand"><path codeLine="98" d="M1642.4124,638.7239 C1704.4024,659.3139 1767.39,681.98 1836.5,712 C1849.43,717.62 1863.16,724.4 1875.57,730.87 " fill="none" id="Command-backto-ExitCommand" style="stroke:#181818;stroke-width:1.0;stroke-dasharray:7.0,7.0;"/><polygon fill="none" points="1625.33,633.05,1640.521,644.418,1644.3037,633.0298,1625.33,633.05" style="stroke:#181818;stroke-width:1.0;"/></g><!--reverse link Command to SaveCommand--><g id="link_Command_SaveCommand"><path codeLine="99" d="M1648.8634,621.7942 C1746.5134,639.7442 1875.23,667.77 1997.5,712 C2011.76,717.16 2026.74,724.11 2040.05,730.87 " fill="none" id="Command-backto-SaveCommand" style="stroke:#181818;stroke-width:1.0;stroke-dasharray:7.0,7.0;"/><polygon fill="none" points="1631.16,618.54,1647.7786,627.6954,1649.9481,615.8931,1631.16,618.54" style="stroke:#181818;stroke-width:1.0;"/></g><!--reverse link Command to LoadCommand--><g id="link_Command_LoadCommand"><path codeLine="100" d="M1649.1194,611.4036 C1778.8994,624.4736 1983.34,652.1 2165.5,712 C2180.21,716.84 2195.58,723.87 2209.08,730.8 " fill="none" id="Command-backto-LoadCommand" style="stroke:#181818;stroke-width:1.0;stroke-dasharray:7.0,7.0;"/><polygon fill="none" points="1631.21,609.6,1648.5182,617.3734,1649.7206,605.4338,1631.21,609.6" style="stroke:#181818;stroke-width:1.0;"/></g><!--reverse link Command to ChangeViewCommand--><g id="link_Command_ChangeViewCommand"><path codeLine="101" d="M1396.3042,628.6781 C1304.1242,649.7881 1186.21,678.25 1069.5,712 C1063.85,713.63 1058.08,715.36 1052.26,717.14 " fill="none" id="Command-backto-ChangeViewCommand" style="stroke:#181818;stroke-width:1.0;stroke-dasharray:7.0,7.0;"/><polygon fill="none" points="1413.85,624.66,1394.9648,622.8295,1397.6436,634.5267,1413.85,624.66" style="stroke:#181818;stroke-width:1.0;"/></g><!--reverse link DocumentStorage to FileManagerAdapter--><g id="link_DocumentStorage_FileManagerAdapter"><path codeLine="102" d="M1619.84,409.206 C1722.42,450.816 1879.34,514.47 1988.19,558.62 " fill="none" id="DocumentStorage-backto-FileManagerAdapter" style="stroke:#181818;stroke-width:1.0;stroke-dasharray:7.0,7.0;"/><polygon fill="none" points="1603.16,402.44,1617.5847,414.766,1622.0953,403.646,1603.16,402.44" style="stroke:#181818;stroke-width:1.0;"/></g><!--reverse link DocumentSerializer to SimpleSerializer--><g id="link_DocumentSerializer_SimpleSerializer"><path codeLine="103" d="M210.1002,656.0666 C190.2402,677.5466 178.4,690.33 158.55,711.79 " fill="none" id="DocumentSerializer-backto-SimpleSerializer" style="stroke:#181818;stroke-width:1.0;stroke-dasharray:7.0,7.0;"/><polygon fill="none" points="222.32,642.85,205.6947,651.9933,214.5057,660.1398,222.32,642.85" style="stroke:#181818;stroke-width:1.0;"/></g><!--link FileManagerAdapter to FileManager--><g id="link_FileManagerAdapter_FileManager"><path codeLine="104" d="M2184.73,642.66 C2230.37,662.8 2285.13,687.76 2333.5,712 C2345.23,717.87 2352.5101,721.7051 2363.9501,728.0351 " fill="none" id="FileManagerAdapter-to-FileManager" style="stroke:#181818;stroke-width:1.0;"/><polygon fill="#181818" points="2369.2,730.94,2363.2617,723.0827,2364.8251,728.5193,2359.3885,730.0826,2369.2,730.94" style="stroke:#181818;stroke-width:1.0;"/></g><!--link EditorRenderer to RenderUtils--><g id="link_EditorRenderer_RenderUtils"><path codeLine="105" d="M420.58,788.87 C438.1,808.68 456.9636,829.9969 477.5136,853.2169 " fill="none" id="EditorRenderer-to-RenderUtils" style="stroke:#181818;stroke-width:1.0;stroke-dasharray:7.0,7.0;"/><polygon fill="#181818" points="481.49,857.71,478.5207,848.3194,478.1763,853.9658,472.5299,853.6213,481.49,857.71" style="stroke:#181818;stroke-width:1.0;"/></g><!--link PreviewRenderer to RenderUtils--><g id="link_PreviewRenderer_RenderUtils"><path codeLine="106" d="M646.42,788.87 C628.9,808.68 610.0364,829.9969 589.4864,853.2169 " fill="none" id="PreviewRenderer-to-RenderUtils" style="stroke:#181818;stroke-width:1.0;stroke-dasharray:7.0,7.0;"/><polygon fill="#181818" points="585.51,857.71,594.4701,853.6213,588.8237,853.9658,588.4793,848.3194,585.51,857.71" style="stroke:#181818;stroke-width:1.0;"/></g><!--SRC=[jLNDJjmm4BxxANpOGr3PVO1gjH82AYg1X8ZefUh1TOPWoMj7jdTBeNttEl5FR2S1KGakySut_z_CG3dH6bysp4Y5Nn2sV-iBIGzx40Ot_k74znhKLs50FH0A-C1ovTew82rWxRu3-CdvhKxSBmr1gwgDOgBryaUYW_paC_uf9GSY7AGEmbh_HOWEUSRCVAREpVSVc3C1sicOXGarx0ZNLbWa2OeHpfv1OHsVBb9G2Sd6to66bxTWUh-L3MEJTM0iBo2dE2lGsfp5ZFeQcUzfRvCWlKydxworgRAE9st8cGYze4I8lZ3tVPkT2Dw1Q41PK-KV2p0CRDwzhjGfE3BubMjvJctTjmw-aOqVaQoMgiZNTyFb5K4lDR9jENoptggnp-ToloUYwPlidsFRN4xtXd6Djzk3_JBpUxUp3NJcrEQeQge0xD2j4YAkf6BFKXZ27O6hG5v75Ea7VA2yPsyLHy96PP6YIPTUPWixnKkCNsQjVxVvRKxAE-p76dmxWoqy0JsOaR5aSsFOyqSYse6Xt7Z-bBpXSjhDCDG-8qsEyR0KPuHBCep4Qzmajo4u398qetJZ6nXLOk2WExRX2-DmGuHDLPqrf3CnmZf1yCFu_ezwNAIQxJiE7r69_m-nNkz6SIBB29rJzboXUC4pSBp5-MIaIl6YJ5N2fa_MRFjdiobsPq6fs10K1ZPw235ou8aE8puBNW07Cm_LwTbVyBmGihPJCGjSsvcO1IPRYCe56jIcKufcLiFbK8mPcfdmdfT4Z8eBjjdiqdkCoWjLuFy0]--></g></svg>