<?xml version="1.0" encoding="us-ascii" standalone="no"?><svg xmlns="http://www.w3.org/2000/svg" xmlns:xlink="http://www.w3.org/1999/xlink" contentStyleType="text/css" height="729px" preserveAspectRatio="none" style="width:2235px;height:729px;background:#FFFFFF;" version="1.1" viewBox="0 0 2235 729" width="2235px" zoomAndPan="magnify"><defs/><g><!--class Editor--><g id="elem_Editor"><rect codeLine="1" fill="#F1F1F1" height="181.4754" id="Editor" rx="2.5" ry="2.5" style="stroke:#181818;stroke-width:0.5;" width="224" x="1011.5" y="7"/><ellipse cx="1099.25" cy="23" fill="#ADD1B2" rx="11" ry="11" style="stroke:#181818;stroke-width:1.0;"/><path d="M1102.2188,28.6406 Q1101.6406,28.9375 1101,29.0781 Q1100.3594,29.2344 1099.6563,29.2344 Q1097.1563,29.2344 1095.8281,27.5938 Q1094.5156,25.9375 1094.5156,22.8125 Q1094.5156,19.6875 1095.8281,18.0313 Q1097.1563,16.375 1099.6563,16.375 Q1100.3594,16.375 1101,16.5313 Q1101.6563,16.6875 1102.2188,16.9844 L1102.2188,19.7031 Q1101.5938,19.125 1101,18.8594 Q1100.4063,18.5781 1099.7813,18.5781 Q1098.4375,18.5781 1097.75,19.6563 Q1097.0625,20.7188 1097.0625,22.8125 Q1097.0625,24.9063 1097.75,25.9844 Q1098.4375,27.0469 1099.7813,27.0469 Q1100.4063,27.0469 1101,26.7813 Q1101.5938,26.5 1102.2188,25.9219 L1102.2188,28.6406 Z " fill="#000000"/><text fill="#000000" font-family="sans-serif" font-size="14" lengthAdjust="spacing" textLength="40" x="1119.75" y="28.432">Editor</text><line style="stroke:#181818;stroke-width:0.5;" x1="1012.5" x2="1234.5" y1="39" y2="39"/><rect fill="none" height="6" style="stroke:#C82930;stroke-width:1.0;" width="6" x="1019.5" y="51.034"/><text fill="#000000" font-family="sans-serif" font-size="14" lengthAdjust="spacing" textLength="141" x="1031.5" y="57.9659">Document document</text><rect fill="none" height="6" style="stroke:#C82930;stroke-width:1.0;" width="6" x="1019.5" y="70.1019"/><text fill="#000000" font-family="sans-serif" font-size="14" lengthAdjust="spacing" textLength="109" x="1031.5" y="77.0339">UserInterface ui</text><rect fill="none" height="6" style="stroke:#C82930;stroke-width:1.0;" width="6" x="1019.5" y="89.1698"/><text fill="#000000" font-family="sans-serif" font-size="14" lengthAdjust="spacing" textLength="176" x="1031.5" y="96.1018">DocumentStorage storage</text><rect fill="none" height="6" style="stroke:#C82930;stroke-width:1.0;" width="6" x="1019.5" y="108.2377"/><text fill="#000000" font-family="sans-serif" font-size="14" lengthAdjust="spacing" textLength="198" x="1031.5" y="115.1697">DocumentSerializer serializer</text><line style="stroke:#181818;stroke-width:0.5;" x1="1012.5" x2="1234.5" y1="123.2717" y2="123.2717"/><ellipse cx="1022.5" cy="138.3056" fill="#84BE84" rx="3" ry="3" style="stroke:#038048;stroke-width:1.0;"/><text fill="#000000" font-family="sans-serif" font-size="14" lengthAdjust="spacing" textLength="48" x="1031.5" y="142.2376">Editor()</text><ellipse cx="1022.5" cy="157.3735" fill="#84BE84" rx="3" ry="3" style="stroke:#038048;stroke-width:1.0;"/><text fill="#000000" font-family="sans-serif" font-size="14" lengthAdjust="spacing" textLength="32" x="1031.5" y="161.3055">run()</text><rect fill="#F24D5C" height="6" style="stroke:#C82930;stroke-width:1.0;" width="6" x="1019.5" y="173.4415"/><text fill="#000000" font-family="sans-serif" font-size="14" lengthAdjust="spacing" textLength="191" x="1031.5" y="180.3734">processCommand(): boolean</text></g><!--class Document--><g id="elem_Document"><rect codeLine="11" fill="#F1F1F1" height="200.5433" id="Document" rx="2.5" ry="2.5" style="stroke:#181818;stroke-width:0.5;" width="159" x="583" y="248"/><ellipse cx="624.1" cy="264" fill="#ADD1B2" rx="11" ry="11" style="stroke:#181818;stroke-width:1.0;"/><path d="M627.0688,269.6406 Q626.4906,269.9375 625.85,270.0781 Q625.2094,270.2344 624.5063,270.2344 Q622.0063,270.2344 620.6781,268.5938 Q619.3656,266.9375 619.3656,263.8125 Q619.3656,260.6875 620.6781,259.0313 Q622.0063,257.375 624.5063,257.375 Q625.2094,257.375 625.85,257.5313 Q626.5063,257.6875 627.0688,257.9844 L627.0688,260.7031 Q626.4438,260.125 625.85,259.8594 Q625.2563,259.5781 624.6313,259.5781 Q623.2875,259.5781 622.6,260.6563 Q621.9125,261.7188 621.9125,263.8125 Q621.9125,265.9063 622.6,266.9844 Q623.2875,268.0469 624.6313,268.0469 Q625.2563,268.0469 625.85,267.7813 Q626.4438,267.5 627.0688,266.9219 L627.0688,269.6406 Z " fill="#000000"/><text fill="#000000" font-family="sans-serif" font-size="14" lengthAdjust="spacing" textLength="69" x="643.9" y="269.432">Document</text><line style="stroke:#181818;stroke-width:0.5;" x1="584" x2="741" y1="280" y2="280"/><rect fill="none" height="6" style="stroke:#C82930;stroke-width:1.0;" width="6" x="591" y="292.034"/><text fill="#000000" font-family="sans-serif" font-size="14" lengthAdjust="spacing" textLength="87" x="603" y="298.9659">String[] lines</text><rect fill="none" height="6" style="stroke:#C82930;stroke-width:1.0;" width="6" x="591" y="311.1019"/><text fill="#000000" font-family="sans-serif" font-size="14" lengthAdjust="spacing" textLength="89" x="603" y="318.0339">int activeLine</text><line style="stroke:#181818;stroke-width:0.5;" x1="584" x2="741" y1="326.1358" y2="326.1358"/><ellipse cx="594" cy="341.1698" fill="#84BE84" rx="3" ry="3" style="stroke:#038048;stroke-width:1.0;"/><text fill="#000000" font-family="sans-serif" font-size="14" lengthAdjust="spacing" textLength="77" x="603" y="345.1018">Document()</text><ellipse cx="594" cy="360.2377" fill="#84BE84" rx="3" ry="3" style="stroke:#038048;stroke-width:1.0;"/><text fill="#000000" font-family="sans-serif" font-size="14" lengthAdjust="spacing" textLength="125" x="603" y="364.1697">getLine(int): String</text><ellipse cx="594" cy="379.3056" fill="#84BE84" rx="3" ry="3" style="stroke:#038048;stroke-width:1.0;"/><text fill="#000000" font-family="sans-serif" font-size="14" lengthAdjust="spacing" textLength="123" x="603" y="383.2376">setLine(int, String)</text><ellipse cx="594" cy="398.3735" fill="#84BE84" rx="3" ry="3" style="stroke:#038048;stroke-width:1.0;"/><text fill="#000000" font-family="sans-serif" font-size="14" lengthAdjust="spacing" textLength="124" x="603" y="402.3055">getActiveLine(): int</text><ellipse cx="594" cy="417.4415" fill="#84BE84" rx="3" ry="3" style="stroke:#038048;stroke-width:1.0;"/><text fill="#000000" font-family="sans-serif" font-size="14" lengthAdjust="spacing" textLength="114" x="603" y="421.3734">setActiveLine(int)</text><ellipse cx="594" cy="436.5094" fill="#84BE84" rx="3" ry="3" style="stroke:#038048;stroke-width:1.0;"/><text fill="#000000" font-family="sans-serif" font-size="14" lengthAdjust="spacing" textLength="133" x="603" y="440.4414">print(UserInterface)</text></g><!--class UserInterface--><g id="elem_UserInterface"><rect codeLine="22" fill="#F1F1F1" height="181.4754" id="UserInterface" rx="2.5" ry="2.5" style="stroke:#181818;stroke-width:0.5;" width="202" x="777.5" y="258"/><ellipse cx="828.25" cy="274" fill="#ADD1B2" rx="11" ry="11" style="stroke:#181818;stroke-width:1.0;"/><path d="M831.2188,279.6406 Q830.6406,279.9375 830,280.0781 Q829.3594,280.2344 828.6563,280.2344 Q826.1563,280.2344 824.8281,278.5938 Q823.5156,276.9375 823.5156,273.8125 Q823.5156,270.6875 824.8281,269.0313 Q826.1563,267.375 828.6563,267.375 Q829.3594,267.375 830,267.5313 Q830.6563,267.6875 831.2188,267.9844 L831.2188,270.7031 Q830.5938,270.125 830,269.8594 Q829.4063,269.5781 828.7813,269.5781 Q827.4375,269.5781 826.75,270.6563 Q826.0625,271.7188 826.0625,273.8125 Q826.0625,275.9063 826.75,276.9844 Q827.4375,278.0469 828.7813,278.0469 Q829.4063,278.0469 830,277.7813 Q830.5938,277.5 831.2188,276.9219 L831.2188,279.6406 Z " fill="#000000"/><text fill="#000000" font-family="sans-serif" font-size="14" lengthAdjust="spacing" textLength="92" x="848.75" y="279.432">UserInterface</text><line style="stroke:#181818;stroke-width:0.5;" x1="778.5" x2="978.5" y1="290" y2="290"/><rect fill="none" height="6" style="stroke:#C82930;stroke-width:1.0;" width="6" x="785.5" y="302.034"/><text fill="#000000" font-family="sans-serif" font-size="14" lengthAdjust="spacing" textLength="113" x="797.5" y="308.9659">Scanner scanner</text><line style="stroke:#181818;stroke-width:0.5;" x1="778.5" x2="978.5" y1="317.0679" y2="317.0679"/><ellipse cx="788.5" cy="332.1019" fill="#84BE84" rx="3" ry="3" style="stroke:#038048;stroke-width:1.0;"/><text fill="#000000" font-family="sans-serif" font-size="14" lengthAdjust="spacing" textLength="100" x="797.5" y="336.0339">UserInterface()</text><ellipse cx="788.5" cy="351.1698" fill="#84BE84" rx="3" ry="3" style="stroke:#038048;stroke-width:1.0;"/><text fill="#000000" font-family="sans-serif" font-size="14" lengthAdjust="spacing" textLength="147" x="797.5" y="355.1018">showLines(Document)</text><ellipse cx="788.5" cy="370.2377" fill="#84BE84" rx="3" ry="3" style="stroke:#038048;stroke-width:1.0;"/><text fill="#000000" font-family="sans-serif" font-size="14" lengthAdjust="spacing" textLength="176" x="797.5" y="374.1697">getCommand(): Command</text><ellipse cx="788.5" cy="389.3056" fill="#84BE84" rx="3" ry="3" style="stroke:#038048;stroke-width:1.0;"/><text fill="#000000" font-family="sans-serif" font-size="14" lengthAdjust="spacing" textLength="84" x="797.5" y="393.2376">readInt(): int</text><ellipse cx="788.5" cy="408.3735" fill="#84BE84" rx="3" ry="3" style="stroke:#038048;stroke-width:1.0;"/><text fill="#000000" font-family="sans-serif" font-size="14" lengthAdjust="spacing" textLength="129" x="797.5" y="412.3055">readString(): String</text><ellipse cx="788.5" cy="427.4415" fill="#84BE84" rx="3" ry="3" style="stroke:#038048;stroke-width:1.0;"/><text fill="#000000" font-family="sans-serif" font-size="14" lengthAdjust="spacing" textLength="87" x="797.5" y="431.3734">clearScreen()</text></g><!--class Command--><g id="elem_Command"><rect codeLine="32" fill="#F1F1F1" height="67.0679" id="Command" rx="2.5" ry="2.5" style="stroke:#181818;stroke-width:0.5;" width="217" x="1015" y="315"/><ellipse cx="1087.25" cy="331" fill="#B4A7E5" rx="11" ry="11" style="stroke:#181818;stroke-width:1.0;"/><path d="M1083.1719,326.7656 L1083.1719,324.6094 L1090.5625,324.6094 L1090.5625,326.7656 L1088.0938,326.7656 L1088.0938,334.8438 L1090.5625,334.8438 L1090.5625,337 L1083.1719,337 L1083.1719,334.8438 L1085.6406,334.8438 L1085.6406,326.7656 L1083.1719,326.7656 Z " fill="#000000"/><text fill="#000000" font-family="sans-serif" font-size="14" font-style="italic" lengthAdjust="spacing" textLength="64" x="1107.75" y="336.432">Command</text><line style="stroke:#181818;stroke-width:0.5;" x1="1016" x2="1231" y1="347" y2="347"/><line style="stroke:#181818;stroke-width:0.5;" x1="1016" x2="1231" y1="355" y2="355"/><ellipse cx="1026" cy="370.034" fill="#84BE84" rx="3" ry="3" style="stroke:#038048;stroke-width:1.0;"/><text fill="#000000" font-family="sans-serif" font-size="14" lengthAdjust="spacing" textLength="191" x="1035" y="373.9659">execute(Document): boolean</text></g><!--class EditCommand--><g id="elem_EditCommand"><rect codeLine="36" fill="#F1F1F1" height="67.0679" id="EditCommand" rx="2.5" ry="2.5" style="stroke:#181818;stroke-width:0.5;" width="217" x="7" y="528"/><ellipse cx="63.75" cy="544" fill="#ADD1B2" rx="11" ry="11" style="stroke:#181818;stroke-width:1.0;"/><path d="M66.7188,549.6406 Q66.1406,549.9375 65.5,550.0781 Q64.8594,550.2344 64.1563,550.2344 Q61.6563,550.2344 60.3281,548.5938 Q59.0156,546.9375 59.0156,543.8125 Q59.0156,540.6875 60.3281,539.0313 Q61.6563,537.375 64.1563,537.375 Q64.8594,537.375 65.5,537.5313 Q66.1563,537.6875 66.7188,537.9844 L66.7188,540.7031 Q66.0938,540.125 65.5,539.8594 Q64.9063,539.5781 64.2813,539.5781 Q62.9375,539.5781 62.25,540.6563 Q61.5625,541.7188 61.5625,543.8125 Q61.5625,545.9063 62.25,546.9844 Q62.9375,548.0469 64.2813,548.0469 Q64.9063,548.0469 65.5,547.7813 Q66.0938,547.5 66.7188,546.9219 L66.7188,549.6406 Z " fill="#000000"/><text fill="#000000" font-family="sans-serif" font-size="14" lengthAdjust="spacing" textLength="95" x="84.25" y="549.432">EditCommand</text><line style="stroke:#181818;stroke-width:0.5;" x1="8" x2="223" y1="560" y2="560"/><line style="stroke:#181818;stroke-width:0.5;" x1="8" x2="223" y1="568" y2="568"/><ellipse cx="18" cy="583.034" fill="#84BE84" rx="3" ry="3" style="stroke:#038048;stroke-width:1.0;"/><text fill="#000000" font-family="sans-serif" font-size="14" lengthAdjust="spacing" textLength="191" x="27" y="586.9659">execute(Document): boolean</text></g><!--class ExchangeCommand--><g id="elem_ExchangeCommand"><rect codeLine="40" fill="#F1F1F1" height="67.0679" id="ExchangeCommand" rx="2.5" ry="2.5" style="stroke:#181818;stroke-width:0.5;" width="217" x="259" y="528"/><ellipse cx="296.95" cy="544" fill="#ADD1B2" rx="11" ry="11" style="stroke:#181818;stroke-width:1.0;"/><path d="M299.9188,549.6406 Q299.3406,549.9375 298.7,550.0781 Q298.0594,550.2344 297.3563,550.2344 Q294.8563,550.2344 293.5281,548.5938 Q292.2156,546.9375 292.2156,543.8125 Q292.2156,540.6875 293.5281,539.0313 Q294.8563,537.375 297.3563,537.375 Q298.0594,537.375 298.7,537.5313 Q299.3563,537.6875 299.9188,537.9844 L299.9188,540.7031 Q299.2938,540.125 298.7,539.8594 Q298.1063,539.5781 297.4813,539.5781 Q296.1375,539.5781 295.45,540.6563 Q294.7625,541.7188 294.7625,543.8125 Q294.7625,545.9063 295.45,546.9844 Q296.1375,548.0469 297.4813,548.0469 Q298.1063,548.0469 298.7,547.7813 Q299.2938,547.5 299.9188,546.9219 L299.9188,549.6406 Z " fill="#000000"/><text fill="#000000" font-family="sans-serif" font-size="14" lengthAdjust="spacing" textLength="134" x="316.05" y="549.432">ExchangeCommand</text><line style="stroke:#181818;stroke-width:0.5;" x1="260" x2="475" y1="560" y2="560"/><line style="stroke:#181818;stroke-width:0.5;" x1="260" x2="475" y1="568" y2="568"/><ellipse cx="270" cy="583.034" fill="#84BE84" rx="3" ry="3" style="stroke:#038048;stroke-width:1.0;"/><text fill="#000000" font-family="sans-serif" font-size="14" lengthAdjust="spacing" textLength="191" x="279" y="586.9659">execute(Document): boolean</text></g><!--class DeleteCommand--><g id="elem_DeleteCommand"><rect codeLine="44" fill="#F1F1F1" height="67.0679" id="DeleteCommand" rx="2.5" ry="2.5" style="stroke:#181818;stroke-width:0.5;" width="217" x="511" y="528"/><ellipse cx="559.25" cy="544" fill="#ADD1B2" rx="11" ry="11" style="stroke:#181818;stroke-width:1.0;"/><path d="M562.2188,549.6406 Q561.6406,549.9375 561,550.0781 Q560.3594,550.2344 559.6563,550.2344 Q557.1563,550.2344 555.8281,548.5938 Q554.5156,546.9375 554.5156,543.8125 Q554.5156,540.6875 555.8281,539.0313 Q557.1563,537.375 559.6563,537.375 Q560.3594,537.375 561,537.5313 Q561.6563,537.6875 562.2188,537.9844 L562.2188,540.7031 Q561.5938,540.125 561,539.8594 Q560.4063,539.5781 559.7813,539.5781 Q558.4375,539.5781 557.75,540.6563 Q557.0625,541.7188 557.0625,543.8125 Q557.0625,545.9063 557.75,546.9844 Q558.4375,548.0469 559.7813,548.0469 Q560.4063,548.0469 561,547.7813 Q561.5938,547.5 562.2188,546.9219 L562.2188,549.6406 Z " fill="#000000"/><text fill="#000000" font-family="sans-serif" font-size="14" lengthAdjust="spacing" textLength="112" x="579.75" y="549.432">DeleteCommand</text><line style="stroke:#181818;stroke-width:0.5;" x1="512" x2="727" y1="560" y2="560"/><line style="stroke:#181818;stroke-width:0.5;" x1="512" x2="727" y1="568" y2="568"/><ellipse cx="522" cy="583.034" fill="#84BE84" rx="3" ry="3" style="stroke:#038048;stroke-width:1.0;"/><text fill="#000000" font-family="sans-serif" font-size="14" lengthAdjust="spacing" textLength="191" x="531" y="586.9659">execute(Document): boolean</text></g><!--class SetActiveLineCommand--><g id="elem_SetActiveLineCommand"><rect codeLine="48" fill="#F1F1F1" height="67.0679" id="SetActiveLineCommand" rx="2.5" ry="2.5" style="stroke:#181818;stroke-width:0.5;" width="217" x="763" y="528"/><ellipse cx="790.15" cy="544" fill="#ADD1B2" rx="11" ry="11" style="stroke:#181818;stroke-width:1.0;"/><path d="M793.1188,549.6406 Q792.5406,549.9375 791.9,550.0781 Q791.2594,550.2344 790.5563,550.2344 Q788.0563,550.2344 786.7281,548.5938 Q785.4156,546.9375 785.4156,543.8125 Q785.4156,540.6875 786.7281,539.0313 Q788.0563,537.375 790.5563,537.375 Q791.2594,537.375 791.9,537.5313 Q792.5563,537.6875 793.1188,537.9844 L793.1188,540.7031 Q792.4938,540.125 791.9,539.8594 Q791.3063,539.5781 790.6813,539.5781 Q789.3375,539.5781 788.65,540.6563 Q787.9625,541.7188 787.9625,543.8125 Q787.9625,545.9063 788.65,546.9844 Q789.3375,548.0469 790.6813,548.0469 Q791.3063,548.0469 791.9,547.7813 Q792.4938,547.5 793.1188,546.9219 L793.1188,549.6406 Z " fill="#000000"/><text fill="#000000" font-family="sans-serif" font-size="14" lengthAdjust="spacing" textLength="158" x="806.85" y="549.432">SetActiveLineCommand</text><line style="stroke:#181818;stroke-width:0.5;" x1="764" x2="979" y1="560" y2="560"/><line style="stroke:#181818;stroke-width:0.5;" x1="764" x2="979" y1="568" y2="568"/><ellipse cx="774" cy="583.034" fill="#84BE84" rx="3" ry="3" style="stroke:#038048;stroke-width:1.0;"/><text fill="#000000" font-family="sans-serif" font-size="14" lengthAdjust="spacing" textLength="191" x="783" y="586.9659">execute(Document): boolean</text></g><!--class ExitCommand--><g id="elem_ExitCommand"><rect codeLine="52" fill="#F1F1F1" height="67.0679" id="ExitCommand" rx="2.5" ry="2.5" style="stroke:#181818;stroke-width:0.5;" width="217" x="1015" y="528"/><ellipse cx="1072.75" cy="544" fill="#ADD1B2" rx="11" ry="11" style="stroke:#181818;stroke-width:1.0;"/><path d="M1075.7188,549.6406 Q1075.1406,549.9375 1074.5,550.0781 Q1073.8594,550.2344 1073.1563,550.2344 Q1070.6563,550.2344 1069.3281,548.5938 Q1068.0156,546.9375 1068.0156,543.8125 Q1068.0156,540.6875 1069.3281,539.0313 Q1070.6563,537.375 1073.1563,537.375 Q1073.8594,537.375 1074.5,537.5313 Q1075.1563,537.6875 1075.7188,537.9844 L1075.7188,540.7031 Q1075.0938,540.125 1074.5,539.8594 Q1073.9063,539.5781 1073.2813,539.5781 Q1071.9375,539.5781 1071.25,540.6563 Q1070.5625,541.7188 1070.5625,543.8125 Q1070.5625,545.9063 1071.25,546.9844 Q1071.9375,548.0469 1073.2813,548.0469 Q1073.9063,548.0469 1074.5,547.7813 Q1075.0938,547.5 1075.7188,546.9219 L1075.7188,549.6406 Z " fill="#000000"/><text fill="#000000" font-family="sans-serif" font-size="14" lengthAdjust="spacing" textLength="93" x="1093.25" y="549.432">ExitCommand</text><line style="stroke:#181818;stroke-width:0.5;" x1="1016" x2="1231" y1="560" y2="560"/><line style="stroke:#181818;stroke-width:0.5;" x1="1016" x2="1231" y1="568" y2="568"/><ellipse cx="1026" cy="583.034" fill="#84BE84" rx="3" ry="3" style="stroke:#038048;stroke-width:1.0;"/><text fill="#000000" font-family="sans-serif" font-size="14" lengthAdjust="spacing" textLength="191" x="1035" y="586.9659">execute(Document): boolean</text></g><!--class SaveCommand--><g id="elem_SaveCommand"><rect codeLine="56" fill="#F1F1F1" height="67.0679" id="SaveCommand" rx="2.5" ry="2.5" style="stroke:#181818;stroke-width:0.5;" width="217" x="1267" y="528"/><ellipse cx="1321.25" cy="544" fill="#ADD1B2" rx="11" ry="11" style="stroke:#181818;stroke-width:1.0;"/><path d="M1324.2188,549.6406 Q1323.6406,549.9375 1323,550.0781 Q1322.3594,550.2344 1321.6563,550.2344 Q1319.1563,550.2344 1317.8281,548.5938 Q1316.5156,546.9375 1316.5156,543.8125 Q1316.5156,540.6875 1317.8281,539.0313 Q1319.1563,537.375 1321.6563,537.375 Q1322.3594,537.375 1323,537.5313 Q1323.6563,537.6875 1324.2188,537.9844 L1324.2188,540.7031 Q1323.5938,540.125 1323,539.8594 Q1322.4063,539.5781 1321.7813,539.5781 Q1320.4375,539.5781 1319.75,540.6563 Q1319.0625,541.7188 1319.0625,543.8125 Q1319.0625,545.9063 1319.75,546.9844 Q1320.4375,548.0469 1321.7813,548.0469 Q1322.4063,548.0469 1323,547.7813 Q1323.5938,547.5 1324.2188,546.9219 L1324.2188,549.6406 Z " fill="#000000"/><text fill="#000000" font-family="sans-serif" font-size="14" lengthAdjust="spacing" textLength="100" x="1341.75" y="549.432">SaveCommand</text><line style="stroke:#181818;stroke-width:0.5;" x1="1268" x2="1483" y1="560" y2="560"/><line style="stroke:#181818;stroke-width:0.5;" x1="1268" x2="1483" y1="568" y2="568"/><ellipse cx="1278" cy="583.034" fill="#84BE84" rx="3" ry="3" style="stroke:#038048;stroke-width:1.0;"/><text fill="#000000" font-family="sans-serif" font-size="14" lengthAdjust="spacing" textLength="191" x="1287" y="586.9659">execute(Document): boolean</text></g><!--class LoadCommand--><g id="elem_LoadCommand"><rect codeLine="60" fill="#F1F1F1" height="67.0679" id="LoadCommand" rx="2.5" ry="2.5" style="stroke:#181818;stroke-width:0.5;" width="217" x="1519" y="528"/><ellipse cx="1572.75" cy="544" fill="#ADD1B2" rx="11" ry="11" style="stroke:#181818;stroke-width:1.0;"/><path d="M1575.7188,549.6406 Q1575.1406,549.9375 1574.5,550.0781 Q1573.8594,550.2344 1573.1563,550.2344 Q1570.6563,550.2344 1569.3281,548.5938 Q1568.0156,546.9375 1568.0156,543.8125 Q1568.0156,540.6875 1569.3281,539.0313 Q1570.6563,537.375 1573.1563,537.375 Q1573.8594,537.375 1574.5,537.5313 Q1575.1563,537.6875 1575.7188,537.9844 L1575.7188,540.7031 Q1575.0938,540.125 1574.5,539.8594 Q1573.9063,539.5781 1573.2813,539.5781 Q1571.9375,539.5781 1571.25,540.6563 Q1570.5625,541.7188 1570.5625,543.8125 Q1570.5625,545.9063 1571.25,546.9844 Q1571.9375,548.0469 1573.2813,548.0469 Q1573.9063,548.0469 1574.5,547.7813 Q1575.0938,547.5 1575.7188,546.9219 L1575.7188,549.6406 Z " fill="#000000"/><text fill="#000000" font-family="sans-serif" font-size="14" lengthAdjust="spacing" textLength="101" x="1593.25" y="549.432">LoadCommand</text><line style="stroke:#181818;stroke-width:0.5;" x1="1520" x2="1735" y1="560" y2="560"/><line style="stroke:#181818;stroke-width:0.5;" x1="1520" x2="1735" y1="568" y2="568"/><ellipse cx="1530" cy="583.034" fill="#84BE84" rx="3" ry="3" style="stroke:#038048;stroke-width:1.0;"/><text fill="#000000" font-family="sans-serif" font-size="14" lengthAdjust="spacing" textLength="191" x="1539" y="586.9659">execute(Document): boolean</text></g><!--class DocumentStorage--><g id="elem_DocumentStorage"><rect codeLine="64" fill="#F1F1F1" height="86.1358" id="DocumentStorage" rx="2.5" ry="2.5" style="stroke:#181818;stroke-width:0.5;" width="167" x="1527" y="305.5"/><ellipse cx="1552.35" cy="321.5" fill="#B4A7E5" rx="11" ry="11" style="stroke:#181818;stroke-width:1.0;"/><path d="M1548.2719,317.2656 L1548.2719,315.1094 L1555.6625,315.1094 L1555.6625,317.2656 L1553.1938,317.2656 L1553.1938,325.3438 L1555.6625,325.3438 L1555.6625,327.5 L1548.2719,327.5 L1548.2719,325.3438 L1550.7406,325.3438 L1550.7406,317.2656 L1548.2719,317.2656 Z " fill="#000000"/><text fill="#000000" font-family="sans-serif" font-size="14" font-style="italic" lengthAdjust="spacing" textLength="112" x="1568.65" y="326.932">DocumentStorage</text><line style="stroke:#181818;stroke-width:0.5;" x1="1528" x2="1693" y1="337.5" y2="337.5"/><line style="stroke:#181818;stroke-width:0.5;" x1="1528" x2="1693" y1="345.5" y2="345.5"/><ellipse cx="1538" cy="360.534" fill="#84BE84" rx="3" ry="3" style="stroke:#038048;stroke-width:1.0;"/><text fill="#000000" font-family="sans-serif" font-size="14" lengthAdjust="spacing" textLength="141" x="1547" y="364.4659">save(String): boolean</text><ellipse cx="1538" cy="379.6019" fill="#84BE84" rx="3" ry="3" style="stroke:#038048;stroke-width:1.0;"/><text fill="#000000" font-family="sans-serif" font-size="14" lengthAdjust="spacing" textLength="86" x="1547" y="383.5339">load(): String</text></g><!--class DocumentSerializer--><g id="elem_DocumentSerializer"><rect codeLine="69" fill="#F1F1F1" height="86.1358" id="DocumentSerializer" rx="2.5" ry="2.5" style="stroke:#181818;stroke-width:0.5;" width="225" x="1736" y="305.5"/><ellipse cx="1783.25" cy="321.5" fill="#B4A7E5" rx="11" ry="11" style="stroke:#181818;stroke-width:1.0;"/><path d="M1779.1719,317.2656 L1779.1719,315.1094 L1786.5625,315.1094 L1786.5625,317.2656 L1784.0938,317.2656 L1784.0938,325.3438 L1786.5625,325.3438 L1786.5625,327.5 L1779.1719,327.5 L1779.1719,325.3438 L1781.6406,325.3438 L1781.6406,317.2656 L1779.1719,317.2656 Z " fill="#000000"/><text fill="#000000" font-family="sans-serif" font-size="14" font-style="italic" lengthAdjust="spacing" textLength="122" x="1803.75" y="326.932">DocumentSerializer</text><line style="stroke:#181818;stroke-width:0.5;" x1="1737" x2="1960" y1="337.5" y2="337.5"/><line style="stroke:#181818;stroke-width:0.5;" x1="1737" x2="1960" y1="345.5" y2="345.5"/><ellipse cx="1747" cy="360.534" fill="#84BE84" rx="3" ry="3" style="stroke:#038048;stroke-width:1.0;"/><text fill="#000000" font-family="sans-serif" font-size="14" lengthAdjust="spacing" textLength="182" x="1756" y="364.4659">serialize(Document): String</text><ellipse cx="1747" cy="379.6019" fill="#84BE84" rx="3" ry="3" style="stroke:#038048;stroke-width:1.0;"/><text fill="#000000" font-family="sans-serif" font-size="14" lengthAdjust="spacing" textLength="199" x="1756" y="383.5339">deserialize(String): Document</text></g><!--class FileManagerAdapter--><g id="elem_FileManagerAdapter"><rect codeLine="74" fill="#F1F1F1" height="105.2038" id="FileManagerAdapter" rx="2.5" ry="2.5" style="stroke:#181818;stroke-width:0.5;" width="196" x="1771.5" y="509"/><ellipse cx="1798.2" cy="525" fill="#ADD1B2" rx="11" ry="11" style="stroke:#181818;stroke-width:1.0;"/><path d="M1801.1688,530.6406 Q1800.5906,530.9375 1799.95,531.0781 Q1799.3094,531.2344 1798.6063,531.2344 Q1796.1063,531.2344 1794.7781,529.5938 Q1793.4656,527.9375 1793.4656,524.8125 Q1793.4656,521.6875 1794.7781,520.0313 Q1796.1063,518.375 1798.6063,518.375 Q1799.3094,518.375 1799.95,518.5313 Q1800.6063,518.6875 1801.1688,518.9844 L1801.1688,521.7031 Q1800.5438,521.125 1799.95,520.8594 Q1799.3563,520.5781 1798.7313,520.5781 Q1797.3875,520.5781 1796.7,521.6563 Q1796.0125,522.7188 1796.0125,524.8125 Q1796.0125,526.9063 1796.7,527.9844 Q1797.3875,529.0469 1798.7313,529.0469 Q1799.3563,529.0469 1799.95,528.7813 Q1800.5438,528.5 1801.1688,527.9219 L1801.1688,530.6406 Z " fill="#000000"/><text fill="#000000" font-family="sans-serif" font-size="14" lengthAdjust="spacing" textLength="138" x="1814.8" y="530.432">FileManagerAdapter</text><line style="stroke:#181818;stroke-width:0.5;" x1="1772.5" x2="1966.5" y1="541" y2="541"/><rect fill="none" height="6" style="stroke:#C82930;stroke-width:1.0;" width="6" x="1779.5" y="553.034"/><text fill="#000000" font-family="sans-serif" font-size="14" lengthAdjust="spacing" textLength="170" x="1791.5" y="559.9659">FileManager fileManager</text><line style="stroke:#181818;stroke-width:0.5;" x1="1772.5" x2="1966.5" y1="568.0679" y2="568.0679"/><ellipse cx="1782.5" cy="583.1019" fill="#84BE84" rx="3" ry="3" style="stroke:#038048;stroke-width:1.0;"/><text fill="#000000" font-family="sans-serif" font-size="14" lengthAdjust="spacing" textLength="141" x="1791.5" y="587.0339">save(String): boolean</text><ellipse cx="1782.5" cy="602.1698" fill="#84BE84" rx="3" ry="3" style="stroke:#038048;stroke-width:1.0;"/><text fill="#000000" font-family="sans-serif" font-size="14" lengthAdjust="spacing" textLength="86" x="1791.5" y="606.1018">load(): String</text></g><!--class SimpleSerializer--><g id="elem_SimpleSerializer"><rect codeLine="80" fill="#F1F1F1" height="86.1358" id="SimpleSerializer" rx="2.5" ry="2.5" style="stroke:#181818;stroke-width:0.5;" width="225" x="2003" y="518.5"/><ellipse cx="2056.75" cy="534.5" fill="#ADD1B2" rx="11" ry="11" style="stroke:#181818;stroke-width:1.0;"/><path d="M2059.7188,540.1406 Q2059.1406,540.4375 2058.5,540.5781 Q2057.8594,540.7344 2057.1563,540.7344 Q2054.6563,540.7344 2053.3281,539.0938 Q2052.0156,537.4375 2052.0156,534.3125 Q2052.0156,531.1875 2053.3281,529.5313 Q2054.6563,527.875 2057.1563,527.875 Q2057.8594,527.875 2058.5,528.0313 Q2059.1563,528.1875 2059.7188,528.4844 L2059.7188,531.2031 Q2059.0938,530.625 2058.5,530.3594 Q2057.9063,530.0781 2057.2813,530.0781 Q2055.9375,530.0781 2055.25,531.1563 Q2054.5625,532.2188 2054.5625,534.3125 Q2054.5625,536.4063 2055.25,537.4844 Q2055.9375,538.5469 2057.2813,538.5469 Q2057.9063,538.5469 2058.5,538.2813 Q2059.0938,538 2059.7188,537.4219 L2059.7188,540.1406 Z " fill="#000000"/><text fill="#000000" font-family="sans-serif" font-size="14" lengthAdjust="spacing" textLength="109" x="2077.25" y="539.932">SimpleSerializer</text><line style="stroke:#181818;stroke-width:0.5;" x1="2004" x2="2227" y1="550.5" y2="550.5"/><line style="stroke:#181818;stroke-width:0.5;" x1="2004" x2="2227" y1="558.5" y2="558.5"/><ellipse cx="2014" cy="573.534" fill="#84BE84" rx="3" ry="3" style="stroke:#038048;stroke-width:1.0;"/><text fill="#000000" font-family="sans-serif" font-size="14" lengthAdjust="spacing" textLength="182" x="2023" y="577.4659">serialize(Document): String</text><ellipse cx="2014" cy="592.6019" fill="#84BE84" rx="3" ry="3" style="stroke:#038048;stroke-width:1.0;"/><text fill="#000000" font-family="sans-serif" font-size="14" lengthAdjust="spacing" textLength="199" x="2023" y="596.5339">deserialize(String): Document</text></g><!--class FileManager--><g id="elem_FileManager"><rect fill="#F1F1F1" height="48" id="FileManager" rx="2.5" ry="2.5" style="stroke:#181818;stroke-width:0.5;" width="116" x="1811.5" y="674"/><ellipse cx="1826.5" cy="690" fill="#ADD1B2" rx="11" ry="11" style="stroke:#181818;stroke-width:1.0;"/><path d="M1829.4688,695.6406 Q1828.8906,695.9375 1828.25,696.0781 Q1827.6094,696.2344 1826.9063,696.2344 Q1824.4063,696.2344 1823.0781,694.5938 Q1821.7656,692.9375 1821.7656,689.8125 Q1821.7656,686.6875 1823.0781,685.0313 Q1824.4063,683.375 1826.9063,683.375 Q1827.6094,683.375 1828.25,683.5313 Q1828.9063,683.6875 1829.4688,683.9844 L1829.4688,686.7031 Q1828.8438,686.125 1828.25,685.8594 Q1827.6563,685.5781 1827.0313,685.5781 Q1825.6875,685.5781 1825,686.6563 Q1824.3125,687.7188 1824.3125,689.8125 Q1824.3125,691.9063 1825,692.9844 Q1825.6875,694.0469 1827.0313,694.0469 Q1827.6563,694.0469 1828.25,693.7813 Q1828.8438,693.5 1829.4688,692.9219 L1829.4688,695.6406 Z " fill="#000000"/><text fill="#000000" font-family="sans-serif" font-size="14" lengthAdjust="spacing" textLength="84" x="1840.5" y="695.432">FileManager</text><line style="stroke:#181818;stroke-width:0.5;" x1="1812.5" x2="1926.5" y1="706" y2="706"/><line style="stroke:#181818;stroke-width:0.5;" x1="1812.5" x2="1926.5" y1="714" y2="714"/></g><!--link Editor to Document--><g id="link_Editor_Document"><path codeLine="85" d="M1011.36,131.29 C936.22,156.35 837.21,195.53 759.5,248 C753.6,251.98 752.4332,252.5821 746.7332,257.2221 " fill="none" id="Editor-to-Document" style="stroke:#181818;stroke-width:1.0;"/><polygon fill="#181818" points="742.08,261.01,751.585,258.4303,745.9577,257.8535,746.5345,252.2261,742.08,261.01" style="stroke:#181818;stroke-width:1.0;"/></g><!--link Editor to UserInterface--><g id="link_Editor_UserInterface"><path codeLine="86" d="M1035.4,188.04 C1013.03,210.77 993.2177,230.9127 970.8577,253.6427 " fill="none" id="Editor-to-UserInterface" style="stroke:#181818;stroke-width:1.0;"/><polygon fill="#181818" points="966.65,257.92,975.8131,254.3092,970.1564,254.3556,970.11,248.6989,966.65,257.92" style="stroke:#181818;stroke-width:1.0;"/></g><!--link Editor to Command--><g id="link_Editor_Command"><path codeLine="87" d="M1123.5,188.04 C1123.5,232.24 1123.5,276.83 1123.5,308.96 " fill="none" id="Editor-to-Command" style="stroke:#181818;stroke-width:1.0;"/><polygon fill="#181818" points="1123.5,314.96,1127.5,305.96,1123.5,309.96,1119.5,305.96,1123.5,314.96" style="stroke:#181818;stroke-width:1.0;"/></g><!--reverse link Command to EditCommand--><g id="link_Command_EditCommand"><path codeLine="88" d="M1079.9796,394.5518 C1056.1296,417.6118 1033.82,434.44 996.5,449 C682.9,571.33 568.97,431.06 241.5,509 C222.42,513.54 202.47,520.55 184.21,527.95 " fill="none" id="Command-backto-EditCommand" style="stroke:#181818;stroke-width:1.0;stroke-dasharray:7.0,7.0;"/><polygon fill="none" points="1092.92,382.04,1075.809,390.2383,1084.1502,398.8653,1092.92,382.04" style="stroke:#181818;stroke-width:1.0;"/></g><!--reverse link Command to ExchangeCommand--><g id="link_Command_ExchangeCommand"><path codeLine="89" d="M1079.2099,394.4979 C1055.2799,417.2679 1033.26,433.82 996.5,449 C788.41,534.94 711.45,452.57 493.5,509 C474.97,513.8 455.55,520.72 437.66,527.93 " fill="none" id="Command-backto-ExchangeCommand" style="stroke:#181818;stroke-width:1.0;stroke-dasharray:7.0,7.0;"/><polygon fill="none" points="1092.25,382.09,1075.074,390.1513,1083.3459,398.8446,1092.25,382.09" style="stroke:#181818;stroke-width:1.0;"/></g><!--reverse link Command to DeleteCommand--><g id="link_Command_DeleteCommand"><path codeLine="90" d="M1077.0883,394.1261 C1052.9283,416.1161 1031.69,432.02 996.5,449 C893.2,498.85 854.68,473.87 745.5,509 C728.52,514.47 710.59,521.19 693.76,527.95 " fill="none" id="Command-backto-DeleteCommand" style="stroke:#181818;stroke-width:1.0;stroke-dasharray:7.0,7.0;"/><polygon fill="none" points="1090.4,382.01,1073.0496,389.6888,1081.127,398.5633,1090.4,382.01" style="stroke:#181818;stroke-width:1.0;"/></g><!--reverse link Command to SetActiveLineCommand--><g id="link_Command_SetActiveLineCommand"><path codeLine="91" d="M1070.8783,393.5648 C1023.5183,433.2148 957.74,488.29 910.37,527.96 " fill="none" id="Command-backto-SetActiveLineCommand" style="stroke:#181818;stroke-width:1.0;stroke-dasharray:7.0,7.0;"/><polygon fill="none" points="1084.68,382.01,1067.0267,388.9643,1074.7299,398.1654,1084.68,382.01" style="stroke:#181818;stroke-width:1.0;"/></g><!--reverse link Command to ExitCommand--><g id="link_Command_ExitCommand"><path codeLine="92" d="M1123.5,400.01 C1123.5,439.66 1123.5,488.29 1123.5,527.96 " fill="none" id="Command-backto-ExitCommand" style="stroke:#181818;stroke-width:1.0;stroke-dasharray:7.0,7.0;"/><polygon fill="none" points="1123.5,382.01,1117.5,400.01,1129.5,400.01,1123.5,382.01" style="stroke:#181818;stroke-width:1.0;"/></g><!--link Editor to DocumentStorage--><g id="link_Editor_DocumentStorage"><path codeLine="94" d="M1235.53,155.78 C1324.85,201.45 1442.5178,261.6085 1522.9178,302.7185 " fill="none" id="Editor-to-DocumentStorage" style="stroke:#181818;stroke-width:1.0;"/><polygon fill="#181818" points="1528.26,305.45,1522.0678,297.7912,1523.8082,303.1737,1518.4257,304.9141,1528.26,305.45" style="stroke:#181818;stroke-width:1.0;"/></g><!--link Editor to DocumentSerializer--><g id="link_Editor_DocumentSerializer"><path codeLine="95" d="M1235.59,114.04 C1357.17,133.8 1554.87,174.54 1711.5,248 C1743.17,262.85 1770.3029,281.6667 1795.3029,301.5367 " fill="none" id="Editor-to-DocumentSerializer" style="stroke:#181818;stroke-width:1.0;"/><polygon fill="#181818" points="1800,305.27,1795.4432,296.5387,1796.0857,302.159,1790.4655,302.8015,1800,305.27" style="stroke:#181818;stroke-width:1.0;"/></g><!--reverse link Command to SaveCommand--><g id="link_Command_SaveCommand"><path codeLine="96" d="M1176.1217,393.5648 C1223.4817,433.2148 1289.26,488.29 1336.63,527.96 " fill="none" id="Command-backto-SaveCommand" style="stroke:#181818;stroke-width:1.0;stroke-dasharray:7.0,7.0;"/><polygon fill="none" points="1162.32,382.01,1172.2701,398.1654,1179.9733,388.9643,1162.32,382.01" style="stroke:#181818;stroke-width:1.0;"/></g><!--reverse link Command to LoadCommand--><g id="link_Command_LoadCommand"><path codeLine="97" d="M1217.7537,388.9611 C1312.4637,428.6111 1455.02,488.29 1549.77,527.96 " fill="none" id="Command-backto-LoadCommand" style="stroke:#181818;stroke-width:1.0;stroke-dasharray:7.0,7.0;"/><polygon fill="none" points="1201.15,382.01,1215.4367,394.4956,1220.0707,383.4265,1201.15,382.01" style="stroke:#181818;stroke-width:1.0;"/></g><!--reverse link DocumentStorage to FileManagerAdapter--><g id="link_DocumentStorage_FileManagerAdapter"><path codeLine="98" d="M1667.0485,403.8449 C1686.3885,422.0149 1696.58,430.9 1718.5,449 C1743.13,469.33 1771.03,490.44 1796.08,508.75 " fill="none" id="DocumentStorage-backto-FileManagerAdapter" style="stroke:#181818;stroke-width:1.0;stroke-dasharray:7.0,7.0;"/><polygon fill="none" points="1653.93,391.52,1662.9402,408.2178,1671.1569,399.4721,1653.93,391.52" style="stroke:#181818;stroke-width:1.0;"/></g><!--reverse link DocumentSerializer to SimpleSerializer--><g id="link_DocumentSerializer_SimpleSerializer"><path codeLine="99" d="M1916.0128,402.85 C1962.5828,439.65 2015.66,481.6 2062.2,518.38 " fill="none" id="DocumentSerializer-backto-SimpleSerializer" style="stroke:#181818;stroke-width:1.0;stroke-dasharray:7.0,7.0;"/><polygon fill="none" points="1901.89,391.69,1912.2928,407.5576,1919.7328,398.1424,1901.89,391.69" style="stroke:#181818;stroke-width:1.0;"/></g><!--link FileManagerAdapter to FileManager--><g id="link_FileManagerAdapter_FileManager"><path codeLine="100" d="M1869.5,614.12 C1869.5,634.71 1869.5,651.38 1869.5,667.79 " fill="none" id="FileManagerAdapter-to-FileManager" style="stroke:#181818;stroke-width:1.0;"/><polygon fill="#181818" points="1869.5,673.79,1873.5,664.79,1869.5,668.79,1865.5,664.79,1869.5,673.79" style="stroke:#181818;stroke-width:1.0;"/></g><!--SRC=[jLNBJiCm4BpdAtnCLT8FG0YfeY1LAgU84-9Wd6snvDYHxPIAnxzZntPiXro8H2zrTtPtPbz065OAtJTK2ua-2sG-rKwGlWMkKUCVploaGEwv1dd4151FS-VQ9C0dGCfzJq2G53Fw0HAfyJcuh1rrkNA_PC_zi-ga8A3KdMXRp9joTOrUXM20UV5T56IGFGhrmcijAJyzlo16EIXdemR6HDCp78pHiOIum7e2RS7I-1eQbyKXAY9N7eWnsp6jLKTzdsnCWjYSpjwPQ5rcNLp5MlBkXe88vjmspNsxF9bdA46zYNVBfyfGNDIPjD0_VRC1DtlRXKIyjRawoqahYEczh8a4i2CokkcercVrgjTm0T9hY4fcHcV7lYJiGjumFy62q1qmq4i2wtIUYpGlAhN6voLi1u6RFuN5CKvFsOSh8wJqknyZ1uWPicHFvhF5smy9WoLLbAvQ0z5b90w-iTG7ok0HSoDLRXlSwP6XIX1qZEy5zVXPqBPZy1-L-B-yLNKRpOajk_KK28SSHdtpjTcaHpK1yhF9mUmmScXkzQUP8-LSCNwNPg7udo0dZOkV0ybg5zDT7Hn-BqGniuMEP3BHOcQPhDZ4_0C0]--></g></svg>