<?xml version="1.0" encoding="us-ascii" standalone="no"?><svg xmlns="http://www.w3.org/2000/svg" xmlns:xlink="http://www.w3.org/1999/xlink" contentStyleType="text/css" height="1173px" preserveAspectRatio="none" style="width:2664px;height:1173px;background:#FFFFFF;" version="1.1" viewBox="0 0 2664 1173" width="2664px" zoomAndPan="magnify"><defs/><g><!--class Editor--><g id="elem_Editor"><rect codeLine="1" fill="#F1F1F1" height="181.4754" id="Editor" rx="2.5" ry="2.5" style="stroke:#181818;stroke-width:0.5;" width="202" x="866.94" y="7"/><ellipse cx="943.69" cy="23" fill="#ADD1B2" rx="11" ry="11" style="stroke:#181818;stroke-width:1.0;"/><path d="M946.6587,28.6406 Q946.0806,28.9375 945.44,29.0781 Q944.7994,29.2344 944.0962,29.2344 Q941.5962,29.2344 940.2681,27.5938 Q938.9556,25.9375 938.9556,22.8125 Q938.9556,19.6875 940.2681,18.0313 Q941.5962,16.375 944.0962,16.375 Q944.7994,16.375 945.44,16.5313 Q946.0962,16.6875 946.6587,16.9844 L946.6587,19.7031 Q946.0337,19.125 945.44,18.8594 Q944.8462,18.5781 944.2212,18.5781 Q942.8775,18.5781 942.19,19.6563 Q941.5025,20.7188 941.5025,22.8125 Q941.5025,24.9063 942.19,25.9844 Q942.8775,27.0469 944.2212,27.0469 Q944.8462,27.0469 945.44,26.7813 Q946.0337,26.5 946.6587,25.9219 L946.6587,28.6406 Z " fill="#000000"/><text fill="#000000" font-family="sans-serif" font-size="14" lengthAdjust="spacing" textLength="40" x="964.19" y="28.432">Editor</text><line style="stroke:#181818;stroke-width:0.5;" x1="867.94" x2="1067.94" y1="39" y2="39"/><rect fill="none" height="6" style="stroke:#C82930;stroke-width:1.0;" width="6" x="874.94" y="51.034"/><text fill="#000000" font-family="sans-serif" font-size="14" lengthAdjust="spacing" textLength="141" x="886.94" y="57.9659">Document document</text><rect fill="none" height="6" style="stroke:#C82930;stroke-width:1.0;" width="6" x="874.94" y="70.1019"/><text fill="#000000" font-family="sans-serif" font-size="14" lengthAdjust="spacing" textLength="109" x="886.94" y="77.0339">UserInterface ui</text><rect fill="none" height="6" style="stroke:#C82930;stroke-width:1.0;" width="6" x="874.94" y="89.1698"/><text fill="#000000" font-family="sans-serif" font-size="14" lengthAdjust="spacing" textLength="176" x="886.94" y="96.1018">DocumentStorage storage</text><line style="stroke:#181818;stroke-width:0.5;" x1="867.94" x2="1067.94" y1="104.2038" y2="104.2038"/><ellipse cx="877.94" cy="119.2377" fill="#84BE84" rx="3" ry="3" style="stroke:#038048;stroke-width:1.0;"/><text fill="#000000" font-family="sans-serif" font-size="14" lengthAdjust="spacing" textLength="48" x="886.94" y="123.1697">Editor()</text><ellipse cx="877.94" cy="138.3056" fill="#84BE84" rx="3" ry="3" style="stroke:#038048;stroke-width:1.0;"/><text fill="#000000" font-family="sans-serif" font-size="14" lengthAdjust="spacing" textLength="121" x="886.94" y="142.2376">setStorage(String)</text><ellipse cx="877.94" cy="157.3735" fill="#84BE84" rx="3" ry="3" style="stroke:#038048;stroke-width:1.0;"/><text fill="#000000" font-family="sans-serif" font-size="14" lengthAdjust="spacing" textLength="146" x="886.94" y="161.3055">hasStorage(): boolean</text><ellipse cx="877.94" cy="176.4415" fill="#84BE84" rx="3" ry="3" style="stroke:#038048;stroke-width:1.0;"/><text fill="#000000" font-family="sans-serif" font-size="14" lengthAdjust="spacing" textLength="32" x="886.94" y="180.3734">run()</text></g><!--class Document--><g id="elem_Document"><rect codeLine="11" fill="#F1F1F1" height="295.8829" id="Document" rx="2.5" ry="2.5" style="stroke:#181818;stroke-width:0.5;" width="225" x="1916.44" y="248"/><ellipse cx="1990.19" cy="264" fill="#ADD1B2" rx="11" ry="11" style="stroke:#181818;stroke-width:1.0;"/><path d="M1993.1588,269.6406 Q1992.5806,269.9375 1991.94,270.0781 Q1991.2994,270.2344 1990.5963,270.2344 Q1988.0963,270.2344 1986.7681,268.5938 Q1985.4556,266.9375 1985.4556,263.8125 Q1985.4556,260.6875 1986.7681,259.0313 Q1988.0963,257.375 1990.5963,257.375 Q1991.2994,257.375 1991.94,257.5313 Q1992.5963,257.6875 1993.1588,257.9844 L1993.1588,260.7031 Q1992.5338,260.125 1991.94,259.8594 Q1991.3463,259.5781 1990.7213,259.5781 Q1989.3775,259.5781 1988.69,260.6563 Q1988.0025,261.7188 1988.0025,263.8125 Q1988.0025,265.9063 1988.69,266.9844 Q1989.3775,268.0469 1990.7213,268.0469 Q1991.3463,268.0469 1991.94,267.7813 Q1992.5338,267.5 1993.1588,266.9219 L1993.1588,269.6406 Z " fill="#000000"/><text fill="#000000" font-family="sans-serif" font-size="14" lengthAdjust="spacing" textLength="69" x="2010.69" y="269.432">Document</text><line style="stroke:#181818;stroke-width:0.5;" x1="1917.44" x2="2140.44" y1="280" y2="280"/><rect fill="none" height="6" style="stroke:#C82930;stroke-width:1.0;" width="6" x="1924.44" y="292.034"/><text fill="#000000" font-family="sans-serif" font-size="14" lengthAdjust="spacing" textLength="87" x="1936.44" y="298.9659">String[] lines</text><rect fill="none" height="6" style="stroke:#C82930;stroke-width:1.0;" width="6" x="1924.44" y="311.1019"/><text fill="#000000" font-family="sans-serif" font-size="14" lengthAdjust="spacing" textLength="89" x="1936.44" y="318.0339">int activeLine</text><rect fill="none" height="6" style="stroke:#C82930;stroke-width:1.0;" width="6" x="1924.44" y="330.1698"/><text fill="#000000" font-family="sans-serif" font-size="14" lengthAdjust="spacing" textLength="198" x="1936.44" y="337.1018">DocumentSerializer serializer</text><line style="stroke:#181818;stroke-width:0.5;" x1="1917.44" x2="2140.44" y1="345.2038" y2="345.2038"/><ellipse cx="1927.44" cy="360.2377" fill="#84BE84" rx="3" ry="3" style="stroke:#038048;stroke-width:1.0;"/><text fill="#000000" font-family="sans-serif" font-size="14" lengthAdjust="spacing" textLength="77" x="1936.44" y="364.1697">Document()</text><ellipse cx="1927.44" cy="379.3056" fill="#84BE84" rx="3" ry="3" style="stroke:#038048;stroke-width:1.0;"/><text fill="#000000" font-family="sans-serif" font-size="14" lengthAdjust="spacing" textLength="128" x="1936.44" y="383.2376">Document(String[])</text><ellipse cx="1927.44" cy="398.3735" fill="#84BE84" rx="3" ry="3" style="stroke:#038048;stroke-width:1.0;"/><text fill="#000000" font-family="sans-serif" font-size="14" lengthAdjust="spacing" textLength="125" x="1936.44" y="402.3055">getLine(int): String</text><ellipse cx="1927.44" cy="417.4415" fill="#84BE84" rx="3" ry="3" style="stroke:#038048;stroke-width:1.0;"/><text fill="#000000" font-family="sans-serif" font-size="14" lengthAdjust="spacing" textLength="123" x="1936.44" y="421.3734">setLine(int, String)</text><ellipse cx="1927.44" cy="436.5094" fill="#84BE84" rx="3" ry="3" style="stroke:#038048;stroke-width:1.0;"/><text fill="#000000" font-family="sans-serif" font-size="14" lengthAdjust="spacing" textLength="124" x="1936.44" y="440.4414">getActiveLine(): int</text><ellipse cx="1927.44" cy="455.5773" fill="#84BE84" rx="3" ry="3" style="stroke:#038048;stroke-width:1.0;"/><text fill="#000000" font-family="sans-serif" font-size="14" lengthAdjust="spacing" textLength="114" x="1936.44" y="459.5093">setActiveLine(int)</text><ellipse cx="1927.44" cy="474.6452" fill="#84BE84" rx="3" ry="3" style="stroke:#038048;stroke-width:1.0;"/><text fill="#000000" font-family="sans-serif" font-size="14" lengthAdjust="spacing" textLength="113" x="1936.44" y="478.5772">serialize(): String</text><ellipse cx="1927.44" cy="493.7131" fill="#84BE84" rx="3" ry="3" style="stroke:#038048;stroke-width:1.0;"/><text fill="#000000" font-family="sans-serif" font-size="14" lengthAdjust="spacing" textLength="199" x="1936.44" y="497.6451">deserialize(String): Document</text><ellipse cx="1927.44" cy="512.781" fill="#84BE84" rx="3" ry="3" style="stroke:#038048;stroke-width:1.0;"/><text fill="#000000" font-family="sans-serif" font-size="14" lengthAdjust="spacing" textLength="159" x="1936.44" y="516.713">updateFrom(Document)</text><ellipse cx="1927.44" cy="531.849" fill="#84BE84" rx="3" ry="3" style="stroke:#038048;stroke-width:1.0;"/><text fill="#000000" font-family="sans-serif" font-size="14" lengthAdjust="spacing" textLength="133" x="1936.44" y="535.7809">print(UserInterface)</text></g><!--class UserInterface--><g id="elem_UserInterface"><rect codeLine="27" fill="#F1F1F1" height="181.4754" id="UserInterface" rx="2.5" ry="2.5" style="stroke:#181818;stroke-width:0.5;" width="202" x="866.94" y="305.5"/><ellipse cx="917.69" cy="321.5" fill="#ADD1B2" rx="11" ry="11" style="stroke:#181818;stroke-width:1.0;"/><path d="M920.6587,327.1406 Q920.0806,327.4375 919.44,327.5781 Q918.7994,327.7344 918.0962,327.7344 Q915.5962,327.7344 914.2681,326.0938 Q912.9556,324.4375 912.9556,321.3125 Q912.9556,318.1875 914.2681,316.5313 Q915.5962,314.875 918.0962,314.875 Q918.7994,314.875 919.44,315.0313 Q920.0962,315.1875 920.6587,315.4844 L920.6587,318.2031 Q920.0337,317.625 919.44,317.3594 Q918.8462,317.0781 918.2212,317.0781 Q916.8775,317.0781 916.19,318.1563 Q915.5025,319.2188 915.5025,321.3125 Q915.5025,323.4063 916.19,324.4844 Q916.8775,325.5469 918.2212,325.5469 Q918.8462,325.5469 919.44,325.2813 Q920.0337,325 920.6587,324.4219 L920.6587,327.1406 Z " fill="#000000"/><text fill="#000000" font-family="sans-serif" font-size="14" lengthAdjust="spacing" textLength="92" x="938.19" y="326.932">UserInterface</text><line style="stroke:#181818;stroke-width:0.5;" x1="867.94" x2="1067.94" y1="337.5" y2="337.5"/><rect fill="none" height="6" style="stroke:#C82930;stroke-width:1.0;" width="6" x="874.94" y="349.534"/><text fill="#000000" font-family="sans-serif" font-size="14" lengthAdjust="spacing" textLength="113" x="886.94" y="356.4659">Scanner scanner</text><line style="stroke:#181818;stroke-width:0.5;" x1="867.94" x2="1067.94" y1="364.5679" y2="364.5679"/><ellipse cx="877.94" cy="379.6019" fill="#84BE84" rx="3" ry="3" style="stroke:#038048;stroke-width:1.0;"/><text fill="#000000" font-family="sans-serif" font-size="14" lengthAdjust="spacing" textLength="100" x="886.94" y="383.5339">UserInterface()</text><ellipse cx="877.94" cy="398.6698" fill="#84BE84" rx="3" ry="3" style="stroke:#038048;stroke-width:1.0;"/><text fill="#000000" font-family="sans-serif" font-size="14" lengthAdjust="spacing" textLength="147" x="886.94" y="402.6018">showLines(Document)</text><ellipse cx="877.94" cy="417.7377" fill="#84BE84" rx="3" ry="3" style="stroke:#038048;stroke-width:1.0;"/><text fill="#000000" font-family="sans-serif" font-size="14" lengthAdjust="spacing" textLength="176" x="886.94" y="421.6697">getCommand(): Command</text><ellipse cx="877.94" cy="436.8056" fill="#84BE84" rx="3" ry="3" style="stroke:#038048;stroke-width:1.0;"/><text fill="#000000" font-family="sans-serif" font-size="14" lengthAdjust="spacing" textLength="84" x="886.94" y="440.7376">readInt(): int</text><ellipse cx="877.94" cy="455.8735" fill="#84BE84" rx="3" ry="3" style="stroke:#038048;stroke-width:1.0;"/><text fill="#000000" font-family="sans-serif" font-size="14" lengthAdjust="spacing" textLength="129" x="886.94" y="459.8055">readString(): String</text><ellipse cx="877.94" cy="474.9415" fill="#84BE84" rx="3" ry="3" style="stroke:#038048;stroke-width:1.0;"/><text fill="#000000" font-family="sans-serif" font-size="14" lengthAdjust="spacing" textLength="87" x="886.94" y="478.8734">clearScreen()</text></g><!--class Command--><g id="elem_Command"><rect codeLine="37" fill="#F1F1F1" height="67.0679" id="Command" rx="2.5" ry="2.5" style="stroke:#181818;stroke-width:0.5;" width="217" x="1148.44" y="362.5"/><ellipse cx="1220.69" cy="378.5" fill="#B4A7E5" rx="11" ry="11" style="stroke:#181818;stroke-width:1.0;"/><path d="M1216.6119,374.2656 L1216.6119,372.1094 L1224.0025,372.1094 L1224.0025,374.2656 L1221.5338,374.2656 L1221.5338,382.3438 L1224.0025,382.3438 L1224.0025,384.5 L1216.6119,384.5 L1216.6119,382.3438 L1219.0806,382.3438 L1219.0806,374.2656 L1216.6119,374.2656 Z " fill="#000000"/><text fill="#000000" font-family="sans-serif" font-size="14" font-style="italic" lengthAdjust="spacing" textLength="64" x="1241.19" y="383.932">Command</text><line style="stroke:#181818;stroke-width:0.5;" x1="1149.44" x2="1364.44" y1="394.5" y2="394.5"/><line style="stroke:#181818;stroke-width:0.5;" x1="1149.44" x2="1364.44" y1="402.5" y2="402.5"/><ellipse cx="1159.44" cy="417.534" fill="#84BE84" rx="3" ry="3" style="stroke:#038048;stroke-width:1.0;"/><text fill="#000000" font-family="sans-serif" font-size="14" lengthAdjust="spacing" textLength="191" x="1168.44" y="421.4659">execute(Document): boolean</text></g><!--class EditCommand--><g id="elem_EditCommand"><rect codeLine="41" fill="#F1F1F1" height="105.2038" id="EditCommand" rx="2.5" ry="2.5" style="stroke:#181818;stroke-width:0.5;" width="221" x="254.44" y="613.5"/><ellipse cx="313.19" cy="629.5" fill="#ADD1B2" rx="11" ry="11" style="stroke:#181818;stroke-width:1.0;"/><path d="M316.1588,635.1406 Q315.5806,635.4375 314.94,635.5781 Q314.2994,635.7344 313.5963,635.7344 Q311.0963,635.7344 309.7681,634.0938 Q308.4556,632.4375 308.4556,629.3125 Q308.4556,626.1875 309.7681,624.5313 Q311.0963,622.875 313.5963,622.875 Q314.2994,622.875 314.94,623.0313 Q315.5963,623.1875 316.1588,623.4844 L316.1588,626.2031 Q315.5338,625.625 314.94,625.3594 Q314.3463,625.0781 313.7213,625.0781 Q312.3775,625.0781 311.69,626.1563 Q311.0025,627.2188 311.0025,629.3125 Q311.0025,631.4063 311.69,632.4844 Q312.3775,633.5469 313.7213,633.5469 Q314.3463,633.5469 314.94,633.2813 Q315.5338,633 316.1588,632.4219 L316.1588,635.1406 Z " fill="#000000"/><text fill="#000000" font-family="sans-serif" font-size="14" lengthAdjust="spacing" textLength="95" x="333.69" y="634.932">EditCommand</text><line style="stroke:#181818;stroke-width:0.5;" x1="255.44" x2="474.44" y1="645.5" y2="645.5"/><rect fill="none" height="6" style="stroke:#C82930;stroke-width:1.0;" width="6" x="262.44" y="657.534"/><text fill="#000000" font-family="sans-serif" font-size="14" lengthAdjust="spacing" textLength="109" x="274.44" y="664.4659">UserInterface ui</text><line style="stroke:#181818;stroke-width:0.5;" x1="255.44" x2="474.44" y1="672.5679" y2="672.5679"/><ellipse cx="265.44" cy="687.6019" fill="#84BE84" rx="3" ry="3" style="stroke:#038048;stroke-width:1.0;"/><text fill="#000000" font-family="sans-serif" font-size="14" lengthAdjust="spacing" textLength="195" x="274.44" y="691.5339">EditCommand(UserInterface)</text><ellipse cx="265.44" cy="706.6698" fill="#84BE84" rx="3" ry="3" style="stroke:#038048;stroke-width:1.0;"/><text fill="#000000" font-family="sans-serif" font-size="14" lengthAdjust="spacing" textLength="191" x="274.44" y="710.6018">execute(Document): boolean</text></g><!--class ExchangeCommand--><g id="elem_ExchangeCommand"><rect codeLine="47" fill="#F1F1F1" height="105.2038" id="ExchangeCommand" rx="2.5" ry="2.5" style="stroke:#181818;stroke-width:0.5;" width="260" x="510.94" y="613.5"/><ellipse cx="569.69" cy="629.5" fill="#ADD1B2" rx="11" ry="11" style="stroke:#181818;stroke-width:1.0;"/><path d="M572.6587,635.1406 Q572.0806,635.4375 571.44,635.5781 Q570.7994,635.7344 570.0962,635.7344 Q567.5962,635.7344 566.2681,634.0938 Q564.9556,632.4375 564.9556,629.3125 Q564.9556,626.1875 566.2681,624.5313 Q567.5962,622.875 570.0962,622.875 Q570.7994,622.875 571.44,623.0313 Q572.0962,623.1875 572.6587,623.4844 L572.6587,626.2031 Q572.0337,625.625 571.44,625.3594 Q570.8462,625.0781 570.2212,625.0781 Q568.8775,625.0781 568.19,626.1563 Q567.5025,627.2188 567.5025,629.3125 Q567.5025,631.4063 568.19,632.4844 Q568.8775,633.5469 570.2212,633.5469 Q570.8462,633.5469 571.44,633.2813 Q572.0337,633 572.6587,632.4219 L572.6587,635.1406 Z " fill="#000000"/><text fill="#000000" font-family="sans-serif" font-size="14" lengthAdjust="spacing" textLength="134" x="590.19" y="634.932">ExchangeCommand</text><line style="stroke:#181818;stroke-width:0.5;" x1="511.94" x2="769.94" y1="645.5" y2="645.5"/><rect fill="none" height="6" style="stroke:#C82930;stroke-width:1.0;" width="6" x="518.94" y="657.534"/><text fill="#000000" font-family="sans-serif" font-size="14" lengthAdjust="spacing" textLength="109" x="530.94" y="664.4659">UserInterface ui</text><line style="stroke:#181818;stroke-width:0.5;" x1="511.94" x2="769.94" y1="672.5679" y2="672.5679"/><ellipse cx="521.94" cy="687.6019" fill="#84BE84" rx="3" ry="3" style="stroke:#038048;stroke-width:1.0;"/><text fill="#000000" font-family="sans-serif" font-size="14" lengthAdjust="spacing" textLength="234" x="530.94" y="691.5339">ExchangeCommand(UserInterface)</text><ellipse cx="521.94" cy="706.6698" fill="#84BE84" rx="3" ry="3" style="stroke:#038048;stroke-width:1.0;"/><text fill="#000000" font-family="sans-serif" font-size="14" lengthAdjust="spacing" textLength="191" x="530.94" y="710.6018">execute(Document): boolean</text></g><!--class DeleteCommand--><g id="elem_DeleteCommand"><rect codeLine="53" fill="#F1F1F1" height="105.2038" id="DeleteCommand" rx="2.5" ry="2.5" style="stroke:#181818;stroke-width:0.5;" width="238" x="805.94" y="613.5"/><ellipse cx="864.69" cy="629.5" fill="#ADD1B2" rx="11" ry="11" style="stroke:#181818;stroke-width:1.0;"/><path d="M867.6587,635.1406 Q867.0806,635.4375 866.44,635.5781 Q865.7994,635.7344 865.0962,635.7344 Q862.5962,635.7344 861.2681,634.0938 Q859.9556,632.4375 859.9556,629.3125 Q859.9556,626.1875 861.2681,624.5313 Q862.5962,622.875 865.0962,622.875 Q865.7994,622.875 866.44,623.0313 Q867.0962,623.1875 867.6587,623.4844 L867.6587,626.2031 Q867.0337,625.625 866.44,625.3594 Q865.8462,625.0781 865.2212,625.0781 Q863.8775,625.0781 863.19,626.1563 Q862.5025,627.2188 862.5025,629.3125 Q862.5025,631.4063 863.19,632.4844 Q863.8775,633.5469 865.2212,633.5469 Q865.8462,633.5469 866.44,633.2813 Q867.0337,633 867.6587,632.4219 L867.6587,635.1406 Z " fill="#000000"/><text fill="#000000" font-family="sans-serif" font-size="14" lengthAdjust="spacing" textLength="112" x="885.19" y="634.932">DeleteCommand</text><line style="stroke:#181818;stroke-width:0.5;" x1="806.94" x2="1042.94" y1="645.5" y2="645.5"/><rect fill="none" height="6" style="stroke:#C82930;stroke-width:1.0;" width="6" x="813.94" y="657.534"/><text fill="#000000" font-family="sans-serif" font-size="14" lengthAdjust="spacing" textLength="109" x="825.94" y="664.4659">UserInterface ui</text><line style="stroke:#181818;stroke-width:0.5;" x1="806.94" x2="1042.94" y1="672.5679" y2="672.5679"/><ellipse cx="816.94" cy="687.6019" fill="#84BE84" rx="3" ry="3" style="stroke:#038048;stroke-width:1.0;"/><text fill="#000000" font-family="sans-serif" font-size="14" lengthAdjust="spacing" textLength="212" x="825.94" y="691.5339">DeleteCommand(UserInterface)</text><ellipse cx="816.94" cy="706.6698" fill="#84BE84" rx="3" ry="3" style="stroke:#038048;stroke-width:1.0;"/><text fill="#000000" font-family="sans-serif" font-size="14" lengthAdjust="spacing" textLength="191" x="825.94" y="710.6018">execute(Document): boolean</text></g><!--class SetActiveLineCommand--><g id="elem_SetActiveLineCommand"><rect codeLine="59" fill="#F1F1F1" height="105.2038" id="SetActiveLineCommand" rx="2.5" ry="2.5" style="stroke:#181818;stroke-width:0.5;" width="284" x="1469.94" y="613.5"/><ellipse cx="1528.69" cy="629.5" fill="#ADD1B2" rx="11" ry="11" style="stroke:#181818;stroke-width:1.0;"/><path d="M1531.6588,635.1406 Q1531.0806,635.4375 1530.44,635.5781 Q1529.7994,635.7344 1529.0963,635.7344 Q1526.5963,635.7344 1525.2681,634.0938 Q1523.9556,632.4375 1523.9556,629.3125 Q1523.9556,626.1875 1525.2681,624.5313 Q1526.5963,622.875 1529.0963,622.875 Q1529.7994,622.875 1530.44,623.0313 Q1531.0963,623.1875 1531.6588,623.4844 L1531.6588,626.2031 Q1531.0338,625.625 1530.44,625.3594 Q1529.8463,625.0781 1529.2213,625.0781 Q1527.8775,625.0781 1527.19,626.1563 Q1526.5025,627.2188 1526.5025,629.3125 Q1526.5025,631.4063 1527.19,632.4844 Q1527.8775,633.5469 1529.2213,633.5469 Q1529.8463,633.5469 1530.44,633.2813 Q1531.0338,633 1531.6588,632.4219 L1531.6588,635.1406 Z " fill="#000000"/><text fill="#000000" font-family="sans-serif" font-size="14" lengthAdjust="spacing" textLength="158" x="1549.19" y="634.932">SetActiveLineCommand</text><line style="stroke:#181818;stroke-width:0.5;" x1="1470.94" x2="1752.94" y1="645.5" y2="645.5"/><rect fill="none" height="6" style="stroke:#C82930;stroke-width:1.0;" width="6" x="1477.94" y="657.534"/><text fill="#000000" font-family="sans-serif" font-size="14" lengthAdjust="spacing" textLength="109" x="1489.94" y="664.4659">UserInterface ui</text><line style="stroke:#181818;stroke-width:0.5;" x1="1470.94" x2="1752.94" y1="672.5679" y2="672.5679"/><ellipse cx="1480.94" cy="687.6019" fill="#84BE84" rx="3" ry="3" style="stroke:#038048;stroke-width:1.0;"/><text fill="#000000" font-family="sans-serif" font-size="14" lengthAdjust="spacing" textLength="258" x="1489.94" y="691.5339">SetActiveLineCommand(UserInterface)</text><ellipse cx="1480.94" cy="706.6698" fill="#84BE84" rx="3" ry="3" style="stroke:#038048;stroke-width:1.0;"/><text fill="#000000" font-family="sans-serif" font-size="14" lengthAdjust="spacing" textLength="191" x="1489.94" y="710.6018">execute(Document): boolean</text></g><!--class ExitCommand--><g id="elem_ExitCommand"><rect codeLine="65" fill="#F1F1F1" height="67.0679" id="ExitCommand" rx="2.5" ry="2.5" style="stroke:#181818;stroke-width:0.5;" width="217" x="2180.44" y="632.5"/><ellipse cx="2238.19" cy="648.5" fill="#ADD1B2" rx="11" ry="11" style="stroke:#181818;stroke-width:1.0;"/><path d="M2241.1588,654.1406 Q2240.5806,654.4375 2239.94,654.5781 Q2239.2994,654.7344 2238.5963,654.7344 Q2236.0963,654.7344 2234.7681,653.0938 Q2233.4556,651.4375 2233.4556,648.3125 Q2233.4556,645.1875 2234.7681,643.5313 Q2236.0963,641.875 2238.5963,641.875 Q2239.2994,641.875 2239.94,642.0313 Q2240.5963,642.1875 2241.1588,642.4844 L2241.1588,645.2031 Q2240.5338,644.625 2239.94,644.3594 Q2239.3463,644.0781 2238.7213,644.0781 Q2237.3775,644.0781 2236.69,645.1563 Q2236.0025,646.2188 2236.0025,648.3125 Q2236.0025,650.4063 2236.69,651.4844 Q2237.3775,652.5469 2238.7213,652.5469 Q2239.3463,652.5469 2239.94,652.2813 Q2240.5338,652 2241.1588,651.4219 L2241.1588,654.1406 Z " fill="#000000"/><text fill="#000000" font-family="sans-serif" font-size="14" lengthAdjust="spacing" textLength="93" x="2258.69" y="653.932">ExitCommand</text><line style="stroke:#181818;stroke-width:0.5;" x1="2181.44" x2="2396.44" y1="664.5" y2="664.5"/><line style="stroke:#181818;stroke-width:0.5;" x1="2181.44" x2="2396.44" y1="672.5" y2="672.5"/><ellipse cx="2191.44" cy="687.534" fill="#84BE84" rx="3" ry="3" style="stroke:#038048;stroke-width:1.0;"/><text fill="#000000" font-family="sans-serif" font-size="14" lengthAdjust="spacing" textLength="191" x="2200.44" y="691.4659">execute(Document): boolean</text></g><!--class SaveCommand--><g id="elem_SaveCommand"><rect codeLine="69" fill="#F1F1F1" height="124.2717" id="SaveCommand" rx="2.5" ry="2.5" style="stroke:#181818;stroke-width:0.5;" width="355" x="1079.44" y="604"/><ellipse cx="1202.69" cy="620" fill="#ADD1B2" rx="11" ry="11" style="stroke:#181818;stroke-width:1.0;"/><path d="M1205.6588,625.6406 Q1205.0806,625.9375 1204.44,626.0781 Q1203.7994,626.2344 1203.0963,626.2344 Q1200.5963,626.2344 1199.2681,624.5938 Q1197.9556,622.9375 1197.9556,619.8125 Q1197.9556,616.6875 1199.2681,615.0313 Q1200.5963,613.375 1203.0963,613.375 Q1203.7994,613.375 1204.44,613.5313 Q1205.0963,613.6875 1205.6588,613.9844 L1205.6588,616.7031 Q1205.0338,616.125 1204.44,615.8594 Q1203.8463,615.5781 1203.2213,615.5781 Q1201.8775,615.5781 1201.19,616.6563 Q1200.5025,617.7188 1200.5025,619.8125 Q1200.5025,621.9063 1201.19,622.9844 Q1201.8775,624.0469 1203.2213,624.0469 Q1203.8463,624.0469 1204.44,623.7813 Q1205.0338,623.5 1205.6588,622.9219 L1205.6588,625.6406 Z " fill="#000000"/><text fill="#000000" font-family="sans-serif" font-size="14" lengthAdjust="spacing" textLength="100" x="1223.19" y="625.432">SaveCommand</text><line style="stroke:#181818;stroke-width:0.5;" x1="1080.44" x2="1433.44" y1="636" y2="636"/><rect fill="none" height="6" style="stroke:#C82930;stroke-width:1.0;" width="6" x="1087.44" y="648.034"/><text fill="#000000" font-family="sans-serif" font-size="14" lengthAdjust="spacing" textLength="176" x="1099.44" y="654.9659">DocumentStorage storage</text><rect fill="none" height="6" style="stroke:#C82930;stroke-width:1.0;" width="6" x="1087.44" y="667.1019"/><text fill="#000000" font-family="sans-serif" font-size="14" lengthAdjust="spacing" textLength="109" x="1099.44" y="674.0339">UserInterface ui</text><line style="stroke:#181818;stroke-width:0.5;" x1="1080.44" x2="1433.44" y1="682.1358" y2="682.1358"/><ellipse cx="1090.44" cy="697.1698" fill="#84BE84" rx="3" ry="3" style="stroke:#038048;stroke-width:1.0;"/><text fill="#000000" font-family="sans-serif" font-size="14" lengthAdjust="spacing" textLength="329" x="1099.44" y="701.1018">SaveCommand(DocumentStorage, UserInterface)</text><ellipse cx="1090.44" cy="716.2377" fill="#84BE84" rx="3" ry="3" style="stroke:#038048;stroke-width:1.0;"/><text fill="#000000" font-family="sans-serif" font-size="14" lengthAdjust="spacing" textLength="191" x="1099.44" y="720.1697">execute(Document): boolean</text></g><!--class LoadCommand--><g id="elem_LoadCommand"><rect codeLine="76" fill="#F1F1F1" height="124.2717" id="LoadCommand" rx="2.5" ry="2.5" style="stroke:#181818;stroke-width:0.5;" width="356" x="1788.94" y="604"/><ellipse cx="1912.19" cy="620" fill="#ADD1B2" rx="11" ry="11" style="stroke:#181818;stroke-width:1.0;"/><path d="M1915.1588,625.6406 Q1914.5806,625.9375 1913.94,626.0781 Q1913.2994,626.2344 1912.5963,626.2344 Q1910.0963,626.2344 1908.7681,624.5938 Q1907.4556,622.9375 1907.4556,619.8125 Q1907.4556,616.6875 1908.7681,615.0313 Q1910.0963,613.375 1912.5963,613.375 Q1913.2994,613.375 1913.94,613.5313 Q1914.5963,613.6875 1915.1588,613.9844 L1915.1588,616.7031 Q1914.5338,616.125 1913.94,615.8594 Q1913.3463,615.5781 1912.7213,615.5781 Q1911.3775,615.5781 1910.69,616.6563 Q1910.0025,617.7188 1910.0025,619.8125 Q1910.0025,621.9063 1910.69,622.9844 Q1911.3775,624.0469 1912.7213,624.0469 Q1913.3463,624.0469 1913.94,623.7813 Q1914.5338,623.5 1915.1588,622.9219 L1915.1588,625.6406 Z " fill="#000000"/><text fill="#000000" font-family="sans-serif" font-size="14" lengthAdjust="spacing" textLength="101" x="1932.69" y="625.432">LoadCommand</text><line style="stroke:#181818;stroke-width:0.5;" x1="1789.94" x2="2143.94" y1="636" y2="636"/><rect fill="none" height="6" style="stroke:#C82930;stroke-width:1.0;" width="6" x="1796.94" y="648.034"/><text fill="#000000" font-family="sans-serif" font-size="14" lengthAdjust="spacing" textLength="176" x="1808.94" y="654.9659">DocumentStorage storage</text><rect fill="none" height="6" style="stroke:#C82930;stroke-width:1.0;" width="6" x="1796.94" y="667.1019"/><text fill="#000000" font-family="sans-serif" font-size="14" lengthAdjust="spacing" textLength="109" x="1808.94" y="674.0339">UserInterface ui</text><line style="stroke:#181818;stroke-width:0.5;" x1="1789.94" x2="2143.94" y1="682.1358" y2="682.1358"/><ellipse cx="1799.94" cy="697.1698" fill="#84BE84" rx="3" ry="3" style="stroke:#038048;stroke-width:1.0;"/><text fill="#000000" font-family="sans-serif" font-size="14" lengthAdjust="spacing" textLength="330" x="1808.94" y="701.1018">LoadCommand(DocumentStorage, UserInterface)</text><ellipse cx="1799.94" cy="716.2377" fill="#84BE84" rx="3" ry="3" style="stroke:#038048;stroke-width:1.0;"/><text fill="#000000" font-family="sans-serif" font-size="14" lengthAdjust="spacing" textLength="191" x="1808.94" y="720.1697">execute(Document): boolean</text></g><!--class DocumentStorage--><g id="elem_DocumentStorage"><rect codeLine="83" fill="#F1F1F1" height="86.1358" id="DocumentStorage" rx="2.5" ry="2.5" style="stroke:#181818;stroke-width:0.5;" width="167" x="1173.44" y="788"/><ellipse cx="1198.79" cy="804" fill="#B4A7E5" rx="11" ry="11" style="stroke:#181818;stroke-width:1.0;"/><path d="M1194.7119,799.7656 L1194.7119,797.6094 L1202.1025,797.6094 L1202.1025,799.7656 L1199.6338,799.7656 L1199.6338,807.8438 L1202.1025,807.8438 L1202.1025,810 L1194.7119,810 L1194.7119,807.8438 L1197.1806,807.8438 L1197.1806,799.7656 L1194.7119,799.7656 Z " fill="#000000"/><text fill="#000000" font-family="sans-serif" font-size="14" font-style="italic" lengthAdjust="spacing" textLength="112" x="1215.09" y="809.432">DocumentStorage</text><line style="stroke:#181818;stroke-width:0.5;" x1="1174.44" x2="1339.44" y1="820" y2="820"/><line style="stroke:#181818;stroke-width:0.5;" x1="1174.44" x2="1339.44" y1="828" y2="828"/><ellipse cx="1184.44" cy="843.034" fill="#84BE84" rx="3" ry="3" style="stroke:#038048;stroke-width:1.0;"/><text fill="#000000" font-family="sans-serif" font-size="14" lengthAdjust="spacing" textLength="141" x="1193.44" y="846.9659">save(String): boolean</text><ellipse cx="1184.44" cy="862.1019" fill="#84BE84" rx="3" ry="3" style="stroke:#038048;stroke-width:1.0;"/><text fill="#000000" font-family="sans-serif" font-size="14" lengthAdjust="spacing" textLength="86" x="1193.44" y="866.0339">load(): String</text></g><!--class DocumentSerializer--><g id="elem_DocumentSerializer"><rect codeLine="88" fill="#F1F1F1" height="86.1358" id="DocumentSerializer" rx="2.5" ry="2.5" style="stroke:#181818;stroke-width:0.5;" width="225" x="2432.44" y="623"/><ellipse cx="2479.69" cy="639" fill="#B4A7E5" rx="11" ry="11" style="stroke:#181818;stroke-width:1.0;"/><path d="M2475.6119,634.7656 L2475.6119,632.6094 L2483.0025,632.6094 L2483.0025,634.7656 L2480.5338,634.7656 L2480.5338,642.8438 L2483.0025,642.8438 L2483.0025,645 L2475.6119,645 L2475.6119,642.8438 L2478.0806,642.8438 L2478.0806,634.7656 L2475.6119,634.7656 Z " fill="#000000"/><text fill="#000000" font-family="sans-serif" font-size="14" font-style="italic" lengthAdjust="spacing" textLength="122" x="2500.19" y="644.432">DocumentSerializer</text><line style="stroke:#181818;stroke-width:0.5;" x1="2433.44" x2="2656.44" y1="655" y2="655"/><line style="stroke:#181818;stroke-width:0.5;" x1="2433.44" x2="2656.44" y1="663" y2="663"/><ellipse cx="2443.44" cy="678.034" fill="#84BE84" rx="3" ry="3" style="stroke:#038048;stroke-width:1.0;"/><text fill="#000000" font-family="sans-serif" font-size="14" lengthAdjust="spacing" textLength="182" x="2452.44" y="681.9659">serialize(Document): String</text><ellipse cx="2443.44" cy="697.1019" fill="#84BE84" rx="3" ry="3" style="stroke:#038048;stroke-width:1.0;"/><text fill="#000000" font-family="sans-serif" font-size="14" lengthAdjust="spacing" textLength="199" x="2452.44" y="701.0339">deserialize(String): Document</text></g><!--class FileManagerAdapter--><g id="elem_FileManagerAdapter"><rect codeLine="93" fill="#F1F1F1" height="124.2717" id="FileManagerAdapter" rx="2.5" ry="2.5" style="stroke:#181818;stroke-width:0.5;" width="213" x="1150.44" y="934"/><ellipse cx="1184.79" cy="950" fill="#ADD1B2" rx="11" ry="11" style="stroke:#181818;stroke-width:1.0;"/><path d="M1187.7588,955.6406 Q1187.1806,955.9375 1186.54,956.0781 Q1185.8994,956.2344 1185.1963,956.2344 Q1182.6963,956.2344 1181.3681,954.5938 Q1180.0556,952.9375 1180.0556,949.8125 Q1180.0556,946.6875 1181.3681,945.0313 Q1182.6963,943.375 1185.1963,943.375 Q1185.8994,943.375 1186.54,943.5313 Q1187.1963,943.6875 1187.7588,943.9844 L1187.7588,946.7031 Q1187.1338,946.125 1186.54,945.8594 Q1185.9463,945.5781 1185.3213,945.5781 Q1183.9775,945.5781 1183.29,946.6563 Q1182.6025,947.7188 1182.6025,949.8125 Q1182.6025,951.9063 1183.29,952.9844 Q1183.9775,954.0469 1185.3213,954.0469 Q1185.9463,954.0469 1186.54,953.7813 Q1187.1338,953.5 1187.7588,952.9219 L1187.7588,955.6406 Z " fill="#000000"/><text fill="#000000" font-family="sans-serif" font-size="14" lengthAdjust="spacing" textLength="138" x="1203.09" y="955.432">FileManagerAdapter</text><line style="stroke:#181818;stroke-width:0.5;" x1="1151.44" x2="1362.44" y1="966" y2="966"/><rect fill="none" height="6" style="stroke:#C82930;stroke-width:1.0;" width="6" x="1158.44" y="978.034"/><text fill="#000000" font-family="sans-serif" font-size="14" lengthAdjust="spacing" textLength="170" x="1170.44" y="984.9659">FileManager fileManager</text><line style="stroke:#181818;stroke-width:0.5;" x1="1151.44" x2="1362.44" y1="993.0679" y2="993.0679"/><ellipse cx="1161.44" cy="1008.1019" fill="#84BE84" rx="3" ry="3" style="stroke:#038048;stroke-width:1.0;"/><text fill="#000000" font-family="sans-serif" font-size="14" lengthAdjust="spacing" textLength="187" x="1170.44" y="1012.0339">FileManagerAdapter(String)</text><ellipse cx="1161.44" cy="1027.1698" fill="#84BE84" rx="3" ry="3" style="stroke:#038048;stroke-width:1.0;"/><text fill="#000000" font-family="sans-serif" font-size="14" lengthAdjust="spacing" textLength="141" x="1170.44" y="1031.1018">save(String): boolean</text><ellipse cx="1161.44" cy="1046.2377" fill="#84BE84" rx="3" ry="3" style="stroke:#038048;stroke-width:1.0;"/><text fill="#000000" font-family="sans-serif" font-size="14" lengthAdjust="spacing" textLength="86" x="1170.44" y="1050.1697">load(): String</text></g><!--class SimpleSerializer--><g id="elem_SimpleSerializer"><rect codeLine="100" fill="#F1F1F1" height="86.1358" id="SimpleSerializer" rx="2.5" ry="2.5" style="stroke:#181818;stroke-width:0.5;" width="225" x="2432.44" y="788"/><ellipse cx="2486.19" cy="804" fill="#ADD1B2" rx="11" ry="11" style="stroke:#181818;stroke-width:1.0;"/><path d="M2489.1588,809.6406 Q2488.5806,809.9375 2487.94,810.0781 Q2487.2994,810.2344 2486.5963,810.2344 Q2484.0963,810.2344 2482.7681,808.5938 Q2481.4556,806.9375 2481.4556,803.8125 Q2481.4556,800.6875 2482.7681,799.0313 Q2484.0963,797.375 2486.5963,797.375 Q2487.2994,797.375 2487.94,797.5313 Q2488.5963,797.6875 2489.1588,797.9844 L2489.1588,800.7031 Q2488.5338,800.125 2487.94,799.8594 Q2487.3463,799.5781 2486.7213,799.5781 Q2485.3775,799.5781 2484.69,800.6563 Q2484.0025,801.7188 2484.0025,803.8125 Q2484.0025,805.9063 2484.69,806.9844 Q2485.3775,808.0469 2486.7213,808.0469 Q2487.3463,808.0469 2487.94,807.7813 Q2488.5338,807.5 2489.1588,806.9219 L2489.1588,809.6406 Z " fill="#000000"/><text fill="#000000" font-family="sans-serif" font-size="14" lengthAdjust="spacing" textLength="109" x="2506.69" y="809.432">SimpleSerializer</text><line style="stroke:#181818;stroke-width:0.5;" x1="2433.44" x2="2656.44" y1="820" y2="820"/><line style="stroke:#181818;stroke-width:0.5;" x1="2433.44" x2="2656.44" y1="828" y2="828"/><ellipse cx="2443.44" cy="843.034" fill="#84BE84" rx="3" ry="3" style="stroke:#038048;stroke-width:1.0;"/><text fill="#000000" font-family="sans-serif" font-size="14" lengthAdjust="spacing" textLength="182" x="2452.44" y="846.9659">serialize(Document): String</text><ellipse cx="2443.44" cy="862.1019" fill="#84BE84" rx="3" ry="3" style="stroke:#038048;stroke-width:1.0;"/><text fill="#000000" font-family="sans-serif" font-size="14" lengthAdjust="spacing" textLength="199" x="2452.44" y="866.0339">deserialize(String): Document</text></g><!--class FileManager--><g id="elem_FileManager"><rect fill="#F1F1F1" height="48" id="FileManager" rx="2.5" ry="2.5" style="stroke:#181818;stroke-width:0.5;" width="116" x="1198.94" y="1118"/><ellipse cx="1213.94" cy="1134" fill="#ADD1B2" rx="11" ry="11" style="stroke:#181818;stroke-width:1.0;"/><path d="M1216.9088,1139.6406 Q1216.3306,1139.9375 1215.69,1140.0781 Q1215.0494,1140.2344 1214.3463,1140.2344 Q1211.8463,1140.2344 1210.5181,1138.5938 Q1209.2056,1136.9375 1209.2056,1133.8125 Q1209.2056,1130.6875 1210.5181,1129.0313 Q1211.8463,1127.375 1214.3463,1127.375 Q1215.0494,1127.375 1215.69,1127.5313 Q1216.3463,1127.6875 1216.9088,1127.9844 L1216.9088,1130.7031 Q1216.2838,1130.125 1215.69,1129.8594 Q1215.0963,1129.5781 1214.4713,1129.5781 Q1213.1275,1129.5781 1212.44,1130.6563 Q1211.7525,1131.7188 1211.7525,1133.8125 Q1211.7525,1135.9063 1212.44,1136.9844 Q1213.1275,1138.0469 1214.4713,1138.0469 Q1215.0963,1138.0469 1215.69,1137.7813 Q1216.2838,1137.5 1216.9088,1136.9219 L1216.9088,1139.6406 Z " fill="#000000"/><text fill="#000000" font-family="sans-serif" font-size="14" lengthAdjust="spacing" textLength="84" x="1227.94" y="1139.432">FileManager</text><line style="stroke:#181818;stroke-width:0.5;" x1="1199.94" x2="1313.94" y1="1150" y2="1150"/><line style="stroke:#181818;stroke-width:0.5;" x1="1199.94" x2="1313.94" y1="1158" y2="1158"/></g><!--link Editor to Document--><g id="link_Editor_Document"><path codeLine="105" d="M1069.19,126.8 C1268.1,182.38 1702.7214,303.8353 1910.5014,361.8953 " fill="none" id="Editor-to-Document" style="stroke:#181818;stroke-width:1.0;"/><polygon fill="#181818" points="1916.28,363.51,1908.6885,357.2355,1911.4645,362.1644,1906.5356,364.9403,1916.28,363.51" style="stroke:#181818;stroke-width:1.0;"/></g><!--link Editor to UserInterface--><g id="link_Editor_UserInterface"><path codeLine="106" d="M967.94,188.26 C967.94,225.34 967.94,262.22 967.94,299.29 " fill="none" id="Editor-to-UserInterface" style="stroke:#181818;stroke-width:1.0;"/><polygon fill="#181818" points="967.94,305.29,971.94,296.29,967.94,300.29,963.94,296.29,967.94,305.29" style="stroke:#181818;stroke-width:1.0;"/></g><!--link Editor to DocumentStorage--><g id="link_Editor_DocumentStorage"><path codeLine="107" d="M866.87,132.53 C616.87,221.68 6,472.81 236.94,728 C299.37,796.99 934.4724,821.1599 1167.1524,827.7599 " fill="none" id="Editor-to-DocumentStorage" style="stroke:#181818;stroke-width:1.0;"/><polygon fill="#181818" points="1173.15,827.93,1164.267,823.6764,1168.152,827.7882,1164.0402,831.6732,1173.15,827.93" style="stroke:#181818;stroke-width:1.0;"/></g><!--link Document to DocumentSerializer--><g id="link_Document_DocumentSerializer"><path codeLine="108" d="M2141.54,455.48 C2238.81,506 2371.6852,575.0148 2458.4552,620.0748 " fill="none" id="Document-to-DocumentSerializer" style="stroke:#181818;stroke-width:1.0;"/><polygon fill="#181818" points="2463.78,622.84,2457.6362,615.1423,2459.3427,620.5357,2453.9493,622.2421,2463.78,622.84" style="stroke:#181818;stroke-width:1.0;"/></g><!--reverse link Command to EditCommand--><g id="link_Command_EditCommand"><path codeLine="109" d="M1218.37,443.054 C1187.62,478.004 1145.48,518.44 1085.94,544 C842.52,648.49 748.05,532.63 492.94,604 C483.7,606.59 474.3,609.8 465.01,613.39 " fill="none" id="Command-backto-EditCommand" style="stroke:#181818;stroke-width:1.0;stroke-dasharray:7.0,7.0;"/><polygon fill="none" points="1230.26,429.54,1213.8653,439.0907,1222.8747,447.0173,1230.26,429.54" style="stroke:#181818;stroke-width:1.0;"/></g><!--reverse link Command to ExchangeCommand--><g id="link_Command_ExchangeCommand"><path codeLine="110" d="M1216.4318,442.9364 C1185.0618,476.9764 1143.46,515.91 1085.94,544 C964.55,603.3 917.17,564.59 787.94,604 C778.69,606.82 769.22,610.01 759.77,613.42 " fill="none" id="Command-backto-ExchangeCommand" style="stroke:#181818;stroke-width:1.0;stroke-dasharray:7.0,7.0;"/><polygon fill="none" points="1228.63,429.7,1212.0196,438.8704,1220.8439,447.0025,1228.63,429.7" style="stroke:#181818;stroke-width:1.0;"/></g><!--reverse link Command to DeleteCommand--><g id="link_Command_DeleteCommand"><path codeLine="111" d="M1207.026,441.464 C1172.796,471.734 1133.38,505.85 1085.94,544 C1056.92,567.34 1024.19,592.2 995.84,613.28 " fill="none" id="Command-backto-DeleteCommand" style="stroke:#181818;stroke-width:1.0;stroke-dasharray:7.0,7.0;"/><polygon fill="none" points="1220.51,429.54,1203.0514,436.9694,1211.0007,445.9587,1220.51,429.54" style="stroke:#181818;stroke-width:1.0;"/></g><!--reverse link Command to SetActiveLineCommand--><g id="link_Command_SetActiveLineCommand"><path codeLine="112" d="M1314.4855,440.4358 C1375.0955,486.1958 1471.65,559.09 1543.55,613.37 " fill="none" id="Command-backto-SetActiveLineCommand" style="stroke:#181818;stroke-width:1.0;stroke-dasharray:7.0,7.0;"/><polygon fill="none" points="1300.12,429.59,1310.8702,445.2243,1318.1008,435.6473,1300.12,429.59" style="stroke:#181818;stroke-width:1.0;"/></g><!--reverse link Command to ExitCommand--><g id="link_Command_ExitCommand"><path codeLine="113" d="M1383.2442,425.985 C1510.9142,455.275 1711.52,501.24 1898.94,544 C2016.25,570.76 2049.39,564.19 2162.94,604 C2184.96,611.72 2208.18,622.23 2228.61,632.35 " fill="none" id="Command-backto-ExitCommand" style="stroke:#181818;stroke-width:1.0;stroke-dasharray:7.0,7.0;"/><polygon fill="none" points="1365.7,421.96,1381.9026,431.8331,1384.5859,420.1369,1365.7,421.96" style="stroke:#181818;stroke-width:1.0;"/></g><!--reverse link Command to SaveCommand--><g id="link_Command_SaveCommand"><path codeLine="114" d="M1256.94,447.59 C1256.94,490.77 1256.94,549.77 1256.94,603.92 " fill="none" id="Command-backto-SaveCommand" style="stroke:#181818;stroke-width:1.0;stroke-dasharray:7.0,7.0;"/><polygon fill="none" points="1256.94,429.59,1250.94,447.59,1262.94,447.59,1256.94,429.59" style="stroke:#181818;stroke-width:1.0;"/></g><!--reverse link Command to LoadCommand--><g id="link_Command_LoadCommand"><path codeLine="115" d="M1360.13,435.9473 C1474.51,479.1273 1661.66,549.77 1805.12,603.92 " fill="none" id="Command-backto-LoadCommand" style="stroke:#181818;stroke-width:1.0;stroke-dasharray:7.0,7.0;"/><polygon fill="none" points="1343.29,429.59,1358.0109,441.5606,1362.2491,430.334,1343.29,429.59" style="stroke:#181818;stroke-width:1.0;"/></g><!--reverse link DocumentStorage to FileManagerAdapter--><g id="link_DocumentStorage_FileManagerAdapter"><path codeLine="116" d="M1256.94,892.4 C1256.94,910.51 1256.94,914 1256.94,933.78 " fill="none" id="DocumentStorage-backto-FileManagerAdapter" style="stroke:#181818;stroke-width:1.0;stroke-dasharray:7.0,7.0;"/><polygon fill="none" points="1256.94,874.4,1250.94,892.4,1262.94,892.4,1256.94,874.4" style="stroke:#181818;stroke-width:1.0;"/></g><!--reverse link DocumentSerializer to SimpleSerializer--><g id="link_DocumentSerializer_SimpleSerializer"><path codeLine="117" d="M2544.94,727.4 C2544.94,751.55 2544.94,763.7 2544.94,787.81 " fill="none" id="DocumentSerializer-backto-SimpleSerializer" style="stroke:#181818;stroke-width:1.0;stroke-dasharray:7.0,7.0;"/><polygon fill="none" points="2544.94,709.4,2538.94,727.4,2550.94,727.4,2544.94,709.4" style="stroke:#181818;stroke-width:1.0;"/></g><!--link FileManagerAdapter to FileManager--><g id="link_FileManagerAdapter_FileManager"><path codeLine="118" d="M1256.94,1058.07 C1256.94,1079.23 1256.94,1095.67 1256.94,1111.87 " fill="none" id="FileManagerAdapter-to-FileManager" style="stroke:#181818;stroke-width:1.0;"/><polygon fill="#181818" points="1256.94,1117.87,1260.94,1108.87,1256.94,1112.87,1252.94,1108.87,1256.94,1117.87" style="stroke:#181818;stroke-width:1.0;"/></g><!--reverse link UserInterface to EditCommand--><g id="link_UserInterface_EditCommand"><path codeLine="119" d="M860.9821,442.3865 C764.5121,483.5865 621.03,545.59 492.94,604 C486.22,607.06 479.32,610.25 472.37,613.48 " fill="none" id="UserInterface-backto-EditCommand" style="stroke:#181818;stroke-width:1.0;"/><polygon fill="#181818" points="866.5,440.03,856.6522,439.8862,861.9018,441.9938,859.7942,447.2434,866.5,440.03" style="stroke:#181818;stroke-width:1.0;"/></g><!--reverse link UserInterface to ExchangeCommand--><g id="link_UserInterface_ExchangeCommand"><path codeLine="120" d="M862.0794,483.7632 C808.9894,527.2732 750.26,575.41 704.18,613.17 " fill="none" id="UserInterface-backto-ExchangeCommand" style="stroke:#181818;stroke-width:1.0;"/><polygon fill="#181818" points="866.72,479.96,857.2236,482.5711,862.8528,483.1294,862.2945,488.7586,866.72,479.96" style="stroke:#181818;stroke-width:1.0;"/></g><!--reverse link UserInterface to DeleteCommand--><g id="link_UserInterface_DeleteCommand"><path codeLine="121" d="M952.6099,492.5343 C945.8499,534.6843 938.98,577.52 933.22,613.4 " fill="none" id="UserInterface-backto-DeleteCommand" style="stroke:#181818;stroke-width:1.0;"/><polygon fill="#181818" points="953.56,486.61,948.1853,494.863,952.7682,491.5469,956.0843,496.1299,953.56,486.61" style="stroke:#181818;stroke-width:1.0;"/></g><!--reverse link UserInterface to SetActiveLineCommand--><g id="link_UserInterface_SetActiveLineCommand"><path codeLine="122" d="M1054.1344,490.5597 C1078.3144,512.3797 1101.74,529.56 1130.94,544 C1261.04,608.34 1312.24,564.66 1451.94,604 C1461.96,606.82 1472.22,610.01 1482.49,613.41 " fill="none" id="UserInterface-backto-SetActiveLineCommand" style="stroke:#181818;stroke-width:1.0;"/><polygon fill="#181818" points="1049.68,486.54,1053.6819,495.5392,1053.392,489.8897,1059.0415,489.5999,1049.68,486.54" style="stroke:#181818;stroke-width:1.0;"/></g><!--reverse link UserInterface to SaveCommand--><g id="link_UserInterface_SaveCommand"><path codeLine="123" d="M1068.9791,490.6901 C1110.4891,529.1901 1153.55,569.12 1190.94,603.79 " fill="none" id="UserInterface-backto-SaveCommand" style="stroke:#181818;stroke-width:1.0;"/><polygon fill="#181818" points="1064.58,486.61,1068.4586,495.663,1068.2459,490.0101,1073.8988,489.7975,1064.58,486.61" style="stroke:#181818;stroke-width:1.0;"/></g><!--link SaveCommand to DocumentStorage--><g id="link_SaveCommand_DocumentStorage"><path codeLine="124" d="M1256.94,728.16 C1256.94,748.03 1256.94,763.63 1256.94,781.8 " fill="none" id="SaveCommand-to-DocumentStorage" style="stroke:#181818;stroke-width:1.0;"/><polygon fill="#181818" points="1256.94,787.8,1260.94,778.8,1256.94,782.8,1252.94,778.8,1256.94,787.8" style="stroke:#181818;stroke-width:1.0;"/></g><!--reverse link UserInterface to LoadCommand--><g id="link_UserInterface_LoadCommand"><path codeLine="125" d="M1051.584,490.8422 C1076.144,513.2322 1100.41,530.6 1130.94,544 C1392.95,658.99 1491.41,547.64 1771.94,604 C1777.51,605.12 1783.14,606.33 1788.8,607.63 " fill="none" id="UserInterface-backto-LoadCommand" style="stroke:#181818;stroke-width:1.0;"/><polygon fill="#181818" points="1047.15,486.8,1051.1062,495.8193,1050.845,490.1685,1056.4958,489.9074,1047.15,486.8" style="stroke:#181818;stroke-width:1.0;"/></g><!--link LoadCommand to DocumentStorage--><g id="link_LoadCommand_DocumentStorage"><path codeLine="126" d="M1788.9,723.55 C1783.19,725.09 1777.53,726.58 1771.94,728 C1621.34,766.35 1448.8248,797.8526 1346.4248,815.2926 " fill="none" id="LoadCommand-to-DocumentStorage" style="stroke:#181818;stroke-width:1.0;"/><polygon fill="#181818" points="1340.51,816.3,1350.0538,818.7322,1345.439,815.4605,1348.7107,810.8457,1340.51,816.3" style="stroke:#181818;stroke-width:1.0;"/></g><!--SRC=[jLLBJzmm4BxdL_WOj8GVWAfAg1G92KwhdX07rnbsBINEodO00VtljTVFyHgQBkrUrfbl7jyyF6O3LOfyxxcU97bjYFbrbnERHn2QzFxWn3yKo6kXGJvG1cJcM7bj7D0D4EN-z-3A-MrFt9U2eDMkjUHYu-LRgeByv9pydAO1g72Gd8Mn_jKqRCypClDCdPkxUp9m0Sh9k84fq_mHReom80cIqu6_W2Gg7bsae1B8nkyGmyiteAtVreGnP1qOqml8AK496fkBoCZco7rDhKs6M9z1xjcrHP0U4kHZdCUoE9LvrrCDLt8Qsm1uhpkZhrlKnwoukB-XmemAOSlb_fqVf1cxkvsUR1QgZ6go_pQD8nMzJSOVVNk1zjUsvbb9hCnbLkREp5p8DPC0VYXuPEkzUjOhU0OsQqXCqbZ5TEriOhFwXAyonR9souCzioqL6rWM42iV7VGI1j3BGYBLemEkysbU5BTcyOaYbnrTnfe-bcG_MchlPPAyj8NvAJasevk9zf-dbddv5zJIhIkv-A8hKugqdD0-7moLx5hNlQKb_LfkmupHygqOotd51xYbmb2L5ptTwHYXon3oaCxE-w4PVh_-Aby_StpS3V0_ClLFUTTtNvCy5wA6LzLzEvlusdOvcDxDC9bVtixEydLQ07YROH3j7GpLLaFf-PsGsLt4G7OJcd9uzmg7hMugO-c252riAjDb2vU9c_pDwUR3PXIlH4K5x_IAGdK7r_IohVSdk38R-MQgc2FuqFmt]--></g></svg>