<?xml version="1.0" encoding="us-ascii" standalone="no"?><svg xmlns="http://www.w3.org/2000/svg" xmlns:xlink="http://www.w3.org/1999/xlink" contentStyleType="text/css" height="729px" preserveAspectRatio="none" style="width:1151px;height:729px;background:#FFFFFF;" version="1.1" viewBox="0 0 1151 729" width="1151px" zoomAndPan="magnify"><defs/><g><!--class Editor--><g id="elem_Editor"><rect codeLine="1" fill="#F1F1F1" height="181.4754" id="Editor" rx="2.5" ry="2.5" style="stroke:#181818;stroke-width:0.5;" width="224" x="435.5" y="7"/><ellipse cx="523.25" cy="23" fill="#ADD1B2" rx="11" ry="11" style="stroke:#181818;stroke-width:1.0;"/><path d="M526.2188,28.6406 Q525.6406,28.9375 525,29.0781 Q524.3594,29.2344 523.6563,29.2344 Q521.1563,29.2344 519.8281,27.5938 Q518.5156,25.9375 518.5156,22.8125 Q518.5156,19.6875 519.8281,18.0313 Q521.1563,16.375 523.6563,16.375 Q524.3594,16.375 525,16.5313 Q525.6563,16.6875 526.2188,16.9844 L526.2188,19.7031 Q525.5938,19.125 525,18.8594 Q524.4063,18.5781 523.7813,18.5781 Q522.4375,18.5781 521.75,19.6563 Q521.0625,20.7188 521.0625,22.8125 Q521.0625,24.9063 521.75,25.9844 Q522.4375,27.0469 523.7813,27.0469 Q524.4063,27.0469 525,26.7813 Q525.5938,26.5 526.2188,25.9219 L526.2188,28.6406 Z " fill="#000000"/><text fill="#000000" font-family="sans-serif" font-size="14" lengthAdjust="spacing" textLength="40" x="543.75" y="28.432">Editor</text><line style="stroke:#181818;stroke-width:0.5;" x1="436.5" x2="658.5" y1="39" y2="39"/><rect fill="none" height="6" style="stroke:#C82930;stroke-width:1.0;" width="6" x="443.5" y="51.034"/><text fill="#000000" font-family="sans-serif" font-size="14" lengthAdjust="spacing" textLength="141" x="455.5" y="57.9659">Document document</text><rect fill="none" height="6" style="stroke:#C82930;stroke-width:1.0;" width="6" x="443.5" y="70.1019"/><text fill="#000000" font-family="sans-serif" font-size="14" lengthAdjust="spacing" textLength="109" x="455.5" y="77.0339">UserInterface ui</text><rect fill="none" height="6" style="stroke:#C82930;stroke-width:1.0;" width="6" x="443.5" y="89.1698"/><text fill="#000000" font-family="sans-serif" font-size="14" lengthAdjust="spacing" textLength="176" x="455.5" y="96.1018">DocumentStorage storage</text><rect fill="none" height="6" style="stroke:#C82930;stroke-width:1.0;" width="6" x="443.5" y="108.2377"/><text fill="#000000" font-family="sans-serif" font-size="14" lengthAdjust="spacing" textLength="198" x="455.5" y="115.1697">DocumentSerializer serializer</text><line style="stroke:#181818;stroke-width:0.5;" x1="436.5" x2="658.5" y1="123.2717" y2="123.2717"/><ellipse cx="446.5" cy="138.3056" fill="#84BE84" rx="3" ry="3" style="stroke:#038048;stroke-width:1.0;"/><text fill="#000000" font-family="sans-serif" font-size="14" lengthAdjust="spacing" textLength="48" x="455.5" y="142.2376">Editor()</text><ellipse cx="446.5" cy="157.3735" fill="#84BE84" rx="3" ry="3" style="stroke:#038048;stroke-width:1.0;"/><text fill="#000000" font-family="sans-serif" font-size="14" lengthAdjust="spacing" textLength="32" x="455.5" y="161.3055">run()</text><rect fill="#F24D5C" height="6" style="stroke:#C82930;stroke-width:1.0;" width="6" x="443.5" y="173.4415"/><text fill="#000000" font-family="sans-serif" font-size="14" lengthAdjust="spacing" textLength="191" x="455.5" y="180.3734">processCommand(): boolean</text></g><!--class Document--><g id="elem_Document"><rect codeLine="11" fill="#F1F1F1" height="200.5433" id="Document" rx="2.5" ry="2.5" style="stroke:#181818;stroke-width:0.5;" width="159" x="7" y="248"/><ellipse cx="48.1" cy="264" fill="#ADD1B2" rx="11" ry="11" style="stroke:#181818;stroke-width:1.0;"/><path d="M51.0688,269.6406 Q50.4906,269.9375 49.85,270.0781 Q49.2094,270.2344 48.5063,270.2344 Q46.0063,270.2344 44.6781,268.5938 Q43.3656,266.9375 43.3656,263.8125 Q43.3656,260.6875 44.6781,259.0313 Q46.0063,257.375 48.5063,257.375 Q49.2094,257.375 49.85,257.5313 Q50.5063,257.6875 51.0688,257.9844 L51.0688,260.7031 Q50.4438,260.125 49.85,259.8594 Q49.2563,259.5781 48.6313,259.5781 Q47.2875,259.5781 46.6,260.6563 Q45.9125,261.7188 45.9125,263.8125 Q45.9125,265.9063 46.6,266.9844 Q47.2875,268.0469 48.6313,268.0469 Q49.2563,268.0469 49.85,267.7813 Q50.4438,267.5 51.0688,266.9219 L51.0688,269.6406 Z " fill="#000000"/><text fill="#000000" font-family="sans-serif" font-size="14" lengthAdjust="spacing" textLength="69" x="67.9" y="269.432">Document</text><line style="stroke:#181818;stroke-width:0.5;" x1="8" x2="165" y1="280" y2="280"/><rect fill="none" height="6" style="stroke:#C82930;stroke-width:1.0;" width="6" x="15" y="292.034"/><text fill="#000000" font-family="sans-serif" font-size="14" lengthAdjust="spacing" textLength="87" x="27" y="298.9659">String[] lines</text><rect fill="none" height="6" style="stroke:#C82930;stroke-width:1.0;" width="6" x="15" y="311.1019"/><text fill="#000000" font-family="sans-serif" font-size="14" lengthAdjust="spacing" textLength="89" x="27" y="318.0339">int activeLine</text><line style="stroke:#181818;stroke-width:0.5;" x1="8" x2="165" y1="326.1358" y2="326.1358"/><ellipse cx="18" cy="341.1698" fill="#84BE84" rx="3" ry="3" style="stroke:#038048;stroke-width:1.0;"/><text fill="#000000" font-family="sans-serif" font-size="14" lengthAdjust="spacing" textLength="77" x="27" y="345.1018">Document()</text><ellipse cx="18" cy="360.2377" fill="#84BE84" rx="3" ry="3" style="stroke:#038048;stroke-width:1.0;"/><text fill="#000000" font-family="sans-serif" font-size="14" lengthAdjust="spacing" textLength="125" x="27" y="364.1697">getLine(int): String</text><ellipse cx="18" cy="379.3056" fill="#84BE84" rx="3" ry="3" style="stroke:#038048;stroke-width:1.0;"/><text fill="#000000" font-family="sans-serif" font-size="14" lengthAdjust="spacing" textLength="123" x="27" y="383.2376">setLine(int, String)</text><ellipse cx="18" cy="398.3735" fill="#84BE84" rx="3" ry="3" style="stroke:#038048;stroke-width:1.0;"/><text fill="#000000" font-family="sans-serif" font-size="14" lengthAdjust="spacing" textLength="124" x="27" y="402.3055">getActiveLine(): int</text><ellipse cx="18" cy="417.4415" fill="#84BE84" rx="3" ry="3" style="stroke:#038048;stroke-width:1.0;"/><text fill="#000000" font-family="sans-serif" font-size="14" lengthAdjust="spacing" textLength="114" x="27" y="421.3734">setActiveLine(int)</text><ellipse cx="18" cy="436.5094" fill="#84BE84" rx="3" ry="3" style="stroke:#038048;stroke-width:1.0;"/><text fill="#000000" font-family="sans-serif" font-size="14" lengthAdjust="spacing" textLength="133" x="27" y="440.4414">print(UserInterface)</text></g><!--class UserInterface--><g id="elem_UserInterface"><rect codeLine="22" fill="#F1F1F1" height="181.4754" id="UserInterface" rx="2.5" ry="2.5" style="stroke:#181818;stroke-width:0.5;" width="202" x="201.5" y="258"/><ellipse cx="252.25" cy="274" fill="#ADD1B2" rx="11" ry="11" style="stroke:#181818;stroke-width:1.0;"/><path d="M255.2188,279.6406 Q254.6406,279.9375 254,280.0781 Q253.3594,280.2344 252.6563,280.2344 Q250.1563,280.2344 248.8281,278.5938 Q247.5156,276.9375 247.5156,273.8125 Q247.5156,270.6875 248.8281,269.0313 Q250.1563,267.375 252.6563,267.375 Q253.3594,267.375 254,267.5313 Q254.6563,267.6875 255.2188,267.9844 L255.2188,270.7031 Q254.5938,270.125 254,269.8594 Q253.4063,269.5781 252.7813,269.5781 Q251.4375,269.5781 250.75,270.6563 Q250.0625,271.7188 250.0625,273.8125 Q250.0625,275.9063 250.75,276.9844 Q251.4375,278.0469 252.7813,278.0469 Q253.4063,278.0469 254,277.7813 Q254.5938,277.5 255.2188,276.9219 L255.2188,279.6406 Z " fill="#000000"/><text fill="#000000" font-family="sans-serif" font-size="14" lengthAdjust="spacing" textLength="92" x="272.75" y="279.432">UserInterface</text><line style="stroke:#181818;stroke-width:0.5;" x1="202.5" x2="402.5" y1="290" y2="290"/><rect fill="none" height="6" style="stroke:#C82930;stroke-width:1.0;" width="6" x="209.5" y="302.034"/><text fill="#000000" font-family="sans-serif" font-size="14" lengthAdjust="spacing" textLength="113" x="221.5" y="308.9659">Scanner scanner</text><line style="stroke:#181818;stroke-width:0.5;" x1="202.5" x2="402.5" y1="317.0679" y2="317.0679"/><ellipse cx="212.5" cy="332.1019" fill="#84BE84" rx="3" ry="3" style="stroke:#038048;stroke-width:1.0;"/><text fill="#000000" font-family="sans-serif" font-size="14" lengthAdjust="spacing" textLength="100" x="221.5" y="336.0339">UserInterface()</text><ellipse cx="212.5" cy="351.1698" fill="#84BE84" rx="3" ry="3" style="stroke:#038048;stroke-width:1.0;"/><text fill="#000000" font-family="sans-serif" font-size="14" lengthAdjust="spacing" textLength="147" x="221.5" y="355.1018">showLines(Document)</text><ellipse cx="212.5" cy="370.2377" fill="#84BE84" rx="3" ry="3" style="stroke:#038048;stroke-width:1.0;"/><text fill="#000000" font-family="sans-serif" font-size="14" lengthAdjust="spacing" textLength="176" x="221.5" y="374.1697">getCommand(): Command</text><ellipse cx="212.5" cy="389.3056" fill="#84BE84" rx="3" ry="3" style="stroke:#038048;stroke-width:1.0;"/><text fill="#000000" font-family="sans-serif" font-size="14" lengthAdjust="spacing" textLength="84" x="221.5" y="393.2376">readInt(): int</text><ellipse cx="212.5" cy="408.3735" fill="#84BE84" rx="3" ry="3" style="stroke:#038048;stroke-width:1.0;"/><text fill="#000000" font-family="sans-serif" font-size="14" lengthAdjust="spacing" textLength="129" x="221.5" y="412.3055">readString(): String</text><ellipse cx="212.5" cy="427.4415" fill="#84BE84" rx="3" ry="3" style="stroke:#038048;stroke-width:1.0;"/><text fill="#000000" font-family="sans-serif" font-size="14" lengthAdjust="spacing" textLength="87" x="221.5" y="431.3734">clearScreen()</text></g><!--class Command--><g id="elem_Command"><rect codeLine="32" fill="#F1F1F1" height="86.1358" id="Command" rx="2.5" ry="2.5" style="stroke:#181818;stroke-width:0.5;" width="217" x="439" y="305.5"/><ellipse cx="508.75" cy="321.5" fill="#ADD1B2" rx="11" ry="11" style="stroke:#181818;stroke-width:1.0;"/><path d="M511.7188,327.1406 Q511.1406,327.4375 510.5,327.5781 Q509.8594,327.7344 509.1563,327.7344 Q506.6563,327.7344 505.3281,326.0938 Q504.0156,324.4375 504.0156,321.3125 Q504.0156,318.1875 505.3281,316.5313 Q506.6563,314.875 509.1563,314.875 Q509.8594,314.875 510.5,315.0313 Q511.1563,315.1875 511.7188,315.4844 L511.7188,318.2031 Q511.0938,317.625 510.5,317.3594 Q509.9063,317.0781 509.2813,317.0781 Q507.9375,317.0781 507.25,318.1563 Q506.5625,319.2188 506.5625,321.3125 Q506.5625,323.4063 507.25,324.4844 Q507.9375,325.5469 509.2813,325.5469 Q509.9063,325.5469 510.5,325.2813 Q511.0938,325 511.7188,324.4219 L511.7188,327.1406 Z " fill="#000000"/><text fill="#000000" font-family="sans-serif" font-size="14" lengthAdjust="spacing" textLength="69" x="529.25" y="326.932">Command</text><line style="stroke:#181818;stroke-width:0.5;" x1="440" x2="655" y1="337.5" y2="337.5"/><text fill="#000000" font-family="sans-serif" font-size="14" lengthAdjust="spacing" textLength="74" x="445" y="356.4659">&#171;interface&#187;</text><line style="stroke:#181818;stroke-width:0.5;" x1="440" x2="655" y1="364.5679" y2="364.5679"/><ellipse cx="450" cy="379.6019" fill="#84BE84" rx="3" ry="3" style="stroke:#038048;stroke-width:1.0;"/><text fill="#000000" font-family="sans-serif" font-size="14" lengthAdjust="spacing" textLength="191" x="459" y="383.5339">execute(Document): boolean</text></g><!--class DocumentStorage--><g id="elem_DocumentStorage"><rect codeLine="37" fill="#F1F1F1" height="105.2038" id="DocumentStorage" rx="2.5" ry="2.5" style="stroke:#181818;stroke-width:0.5;" width="167" x="698" y="296"/><ellipse cx="719.3" cy="312" fill="#ADD1B2" rx="11" ry="11" style="stroke:#181818;stroke-width:1.0;"/><path d="M722.2688,317.6406 Q721.6906,317.9375 721.05,318.0781 Q720.4094,318.2344 719.7063,318.2344 Q717.2063,318.2344 715.8781,316.5938 Q714.5656,314.9375 714.5656,311.8125 Q714.5656,308.6875 715.8781,307.0313 Q717.2063,305.375 719.7063,305.375 Q720.4094,305.375 721.05,305.5313 Q721.7063,305.6875 722.2688,305.9844 L722.2688,308.7031 Q721.6438,308.125 721.05,307.8594 Q720.4563,307.5781 719.8313,307.5781 Q718.4875,307.5781 717.8,308.6563 Q717.1125,309.7188 717.1125,311.8125 Q717.1125,313.9063 717.8,314.9844 Q718.4875,316.0469 719.8313,316.0469 Q720.4563,316.0469 721.05,315.7813 Q721.6438,315.5 722.2688,314.9219 L722.2688,317.6406 Z " fill="#000000"/><text fill="#000000" font-family="sans-serif" font-size="14" lengthAdjust="spacing" textLength="121" x="734.7" y="317.432">DocumentStorage</text><line style="stroke:#181818;stroke-width:0.5;" x1="699" x2="864" y1="328" y2="328"/><text fill="#000000" font-family="sans-serif" font-size="14" lengthAdjust="spacing" textLength="74" x="704" y="346.9659">&#171;interface&#187;</text><line style="stroke:#181818;stroke-width:0.5;" x1="699" x2="864" y1="355.0679" y2="355.0679"/><ellipse cx="709" cy="370.1019" fill="#84BE84" rx="3" ry="3" style="stroke:#038048;stroke-width:1.0;"/><text fill="#000000" font-family="sans-serif" font-size="14" lengthAdjust="spacing" textLength="141" x="718" y="374.0339">save(String): boolean</text><ellipse cx="709" cy="389.1698" fill="#84BE84" rx="3" ry="3" style="stroke:#038048;stroke-width:1.0;"/><text fill="#000000" font-family="sans-serif" font-size="14" lengthAdjust="spacing" textLength="86" x="718" y="393.1018">load(): String</text></g><!--class DocumentSerializer--><g id="elem_DocumentSerializer"><rect codeLine="43" fill="#F1F1F1" height="105.2038" id="DocumentSerializer" rx="2.5" ry="2.5" style="stroke:#181818;stroke-width:0.5;" width="225" x="912" y="296"/><ellipse cx="954.45" cy="312" fill="#ADD1B2" rx="11" ry="11" style="stroke:#181818;stroke-width:1.0;"/><path d="M957.4188,317.6406 Q956.8406,317.9375 956.2,318.0781 Q955.5594,318.2344 954.8563,318.2344 Q952.3563,318.2344 951.0281,316.5938 Q949.7156,314.9375 949.7156,311.8125 Q949.7156,308.6875 951.0281,307.0313 Q952.3563,305.375 954.8563,305.375 Q955.5594,305.375 956.2,305.5313 Q956.8563,305.6875 957.4188,305.9844 L957.4188,308.7031 Q956.7938,308.125 956.2,307.8594 Q955.6063,307.5781 954.9813,307.5781 Q953.6375,307.5781 952.95,308.6563 Q952.2625,309.7188 952.2625,311.8125 Q952.2625,313.9063 952.95,314.9844 Q953.6375,316.0469 954.9813,316.0469 Q955.6063,316.0469 956.2,315.7813 Q956.7938,315.5 957.4188,314.9219 L957.4188,317.6406 Z " fill="#000000"/><text fill="#000000" font-family="sans-serif" font-size="14" lengthAdjust="spacing" textLength="132" x="974.55" y="317.432">DocumentSerializer</text><line style="stroke:#181818;stroke-width:0.5;" x1="913" x2="1136" y1="328" y2="328"/><text fill="#000000" font-family="sans-serif" font-size="14" lengthAdjust="spacing" textLength="74" x="918" y="346.9659">&#171;interface&#187;</text><line style="stroke:#181818;stroke-width:0.5;" x1="913" x2="1136" y1="355.0679" y2="355.0679"/><ellipse cx="923" cy="370.1019" fill="#84BE84" rx="3" ry="3" style="stroke:#038048;stroke-width:1.0;"/><text fill="#000000" font-family="sans-serif" font-size="14" lengthAdjust="spacing" textLength="182" x="932" y="374.0339">serialize(Document): String</text><ellipse cx="923" cy="389.1698" fill="#84BE84" rx="3" ry="3" style="stroke:#038048;stroke-width:1.0;"/><text fill="#000000" font-family="sans-serif" font-size="14" lengthAdjust="spacing" textLength="199" x="932" y="393.1018">deserialize(String): Document</text></g><!--class FileManagerAdapter--><g id="elem_FileManagerAdapter"><rect codeLine="49" fill="#F1F1F1" height="105.2038" id="FileManagerAdapter" rx="2.5" ry="2.5" style="stroke:#181818;stroke-width:0.5;" width="196" x="687.5" y="509"/><ellipse cx="714.2" cy="525" fill="#ADD1B2" rx="11" ry="11" style="stroke:#181818;stroke-width:1.0;"/><path d="M717.1688,530.6406 Q716.5906,530.9375 715.95,531.0781 Q715.3094,531.2344 714.6063,531.2344 Q712.1063,531.2344 710.7781,529.5938 Q709.4656,527.9375 709.4656,524.8125 Q709.4656,521.6875 710.7781,520.0313 Q712.1063,518.375 714.6063,518.375 Q715.3094,518.375 715.95,518.5313 Q716.6063,518.6875 717.1688,518.9844 L717.1688,521.7031 Q716.5438,521.125 715.95,520.8594 Q715.3563,520.5781 714.7313,520.5781 Q713.3875,520.5781 712.7,521.6563 Q712.0125,522.7188 712.0125,524.8125 Q712.0125,526.9063 712.7,527.9844 Q713.3875,529.0469 714.7313,529.0469 Q715.3563,529.0469 715.95,528.7813 Q716.5438,528.5 717.1688,527.9219 L717.1688,530.6406 Z " fill="#000000"/><text fill="#000000" font-family="sans-serif" font-size="14" lengthAdjust="spacing" textLength="138" x="730.8" y="530.432">FileManagerAdapter</text><line style="stroke:#181818;stroke-width:0.5;" x1="688.5" x2="882.5" y1="541" y2="541"/><rect fill="none" height="6" style="stroke:#C82930;stroke-width:1.0;" width="6" x="695.5" y="553.034"/><text fill="#000000" font-family="sans-serif" font-size="14" lengthAdjust="spacing" textLength="170" x="707.5" y="559.9659">FileManager fileManager</text><line style="stroke:#181818;stroke-width:0.5;" x1="688.5" x2="882.5" y1="568.0679" y2="568.0679"/><ellipse cx="698.5" cy="583.1019" fill="#84BE84" rx="3" ry="3" style="stroke:#038048;stroke-width:1.0;"/><text fill="#000000" font-family="sans-serif" font-size="14" lengthAdjust="spacing" textLength="141" x="707.5" y="587.0339">save(String): boolean</text><ellipse cx="698.5" cy="602.1698" fill="#84BE84" rx="3" ry="3" style="stroke:#038048;stroke-width:1.0;"/><text fill="#000000" font-family="sans-serif" font-size="14" lengthAdjust="spacing" textLength="86" x="707.5" y="606.1018">load(): String</text></g><!--class SimpleSerializer--><g id="elem_SimpleSerializer"><rect codeLine="55" fill="#F1F1F1" height="86.1358" id="SimpleSerializer" rx="2.5" ry="2.5" style="stroke:#181818;stroke-width:0.5;" width="225" x="919" y="518.5"/><ellipse cx="972.75" cy="534.5" fill="#ADD1B2" rx="11" ry="11" style="stroke:#181818;stroke-width:1.0;"/><path d="M975.7188,540.1406 Q975.1406,540.4375 974.5,540.5781 Q973.8594,540.7344 973.1563,540.7344 Q970.6563,540.7344 969.3281,539.0938 Q968.0156,537.4375 968.0156,534.3125 Q968.0156,531.1875 969.3281,529.5313 Q970.6563,527.875 973.1563,527.875 Q973.8594,527.875 974.5,528.0313 Q975.1563,528.1875 975.7188,528.4844 L975.7188,531.2031 Q975.0938,530.625 974.5,530.3594 Q973.9063,530.0781 973.2813,530.0781 Q971.9375,530.0781 971.25,531.1563 Q970.5625,532.2188 970.5625,534.3125 Q970.5625,536.4063 971.25,537.4844 Q971.9375,538.5469 973.2813,538.5469 Q973.9063,538.5469 974.5,538.2813 Q975.0938,538 975.7188,537.4219 L975.7188,540.1406 Z " fill="#000000"/><text fill="#000000" font-family="sans-serif" font-size="14" lengthAdjust="spacing" textLength="109" x="993.25" y="539.932">SimpleSerializer</text><line style="stroke:#181818;stroke-width:0.5;" x1="920" x2="1143" y1="550.5" y2="550.5"/><line style="stroke:#181818;stroke-width:0.5;" x1="920" x2="1143" y1="558.5" y2="558.5"/><ellipse cx="930" cy="573.534" fill="#84BE84" rx="3" ry="3" style="stroke:#038048;stroke-width:1.0;"/><text fill="#000000" font-family="sans-serif" font-size="14" lengthAdjust="spacing" textLength="182" x="939" y="577.4659">serialize(Document): String</text><ellipse cx="930" cy="592.6019" fill="#84BE84" rx="3" ry="3" style="stroke:#038048;stroke-width:1.0;"/><text fill="#000000" font-family="sans-serif" font-size="14" lengthAdjust="spacing" textLength="199" x="939" y="596.5339">deserialize(String): Document</text></g><!--class SaveCommand--><g id="elem_SaveCommand"><rect codeLine="60" fill="#F1F1F1" height="67.0679" id="SaveCommand" rx="2.5" ry="2.5" style="stroke:#181818;stroke-width:0.5;" width="217" x="183" y="528"/><ellipse cx="237.25" cy="544" fill="#ADD1B2" rx="11" ry="11" style="stroke:#181818;stroke-width:1.0;"/><path d="M240.2188,549.6406 Q239.6406,549.9375 239,550.0781 Q238.3594,550.2344 237.6563,550.2344 Q235.1563,550.2344 233.8281,548.5938 Q232.5156,546.9375 232.5156,543.8125 Q232.5156,540.6875 233.8281,539.0313 Q235.1563,537.375 237.6563,537.375 Q238.3594,537.375 239,537.5313 Q239.6563,537.6875 240.2188,537.9844 L240.2188,540.7031 Q239.5938,540.125 239,539.8594 Q238.4063,539.5781 237.7813,539.5781 Q236.4375,539.5781 235.75,540.6563 Q235.0625,541.7188 235.0625,543.8125 Q235.0625,545.9063 235.75,546.9844 Q236.4375,548.0469 237.7813,548.0469 Q238.4063,548.0469 239,547.7813 Q239.5938,547.5 240.2188,546.9219 L240.2188,549.6406 Z " fill="#000000"/><text fill="#000000" font-family="sans-serif" font-size="14" lengthAdjust="spacing" textLength="100" x="257.75" y="549.432">SaveCommand</text><line style="stroke:#181818;stroke-width:0.5;" x1="184" x2="399" y1="560" y2="560"/><line style="stroke:#181818;stroke-width:0.5;" x1="184" x2="399" y1="568" y2="568"/><ellipse cx="194" cy="583.034" fill="#84BE84" rx="3" ry="3" style="stroke:#038048;stroke-width:1.0;"/><text fill="#000000" font-family="sans-serif" font-size="14" lengthAdjust="spacing" textLength="191" x="203" y="586.9659">execute(Document): boolean</text></g><!--class LoadCommand--><g id="elem_LoadCommand"><rect codeLine="64" fill="#F1F1F1" height="67.0679" id="LoadCommand" rx="2.5" ry="2.5" style="stroke:#181818;stroke-width:0.5;" width="217" x="435" y="528"/><ellipse cx="488.75" cy="544" fill="#ADD1B2" rx="11" ry="11" style="stroke:#181818;stroke-width:1.0;"/><path d="M491.7188,549.6406 Q491.1406,549.9375 490.5,550.0781 Q489.8594,550.2344 489.1563,550.2344 Q486.6563,550.2344 485.3281,548.5938 Q484.0156,546.9375 484.0156,543.8125 Q484.0156,540.6875 485.3281,539.0313 Q486.6563,537.375 489.1563,537.375 Q489.8594,537.375 490.5,537.5313 Q491.1563,537.6875 491.7188,537.9844 L491.7188,540.7031 Q491.0938,540.125 490.5,539.8594 Q489.9063,539.5781 489.2813,539.5781 Q487.9375,539.5781 487.25,540.6563 Q486.5625,541.7188 486.5625,543.8125 Q486.5625,545.9063 487.25,546.9844 Q487.9375,548.0469 489.2813,548.0469 Q489.9063,548.0469 490.5,547.7813 Q491.0938,547.5 491.7188,546.9219 L491.7188,549.6406 Z " fill="#000000"/><text fill="#000000" font-family="sans-serif" font-size="14" lengthAdjust="spacing" textLength="101" x="509.25" y="549.432">LoadCommand</text><line style="stroke:#181818;stroke-width:0.5;" x1="436" x2="651" y1="560" y2="560"/><line style="stroke:#181818;stroke-width:0.5;" x1="436" x2="651" y1="568" y2="568"/><ellipse cx="446" cy="583.034" fill="#84BE84" rx="3" ry="3" style="stroke:#038048;stroke-width:1.0;"/><text fill="#000000" font-family="sans-serif" font-size="14" lengthAdjust="spacing" textLength="191" x="455" y="586.9659">execute(Document): boolean</text></g><!--class FileManager--><g id="elem_FileManager"><rect fill="#F1F1F1" height="48" id="FileManager" rx="2.5" ry="2.5" style="stroke:#181818;stroke-width:0.5;" width="116" x="727.5" y="674"/><ellipse cx="742.5" cy="690" fill="#ADD1B2" rx="11" ry="11" style="stroke:#181818;stroke-width:1.0;"/><path d="M745.4688,695.6406 Q744.8906,695.9375 744.25,696.0781 Q743.6094,696.2344 742.9063,696.2344 Q740.4063,696.2344 739.0781,694.5938 Q737.7656,692.9375 737.7656,689.8125 Q737.7656,686.6875 739.0781,685.0313 Q740.4063,683.375 742.9063,683.375 Q743.6094,683.375 744.25,683.5313 Q744.9063,683.6875 745.4688,683.9844 L745.4688,686.7031 Q744.8438,686.125 744.25,685.8594 Q743.6563,685.5781 743.0313,685.5781 Q741.6875,685.5781 741,686.6563 Q740.3125,687.7188 740.3125,689.8125 Q740.3125,691.9063 741,692.9844 Q741.6875,694.0469 743.0313,694.0469 Q743.6563,694.0469 744.25,693.7813 Q744.8438,693.5 745.4688,692.9219 L745.4688,695.6406 Z " fill="#000000"/><text fill="#000000" font-family="sans-serif" font-size="14" lengthAdjust="spacing" textLength="84" x="756.5" y="695.432">FileManager</text><line style="stroke:#181818;stroke-width:0.5;" x1="728.5" x2="842.5" y1="706" y2="706"/><line style="stroke:#181818;stroke-width:0.5;" x1="728.5" x2="842.5" y1="714" y2="714"/></g><!--link Editor to Document--><g id="link_Editor_Document"><path codeLine="68" d="M435.36,131.29 C360.22,156.35 261.21,195.53 183.5,248 C177.6,251.98 176.4332,252.5821 170.7332,257.2221 " fill="none" id="Editor-to-Document" style="stroke:#181818;stroke-width:1.0;"/><polygon fill="#181818" points="166.08,261.01,175.585,258.4303,169.9577,257.8535,170.5345,252.2261,166.08,261.01" style="stroke:#181818;stroke-width:1.0;"/></g><!--link Editor to UserInterface--><g id="link_Editor_UserInterface"><path codeLine="69" d="M459.4,188.04 C437.03,210.77 417.2177,230.9127 394.8577,253.6427 " fill="none" id="Editor-to-UserInterface" style="stroke:#181818;stroke-width:1.0;"/><polygon fill="#181818" points="390.65,257.92,399.8131,254.3092,394.1564,254.3556,394.11,248.6989,390.65,257.92" style="stroke:#181818;stroke-width:1.0;"/></g><!--link Editor to DocumentStorage--><g id="link_Editor_DocumentStorage"><path codeLine="70" d="M631.65,188.04 C665.72,224.29 699.7207,260.4781 728.9807,291.6081 " fill="none" id="Editor-to-DocumentStorage" style="stroke:#181818;stroke-width:1.0;"/><polygon fill="#181818" points="733.09,295.98,729.8407,286.6826,729.6656,292.3367,724.0114,292.1617,733.09,295.98" style="stroke:#181818;stroke-width:1.0;"/></g><!--link Editor to DocumentSerializer--><g id="link_Editor_DocumentSerializer"><path codeLine="71" d="M659.87,142.31 C726.18,169.71 810.88,207.42 882.5,248 C907.51,262.17 928.7311,276.1417 951.6411,292.4417 " fill="none" id="Editor-to-DocumentSerializer" style="stroke:#181818;stroke-width:1.0;"/><polygon fill="#181818" points="956.53,295.92,951.5156,287.4432,952.4559,293.0214,946.8778,293.9617,956.53,295.92" style="stroke:#181818;stroke-width:1.0;"/></g><!--link Editor to Command--><g id="link_Editor_Command"><path codeLine="72" d="M547.5,188.04 C547.5,228.06 547.5,267.32 547.5,299.37 " fill="none" id="Editor-to-Command" style="stroke:#181818;stroke-width:1.0;"/><polygon fill="#181818" points="547.5,305.37,551.5,296.37,547.5,300.37,543.5,296.37,547.5,305.37" style="stroke:#181818;stroke-width:1.0;"/></g><!--reverse link Command to SaveCommand--><g id="link_Command_SaveCommand"><path codeLine="73" d="M482.4201,403.1386 C433.8301,443.1886 375.7,491.1 331.28,527.71 " fill="none" id="Command-backto-SaveCommand" style="stroke:#181818;stroke-width:1.0;stroke-dasharray:7.0,7.0;"/><polygon fill="none" points="496.31,391.69,478.6039,398.5087,486.2363,407.7686,496.31,391.69" style="stroke:#181818;stroke-width:1.0;"/></g><!--reverse link Command to LoadCommand--><g id="link_Command_LoadCommand"><path codeLine="74" d="M546.3585,409.6868 C545.5985,449.7368 544.82,491.1 544.12,527.71 " fill="none" id="Command-backto-LoadCommand" style="stroke:#181818;stroke-width:1.0;stroke-dasharray:7.0,7.0;"/><polygon fill="none" points="546.7,391.69,540.3596,409.5729,552.3574,409.8006,546.7,391.69" style="stroke:#181818;stroke-width:1.0;"/></g><!--reverse link DocumentStorage to FileManagerAdapter--><g id="link_DocumentStorage_FileManagerAdapter"><path codeLine="75" d="M782.8213,419.1168 C783.4413,451.8068 783.9,475.95 784.52,508.69 " fill="none" id="DocumentStorage-backto-FileManagerAdapter" style="stroke:#181818;stroke-width:1.0;stroke-dasharray:7.0,7.0;"/><polygon fill="none" points="782.48,401.12,776.8224,419.2305,788.8202,419.003,782.48,401.12" style="stroke:#181818;stroke-width:1.0;"/></g><!--reverse link DocumentSerializer to SimpleSerializer--><g id="link_DocumentSerializer_SimpleSerializer"><path codeLine="76" d="M1026.8098,419.11 C1028.0098,455.1 1028.98,484.54 1030.1,518.27 " fill="none" id="DocumentSerializer-backto-SimpleSerializer" style="stroke:#181818;stroke-width:1.0;stroke-dasharray:7.0,7.0;"/><polygon fill="none" points="1026.21,401.12,1020.8132,419.3099,1032.8065,418.9101,1026.21,401.12" style="stroke:#181818;stroke-width:1.0;"/></g><!--link FileManagerAdapter to FileManager--><g id="link_FileManagerAdapter_FileManager"><path codeLine="77" d="M785.5,614.12 C785.5,634.71 785.5,651.38 785.5,667.79 " fill="none" id="FileManagerAdapter-to-FileManager" style="stroke:#181818;stroke-width:1.0;"/><polygon fill="#181818" points="785.5,673.79,789.5,664.79,785.5,668.79,781.5,664.79,785.5,673.79" style="stroke:#181818;stroke-width:1.0;"/></g><!--SRC=[hLJ9JiCm4BtdAtnC1Ua7eAfInI9LAgU84-9Wd6cnvDYHxHJ4yk_OiHtRQK20w2NJUREyDpC9OLWfTDrGBIHwAv3vLLU2z2rmZHflEFUT0hdb6kGU4q0zpODhKm0V02dtd80WAMRq5IHIepc4dBdMvSBzapttPjL9GK2fIz6sc3VbuW8z2i40y-AZACX0UoJgYTTQKdwuVq2CSb3EHmsCYQP7s1cdwnBoGjS3Q0kM9jQqSLKSeY9oxe6OindBMdRKpydc98YjwVoToTPbDiL5r99FDmWYc7CxDFTqTRB8844zYMVRJvL1NEIPZD2RVjY0cwsTGaBU-fpESZ8AOcOlQo81x8f6thwYPxnQqS1ilNPvy0Aarn1vVRF8S4HV5bFu2ANVGwmpG4pW9k5yMZlUuDVbGqpADXr20p5af15YOyyRok0MSoD5RXhSwR5dbI1e7-q_gwjfsp4uqVPlIcf3AL_nZnQwCtH_bUQ_G5MrZYGINtRpSy7-ScQX-CL9qF0c19Qhz-KoLPi3YPvYUgn3mEd6Yvd3SqqcAojchiKoJDoV]--></g></svg>