<?xml version="1.0" encoding="us-ascii" standalone="no"?><svg xmlns="http://www.w3.org/2000/svg" xmlns:xlink="http://www.w3.org/1999/xlink" contentStyleType="text/css" height="386px" preserveAspectRatio="none" style="width:992px;height:386px;background:#FFFFFF;" version="1.1" viewBox="0 0 992 386" width="992px" zoomAndPan="magnify"><defs/><g><!--class Command--><g id="elem_Command"><rect codeLine="1" fill="#F1F1F1" height="48" id="Command" rx="2.5" ry="2.5" style="stroke:#181818;stroke-width:0.5;" width="96" x="193" y="115"/><ellipse cx="208" cy="131" fill="#B4A7E5" rx="11" ry="11" style="stroke:#181818;stroke-width:1.0;"/><path d="M203.9219,126.7656 L203.9219,124.6094 L211.3125,124.6094 L211.3125,126.7656 L208.8438,126.7656 L208.8438,134.8438 L211.3125,134.8438 L211.3125,137 L203.9219,137 L203.9219,134.8438 L206.3906,134.8438 L206.3906,126.7656 L203.9219,126.7656 Z " fill="#000000"/><text fill="#000000" font-family="sans-serif" font-size="14" font-style="italic" lengthAdjust="spacing" textLength="64" x="222" y="136.432">Command</text><line style="stroke:#181818;stroke-width:0.5;" x1="194" x2="288" y1="147" y2="147"/><line style="stroke:#181818;stroke-width:0.5;" x1="194" x2="288" y1="155" y2="155"/></g><!--class DocumentStorage--><g id="elem_DocumentStorage"><rect codeLine="2" fill="#F1F1F1" height="48" id="DocumentStorage" rx="2.5" ry="2.5" style="stroke:#181818;stroke-width:0.5;" width="144" x="356" y="115"/><ellipse cx="371" cy="131" fill="#B4A7E5" rx="11" ry="11" style="stroke:#181818;stroke-width:1.0;"/><path d="M366.9219,126.7656 L366.9219,124.6094 L374.3125,124.6094 L374.3125,126.7656 L371.8438,126.7656 L371.8438,134.8438 L374.3125,134.8438 L374.3125,137 L366.9219,137 L366.9219,134.8438 L369.3906,134.8438 L369.3906,126.7656 L366.9219,126.7656 Z " fill="#000000"/><text fill="#000000" font-family="sans-serif" font-size="14" font-style="italic" lengthAdjust="spacing" textLength="112" x="385" y="136.432">DocumentStorage</text><line style="stroke:#181818;stroke-width:0.5;" x1="357" x2="499" y1="147" y2="147"/><line style="stroke:#181818;stroke-width:0.5;" x1="357" x2="499" y1="155" y2="155"/></g><!--class DocumentSerializer--><g id="elem_DocumentSerializer"><rect codeLine="3" fill="#F1F1F1" height="48" id="DocumentSerializer" rx="2.5" ry="2.5" style="stroke:#181818;stroke-width:0.5;" width="154" x="535" y="115"/><ellipse cx="550" cy="131" fill="#B4A7E5" rx="11" ry="11" style="stroke:#181818;stroke-width:1.0;"/><path d="M545.9219,126.7656 L545.9219,124.6094 L553.3125,124.6094 L553.3125,126.7656 L550.8438,126.7656 L550.8438,134.8438 L553.3125,134.8438 L553.3125,137 L545.9219,137 L545.9219,134.8438 L548.3906,134.8438 L548.3906,126.7656 L545.9219,126.7656 Z " fill="#000000"/><text fill="#000000" font-family="sans-serif" font-size="14" font-style="italic" lengthAdjust="spacing" textLength="122" x="564" y="136.432">DocumentSerializer</text><line style="stroke:#181818;stroke-width:0.5;" x1="536" x2="688" y1="147" y2="147"/><line style="stroke:#181818;stroke-width:0.5;" x1="536" x2="688" y1="155" y2="155"/></g><!--class Editor--><g id="elem_Editor"><rect fill="#F1F1F1" height="48" id="Editor" rx="2.5" ry="2.5" style="stroke:#181818;stroke-width:0.5;" width="72" x="576" y="7"/><ellipse cx="591" cy="23" fill="#ADD1B2" rx="11" ry="11" style="stroke:#181818;stroke-width:1.0;"/><path d="M593.9688,28.6406 Q593.3906,28.9375 592.75,29.0781 Q592.1094,29.2344 591.4063,29.2344 Q588.9063,29.2344 587.5781,27.5938 Q586.2656,25.9375 586.2656,22.8125 Q586.2656,19.6875 587.5781,18.0313 Q588.9063,16.375 591.4063,16.375 Q592.1094,16.375 592.75,16.5313 Q593.4063,16.6875 593.9688,16.9844 L593.9688,19.7031 Q593.3438,19.125 592.75,18.8594 Q592.1563,18.5781 591.5313,18.5781 Q590.1875,18.5781 589.5,19.6563 Q588.8125,20.7188 588.8125,22.8125 Q588.8125,24.9063 589.5,25.9844 Q590.1875,27.0469 591.5313,27.0469 Q592.1563,27.0469 592.75,26.7813 Q593.3438,26.5 593.9688,25.9219 L593.9688,28.6406 Z " fill="#000000"/><text fill="#000000" font-family="sans-serif" font-size="14" lengthAdjust="spacing" textLength="40" x="605" y="28.432">Editor</text><line style="stroke:#181818;stroke-width:0.5;" x1="577" x2="647" y1="39" y2="39"/><line style="stroke:#181818;stroke-width:0.5;" x1="577" x2="647" y1="47" y2="47"/></g><!--class Document--><g id="elem_Document"><rect fill="#F1F1F1" height="48" id="Document" rx="2.5" ry="2.5" style="stroke:#181818;stroke-width:0.5;" width="101" x="724.5" y="115"/><ellipse cx="739.5" cy="131" fill="#ADD1B2" rx="11" ry="11" style="stroke:#181818;stroke-width:1.0;"/><path d="M742.4688,136.6406 Q741.8906,136.9375 741.25,137.0781 Q740.6094,137.2344 739.9063,137.2344 Q737.4063,137.2344 736.0781,135.5938 Q734.7656,133.9375 734.7656,130.8125 Q734.7656,127.6875 736.0781,126.0313 Q737.4063,124.375 739.9063,124.375 Q740.6094,124.375 741.25,124.5313 Q741.9063,124.6875 742.4688,124.9844 L742.4688,127.7031 Q741.8438,127.125 741.25,126.8594 Q740.6563,126.5781 740.0313,126.5781 Q738.6875,126.5781 738,127.6563 Q737.3125,128.7188 737.3125,130.8125 Q737.3125,132.9063 738,133.9844 Q738.6875,135.0469 740.0313,135.0469 Q740.6563,135.0469 741.25,134.7813 Q741.8438,134.5 742.4688,133.9219 L742.4688,136.6406 Z " fill="#000000"/><text fill="#000000" font-family="sans-serif" font-size="14" lengthAdjust="spacing" textLength="69" x="753.5" y="136.432">Document</text><line style="stroke:#181818;stroke-width:0.5;" x1="725.5" x2="824.5" y1="147" y2="147"/><line style="stroke:#181818;stroke-width:0.5;" x1="725.5" x2="824.5" y1="155" y2="155"/></g><!--class UserInterface--><g id="elem_UserInterface"><rect fill="#F1F1F1" height="48" id="UserInterface" rx="2.5" ry="2.5" style="stroke:#181818;stroke-width:0.5;" width="124" x="861" y="115"/><ellipse cx="876" cy="131" fill="#ADD1B2" rx="11" ry="11" style="stroke:#181818;stroke-width:1.0;"/><path d="M878.9688,136.6406 Q878.3906,136.9375 877.75,137.0781 Q877.1094,137.2344 876.4063,137.2344 Q873.9063,137.2344 872.5781,135.5938 Q871.2656,133.9375 871.2656,130.8125 Q871.2656,127.6875 872.5781,126.0313 Q873.9063,124.375 876.4063,124.375 Q877.1094,124.375 877.75,124.5313 Q878.4063,124.6875 878.9688,124.9844 L878.9688,127.7031 Q878.3438,127.125 877.75,126.8594 Q877.1563,126.5781 876.5313,126.5781 Q875.1875,126.5781 874.5,127.6563 Q873.8125,128.7188 873.8125,130.8125 Q873.8125,132.9063 874.5,133.9844 Q875.1875,135.0469 876.5313,135.0469 Q877.1563,135.0469 877.75,134.7813 Q878.3438,134.5 878.9688,133.9219 L878.9688,136.6406 Z " fill="#000000"/><text fill="#000000" font-family="sans-serif" font-size="14" lengthAdjust="spacing" textLength="92" x="890" y="136.432">UserInterface</text><line style="stroke:#181818;stroke-width:0.5;" x1="862" x2="984" y1="147" y2="147"/><line style="stroke:#181818;stroke-width:0.5;" x1="862" x2="984" y1="155" y2="155"/></g><!--class SaveCommand--><g id="elem_SaveCommand"><rect fill="#F1F1F1" height="48" id="SaveCommand" rx="2.5" ry="2.5" style="stroke:#181818;stroke-width:0.5;" width="132" x="7" y="223"/><ellipse cx="22" cy="239" fill="#ADD1B2" rx="11" ry="11" style="stroke:#181818;stroke-width:1.0;"/><path d="M24.9688,244.6406 Q24.3906,244.9375 23.75,245.0781 Q23.1094,245.2344 22.4063,245.2344 Q19.9063,245.2344 18.5781,243.5938 Q17.2656,241.9375 17.2656,238.8125 Q17.2656,235.6875 18.5781,234.0313 Q19.9063,232.375 22.4063,232.375 Q23.1094,232.375 23.75,232.5313 Q24.4063,232.6875 24.9688,232.9844 L24.9688,235.7031 Q24.3438,235.125 23.75,234.8594 Q23.1563,234.5781 22.5313,234.5781 Q21.1875,234.5781 20.5,235.6563 Q19.8125,236.7188 19.8125,238.8125 Q19.8125,240.9063 20.5,241.9844 Q21.1875,243.0469 22.5313,243.0469 Q23.1563,243.0469 23.75,242.7813 Q24.3438,242.5 24.9688,241.9219 L24.9688,244.6406 Z " fill="#000000"/><text fill="#000000" font-family="sans-serif" font-size="14" lengthAdjust="spacing" textLength="100" x="36" y="244.432">SaveCommand</text><line style="stroke:#181818;stroke-width:0.5;" x1="8" x2="138" y1="255" y2="255"/><line style="stroke:#181818;stroke-width:0.5;" x1="8" x2="138" y1="263" y2="263"/></g><!--class LoadCommand--><g id="elem_LoadCommand"><rect fill="#F1F1F1" height="48" id="LoadCommand" rx="2.5" ry="2.5" style="stroke:#181818;stroke-width:0.5;" width="133" x="174.5" y="223"/><ellipse cx="189.5" cy="239" fill="#ADD1B2" rx="11" ry="11" style="stroke:#181818;stroke-width:1.0;"/><path d="M192.4688,244.6406 Q191.8906,244.9375 191.25,245.0781 Q190.6094,245.2344 189.9063,245.2344 Q187.4063,245.2344 186.0781,243.5938 Q184.7656,241.9375 184.7656,238.8125 Q184.7656,235.6875 186.0781,234.0313 Q187.4063,232.375 189.9063,232.375 Q190.6094,232.375 191.25,232.5313 Q191.9063,232.6875 192.4688,232.9844 L192.4688,235.7031 Q191.8438,235.125 191.25,234.8594 Q190.6563,234.5781 190.0313,234.5781 Q188.6875,234.5781 188,235.6563 Q187.3125,236.7188 187.3125,238.8125 Q187.3125,240.9063 188,241.9844 Q188.6875,243.0469 190.0313,243.0469 Q190.6563,243.0469 191.25,242.7813 Q191.8438,242.5 192.4688,241.9219 L192.4688,244.6406 Z " fill="#000000"/><text fill="#000000" font-family="sans-serif" font-size="14" lengthAdjust="spacing" textLength="101" x="203.5" y="244.432">LoadCommand</text><line style="stroke:#181818;stroke-width:0.5;" x1="175.5" x2="306.5" y1="255" y2="255"/><line style="stroke:#181818;stroke-width:0.5;" x1="175.5" x2="306.5" y1="263" y2="263"/></g><!--class FileManagerAdapter--><g id="elem_FileManagerAdapter"><rect fill="#F1F1F1" height="48" id="FileManagerAdapter" rx="2.5" ry="2.5" style="stroke:#181818;stroke-width:0.5;" width="170" x="343" y="223"/><ellipse cx="358" cy="239" fill="#ADD1B2" rx="11" ry="11" style="stroke:#181818;stroke-width:1.0;"/><path d="M360.9688,244.6406 Q360.3906,244.9375 359.75,245.0781 Q359.1094,245.2344 358.4063,245.2344 Q355.9063,245.2344 354.5781,243.5938 Q353.2656,241.9375 353.2656,238.8125 Q353.2656,235.6875 354.5781,234.0313 Q355.9063,232.375 358.4063,232.375 Q359.1094,232.375 359.75,232.5313 Q360.4063,232.6875 360.9688,232.9844 L360.9688,235.7031 Q360.3438,235.125 359.75,234.8594 Q359.1563,234.5781 358.5313,234.5781 Q357.1875,234.5781 356.5,235.6563 Q355.8125,236.7188 355.8125,238.8125 Q355.8125,240.9063 356.5,241.9844 Q357.1875,243.0469 358.5313,243.0469 Q359.1563,243.0469 359.75,242.7813 Q360.3438,242.5 360.9688,241.9219 L360.9688,244.6406 Z " fill="#000000"/><text fill="#000000" font-family="sans-serif" font-size="14" lengthAdjust="spacing" textLength="138" x="372" y="244.432">FileManagerAdapter</text><line style="stroke:#181818;stroke-width:0.5;" x1="344" x2="512" y1="255" y2="255"/><line style="stroke:#181818;stroke-width:0.5;" x1="344" x2="512" y1="263" y2="263"/></g><!--class SimpleSerializer--><g id="elem_SimpleSerializer"><rect fill="#F1F1F1" height="48" id="SimpleSerializer" rx="2.5" ry="2.5" style="stroke:#181818;stroke-width:0.5;" width="141" x="548.5" y="223"/><ellipse cx="563.5" cy="239" fill="#ADD1B2" rx="11" ry="11" style="stroke:#181818;stroke-width:1.0;"/><path d="M566.4688,244.6406 Q565.8906,244.9375 565.25,245.0781 Q564.6094,245.2344 563.9063,245.2344 Q561.4063,245.2344 560.0781,243.5938 Q558.7656,241.9375 558.7656,238.8125 Q558.7656,235.6875 560.0781,234.0313 Q561.4063,232.375 563.9063,232.375 Q564.6094,232.375 565.25,232.5313 Q565.9063,232.6875 566.4688,232.9844 L566.4688,235.7031 Q565.8438,235.125 565.25,234.8594 Q564.6563,234.5781 564.0313,234.5781 Q562.6875,234.5781 562,235.6563 Q561.3125,236.7188 561.3125,238.8125 Q561.3125,240.9063 562,241.9844 Q562.6875,243.0469 564.0313,243.0469 Q564.6563,243.0469 565.25,242.7813 Q565.8438,242.5 566.4688,241.9219 L566.4688,244.6406 Z " fill="#000000"/><text fill="#000000" font-family="sans-serif" font-size="14" lengthAdjust="spacing" textLength="109" x="577.5" y="244.432">SimpleSerializer</text><line style="stroke:#181818;stroke-width:0.5;" x1="549.5" x2="688.5" y1="255" y2="255"/><line style="stroke:#181818;stroke-width:0.5;" x1="549.5" x2="688.5" y1="263" y2="263"/></g><!--class FileManager--><g id="elem_FileManager"><rect fill="#F1F1F1" height="48" id="FileManager" rx="2.5" ry="2.5" style="stroke:#181818;stroke-width:0.5;" width="116" x="370" y="331"/><ellipse cx="385" cy="347" fill="#ADD1B2" rx="11" ry="11" style="stroke:#181818;stroke-width:1.0;"/><path d="M387.9688,352.6406 Q387.3906,352.9375 386.75,353.0781 Q386.1094,353.2344 385.4063,353.2344 Q382.9063,353.2344 381.5781,351.5938 Q380.2656,349.9375 380.2656,346.8125 Q380.2656,343.6875 381.5781,342.0313 Q382.9063,340.375 385.4063,340.375 Q386.1094,340.375 386.75,340.5313 Q387.4063,340.6875 387.9688,340.9844 L387.9688,343.7031 Q387.3438,343.125 386.75,342.8594 Q386.1563,342.5781 385.5313,342.5781 Q384.1875,342.5781 383.5,343.6563 Q382.8125,344.7188 382.8125,346.8125 Q382.8125,348.9063 383.5,349.9844 Q384.1875,351.0469 385.5313,351.0469 Q386.1563,351.0469 386.75,350.7813 Q387.3438,350.5 387.9688,349.9219 L387.9688,352.6406 Z " fill="#000000"/><text fill="#000000" font-family="sans-serif" font-size="14" lengthAdjust="spacing" textLength="84" x="399" y="352.432">FileManager</text><line style="stroke:#181818;stroke-width:0.5;" x1="371" x2="485" y1="363" y2="363"/><line style="stroke:#181818;stroke-width:0.5;" x1="371" x2="485" y1="371" y2="371"/></g><!--link Editor to Document--><g id="link_Editor_Document"><path codeLine="5" d="M647.37,55 C674.62,72.72 707.0898,93.8394 734.3898,111.5894 " fill="none" id="Editor-to-Document" style="stroke:#181818;stroke-width:1.0;"/><polygon fill="#181818" points="739.42,114.86,734.055,106.6006,735.2281,112.1345,729.6943,113.3076,739.42,114.86" style="stroke:#181818;stroke-width:1.0;"/></g><!--link Editor to UserInterface--><g id="link_Editor_UserInterface"><path codeLine="6" d="M648.28,44.37 C700.44,62.14 791.631,93.2239 855.281,114.9239 " fill="none" id="Editor-to-UserInterface" style="stroke:#181818;stroke-width:1.0;"/><polygon fill="#181818" points="860.96,116.86,853.7322,110.1698,856.2275,115.2466,851.1507,117.7418,860.96,116.86" style="stroke:#181818;stroke-width:1.0;"/></g><!--link Editor to Command--><g id="link_Editor_Command"><path codeLine="7" d="M575.75,42.36 C508.47,61.58 370.0692,101.1218 294.7792,122.6318 " fill="none" id="Editor-to-Command" style="stroke:#181818;stroke-width:1.0;"/><polygon fill="#181818" points="289.01,124.28,298.7626,125.6538,293.8176,122.9065,296.5649,117.9615,289.01,124.28" style="stroke:#181818;stroke-width:1.0;"/></g><!--link Editor to DocumentStorage--><g id="link_Editor_DocumentStorage"><path codeLine="9" d="M575.65,52.94 C544.65,70.8 505.3391,93.4452 473.3091,111.8952 " fill="none" id="Editor-to-DocumentStorage" style="stroke:#181818;stroke-width:1.0;"/><polygon fill="#181818" points="468.11,114.89,477.9053,113.8639,472.4426,112.3943,473.9122,106.9317,468.11,114.89" style="stroke:#181818;stroke-width:1.0;"/></g><!--link Editor to DocumentSerializer--><g id="link_Editor_DocumentSerializer"><path codeLine="10" d="M612,55 C612,72.66 612,90.94 612,108.68 " fill="none" id="Editor-to-DocumentSerializer" style="stroke:#181818;stroke-width:1.0;"/><polygon fill="#181818" points="612,114.68,616,105.68,612,109.68,608,105.68,612,114.68" style="stroke:#181818;stroke-width:1.0;"/></g><!--reverse link Command to SaveCommand--><g id="link_Command_SaveCommand"><path codeLine="11" d="M189.3261,172.6037 C161.2361,190.3237 137.81,205.11 109.67,222.86 " fill="none" id="Command-backto-SaveCommand" style="stroke:#181818;stroke-width:1.0;stroke-dasharray:7.0,7.0;"/><polygon fill="none" points="204.55,163,186.1248,167.5291,192.5273,177.6784,204.55,163" style="stroke:#181818;stroke-width:1.0;"/></g><!--reverse link Command to LoadCommand--><g id="link_Command_LoadCommand"><path codeLine="12" d="M241,181 C241,198.66 241,204.94 241,222.68 " fill="none" id="Command-backto-LoadCommand" style="stroke:#181818;stroke-width:1.0;stroke-dasharray:7.0,7.0;"/><polygon fill="none" points="241,163,235,181,247,181,241,163" style="stroke:#181818;stroke-width:1.0;"/></g><!--reverse link DocumentStorage to FileManagerAdapter--><g id="link_DocumentStorage_FileManagerAdapter"><path codeLine="13" d="M428,181 C428,198.66 428,204.94 428,222.68 " fill="none" id="DocumentStorage-backto-FileManagerAdapter" style="stroke:#181818;stroke-width:1.0;stroke-dasharray:7.0,7.0;"/><polygon fill="none" points="428,163,422,181,434,181,428,163" style="stroke:#181818;stroke-width:1.0;"/></g><!--reverse link DocumentSerializer to SimpleSerializer--><g id="link_DocumentSerializer_SimpleSerializer"><path codeLine="14" d="M614.6998,180.9613 C615.8598,198.6213 616.29,204.94 617.46,222.68 " fill="none" id="DocumentSerializer-backto-SimpleSerializer" style="stroke:#181818;stroke-width:1.0;stroke-dasharray:7.0,7.0;"/><polygon fill="none" points="613.52,163,608.7127,181.3546,620.6869,180.568,613.52,163" style="stroke:#181818;stroke-width:1.0;"/></g><!--link FileManagerAdapter to FileManager--><g id="link_FileManagerAdapter_FileManager"><path codeLine="15" d="M428,271 C428,288.66 428,306.94 428,324.68 " fill="none" id="FileManagerAdapter-to-FileManager" style="stroke:#181818;stroke-width:1.0;"/><polygon fill="#181818" points="428,330.68,432,321.68,428,325.68,424,321.68,428,330.68" style="stroke:#181818;stroke-width:1.0;"/></g><!--SRC=[ROvB2W8n44JtEKKkC7C24SGF2BeQF40pAQKXdw6DBiJ36tGoHYVBrEkyAlOHSgOUUXsS8syKJyacz3S77xiOX2we4GYJvGT4gQtXTAURPZdXCZjT8ViiA47khGboSmrzgqU3NZpRLdTqHrR-W4CWay6V_tEmOuiZ-VIMbQ4XJLNpih64tM1HJ9Z_VOyjuXS0]--></g></svg>