<?xml version="1.0" encoding="us-ascii" standalone="no"?><svg xmlns="http://www.w3.org/2000/svg" xmlns:xlink="http://www.w3.org/1999/xlink" contentStyleType="text/css" height="507px" preserveAspectRatio="none" style="width:921px;height:507px;background:#FFFFFF;" version="1.1" viewBox="0 0 921 507" width="921px" zoomAndPan="magnify"><defs/><g><!--class DocumentRenderer--><g id="elem_DocumentRenderer"><rect codeLine="1" fill="#F1F1F1" height="48" id="DocumentRenderer" rx="2.5" ry="2.5" style="stroke:#181818;stroke-width:0.5;" width="152" x="465" y="223"/><ellipse cx="480" cy="239" fill="#B4A7E5" rx="11" ry="11" style="stroke:#181818;stroke-width:1.0;"/><path d="M475.9219,234.7656 L475.9219,232.6094 L483.3125,232.6094 L483.3125,234.7656 L480.8438,234.7656 L480.8438,242.8438 L483.3125,242.8438 L483.3125,245 L475.9219,245 L475.9219,242.8438 L478.3906,242.8438 L478.3906,234.7656 L475.9219,234.7656 Z " fill="#000000"/><text fill="#000000" font-family="sans-serif" font-size="14" font-style="italic" lengthAdjust="spacing" textLength="120" x="494" y="244.432">DocumentRenderer</text><line style="stroke:#181818;stroke-width:0.5;" x1="466" x2="616" y1="255" y2="255"/><line style="stroke:#181818;stroke-width:0.5;" x1="466" x2="616" y1="263" y2="263"/></g><!--class Command--><g id="elem_Command"><rect codeLine="2" fill="#F1F1F1" height="48" id="Command" rx="2.5" ry="2.5" style="stroke:#181818;stroke-width:0.5;" width="96" x="705" y="223"/><ellipse cx="720" cy="239" fill="#B4A7E5" rx="11" ry="11" style="stroke:#181818;stroke-width:1.0;"/><path d="M715.9219,234.7656 L715.9219,232.6094 L723.3125,232.6094 L723.3125,234.7656 L720.8438,234.7656 L720.8438,242.8438 L723.3125,242.8438 L723.3125,245 L715.9219,245 L715.9219,242.8438 L718.3906,242.8438 L718.3906,234.7656 L715.9219,234.7656 Z " fill="#000000"/><text fill="#000000" font-family="sans-serif" font-size="14" font-style="italic" lengthAdjust="spacing" textLength="64" x="734" y="244.432">Command</text><line style="stroke:#181818;stroke-width:0.5;" x1="706" x2="800" y1="255" y2="255"/><line style="stroke:#181818;stroke-width:0.5;" x1="706" x2="800" y1="263" y2="263"/></g><!--class DocumentStorage--><g id="elem_DocumentStorage"><rect codeLine="3" fill="#F1F1F1" height="48" id="DocumentStorage" rx="2.5" ry="2.5" style="stroke:#181818;stroke-width:0.5;" width="144" x="40" y="115"/><ellipse cx="55" cy="131" fill="#B4A7E5" rx="11" ry="11" style="stroke:#181818;stroke-width:1.0;"/><path d="M50.9219,126.7656 L50.9219,124.6094 L58.3125,124.6094 L58.3125,126.7656 L55.8438,126.7656 L55.8438,134.8438 L58.3125,134.8438 L58.3125,137 L50.9219,137 L50.9219,134.8438 L53.3906,134.8438 L53.3906,126.7656 L50.9219,126.7656 Z " fill="#000000"/><text fill="#000000" font-family="sans-serif" font-size="14" font-style="italic" lengthAdjust="spacing" textLength="112" x="69" y="136.432">DocumentStorage</text><line style="stroke:#181818;stroke-width:0.5;" x1="41" x2="183" y1="147" y2="147"/><line style="stroke:#181818;stroke-width:0.5;" x1="41" x2="183" y1="155" y2="155"/></g><!--class DocumentSerializer--><g id="elem_DocumentSerializer"><rect codeLine="4" fill="#F1F1F1" height="48" id="DocumentSerializer" rx="2.5" ry="2.5" style="stroke:#181818;stroke-width:0.5;" width="154" x="212" y="223"/><ellipse cx="227" cy="239" fill="#B4A7E5" rx="11" ry="11" style="stroke:#181818;stroke-width:1.0;"/><path d="M222.9219,234.7656 L222.9219,232.6094 L230.3125,232.6094 L230.3125,234.7656 L227.8438,234.7656 L227.8438,242.8438 L230.3125,242.8438 L230.3125,245 L222.9219,245 L222.9219,242.8438 L225.3906,242.8438 L225.3906,234.7656 L222.9219,234.7656 Z " fill="#000000"/><text fill="#000000" font-family="sans-serif" font-size="14" font-style="italic" lengthAdjust="spacing" textLength="122" x="241" y="244.432">DocumentSerializer</text><line style="stroke:#181818;stroke-width:0.5;" x1="213" x2="365" y1="255" y2="255"/><line style="stroke:#181818;stroke-width:0.5;" x1="213" x2="365" y1="263" y2="263"/></g><!--class RenderUtils--><g id="elem_RenderUtils"><rect codeLine="5" fill="#F1F1F1" height="61.412" id="RenderUtils" rx="2.5" ry="2.5" style="stroke:#181818;stroke-width:0.5;" width="111" x="477.5" y="439"/><ellipse cx="492.5" cy="461.706" fill="#ADD1B2" rx="11" ry="11" style="stroke:#181818;stroke-width:1.0;"/><path d="M495.4688,467.3466 Q494.8906,467.6435 494.25,467.7841 Q493.6094,467.9404 492.9063,467.9404 Q490.4063,467.9404 489.0781,466.2998 Q487.7656,464.6435 487.7656,461.5185 Q487.7656,458.3935 489.0781,456.7373 Q490.4063,455.081 492.9063,455.081 Q493.6094,455.081 494.25,455.2373 Q494.9063,455.3935 495.4688,455.6904 L495.4688,458.4091 Q494.8438,457.831 494.25,457.5654 Q493.6563,457.2841 493.0313,457.2841 Q491.6875,457.2841 491,458.3623 Q490.3125,459.4248 490.3125,461.5185 Q490.3125,463.6123 491,464.6904 Q491.6875,465.7529 493.0313,465.7529 Q493.6563,465.7529 494.25,465.4873 Q494.8438,465.206 495.4688,464.6279 L495.4688,467.3466 Z " fill="#000000"/><text fill="#000000" font-family="sans-serif" font-size="12" font-style="italic" lengthAdjust="spacing" textLength="42" x="525" y="456.8281">&#171;utility&#187;</text><text fill="#000000" font-family="sans-serif" font-size="14" lengthAdjust="spacing" textLength="79" x="506.5" y="475.31">RenderUtils</text><line style="stroke:#181818;stroke-width:0.5;" x1="478.5" x2="587.5" y1="484.412" y2="484.412"/><line style="stroke:#181818;stroke-width:0.5;" x1="478.5" x2="587.5" y1="492.412" y2="492.412"/></g><!--class Editor--><g id="elem_Editor"><rect fill="#F1F1F1" height="48" id="Editor" rx="2.5" ry="2.5" style="stroke:#181818;stroke-width:0.5;" width="72" x="253" y="7"/><ellipse cx="268" cy="23" fill="#ADD1B2" rx="11" ry="11" style="stroke:#181818;stroke-width:1.0;"/><path d="M270.9688,28.6406 Q270.3906,28.9375 269.75,29.0781 Q269.1094,29.2344 268.4063,29.2344 Q265.9063,29.2344 264.5781,27.5938 Q263.2656,25.9375 263.2656,22.8125 Q263.2656,19.6875 264.5781,18.0313 Q265.9063,16.375 268.4063,16.375 Q269.1094,16.375 269.75,16.5313 Q270.4063,16.6875 270.9688,16.9844 L270.9688,19.7031 Q270.3438,19.125 269.75,18.8594 Q269.1563,18.5781 268.5313,18.5781 Q267.1875,18.5781 266.5,19.6563 Q265.8125,20.7188 265.8125,22.8125 Q265.8125,24.9063 266.5,25.9844 Q267.1875,27.0469 268.5313,27.0469 Q269.1563,27.0469 269.75,26.7813 Q270.3438,26.5 270.9688,25.9219 L270.9688,28.6406 Z " fill="#000000"/><text fill="#000000" font-family="sans-serif" font-size="14" lengthAdjust="spacing" textLength="40" x="282" y="28.432">Editor</text><line style="stroke:#181818;stroke-width:0.5;" x1="254" x2="324" y1="39" y2="39"/><line style="stroke:#181818;stroke-width:0.5;" x1="254" x2="324" y1="47" y2="47"/></g><!--class Document--><g id="elem_Document"><rect fill="#F1F1F1" height="48" id="Document" rx="2.5" ry="2.5" style="stroke:#181818;stroke-width:0.5;" width="101" x="238.5" y="115"/><ellipse cx="253.5" cy="131" fill="#ADD1B2" rx="11" ry="11" style="stroke:#181818;stroke-width:1.0;"/><path d="M256.4688,136.6406 Q255.8906,136.9375 255.25,137.0781 Q254.6094,137.2344 253.9063,137.2344 Q251.4063,137.2344 250.0781,135.5938 Q248.7656,133.9375 248.7656,130.8125 Q248.7656,127.6875 250.0781,126.0313 Q251.4063,124.375 253.9063,124.375 Q254.6094,124.375 255.25,124.5313 Q255.9063,124.6875 256.4688,124.9844 L256.4688,127.7031 Q255.8438,127.125 255.25,126.8594 Q254.6563,126.5781 254.0313,126.5781 Q252.6875,126.5781 252,127.6563 Q251.3125,128.7188 251.3125,130.8125 Q251.3125,132.9063 252,133.9844 Q252.6875,135.0469 254.0313,135.0469 Q254.6563,135.0469 255.25,134.7813 Q255.8438,134.5 256.4688,133.9219 L256.4688,136.6406 Z " fill="#000000"/><text fill="#000000" font-family="sans-serif" font-size="14" lengthAdjust="spacing" textLength="69" x="267.5" y="136.432">Document</text><line style="stroke:#181818;stroke-width:0.5;" x1="239.5" x2="338.5" y1="147" y2="147"/><line style="stroke:#181818;stroke-width:0.5;" x1="239.5" x2="338.5" y1="155" y2="155"/></g><!--class UserInterface--><g id="elem_UserInterface"><rect fill="#F1F1F1" height="48" id="UserInterface" rx="2.5" ry="2.5" style="stroke:#181818;stroke-width:0.5;" width="124" x="479" y="115"/><ellipse cx="494" cy="131" fill="#ADD1B2" rx="11" ry="11" style="stroke:#181818;stroke-width:1.0;"/><path d="M496.9688,136.6406 Q496.3906,136.9375 495.75,137.0781 Q495.1094,137.2344 494.4063,137.2344 Q491.9063,137.2344 490.5781,135.5938 Q489.2656,133.9375 489.2656,130.8125 Q489.2656,127.6875 490.5781,126.0313 Q491.9063,124.375 494.4063,124.375 Q495.1094,124.375 495.75,124.5313 Q496.4063,124.6875 496.9688,124.9844 L496.9688,127.7031 Q496.3438,127.125 495.75,126.8594 Q495.1563,126.5781 494.5313,126.5781 Q493.1875,126.5781 492.5,127.6563 Q491.8125,128.7188 491.8125,130.8125 Q491.8125,132.9063 492.5,133.9844 Q493.1875,135.0469 494.5313,135.0469 Q495.1563,135.0469 495.75,134.7813 Q496.3438,134.5 496.9688,133.9219 L496.9688,136.6406 Z " fill="#000000"/><text fill="#000000" font-family="sans-serif" font-size="14" lengthAdjust="spacing" textLength="92" x="508" y="136.432">UserInterface</text><line style="stroke:#181818;stroke-width:0.5;" x1="480" x2="602" y1="147" y2="147"/><line style="stroke:#181818;stroke-width:0.5;" x1="480" x2="602" y1="155" y2="155"/></g><!--class EditorRenderer--><g id="elem_EditorRenderer"><rect fill="#F1F1F1" height="48" id="EditorRenderer" rx="2.5" ry="2.5" style="stroke:#181818;stroke-width:0.5;" width="135" x="377.5" y="331"/><ellipse cx="392.5" cy="347" fill="#ADD1B2" rx="11" ry="11" style="stroke:#181818;stroke-width:1.0;"/><path d="M395.4688,352.6406 Q394.8906,352.9375 394.25,353.0781 Q393.6094,353.2344 392.9063,353.2344 Q390.4063,353.2344 389.0781,351.5938 Q387.7656,349.9375 387.7656,346.8125 Q387.7656,343.6875 389.0781,342.0313 Q390.4063,340.375 392.9063,340.375 Q393.6094,340.375 394.25,340.5313 Q394.9063,340.6875 395.4688,340.9844 L395.4688,343.7031 Q394.8438,343.125 394.25,342.8594 Q393.6563,342.5781 393.0313,342.5781 Q391.6875,342.5781 391,343.6563 Q390.3125,344.7188 390.3125,346.8125 Q390.3125,348.9063 391,349.9844 Q391.6875,351.0469 393.0313,351.0469 Q393.6563,351.0469 394.25,350.7813 Q394.8438,350.5 395.4688,349.9219 L395.4688,352.6406 Z " fill="#000000"/><text fill="#000000" font-family="sans-serif" font-size="14" lengthAdjust="spacing" textLength="103" x="406.5" y="352.432">EditorRenderer</text><line style="stroke:#181818;stroke-width:0.5;" x1="378.5" x2="511.5" y1="363" y2="363"/><line style="stroke:#181818;stroke-width:0.5;" x1="378.5" x2="511.5" y1="371" y2="371"/></g><!--class PreviewRenderer--><g id="elem_PreviewRenderer"><rect fill="#F1F1F1" height="48" id="PreviewRenderer" rx="2.5" ry="2.5" style="stroke:#181818;stroke-width:0.5;" width="147" x="547.5" y="331"/><ellipse cx="562.5" cy="347" fill="#ADD1B2" rx="11" ry="11" style="stroke:#181818;stroke-width:1.0;"/><path d="M565.4688,352.6406 Q564.8906,352.9375 564.25,353.0781 Q563.6094,353.2344 562.9063,353.2344 Q560.4063,353.2344 559.0781,351.5938 Q557.7656,349.9375 557.7656,346.8125 Q557.7656,343.6875 559.0781,342.0313 Q560.4063,340.375 562.9063,340.375 Q563.6094,340.375 564.25,340.5313 Q564.9063,340.6875 565.4688,340.9844 L565.4688,343.7031 Q564.8438,343.125 564.25,342.8594 Q563.6563,342.5781 563.0313,342.5781 Q561.6875,342.5781 561,343.6563 Q560.3125,344.7188 560.3125,346.8125 Q560.3125,348.9063 561,349.9844 Q561.6875,351.0469 563.0313,351.0469 Q563.6563,351.0469 564.25,350.7813 Q564.8438,350.5 565.4688,349.9219 L565.4688,352.6406 Z " fill="#000000"/><text fill="#000000" font-family="sans-serif" font-size="14" lengthAdjust="spacing" textLength="115" x="576.5" y="352.432">PreviewRenderer</text><line style="stroke:#181818;stroke-width:0.5;" x1="548.5" x2="693.5" y1="363" y2="363"/><line style="stroke:#181818;stroke-width:0.5;" x1="548.5" x2="693.5" y1="371" y2="371"/></g><!--class ChangeViewCommand--><g id="elem_ChangeViewCommand"><rect fill="#F1F1F1" height="48" id="ChangeViewCommand" rx="2.5" ry="2.5" style="stroke:#181818;stroke-width:0.5;" width="184" x="730" y="331"/><ellipse cx="745" cy="347" fill="#ADD1B2" rx="11" ry="11" style="stroke:#181818;stroke-width:1.0;"/><path d="M747.9688,352.6406 Q747.3906,352.9375 746.75,353.0781 Q746.1094,353.2344 745.4063,353.2344 Q742.9063,353.2344 741.5781,351.5938 Q740.2656,349.9375 740.2656,346.8125 Q740.2656,343.6875 741.5781,342.0313 Q742.9063,340.375 745.4063,340.375 Q746.1094,340.375 746.75,340.5313 Q747.4063,340.6875 747.9688,340.9844 L747.9688,343.7031 Q747.3438,343.125 746.75,342.8594 Q746.1563,342.5781 745.5313,342.5781 Q744.1875,342.5781 743.5,343.6563 Q742.8125,344.7188 742.8125,346.8125 Q742.8125,348.9063 743.5,349.9844 Q744.1875,351.0469 745.5313,351.0469 Q746.1563,351.0469 746.75,350.7813 Q747.3438,350.5 747.9688,349.9219 L747.9688,352.6406 Z " fill="#000000"/><text fill="#000000" font-family="sans-serif" font-size="14" lengthAdjust="spacing" textLength="152" x="759" y="352.432">ChangeViewCommand</text><line style="stroke:#181818;stroke-width:0.5;" x1="731" x2="913" y1="363" y2="363"/><line style="stroke:#181818;stroke-width:0.5;" x1="731" x2="913" y1="371" y2="371"/></g><!--class FileManagerAdapter--><g id="elem_FileManagerAdapter"><rect fill="#F1F1F1" height="48" id="FileManagerAdapter" rx="2.5" ry="2.5" style="stroke:#181818;stroke-width:0.5;" width="170" x="7" y="223"/><ellipse cx="22" cy="239" fill="#ADD1B2" rx="11" ry="11" style="stroke:#181818;stroke-width:1.0;"/><path d="M24.9688,244.6406 Q24.3906,244.9375 23.75,245.0781 Q23.1094,245.2344 22.4063,245.2344 Q19.9063,245.2344 18.5781,243.5938 Q17.2656,241.9375 17.2656,238.8125 Q17.2656,235.6875 18.5781,234.0313 Q19.9063,232.375 22.4063,232.375 Q23.1094,232.375 23.75,232.5313 Q24.4063,232.6875 24.9688,232.9844 L24.9688,235.7031 Q24.3438,235.125 23.75,234.8594 Q23.1563,234.5781 22.5313,234.5781 Q21.1875,234.5781 20.5,235.6563 Q19.8125,236.7188 19.8125,238.8125 Q19.8125,240.9063 20.5,241.9844 Q21.1875,243.0469 22.5313,243.0469 Q23.1563,243.0469 23.75,242.7813 Q24.3438,242.5 24.9688,241.9219 L24.9688,244.6406 Z " fill="#000000"/><text fill="#000000" font-family="sans-serif" font-size="14" lengthAdjust="spacing" textLength="138" x="36" y="244.432">FileManagerAdapter</text><line style="stroke:#181818;stroke-width:0.5;" x1="8" x2="176" y1="255" y2="255"/><line style="stroke:#181818;stroke-width:0.5;" x1="8" x2="176" y1="263" y2="263"/></g><!--class SimpleSerializer--><g id="elem_SimpleSerializer"><rect fill="#F1F1F1" height="48" id="SimpleSerializer" rx="2.5" ry="2.5" style="stroke:#181818;stroke-width:0.5;" width="141" x="201.5" y="331"/><ellipse cx="216.5" cy="347" fill="#ADD1B2" rx="11" ry="11" style="stroke:#181818;stroke-width:1.0;"/><path d="M219.4688,352.6406 Q218.8906,352.9375 218.25,353.0781 Q217.6094,353.2344 216.9063,353.2344 Q214.4063,353.2344 213.0781,351.5938 Q211.7656,349.9375 211.7656,346.8125 Q211.7656,343.6875 213.0781,342.0313 Q214.4063,340.375 216.9063,340.375 Q217.6094,340.375 218.25,340.5313 Q218.9063,340.6875 219.4688,340.9844 L219.4688,343.7031 Q218.8438,343.125 218.25,342.8594 Q217.6563,342.5781 217.0313,342.5781 Q215.6875,342.5781 215,343.6563 Q214.3125,344.7188 214.3125,346.8125 Q214.3125,348.9063 215,349.9844 Q215.6875,351.0469 217.0313,351.0469 Q217.6563,351.0469 218.25,350.7813 Q218.8438,350.5 219.4688,349.9219 L219.4688,352.6406 Z " fill="#000000"/><text fill="#000000" font-family="sans-serif" font-size="14" lengthAdjust="spacing" textLength="109" x="230.5" y="352.432">SimpleSerializer</text><line style="stroke:#181818;stroke-width:0.5;" x1="202.5" x2="341.5" y1="363" y2="363"/><line style="stroke:#181818;stroke-width:0.5;" x1="202.5" x2="341.5" y1="371" y2="371"/></g><!--class FileManager--><g id="elem_FileManager"><rect fill="#F1F1F1" height="48" id="FileManager" rx="2.5" ry="2.5" style="stroke:#181818;stroke-width:0.5;" width="116" x="34" y="331"/><ellipse cx="49" cy="347" fill="#ADD1B2" rx="11" ry="11" style="stroke:#181818;stroke-width:1.0;"/><path d="M51.9688,352.6406 Q51.3906,352.9375 50.75,353.0781 Q50.1094,353.2344 49.4063,353.2344 Q46.9063,353.2344 45.5781,351.5938 Q44.2656,349.9375 44.2656,346.8125 Q44.2656,343.6875 45.5781,342.0313 Q46.9063,340.375 49.4063,340.375 Q50.1094,340.375 50.75,340.5313 Q51.4063,340.6875 51.9688,340.9844 L51.9688,343.7031 Q51.3438,343.125 50.75,342.8594 Q50.1563,342.5781 49.5313,342.5781 Q48.1875,342.5781 47.5,343.6563 Q46.8125,344.7188 46.8125,346.8125 Q46.8125,348.9063 47.5,349.9844 Q48.1875,351.0469 49.5313,351.0469 Q50.1563,351.0469 50.75,350.7813 Q51.3438,350.5 51.9688,349.9219 L51.9688,352.6406 Z " fill="#000000"/><text fill="#000000" font-family="sans-serif" font-size="14" lengthAdjust="spacing" textLength="84" x="63" y="352.432">FileManager</text><line style="stroke:#181818;stroke-width:0.5;" x1="35" x2="149" y1="363" y2="363"/><line style="stroke:#181818;stroke-width:0.5;" x1="35" x2="149" y1="371" y2="371"/></g><!--link Editor to Document--><g id="link_Editor_Document"><path codeLine="7" d="M289,55 C289,72.66 289,90.94 289,108.68 " fill="none" id="Editor-to-Document" style="stroke:#181818;stroke-width:1.0;"/><polygon fill="#181818" points="289,114.68,293,105.68,289,109.68,285,105.68,289,114.68" style="stroke:#181818;stroke-width:1.0;"/></g><!--link Editor to UserInterface--><g id="link_Editor_UserInterface"><path codeLine="8" d="M325.11,47.19 C367.16,64.88 431.5596,91.963 480.3996,112.513 " fill="none" id="Editor-to-UserInterface" style="stroke:#181818;stroke-width:1.0;"/><polygon fill="#181818" points="485.93,114.84,479.1857,107.6626,481.3213,112.9009,476.0831,115.0365,485.93,114.84" style="stroke:#181818;stroke-width:1.0;"/></g><!--link Editor to DocumentStorage--><g id="link_Editor_DocumentStorage"><path codeLine="9" d="M252.75,53.71 C223.02,71.51 186.1673,93.577 155.7973,111.767 " fill="none" id="Editor-to-DocumentStorage" style="stroke:#181818;stroke-width:1.0;"/><polygon fill="#181818" points="150.65,114.85,160.4263,113.6571,154.9395,112.2808,156.3157,106.794,150.65,114.85" style="stroke:#181818;stroke-width:1.0;"/></g><!--link Document to DocumentSerializer--><g id="link_Document_DocumentSerializer"><path codeLine="10" d="M289,163 C289,180.66 289,198.94 289,216.68 " fill="none" id="Document-to-DocumentSerializer" style="stroke:#181818;stroke-width:1.0;"/><polygon fill="#181818" points="289,222.68,293,213.68,289,217.68,285,213.68,289,222.68" style="stroke:#181818;stroke-width:1.0;"/></g><!--link UserInterface to DocumentRenderer--><g id="link_UserInterface_DocumentRenderer"><path codeLine="11" d="M541,163 C541,180.66 541,198.94 541,216.68 " fill="none" id="UserInterface-to-DocumentRenderer" style="stroke:#181818;stroke-width:1.0;"/><polygon fill="#181818" points="541,222.68,545,213.68,541,217.68,537,213.68,541,222.68" style="stroke:#181818;stroke-width:1.0;"/></g><!--link UserInterface to Command--><g id="link_UserInterface_Command"><path codeLine="12" d="M587,163 C622.44,180.72 665.8534,202.4267 701.3534,220.1767 " fill="none" id="UserInterface-to-Command" style="stroke:#181818;stroke-width:1.0;"/><polygon fill="#181818" points="706.72,222.86,700.459,215.2574,702.2479,220.6239,696.8813,222.4128,706.72,222.86" style="stroke:#181818;stroke-width:1.0;"/></g><!--reverse link DocumentRenderer to EditorRenderer--><g id="link_DocumentRenderer_EditorRenderer"><path codeLine="13" d="M508.0886,284.3432 C492.0986,302.0032 482.19,312.94 466.12,330.68 " fill="none" id="DocumentRenderer-backto-EditorRenderer" style="stroke:#181818;stroke-width:1.0;stroke-dasharray:7.0,7.0;"/><polygon fill="none" points="520.17,271,503.6409,280.316,512.5363,288.3703,520.17,271" style="stroke:#181818;stroke-width:1.0;"/></g><!--reverse link DocumentRenderer to PreviewRenderer--><g id="link_DocumentRenderer_PreviewRenderer"><path codeLine="14" d="M569.2042,285.3667 C582.5342,303.0267 590.01,312.94 603.4,330.68 " fill="none" id="DocumentRenderer-backto-PreviewRenderer" style="stroke:#181818;stroke-width:1.0;stroke-dasharray:7.0,7.0;"/><polygon fill="none" points="558.36,271,564.4153,288.9815,573.9931,281.752,558.36,271" style="stroke:#181818;stroke-width:1.0;"/></g><!--reverse link Command to ChangeViewCommand--><g id="link_Command_ChangeViewCommand"><path codeLine="15" d="M777.7924,286.0838 C789.2924,303.7438 795.27,312.94 806.82,330.68 " fill="none" id="Command-backto-ChangeViewCommand" style="stroke:#181818;stroke-width:1.0;stroke-dasharray:7.0,7.0;"/><polygon fill="none" points="767.97,271,772.7645,289.3579,782.8203,282.8097,767.97,271" style="stroke:#181818;stroke-width:1.0;"/></g><!--reverse link DocumentStorage to FileManagerAdapter--><g id="link_DocumentStorage_FileManagerAdapter"><path codeLine="16" d="M104.3247,180.6883 C100.9947,198.3483 99.75,204.94 96.4,222.68 " fill="none" id="DocumentStorage-backto-FileManagerAdapter" style="stroke:#181818;stroke-width:1.0;stroke-dasharray:7.0,7.0;"/><polygon fill="none" points="107.66,163,98.4286,179.5765,110.2208,181.8001,107.66,163" style="stroke:#181818;stroke-width:1.0;"/></g><!--reverse link DocumentSerializer to SimpleSerializer--><g id="link_DocumentSerializer_SimpleSerializer"><path codeLine="17" d="M282.4619,288.7732 C279.6319,306.4332 278.58,312.94 275.74,330.68 " fill="none" id="DocumentSerializer-backto-SimpleSerializer" style="stroke:#181818;stroke-width:1.0;stroke-dasharray:7.0,7.0;"/><polygon fill="none" points="285.31,271,276.5374,287.8239,288.3863,289.7226,285.31,271" style="stroke:#181818;stroke-width:1.0;"/></g><!--link FileManagerAdapter to FileManager--><g id="link_FileManagerAdapter_FileManager"><path codeLine="18" d="M92,271 C92,288.66 92,306.94 92,324.68 " fill="none" id="FileManagerAdapter-to-FileManager" style="stroke:#181818;stroke-width:1.0;"/><polygon fill="#181818" points="92,330.68,96,321.68,92,325.68,88,321.68,92,330.68" style="stroke:#181818;stroke-width:1.0;"/></g><!--link EditorRenderer to RenderUtils--><g id="link_EditorRenderer_RenderUtils"><path codeLine="19" d="M463.02,379.04 C476.5,396.27 491.3436,415.2438 505.9536,433.9238 " fill="none" id="EditorRenderer-to-RenderUtils" style="stroke:#181818;stroke-width:1.0;stroke-dasharray:7.0,7.0;"/><polygon fill="#181818" points="509.65,438.65,507.2561,429.0965,506.5697,434.7115,500.9546,434.0251,509.65,438.65" style="stroke:#181818;stroke-width:1.0;"/></g><!--link PreviewRenderer to RenderUtils--><g id="link_PreviewRenderer_RenderUtils"><path codeLine="20" d="M602.98,379.04 C589.5,396.27 574.6564,415.2438 560.0464,433.9238 " fill="none" id="PreviewRenderer-to-RenderUtils" style="stroke:#181818;stroke-width:1.0;stroke-dasharray:7.0,7.0;"/><polygon fill="#181818" points="556.35,438.65,565.0454,434.0251,559.4303,434.7115,558.7439,429.0965,556.35,438.65" style="stroke:#181818;stroke-width:1.0;"/></g><!--SRC=[RP512eCm44NtEKKke2SGeTWMkYYKYjq7CxK3CKgCBIqzV4DZOgAkmin_ysS-GQb1tLaDTD_LOmjINq5oKA08UgdesfP97dGSNEfEiGQs553817wCKItOC53hMsaK0ysoqRoettbEo86ZSQ59allXi5SDe4xEVWjsDxWw5kSp8gC8yf7NY8k-H6dsJLDgh_7Zsz15mHFXvQd9qeh5Wya6RaPVRffYMUo80ivCcbhjEEjri6nEQD4Isrv0a7iz-qyMj4cSWwPf7duNMIHOwZy0]--></g></svg>