<?xml version="1.0" encoding="us-ascii" standalone="no"?><svg xmlns="http://www.w3.org/2000/svg" xmlns:xlink="http://www.w3.org/1999/xlink" contentStyleType="text/css" height="386px" preserveAspectRatio="none" style="width:1920px;height:386px;background:#FFFFFF;" version="1.1" viewBox="0 0 1920 386" width="1920px" zoomAndPan="magnify"><defs/><g><!--class Command--><g id="elem_Command"><rect codeLine="1" fill="#F1F1F1" height="48" id="Command" rx="2.5" ry="2.5" style="stroke:#181818;stroke-width:0.5;" width="96" x="693.5" y="115"/><ellipse cx="708.5" cy="131" fill="#B4A7E5" rx="11" ry="11" style="stroke:#181818;stroke-width:1.0;"/><path d="M704.4219,126.7656 L704.4219,124.6094 L711.8125,124.6094 L711.8125,126.7656 L709.3438,126.7656 L709.3438,134.8438 L711.8125,134.8438 L711.8125,137 L704.4219,137 L704.4219,134.8438 L706.8906,134.8438 L706.8906,126.7656 L704.4219,126.7656 Z " fill="#000000"/><text fill="#000000" font-family="sans-serif" font-size="14" font-style="italic" lengthAdjust="spacing" textLength="64" x="722.5" y="136.432">Command</text><line style="stroke:#181818;stroke-width:0.5;" x1="694.5" x2="788.5" y1="147" y2="147"/><line style="stroke:#181818;stroke-width:0.5;" x1="694.5" x2="788.5" y1="155" y2="155"/></g><!--class DocumentStorage--><g id="elem_DocumentStorage"><rect codeLine="2" fill="#F1F1F1" height="48" id="DocumentStorage" rx="2.5" ry="2.5" style="stroke:#181818;stroke-width:0.5;" width="144" x="1284.5" y="115"/><ellipse cx="1299.5" cy="131" fill="#B4A7E5" rx="11" ry="11" style="stroke:#181818;stroke-width:1.0;"/><path d="M1295.4219,126.7656 L1295.4219,124.6094 L1302.8125,124.6094 L1302.8125,126.7656 L1300.3438,126.7656 L1300.3438,134.8438 L1302.8125,134.8438 L1302.8125,137 L1295.4219,137 L1295.4219,134.8438 L1297.8906,134.8438 L1297.8906,126.7656 L1295.4219,126.7656 Z " fill="#000000"/><text fill="#000000" font-family="sans-serif" font-size="14" font-style="italic" lengthAdjust="spacing" textLength="112" x="1313.5" y="136.432">DocumentStorage</text><line style="stroke:#181818;stroke-width:0.5;" x1="1285.5" x2="1427.5" y1="147" y2="147"/><line style="stroke:#181818;stroke-width:0.5;" x1="1285.5" x2="1427.5" y1="155" y2="155"/></g><!--class DocumentSerializer--><g id="elem_DocumentSerializer"><rect codeLine="3" fill="#F1F1F1" height="48" id="DocumentSerializer" rx="2.5" ry="2.5" style="stroke:#181818;stroke-width:0.5;" width="154" x="1463.5" y="115"/><ellipse cx="1478.5" cy="131" fill="#B4A7E5" rx="11" ry="11" style="stroke:#181818;stroke-width:1.0;"/><path d="M1474.4219,126.7656 L1474.4219,124.6094 L1481.8125,124.6094 L1481.8125,126.7656 L1479.3438,126.7656 L1479.3438,134.8438 L1481.8125,134.8438 L1481.8125,137 L1474.4219,137 L1474.4219,134.8438 L1476.8906,134.8438 L1476.8906,126.7656 L1474.4219,126.7656 Z " fill="#000000"/><text fill="#000000" font-family="sans-serif" font-size="14" font-style="italic" lengthAdjust="spacing" textLength="122" x="1492.5" y="136.432">DocumentSerializer</text><line style="stroke:#181818;stroke-width:0.5;" x1="1464.5" x2="1616.5" y1="147" y2="147"/><line style="stroke:#181818;stroke-width:0.5;" x1="1464.5" x2="1616.5" y1="155" y2="155"/></g><!--class Editor--><g id="elem_Editor"><rect fill="#F1F1F1" height="48" id="Editor" rx="2.5" ry="2.5" style="stroke:#181818;stroke-width:0.5;" width="72" x="1504.5" y="7"/><ellipse cx="1519.5" cy="23" fill="#ADD1B2" rx="11" ry="11" style="stroke:#181818;stroke-width:1.0;"/><path d="M1522.4688,28.6406 Q1521.8906,28.9375 1521.25,29.0781 Q1520.6094,29.2344 1519.9063,29.2344 Q1517.4063,29.2344 1516.0781,27.5938 Q1514.7656,25.9375 1514.7656,22.8125 Q1514.7656,19.6875 1516.0781,18.0313 Q1517.4063,16.375 1519.9063,16.375 Q1520.6094,16.375 1521.25,16.5313 Q1521.9063,16.6875 1522.4688,16.9844 L1522.4688,19.7031 Q1521.8438,19.125 1521.25,18.8594 Q1520.6563,18.5781 1520.0313,18.5781 Q1518.6875,18.5781 1518,19.6563 Q1517.3125,20.7188 1517.3125,22.8125 Q1517.3125,24.9063 1518,25.9844 Q1518.6875,27.0469 1520.0313,27.0469 Q1520.6563,27.0469 1521.25,26.7813 Q1521.8438,26.5 1522.4688,25.9219 L1522.4688,28.6406 Z " fill="#000000"/><text fill="#000000" font-family="sans-serif" font-size="14" lengthAdjust="spacing" textLength="40" x="1533.5" y="28.432">Editor</text><line style="stroke:#181818;stroke-width:0.5;" x1="1505.5" x2="1575.5" y1="39" y2="39"/><line style="stroke:#181818;stroke-width:0.5;" x1="1505.5" x2="1575.5" y1="47" y2="47"/></g><!--class Document--><g id="elem_Document"><rect fill="#F1F1F1" height="48" id="Document" rx="2.5" ry="2.5" style="stroke:#181818;stroke-width:0.5;" width="101" x="1653" y="115"/><ellipse cx="1668" cy="131" fill="#ADD1B2" rx="11" ry="11" style="stroke:#181818;stroke-width:1.0;"/><path d="M1670.9688,136.6406 Q1670.3906,136.9375 1669.75,137.0781 Q1669.1094,137.2344 1668.4063,137.2344 Q1665.9063,137.2344 1664.5781,135.5938 Q1663.2656,133.9375 1663.2656,130.8125 Q1663.2656,127.6875 1664.5781,126.0313 Q1665.9063,124.375 1668.4063,124.375 Q1669.1094,124.375 1669.75,124.5313 Q1670.4063,124.6875 1670.9688,124.9844 L1670.9688,127.7031 Q1670.3438,127.125 1669.75,126.8594 Q1669.1563,126.5781 1668.5313,126.5781 Q1667.1875,126.5781 1666.5,127.6563 Q1665.8125,128.7188 1665.8125,130.8125 Q1665.8125,132.9063 1666.5,133.9844 Q1667.1875,135.0469 1668.5313,135.0469 Q1669.1563,135.0469 1669.75,134.7813 Q1670.3438,134.5 1670.9688,133.9219 L1670.9688,136.6406 Z " fill="#000000"/><text fill="#000000" font-family="sans-serif" font-size="14" lengthAdjust="spacing" textLength="69" x="1682" y="136.432">Document</text><line style="stroke:#181818;stroke-width:0.5;" x1="1654" x2="1753" y1="147" y2="147"/><line style="stroke:#181818;stroke-width:0.5;" x1="1654" x2="1753" y1="155" y2="155"/></g><!--class UserInterface--><g id="elem_UserInterface"><rect fill="#F1F1F1" height="48" id="UserInterface" rx="2.5" ry="2.5" style="stroke:#181818;stroke-width:0.5;" width="124" x="1789.5" y="115"/><ellipse cx="1804.5" cy="131" fill="#ADD1B2" rx="11" ry="11" style="stroke:#181818;stroke-width:1.0;"/><path d="M1807.4688,136.6406 Q1806.8906,136.9375 1806.25,137.0781 Q1805.6094,137.2344 1804.9063,137.2344 Q1802.4063,137.2344 1801.0781,135.5938 Q1799.7656,133.9375 1799.7656,130.8125 Q1799.7656,127.6875 1801.0781,126.0313 Q1802.4063,124.375 1804.9063,124.375 Q1805.6094,124.375 1806.25,124.5313 Q1806.9063,124.6875 1807.4688,124.9844 L1807.4688,127.7031 Q1806.8438,127.125 1806.25,126.8594 Q1805.6563,126.5781 1805.0313,126.5781 Q1803.6875,126.5781 1803,127.6563 Q1802.3125,128.7188 1802.3125,130.8125 Q1802.3125,132.9063 1803,133.9844 Q1803.6875,135.0469 1805.0313,135.0469 Q1805.6563,135.0469 1806.25,134.7813 Q1806.8438,134.5 1807.4688,133.9219 L1807.4688,136.6406 Z " fill="#000000"/><text fill="#000000" font-family="sans-serif" font-size="14" lengthAdjust="spacing" textLength="92" x="1818.5" y="136.432">UserInterface</text><line style="stroke:#181818;stroke-width:0.5;" x1="1790.5" x2="1912.5" y1="147" y2="147"/><line style="stroke:#181818;stroke-width:0.5;" x1="1790.5" x2="1912.5" y1="155" y2="155"/></g><!--class EditCommand--><g id="elem_EditCommand"><rect fill="#F1F1F1" height="48" id="EditCommand" rx="2.5" ry="2.5" style="stroke:#181818;stroke-width:0.5;" width="127" x="7" y="223"/><ellipse cx="22" cy="239" fill="#ADD1B2" rx="11" ry="11" style="stroke:#181818;stroke-width:1.0;"/><path d="M24.9688,244.6406 Q24.3906,244.9375 23.75,245.0781 Q23.1094,245.2344 22.4063,245.2344 Q19.9063,245.2344 18.5781,243.5938 Q17.2656,241.9375 17.2656,238.8125 Q17.2656,235.6875 18.5781,234.0313 Q19.9063,232.375 22.4063,232.375 Q23.1094,232.375 23.75,232.5313 Q24.4063,232.6875 24.9688,232.9844 L24.9688,235.7031 Q24.3438,235.125 23.75,234.8594 Q23.1563,234.5781 22.5313,234.5781 Q21.1875,234.5781 20.5,235.6563 Q19.8125,236.7188 19.8125,238.8125 Q19.8125,240.9063 20.5,241.9844 Q21.1875,243.0469 22.5313,243.0469 Q23.1563,243.0469 23.75,242.7813 Q24.3438,242.5 24.9688,241.9219 L24.9688,244.6406 Z " fill="#000000"/><text fill="#000000" font-family="sans-serif" font-size="14" lengthAdjust="spacing" textLength="95" x="36" y="244.432">EditCommand</text><line style="stroke:#181818;stroke-width:0.5;" x1="8" x2="133" y1="255" y2="255"/><line style="stroke:#181818;stroke-width:0.5;" x1="8" x2="133" y1="263" y2="263"/></g><!--class ExchangeCommand--><g id="elem_ExchangeCommand"><rect fill="#F1F1F1" height="48" id="ExchangeCommand" rx="2.5" ry="2.5" style="stroke:#181818;stroke-width:0.5;" width="166" x="169.5" y="223"/><ellipse cx="184.5" cy="239" fill="#ADD1B2" rx="11" ry="11" style="stroke:#181818;stroke-width:1.0;"/><path d="M187.4688,244.6406 Q186.8906,244.9375 186.25,245.0781 Q185.6094,245.2344 184.9063,245.2344 Q182.4063,245.2344 181.0781,243.5938 Q179.7656,241.9375 179.7656,238.8125 Q179.7656,235.6875 181.0781,234.0313 Q182.4063,232.375 184.9063,232.375 Q185.6094,232.375 186.25,232.5313 Q186.9063,232.6875 187.4688,232.9844 L187.4688,235.7031 Q186.8438,235.125 186.25,234.8594 Q185.6563,234.5781 185.0313,234.5781 Q183.6875,234.5781 183,235.6563 Q182.3125,236.7188 182.3125,238.8125 Q182.3125,240.9063 183,241.9844 Q183.6875,243.0469 185.0313,243.0469 Q185.6563,243.0469 186.25,242.7813 Q186.8438,242.5 187.4688,241.9219 L187.4688,244.6406 Z " fill="#000000"/><text fill="#000000" font-family="sans-serif" font-size="14" lengthAdjust="spacing" textLength="134" x="198.5" y="244.432">ExchangeCommand</text><line style="stroke:#181818;stroke-width:0.5;" x1="170.5" x2="334.5" y1="255" y2="255"/><line style="stroke:#181818;stroke-width:0.5;" x1="170.5" x2="334.5" y1="263" y2="263"/></g><!--class DeleteCommand--><g id="elem_DeleteCommand"><rect fill="#F1F1F1" height="48" id="DeleteCommand" rx="2.5" ry="2.5" style="stroke:#181818;stroke-width:0.5;" width="144" x="370.5" y="223"/><ellipse cx="385.5" cy="239" fill="#ADD1B2" rx="11" ry="11" style="stroke:#181818;stroke-width:1.0;"/><path d="M388.4688,244.6406 Q387.8906,244.9375 387.25,245.0781 Q386.6094,245.2344 385.9063,245.2344 Q383.4063,245.2344 382.0781,243.5938 Q380.7656,241.9375 380.7656,238.8125 Q380.7656,235.6875 382.0781,234.0313 Q383.4063,232.375 385.9063,232.375 Q386.6094,232.375 387.25,232.5313 Q387.9063,232.6875 388.4688,232.9844 L388.4688,235.7031 Q387.8438,235.125 387.25,234.8594 Q386.6563,234.5781 386.0313,234.5781 Q384.6875,234.5781 384,235.6563 Q383.3125,236.7188 383.3125,238.8125 Q383.3125,240.9063 384,241.9844 Q384.6875,243.0469 386.0313,243.0469 Q386.6563,243.0469 387.25,242.7813 Q387.8438,242.5 388.4688,241.9219 L388.4688,244.6406 Z " fill="#000000"/><text fill="#000000" font-family="sans-serif" font-size="14" lengthAdjust="spacing" textLength="112" x="399.5" y="244.432">DeleteCommand</text><line style="stroke:#181818;stroke-width:0.5;" x1="371.5" x2="513.5" y1="255" y2="255"/><line style="stroke:#181818;stroke-width:0.5;" x1="371.5" x2="513.5" y1="263" y2="263"/></g><!--class SetActiveLineCommand--><g id="elem_SetActiveLineCommand"><rect fill="#F1F1F1" height="48" id="SetActiveLineCommand" rx="2.5" ry="2.5" style="stroke:#181818;stroke-width:0.5;" width="190" x="549.5" y="223"/><ellipse cx="564.5" cy="239" fill="#ADD1B2" rx="11" ry="11" style="stroke:#181818;stroke-width:1.0;"/><path d="M567.4688,244.6406 Q566.8906,244.9375 566.25,245.0781 Q565.6094,245.2344 564.9063,245.2344 Q562.4063,245.2344 561.0781,243.5938 Q559.7656,241.9375 559.7656,238.8125 Q559.7656,235.6875 561.0781,234.0313 Q562.4063,232.375 564.9063,232.375 Q565.6094,232.375 566.25,232.5313 Q566.9063,232.6875 567.4688,232.9844 L567.4688,235.7031 Q566.8438,235.125 566.25,234.8594 Q565.6563,234.5781 565.0313,234.5781 Q563.6875,234.5781 563,235.6563 Q562.3125,236.7188 562.3125,238.8125 Q562.3125,240.9063 563,241.9844 Q563.6875,243.0469 565.0313,243.0469 Q565.6563,243.0469 566.25,242.7813 Q566.8438,242.5 567.4688,241.9219 L567.4688,244.6406 Z " fill="#000000"/><text fill="#000000" font-family="sans-serif" font-size="14" lengthAdjust="spacing" textLength="158" x="578.5" y="244.432">SetActiveLineCommand</text><line style="stroke:#181818;stroke-width:0.5;" x1="550.5" x2="738.5" y1="255" y2="255"/><line style="stroke:#181818;stroke-width:0.5;" x1="550.5" x2="738.5" y1="263" y2="263"/></g><!--class ExitCommand--><g id="elem_ExitCommand"><rect fill="#F1F1F1" height="48" id="ExitCommand" rx="2.5" ry="2.5" style="stroke:#181818;stroke-width:0.5;" width="125" x="775" y="223"/><ellipse cx="790" cy="239" fill="#ADD1B2" rx="11" ry="11" style="stroke:#181818;stroke-width:1.0;"/><path d="M792.9688,244.6406 Q792.3906,244.9375 791.75,245.0781 Q791.1094,245.2344 790.4063,245.2344 Q787.9063,245.2344 786.5781,243.5938 Q785.2656,241.9375 785.2656,238.8125 Q785.2656,235.6875 786.5781,234.0313 Q787.9063,232.375 790.4063,232.375 Q791.1094,232.375 791.75,232.5313 Q792.4063,232.6875 792.9688,232.9844 L792.9688,235.7031 Q792.3438,235.125 791.75,234.8594 Q791.1563,234.5781 790.5313,234.5781 Q789.1875,234.5781 788.5,235.6563 Q787.8125,236.7188 787.8125,238.8125 Q787.8125,240.9063 788.5,241.9844 Q789.1875,243.0469 790.5313,243.0469 Q791.1563,243.0469 791.75,242.7813 Q792.3438,242.5 792.9688,241.9219 L792.9688,244.6406 Z " fill="#000000"/><text fill="#000000" font-family="sans-serif" font-size="14" lengthAdjust="spacing" textLength="93" x="804" y="244.432">ExitCommand</text><line style="stroke:#181818;stroke-width:0.5;" x1="776" x2="899" y1="255" y2="255"/><line style="stroke:#181818;stroke-width:0.5;" x1="776" x2="899" y1="263" y2="263"/></g><!--class SaveCommand--><g id="elem_SaveCommand"><rect fill="#F1F1F1" height="48" id="SaveCommand" rx="2.5" ry="2.5" style="stroke:#181818;stroke-width:0.5;" width="132" x="935.5" y="223"/><ellipse cx="950.5" cy="239" fill="#ADD1B2" rx="11" ry="11" style="stroke:#181818;stroke-width:1.0;"/><path d="M953.4688,244.6406 Q952.8906,244.9375 952.25,245.0781 Q951.6094,245.2344 950.9063,245.2344 Q948.4063,245.2344 947.0781,243.5938 Q945.7656,241.9375 945.7656,238.8125 Q945.7656,235.6875 947.0781,234.0313 Q948.4063,232.375 950.9063,232.375 Q951.6094,232.375 952.25,232.5313 Q952.9063,232.6875 953.4688,232.9844 L953.4688,235.7031 Q952.8438,235.125 952.25,234.8594 Q951.6563,234.5781 951.0313,234.5781 Q949.6875,234.5781 949,235.6563 Q948.3125,236.7188 948.3125,238.8125 Q948.3125,240.9063 949,241.9844 Q949.6875,243.0469 951.0313,243.0469 Q951.6563,243.0469 952.25,242.7813 Q952.8438,242.5 953.4688,241.9219 L953.4688,244.6406 Z " fill="#000000"/><text fill="#000000" font-family="sans-serif" font-size="14" lengthAdjust="spacing" textLength="100" x="964.5" y="244.432">SaveCommand</text><line style="stroke:#181818;stroke-width:0.5;" x1="936.5" x2="1066.5" y1="255" y2="255"/><line style="stroke:#181818;stroke-width:0.5;" x1="936.5" x2="1066.5" y1="263" y2="263"/></g><!--class LoadCommand--><g id="elem_LoadCommand"><rect fill="#F1F1F1" height="48" id="LoadCommand" rx="2.5" ry="2.5" style="stroke:#181818;stroke-width:0.5;" width="133" x="1103" y="223"/><ellipse cx="1118" cy="239" fill="#ADD1B2" rx="11" ry="11" style="stroke:#181818;stroke-width:1.0;"/><path d="M1120.9688,244.6406 Q1120.3906,244.9375 1119.75,245.0781 Q1119.1094,245.2344 1118.4063,245.2344 Q1115.9063,245.2344 1114.5781,243.5938 Q1113.2656,241.9375 1113.2656,238.8125 Q1113.2656,235.6875 1114.5781,234.0313 Q1115.9063,232.375 1118.4063,232.375 Q1119.1094,232.375 1119.75,232.5313 Q1120.4063,232.6875 1120.9688,232.9844 L1120.9688,235.7031 Q1120.3438,235.125 1119.75,234.8594 Q1119.1563,234.5781 1118.5313,234.5781 Q1117.1875,234.5781 1116.5,235.6563 Q1115.8125,236.7188 1115.8125,238.8125 Q1115.8125,240.9063 1116.5,241.9844 Q1117.1875,243.0469 1118.5313,243.0469 Q1119.1563,243.0469 1119.75,242.7813 Q1120.3438,242.5 1120.9688,241.9219 L1120.9688,244.6406 Z " fill="#000000"/><text fill="#000000" font-family="sans-serif" font-size="14" lengthAdjust="spacing" textLength="101" x="1132" y="244.432">LoadCommand</text><line style="stroke:#181818;stroke-width:0.5;" x1="1104" x2="1235" y1="255" y2="255"/><line style="stroke:#181818;stroke-width:0.5;" x1="1104" x2="1235" y1="263" y2="263"/></g><!--class FileManagerAdapter--><g id="elem_FileManagerAdapter"><rect fill="#F1F1F1" height="48" id="FileManagerAdapter" rx="2.5" ry="2.5" style="stroke:#181818;stroke-width:0.5;" width="170" x="1271.5" y="223"/><ellipse cx="1286.5" cy="239" fill="#ADD1B2" rx="11" ry="11" style="stroke:#181818;stroke-width:1.0;"/><path d="M1289.4688,244.6406 Q1288.8906,244.9375 1288.25,245.0781 Q1287.6094,245.2344 1286.9063,245.2344 Q1284.4063,245.2344 1283.0781,243.5938 Q1281.7656,241.9375 1281.7656,238.8125 Q1281.7656,235.6875 1283.0781,234.0313 Q1284.4063,232.375 1286.9063,232.375 Q1287.6094,232.375 1288.25,232.5313 Q1288.9063,232.6875 1289.4688,232.9844 L1289.4688,235.7031 Q1288.8438,235.125 1288.25,234.8594 Q1287.6563,234.5781 1287.0313,234.5781 Q1285.6875,234.5781 1285,235.6563 Q1284.3125,236.7188 1284.3125,238.8125 Q1284.3125,240.9063 1285,241.9844 Q1285.6875,243.0469 1287.0313,243.0469 Q1287.6563,243.0469 1288.25,242.7813 Q1288.8438,242.5 1289.4688,241.9219 L1289.4688,244.6406 Z " fill="#000000"/><text fill="#000000" font-family="sans-serif" font-size="14" lengthAdjust="spacing" textLength="138" x="1300.5" y="244.432">FileManagerAdapter</text><line style="stroke:#181818;stroke-width:0.5;" x1="1272.5" x2="1440.5" y1="255" y2="255"/><line style="stroke:#181818;stroke-width:0.5;" x1="1272.5" x2="1440.5" y1="263" y2="263"/></g><!--class SimpleSerializer--><g id="elem_SimpleSerializer"><rect fill="#F1F1F1" height="48" id="SimpleSerializer" rx="2.5" ry="2.5" style="stroke:#181818;stroke-width:0.5;" width="141" x="1477" y="223"/><ellipse cx="1492" cy="239" fill="#ADD1B2" rx="11" ry="11" style="stroke:#181818;stroke-width:1.0;"/><path d="M1494.9688,244.6406 Q1494.3906,244.9375 1493.75,245.0781 Q1493.1094,245.2344 1492.4063,245.2344 Q1489.9063,245.2344 1488.5781,243.5938 Q1487.2656,241.9375 1487.2656,238.8125 Q1487.2656,235.6875 1488.5781,234.0313 Q1489.9063,232.375 1492.4063,232.375 Q1493.1094,232.375 1493.75,232.5313 Q1494.4063,232.6875 1494.9688,232.9844 L1494.9688,235.7031 Q1494.3438,235.125 1493.75,234.8594 Q1493.1563,234.5781 1492.5313,234.5781 Q1491.1875,234.5781 1490.5,235.6563 Q1489.8125,236.7188 1489.8125,238.8125 Q1489.8125,240.9063 1490.5,241.9844 Q1491.1875,243.0469 1492.5313,243.0469 Q1493.1563,243.0469 1493.75,242.7813 Q1494.3438,242.5 1494.9688,241.9219 L1494.9688,244.6406 Z " fill="#000000"/><text fill="#000000" font-family="sans-serif" font-size="14" lengthAdjust="spacing" textLength="109" x="1506" y="244.432">SimpleSerializer</text><line style="stroke:#181818;stroke-width:0.5;" x1="1478" x2="1617" y1="255" y2="255"/><line style="stroke:#181818;stroke-width:0.5;" x1="1478" x2="1617" y1="263" y2="263"/></g><!--class FileManager--><g id="elem_FileManager"><rect fill="#F1F1F1" height="48" id="FileManager" rx="2.5" ry="2.5" style="stroke:#181818;stroke-width:0.5;" width="116" x="1298.5" y="331"/><ellipse cx="1313.5" cy="347" fill="#ADD1B2" rx="11" ry="11" style="stroke:#181818;stroke-width:1.0;"/><path d="M1316.4688,352.6406 Q1315.8906,352.9375 1315.25,353.0781 Q1314.6094,353.2344 1313.9063,353.2344 Q1311.4063,353.2344 1310.0781,351.5938 Q1308.7656,349.9375 1308.7656,346.8125 Q1308.7656,343.6875 1310.0781,342.0313 Q1311.4063,340.375 1313.9063,340.375 Q1314.6094,340.375 1315.25,340.5313 Q1315.9063,340.6875 1316.4688,340.9844 L1316.4688,343.7031 Q1315.8438,343.125 1315.25,342.8594 Q1314.6563,342.5781 1314.0313,342.5781 Q1312.6875,342.5781 1312,343.6563 Q1311.3125,344.7188 1311.3125,346.8125 Q1311.3125,348.9063 1312,349.9844 Q1312.6875,351.0469 1314.0313,351.0469 Q1314.6563,351.0469 1315.25,350.7813 Q1315.8438,350.5 1316.4688,349.9219 L1316.4688,352.6406 Z " fill="#000000"/><text fill="#000000" font-family="sans-serif" font-size="14" lengthAdjust="spacing" textLength="84" x="1327.5" y="352.432">FileManager</text><line style="stroke:#181818;stroke-width:0.5;" x1="1299.5" x2="1413.5" y1="363" y2="363"/><line style="stroke:#181818;stroke-width:0.5;" x1="1299.5" x2="1413.5" y1="371" y2="371"/></g><!--link Editor to Document--><g id="link_Editor_Document"><path codeLine="5" d="M1575.87,55 C1603.12,72.72 1635.5898,93.8394 1662.8898,111.5894 " fill="none" id="Editor-to-Document" style="stroke:#181818;stroke-width:1.0;"/><polygon fill="#181818" points="1667.92,114.86,1662.555,106.6006,1663.7281,112.1345,1658.1943,113.3076,1667.92,114.86" style="stroke:#181818;stroke-width:1.0;"/></g><!--link Editor to UserInterface--><g id="link_Editor_UserInterface"><path codeLine="6" d="M1576.78,44.37 C1628.94,62.14 1720.131,93.2239 1783.781,114.9239 " fill="none" id="Editor-to-UserInterface" style="stroke:#181818;stroke-width:1.0;"/><polygon fill="#181818" points="1789.46,116.86,1782.2322,110.1698,1784.7275,115.2466,1779.6507,117.7418,1789.46,116.86" style="stroke:#181818;stroke-width:1.0;"/></g><!--link Editor to Command--><g id="link_Editor_Command"><path codeLine="7" d="M1504.35,36.8 C1375.18,53.93 942.2479,111.3711 795.6079,130.8211 " fill="none" id="Editor-to-Command" style="stroke:#181818;stroke-width:1.0;"/><polygon fill="#181818" points="789.66,131.61,799.1078,134.3919,794.6166,130.9526,798.0559,126.4614,789.66,131.61" style="stroke:#181818;stroke-width:1.0;"/></g><!--reverse link Command to EditCommand--><g id="link_Command_EditCommand"><path codeLine="8" d="M675.397,146.2876 C574.257,156.2676 350.62,180.93 151.5,223 C145.92,224.18 140.16,225.53 134.41,226.98 " fill="none" id="Command-backto-EditCommand" style="stroke:#181818;stroke-width:1.0;stroke-dasharray:7.0,7.0;"/><polygon fill="none" points="693.31,144.52,674.8078,140.3166,675.9862,152.2586,693.31,144.52" style="stroke:#181818;stroke-width:1.0;"/></g><!--reverse link Command to ExchangeCommand--><g id="link_Command_ExchangeCommand"><path codeLine="9" d="M675.6103,153.7205 C602.0303,169.0905 475.03,195.84 352.5,223 C347.02,224.21 341.38,225.48 335.69,226.76 " fill="none" id="Command-backto-ExchangeCommand" style="stroke:#181818;stroke-width:1.0;stroke-dasharray:7.0,7.0;"/><polygon fill="none" points="693.23,150.04,674.3835,147.8473,676.8372,159.5938,693.23,150.04" style="stroke:#181818;stroke-width:1.0;"/></g><!--reverse link Command to DeleteCommand--><g id="link_Command_DeleteCommand"><path codeLine="10" d="M676.4948,163.045 C626.0648,180.925 563.43,203.13 507.43,222.98 " fill="none" id="Command-backto-DeleteCommand" style="stroke:#181818;stroke-width:1.0;stroke-dasharray:7.0,7.0;"/><polygon fill="none" points="693.46,157.03,674.4897,157.39,678.4998,168.7001,693.46,157.03" style="stroke:#181818;stroke-width:1.0;"/></g><!--reverse link Command to SetActiveLineCommand--><g id="link_Command_SetActiveLineCommand"><path codeLine="11" d="M708.2985,176.2794 C692.1385,193.9394 682.07,204.94 665.84,222.68 " fill="none" id="Command-backto-SetActiveLineCommand" style="stroke:#181818;stroke-width:1.0;stroke-dasharray:7.0,7.0;"/><polygon fill="none" points="720.45,163,703.8721,172.2289,712.725,180.3299,720.45,163" style="stroke:#181818;stroke-width:1.0;"/></g><!--reverse link Command to ExitCommand--><g id="link_Command_ExitCommand"><path codeLine="12" d="M774.4114,176.3432 C790.4014,194.0032 800.31,204.94 816.38,222.68 " fill="none" id="Command-backto-ExitCommand" style="stroke:#181818;stroke-width:1.0;stroke-dasharray:7.0,7.0;"/><polygon fill="none" points="762.33,163,769.9637,180.3703,778.8591,172.316,762.33,163" style="stroke:#181818;stroke-width:1.0;"/></g><!--link Editor to DocumentStorage--><g id="link_Editor_DocumentStorage"><path codeLine="14" d="M1504.15,52.94 C1473.15,70.8 1433.8391,93.4452 1401.8091,111.8952 " fill="none" id="Editor-to-DocumentStorage" style="stroke:#181818;stroke-width:1.0;"/><polygon fill="#181818" points="1396.61,114.89,1406.4053,113.8639,1400.9426,112.3943,1402.4122,106.9317,1396.61,114.89" style="stroke:#181818;stroke-width:1.0;"/></g><!--link Editor to DocumentSerializer--><g id="link_Editor_DocumentSerializer"><path codeLine="15" d="M1540.5,55 C1540.5,72.66 1540.5,90.94 1540.5,108.68 " fill="none" id="Editor-to-DocumentSerializer" style="stroke:#181818;stroke-width:1.0;"/><polygon fill="#181818" points="1540.5,114.68,1544.5,105.68,1540.5,109.68,1536.5,105.68,1540.5,114.68" style="stroke:#181818;stroke-width:1.0;"/></g><!--reverse link Command to SaveCommand--><g id="link_Command_SaveCommand"><path codeLine="16" d="M806.4582,166.4848 C850.3682,184.3848 898.53,204.02 944.86,222.91 " fill="none" id="Command-backto-SaveCommand" style="stroke:#181818;stroke-width:1.0;stroke-dasharray:7.0,7.0;"/><polygon fill="none" points="789.79,159.69,804.1933,172.0409,808.7232,160.9288,789.79,159.69" style="stroke:#181818;stroke-width:1.0;"/></g><!--reverse link Command to LoadCommand--><g id="link_Command_LoadCommand"><path codeLine="17" d="M807.1248,155.3189 C873.5748,170.8989 979.6,196.12 1084.5,223 C1090.42,224.52 1096.57,226.12 1102.73,227.75 " fill="none" id="Command-backto-LoadCommand" style="stroke:#181818;stroke-width:1.0;stroke-dasharray:7.0,7.0;"/><polygon fill="none" points="789.6,151.21,805.7551,161.1605,808.4944,149.4773,789.6,151.21" style="stroke:#181818;stroke-width:1.0;"/></g><!--reverse link DocumentStorage to FileManagerAdapter--><g id="link_DocumentStorage_FileManagerAdapter"><path codeLine="18" d="M1356.5,181 C1356.5,198.66 1356.5,204.94 1356.5,222.68 " fill="none" id="DocumentStorage-backto-FileManagerAdapter" style="stroke:#181818;stroke-width:1.0;stroke-dasharray:7.0,7.0;"/><polygon fill="none" points="1356.5,163,1350.5,181,1362.5,181,1356.5,163" style="stroke:#181818;stroke-width:1.0;"/></g><!--reverse link DocumentSerializer to SimpleSerializer--><g id="link_DocumentSerializer_SimpleSerializer"><path codeLine="19" d="M1543.1998,180.9613 C1544.3598,198.6213 1544.79,204.94 1545.96,222.68 " fill="none" id="DocumentSerializer-backto-SimpleSerializer" style="stroke:#181818;stroke-width:1.0;stroke-dasharray:7.0,7.0;"/><polygon fill="none" points="1542.02,163,1537.2127,181.3546,1549.1869,180.568,1542.02,163" style="stroke:#181818;stroke-width:1.0;"/></g><!--link FileManagerAdapter to FileManager--><g id="link_FileManagerAdapter_FileManager"><path codeLine="20" d="M1356.5,271 C1356.5,288.66 1356.5,306.94 1356.5,324.68 " fill="none" id="FileManagerAdapter-to-FileManager" style="stroke:#181818;stroke-width:1.0;"/><polygon fill="#181818" points="1356.5,330.68,1360.5,321.68,1356.5,325.68,1352.5,321.68,1356.5,330.68" style="stroke:#181818;stroke-width:1.0;"/></g><!--SRC=[TP1T2i8m48JVSufSe3s12CKg2FMfU80bMUj2VagCHSJ36xLfeurF8VDjPZP3ngCxWK2-iLg3aOmcfRRYgj7urbi77UO8EW95TtICRIM5ELuKwmcdsl62RXyDKX1pnvEl7cN9NpmFRk8CfiCih56XpwCMVIKy3TYGmJ_ESsJkCx6579fh-0w58P_LM90H_FX_1dQay00ct5qbeG-riMNO64AwLvYii7pxNZQHdm00]--></g></svg>