<?xml version="1.0" encoding="us-ascii" standalone="no"?><svg xmlns="http://www.w3.org/2000/svg" xmlns:xlink="http://www.w3.org/1999/xlink" contentStyleType="text/css" height="1104px" preserveAspectRatio="none" style="width:1266px;height:1104px;background:#FFFFFF;" version="1.1" viewBox="0 0 1266 1104" width="1266px" zoomAndPan="magnify"><defs/><g><!--cluster Reflexion--><g id="cluster_Reflexion"><path d="M25,307 L1240,307 A12.5,12.5 0 0 1 1252.5,319.5 L1252.5,368.7561 L12.5,368.7561 L12.5,319.5 A12.5,12.5 0 0 1 25,307 " fill="#F1F1F1" style="stroke:#F1F1F1;stroke-width:1.0;"/><rect fill="none" height="195" rx="12.5" ry="12.5" style="stroke:#181818;stroke-width:0.5;" width="1240" x="12.5" y="307"/><line style="stroke:#181818;stroke-width:0.5;" x1="12.5" x2="1252.5" y1="368.7561" y2="368.7561"/><line style="stroke:#181818;stroke-width:0.5;" x1="12.5" x2="1252.5" y1="331.0679" y2="331.0679"/><text fill="#000000" font-family="sans-serif" font-size="14" lengthAdjust="spacing" textLength="107" x="501.5" y="325.9659">Reflexi&#243;n Inicial</text><text fill="#000000" font-family="sans-serif" font-size="12" lengthAdjust="spacing" textLength="253" x="17.5" y="346.396">El an&#225;lisis inicial puede realizarse en paralelo</text><text fill="#000000" font-family="sans-serif" font-size="12" lengthAdjust="spacing" textLength="262" x="17.5" y="362.7401">Estas observaciones se retroalimentan entre s&#237;</text></g><g id="Reflexion.Flujo"><rect fill="#F1F1F1" height="104.4444" rx="12.5" ry="12.5" style="stroke:#181818;stroke-width:0.5;" width="355" x="29" y="382"/><line style="stroke:#181818;stroke-width:0.5;" x1="29" x2="384" y1="411.0679" y2="411.0679"/><text fill="#000000" font-family="sans-serif" font-size="14" lengthAdjust="spacing" textLength="215" x="99" y="401.9659">Observaci&#243;n del flujo de control</text><text fill="#000000" font-family="sans-serif" font-size="12" lengthAdjust="spacing" textLength="297" x="34" y="428.896">El switch centraliza la decisi&#243;n de qu&#233; acci&#243;n ejecutar</text><text fill="#000000" font-family="sans-serif" font-size="12" lengthAdjust="spacing" textLength="335" x="34" y="445.2401">Cada opci&#243;n del men&#250; representa una acci&#243;n independiente</text><text fill="#000000" font-family="sans-serif" font-size="12" lengthAdjust="spacing" textLength="238" x="34" y="461.5842">Las acciones podr&#237;an ser clases separadas</text><text fill="#000000" font-family="sans-serif" font-size="12" lengthAdjust="spacing" textLength="262" x="34" y="477.9283">Todas las acciones operan sobre el documento</text></g><g id="Reflexion.Patrones"><rect fill="#F1F1F1" height="104.4444" rx="12.5" ry="12.5" style="stroke:#181818;stroke-width:0.5;" width="390" x="419.5" y="382"/><line style="stroke:#181818;stroke-width:0.5;" x1="419.5" x2="809.5" y1="411.0679" y2="411.0679"/><text fill="#000000" font-family="sans-serif" font-size="14" lengthAdjust="spacing" textLength="241" x="494" y="401.9659">Reconocimiento de patrones de uso</text><text fill="#000000" font-family="sans-serif" font-size="12" lengthAdjust="spacing" textLength="306" x="424.5" y="428.896">Existen m&#233;todos dedicados solo a mostrar informaci&#243;n</text><text fill="#000000" font-family="sans-serif" font-size="12" lengthAdjust="spacing" textLength="370" x="424.5" y="445.2401">Otros m&#233;todos se dedican exclusivamente a leer datos del usuario</text><text fill="#000000" font-family="sans-serif" font-size="12" lengthAdjust="spacing" textLength="220" x="424.5" y="461.5842">La interfaz de usuario podr&#237;a separarse</text><text fill="#000000" font-family="sans-serif" font-size="12" lengthAdjust="spacing" textLength="337" x="424.5" y="477.9283">Una clase UserInterface podr&#237;a gestionar toda la interacci&#243;n</text></g><g id="Reflexion.SepararDatos"><rect fill="#F1F1F1" height="88.1003" rx="12.5" ry="12.5" style="stroke:#181818;stroke-width:0.5;" width="391" x="845" y="390"/><line style="stroke:#181818;stroke-width:0.5;" x1="845" x2="1236" y1="419.0679" y2="419.0679"/><text fill="#000000" font-family="sans-serif" font-size="14" lengthAdjust="spacing" textLength="94" x="993.5" y="409.9659">Separar datos</text><text fill="#000000" font-family="sans-serif" font-size="12" lengthAdjust="spacing" textLength="312" x="850" y="436.896">El documento y su l&#237;nea activa forman una unidad l&#243;gica</text><text fill="#000000" font-family="sans-serif" font-size="12" lengthAdjust="spacing" textLength="287" x="850" y="453.2401">Una clase Document podr&#237;a encapsular estos datos</text><text fill="#000000" font-family="sans-serif" font-size="12" lengthAdjust="spacing" textLength="371" x="850" y="469.5842">Los m&#233;todos que manipulan estos datos pertenecer&#237;an a esa clase</text></g><ellipse cx="614.5" cy="16" fill="#222222" rx="10" ry="10" style="stroke:#222222;stroke-width:1.0;"/><g id="Identificacion"><rect fill="#F1F1F1" height="104.4444" rx="12.5" ry="12.5" style="stroke:#181818;stroke-width:0.5;" width="388" x="420.5" y="87"/><line style="stroke:#181818;stroke-width:0.5;" x1="420.5" x2="808.5" y1="116.0679" y2="116.0679"/><text fill="#000000" font-family="sans-serif" font-size="14" lengthAdjust="spacing" textLength="154" x="537.5" y="106.9659">Revisi&#243;n del panorama</text><text fill="#000000" font-family="sans-serif" font-size="12" lengthAdjust="spacing" textLength="161" x="425.5" y="133.896">- Todo est&#225; en una sola clase</text><text fill="#000000" font-family="sans-serif" font-size="12" lengthAdjust="spacing" textLength="305" x="425.5" y="150.2401">- Cualquier cambio requiere modificar m&#250;ltiples partes</text><text fill="#000000" font-family="sans-serif" font-size="12" lengthAdjust="spacing" textLength="368" x="425.5" y="166.5842">- Los arrays document y activeLine se propagan por todo el c&#243;digo</text><text fill="#000000" font-family="sans-serif" font-size="12" lengthAdjust="spacing" textLength="354" x="425.5" y="182.9283">- El switch de comandos aumenta con cada nueva funcionalidad</text></g><rect fill="#555555" height="8" style="stroke:none;stroke-width:1.0;" width="80" x="574.5" y="252"/><rect fill="#555555" height="8" style="stroke:none;stroke-width:1.0;" width="80" x="574.5" y="549"/><path d="M242,618 L986.5,618 A12.5,12.5 0 0 1 999,630.5 L999,668.412 L229.5,668.412 L229.5,630.5 A12.5,12.5 0 0 1 242,618 " fill="#F1F1F1" style="stroke:#F1F1F1;stroke-width:1.0;"/><rect fill="none" height="176.8564" rx="12.5" ry="12.5" style="stroke:#181818;stroke-width:0.5;" width="769.5" x="229.5" y="618"/><line style="stroke:#181818;stroke-width:0.5;" x1="229.5" x2="999" y1="668.412" y2="668.412"/><line style="stroke:#181818;stroke-width:0.5;" x1="229.5" x2="999" y1="647.0679" y2="647.0679"/><text fill="#000000" font-family="sans-serif" font-size="14" lengthAdjust="spacing" textLength="127" x="550.75" y="637.9659">Dise&#241;o de soluci&#243;n</text><text fill="#000000" font-family="sans-serif" font-size="12" lengthAdjust="spacing" textLength="361" x="234.5" y="659.896">La definici&#243;n de la estructura y la coordinaci&#243;n se retroalimentan</text><g id="Disenyo.MVC"><rect fill="#F1F1F1" height="104.4444" rx="12.5" ry="12.5" style="stroke:#181818;stroke-width:0.5;" width="325" x="241.5" y="680.412"/><line style="stroke:#181818;stroke-width:0.5;" x1="241.5" x2="566.5" y1="709.4799" y2="709.4799"/><text fill="#000000" font-family="sans-serif" font-size="14" lengthAdjust="spacing" textLength="104" x="352" y="700.378">Estructura MVC</text><text fill="#000000" font-family="sans-serif" font-size="12" lengthAdjust="spacing" textLength="209" x="246.5" y="727.308">Se requiere un elemento coordinador</text><text fill="#000000" font-family="sans-serif" font-size="12" lengthAdjust="spacing" textLength="291" x="246.5" y="743.6522">La clase Editor puede actuar como punto de entrada</text><text fill="#000000" font-family="sans-serif" font-size="12" lengthAdjust="spacing" textLength="291" x="246.5" y="759.9963">Editor puede crear y gestionar documento e interfaz</text><text fill="#000000" font-family="sans-serif" font-size="12" lengthAdjust="spacing" textLength="305" x="246.5" y="776.3404">La coordinaci&#243;n de comandos ser&#237;a su responsabilidad</text></g><g id="Disenyo.Commands"><rect fill="#F1F1F1" height="104.4444" rx="12.5" ry="12.5" style="stroke:#181818;stroke-width:0.5;" width="400" x="585" y="680.412"/><line style="stroke:#181818;stroke-width:0.5;" x1="585" x2="985" y1="709.4799" y2="709.4799"/><text fill="#000000" font-family="sans-serif" font-size="14" lengthAdjust="spacing" textLength="89" x="740.5" y="700.378">Coordinaci&#243;n</text><text fill="#000000" font-family="sans-serif" font-size="12" lengthAdjust="spacing" textLength="261" x="590" y="727.308">Las acciones comparten una estructura com&#250;n</text><text fill="#000000" font-family="sans-serif" font-size="12" lengthAdjust="spacing" textLength="380" x="590" y="743.6522">Todas reciben un documento y devuelven un estado de continuaci&#243;n</text><text fill="#000000" font-family="sans-serif" font-size="12" lengthAdjust="spacing" textLength="210" x="590" y="759.9963">Una interfaz com&#250;n podr&#237;a unificarlas</text><text fill="#000000" font-family="sans-serif" font-size="12" lengthAdjust="spacing" textLength="247" x="590" y="776.3404">Esto facilitar&#237;a la adici&#243;n de nuevas acciones</text></g><!--link MVC to Commands--><g id="link_MVC_Commands"><path d="M566.59,770.572 C572.71,770.942 572.8212,771.0744 578.9412,771.1944 " fill="none" id="MVC-to-Commands" style="stroke:#181818;stroke-width:1.0;"/><polygon fill="#181818" points="584.94,771.312,576.0201,767.1364,579.941,771.214,575.8633,775.1348,584.94,771.312" style="stroke:#181818;stroke-width:1.0;"/></g><!--link Commands to MVC--><g id="link_Commands_MVC"><path d="M584.94,693.512 C578.82,693.632 578.6991,693.5199 572.5791,693.8899 " fill="none" id="Commands-to-MVC" style="stroke:#181818;stroke-width:1.0;"/><polygon fill="#181818" points="566.59,694.252,575.815,697.7016,571.5809,693.9503,575.3322,689.7162,566.59,694.252" style="stroke:#181818;stroke-width:1.0;"/></g><path d="M281,856 L948,856 A12.5,12.5 0 0 1 960.5,868.5 L960.5,971.7885 L268.5,971.7885 L268.5,868.5 A12.5,12.5 0 0 1 281,856 " fill="#F1F1F1" style="stroke:#F1F1F1;stroke-width:1.0;"/><rect fill="none" height="242.2329" rx="12.5" ry="12.5" style="stroke:#181818;stroke-width:0.5;" width="692" x="268.5" y="856"/><line style="stroke:#181818;stroke-width:0.5;" x1="268.5" x2="960.5" y1="971.7885" y2="971.7885"/><line style="stroke:#181818;stroke-width:0.5;" x1="268.5" x2="960.5" y1="885.0679" y2="885.0679"/><text fill="#000000" font-family="sans-serif" font-size="14" lengthAdjust="spacing" textLength="134" x="547.5" y="875.9659">Refinado del dise&#241;o</text><text fill="#000000" font-family="sans-serif" font-size="12" lengthAdjust="spacing" textLength="246" x="273.5" y="897.896">Cada clase adquiere un prop&#243;sito espec&#237;fico</text><text fill="#000000" font-family="sans-serif" font-size="12" lengthAdjust="spacing" textLength="4" x="273.5" y="914.2401">-</text><text fill="#000000" font-family="sans-serif" font-size="12" font-weight="bold" lengthAdjust="spacing" textLength="62" x="280.5" y="914.2401">Document</text><text fill="#000000" font-family="sans-serif" font-size="12" lengthAdjust="spacing" textLength="98" x="342.5" y="914.2401">: gesti&#243;n de datos</text><text fill="#000000" font-family="sans-serif" font-size="12" lengthAdjust="spacing" textLength="4" x="273.5" y="930.5842">-</text><text fill="#000000" font-family="sans-serif" font-size="12" font-weight="bold" lengthAdjust="spacing" textLength="82" x="280.5" y="930.5842">UserInterface</text><text fill="#000000" font-family="sans-serif" font-size="12" lengthAdjust="spacing" textLength="129" x="362.5" y="930.5842">: gesti&#243;n de interacci&#243;n</text><text fill="#000000" font-family="sans-serif" font-size="12" lengthAdjust="spacing" textLength="4" x="273.5" y="946.9283">-</text><text fill="#000000" font-family="sans-serif" font-size="12" font-weight="bold" lengthAdjust="spacing" textLength="68" x="280.5" y="946.9283">Commands</text><text fill="#000000" font-family="sans-serif" font-size="12" lengthAdjust="spacing" textLength="155" x="348.5" y="946.9283">: encapsulaci&#243;n de acciones</text><text fill="#000000" font-family="sans-serif" font-size="12" lengthAdjust="spacing" textLength="4" x="273.5" y="963.2725">-</text><text fill="#000000" font-family="sans-serif" font-size="12" font-weight="bold" lengthAdjust="spacing" textLength="36" x="280.5" y="963.2725">Editor</text><text fill="#000000" font-family="sans-serif" font-size="12" lengthAdjust="spacing" textLength="124" x="316.5" y="963.2725">: coordinaci&#243;n general</text><g id="DisenyoRefinado.Dependencias"><rect fill="#F1F1F1" height="104.4444" rx="12.5" ry="12.5" style="stroke:#181818;stroke-width:0.5;" width="338" x="280.5" y="983.7885"/><line style="stroke:#181818;stroke-width:0.5;" x1="280.5" x2="618.5" y1="1012.8564" y2="1012.8564"/><text fill="#000000" font-family="sans-serif" font-size="14" lengthAdjust="spacing" textLength="96" x="401.5" y="1003.7544">Dependencias</text><text fill="#000000" font-family="sans-serif" font-size="12" lengthAdjust="spacing" textLength="255" x="285.5" y="1030.6845">Los Commands requieren acceso a la interfaz</text><text fill="#000000" font-family="sans-serif" font-size="12" lengthAdjust="spacing" textLength="318" x="285.5" y="1047.0286">La inyecci&#243;n en el constructor resuelve esta dependencia</text><text fill="#000000" font-family="sans-serif" font-size="12" lengthAdjust="spacing" textLength="248" x="285.5" y="1063.3727">El documento puede pasarse en la ejecuci&#243;n</text><text fill="#000000" font-family="sans-serif" font-size="12" lengthAdjust="spacing" textLength="214" x="285.5" y="1079.7168">Esta estructura aumenta la flexibilidad</text></g><g id="DisenyoRefinado.Validacion"><rect fill="#F1F1F1" height="104.4444" rx="12.5" ry="12.5" style="stroke:#181818;stroke-width:0.5;" width="310" x="636.5" y="983.7885"/><line style="stroke:#181818;stroke-width:0.5;" x1="636.5" x2="946.5" y1="1012.8564" y2="1012.8564"/><text fill="#000000" font-family="sans-serif" font-size="14" lengthAdjust="spacing" textLength="69" x="757" y="1003.7544">Validacion</text><text fill="#000000" font-family="sans-serif" font-size="12" lengthAdjust="spacing" textLength="206" x="641.5" y="1030.6845">La adici&#243;n de comandos se simplifica</text><text fill="#000000" font-family="sans-serif" font-size="12" lengthAdjust="spacing" textLength="277" x="641.5" y="1047.0286">La interfaz puede modificarse sin afectar la l&#243;gica</text><text fill="#000000" font-family="sans-serif" font-size="12" lengthAdjust="spacing" textLength="286" x="641.5" y="1063.3727">El c&#243;digo gana en organizaci&#243;n pese a su extensi&#243;n</text><text fill="#000000" font-family="sans-serif" font-size="12" lengthAdjust="spacing" textLength="290" x="641.5" y="1079.7168">Las responsabilidades quedan claramente definidas</text></g><!--link Dependencias to Validacion--><g id="link_Dependencias_Validacion"><path d="M618.83,1074.7885 C624.68,1074.8085 624.5255,1074.9547 630.3755,1074.7047 " fill="none" id="Dependencias-to-Validacion" style="stroke:#181818;stroke-width:1.0;"/><polygon fill="#181818" points="636.37,1074.4485,627.2074,1070.8364,631.3746,1074.662,627.549,1078.8291,636.37,1074.4485" style="stroke:#181818;stroke-width:1.0;"/></g><!--link Validacion to Dependencias--><g id="link_Validacion_Dependencias"><path d="M636.37,997.1285 C630.52,996.8785 630.68,996.748 624.83,996.768 " fill="none" id="Validacion-to-Dependencias" style="stroke:#181818;stroke-width:1.0;"/><polygon fill="#181818" points="618.83,996.7885,627.8436,1000.7577,623.83,996.7714,627.8163,992.7577,618.83,996.7885" style="stroke:#181818;stroke-width:1.0;"/></g><g id="elem_GMN32"><path d="M6,936.5 L6,1017.3241 A0,0 0 0 0 6,1017.3241 L233,1017.3241 A0,0 0 0 0 233,1017.3241 L233,981 L268.48,977 L233,973 L233,946.5 L223,936.5 L6,936.5 A0,0 0 0 0 6,936.5 " fill="#FEFFDD" style="stroke:#181818;stroke-width:0.5;"/><path d="M223,936.5 L223,946.5 L233,946.5 L223,936.5 " fill="#FEFFDD" style="stroke:#181818;stroke-width:0.5;"/><text fill="#000000" font-family="sans-serif" font-size="13" lengthAdjust="spacing" textLength="155" x="12" y="955.397">El c&#243;digo gana en claridad</text><text fill="#000000" font-family="sans-serif" font-size="13" lengthAdjust="spacing" textLength="182" x="12" y="973.103">Los cambios se localizan mejor</text><text fill="#000000" font-family="sans-serif" font-size="13" lengthAdjust="spacing" textLength="206" x="12" y="990.809">Los componentes son reutilizables</text><text fill="#000000" font-family="sans-serif" font-size="13" lengthAdjust="spacing" textLength="202" x="12" y="1008.5151">Las pruebas del c&#243;digo se facilitan</text></g><!--link *start* to Identificacion--><g id="link_*start*_Identificacion"><path d="M614.5,26.09 C614.5,39.07 614.5,57.85 614.5,80.81 " fill="none" id="*start*-to-Identificacion" style="stroke:#181818;stroke-width:1.0;"/><polygon fill="#181818" points="614.5,86.81,618.5,77.81,614.5,81.81,610.5,77.81,614.5,86.81" style="stroke:#181818;stroke-width:1.0;"/></g><!--link Identificacion to primeraReflexion--><g id="link_Identificacion_primeraReflexion"><path d="M614.5,191.11 C614.5,216.07 614.5,236.65 614.5,245.74 " fill="none" id="Identificacion-to-primeraReflexion" style="stroke:#181818;stroke-width:1.0;"/><polygon fill="#181818" points="614.5,251.74,618.5,242.74,614.5,246.74,610.5,242.74,614.5,251.74" style="stroke:#181818;stroke-width:1.0;"/></g><!--link primeraReflexion to SepararDatos--><g id="link_primeraReflexion_SepararDatos"><path d="M650.3,260.03 C693.56,264.59 767.95,275.35 827.5,299 C884.75,321.74 938.6885,356.5634 979.9685,386.4234 " fill="none" id="primeraReflexion-to-SepararDatos" style="stroke:#181818;stroke-width:1.0;"/><polygon fill="#181818" points="984.83,389.94,979.8822,381.4242,980.7788,387.0095,975.1934,387.9061,984.83,389.94" style="stroke:#181818;stroke-width:1.0;"/></g><!--link primeraReflexion to Patrones--><g id="link_primeraReflexion_Patrones"><path d="M614.5,260.05 C614.5,274.39 614.5,330.19 614.5,375.84 " fill="none" id="primeraReflexion-to-Patrones" style="stroke:#181818;stroke-width:1.0;"/><polygon fill="#181818" points="614.5,381.84,618.5,372.84,614.5,376.84,610.5,372.84,614.5,381.84" style="stroke:#181818;stroke-width:1.0;"/></g><!--link primeraReflexion to Flujo--><g id="link_primeraReflexion_Flujo"><path d="M575.21,260.02 C531.58,264.44 459.75,274.95 402.5,299 C353.47,319.59 308.8386,349.7925 271.8986,378.3225 " fill="none" id="primeraReflexion-to-Flujo" style="stroke:#181818;stroke-width:1.0;"/><polygon fill="#181818" points="267.15,381.99,276.7179,379.6545,271.1072,378.9337,271.8279,373.323,267.15,381.99" style="stroke:#181818;stroke-width:1.0;"/></g><!--link SepararDatos to finPrimeraReflexion--><g id="link_SepararDatos_finPrimeraReflexion"><path d="M927.87,478.05 C895.74,489.41 860.5,500.99 827.5,510 C757.87,529.02 679.15,542.1664 640.92,548.0564 " fill="none" id="SepararDatos-to-finPrimeraReflexion" style="stroke:#181818;stroke-width:1.0;"/><polygon fill="#181818" points="634.99,548.97,644.4941,551.5529,639.9317,548.2086,643.276,543.6462,634.99,548.97" style="stroke:#181818;stroke-width:1.0;"/></g><!--link Patrones to finPrimeraReflexion--><g id="link_Patrones_finPrimeraReflexion"><path d="M614.5,486.32 C614.5,511.86 614.5,533.26 614.5,542.63 " fill="none" id="Patrones-to-finPrimeraReflexion" style="stroke:#181818;stroke-width:1.0;"/><polygon fill="#181818" points="614.5,548.63,618.5,539.63,614.5,543.63,610.5,539.63,614.5,548.63" style="stroke:#181818;stroke-width:1.0;"/></g><!--link Flujo to finPrimeraReflexion--><g id="link_Flujo_finPrimeraReflexion"><path d="M330.37,486.03 C354.07,494.76 378.87,503.19 402.5,510 C470.82,529.69 548.2245,542.3625 586.9145,548.0825 " fill="none" id="Flujo-to-finPrimeraReflexion" style="stroke:#181818;stroke-width:1.0;"/><polygon fill="#181818" points="592.85,548.96,584.5318,543.6867,587.9038,548.2287,583.3618,551.6007,592.85,548.96" style="stroke:#181818;stroke-width:1.0;"/></g><!--link finPrimeraReflexion to Disenyo--><g id="link_finPrimeraReflexion_Disenyo"><path d="M614.5,557.16 C614.5,565.75 614.5,584.65 614.5,611.65 " fill="none" id="finPrimeraReflexion-to-Disenyo" style="stroke:#181818;stroke-width:1.0;"/><polygon fill="#181818" points="614.5,617.65,618.5,608.65,614.5,612.65,610.5,608.65,614.5,617.65" style="stroke:#181818;stroke-width:1.0;"/></g><!--link Disenyo to DisenyoRefinado--><g id="link_Disenyo_DisenyoRefinado"><path d="M614.5,795.05 C614.5,814.48 614.5,829.41 614.5,849.89 " fill="none" id="Disenyo-to-DisenyoRefinado" style="stroke:#181818;stroke-width:1.0;"/><polygon fill="#181818" points="614.5,855.89,618.5,846.89,614.5,850.89,610.5,846.89,614.5,855.89" style="stroke:#181818;stroke-width:1.0;"/></g><!--reverse link DisenyoRefinado to DisenyoRefinado--><g id="link_DisenyoRefinado_DisenyoRefinado"><path d="M966.4081,958.4811 C988.2181,963.1311 995.5,968.47 995.5,977 C995.5,985.53 982.35,992.12 960.54,996.77 " fill="none" id="DisenyoRefinado-backto-DisenyoRefinado" style="stroke:#181818;stroke-width:1.0;"/><polygon fill="#181818" points="960.54,957.23,968.5081,963.0187,965.4301,958.2726,970.1762,955.1946,960.54,957.23" style="stroke:#181818;stroke-width:1.0;"/><text fill="#000000" font-family="sans-serif" font-size="13" lengthAdjust="spacing" textLength="53" x="1001.5" y="982.397">Iteraci&#243;n</text></g><!--SRC=[TLSzRnmt4EtlLn0k0mZf1K6Dv0025DXmOZT12jvoJg728zVayY8vy8znwK95eCxj_h6y6IxtIoitkYKvm-6RDs_6V_pqfpexkrGtXdnd3xRHZGr-jqkTxaYz-K0dcsp_x9KXfrhjGzH7_KRfjBPOVfwhC_LxC45HwlflYhpANgiKd5QDquasZbzbxJvdIr4r-hYtGKMIJrB7OEHaLCV-X-jiwoWXbjXHsl1p6vBICUh7f4neyX7xwb7ffhCdkhMUL2BLnj3gE-rL6wBg94wdclxPsBkmuVAjK-aVspL_0GNLXAFsXYyHttXGy0ZPQEKpdRGwPCzssbcZpGp8WwC7GVB6syPg9o0Eo_3mxswdy6yu_cwVA9uGG8N-uF9zADVxBePY_GilYfdyEfy5sY2qY1Y-Q0NC3JLZ6jNdt7y77iKttLEJEntdNgxuCQ6TBiSx-n_8HnifoPCvcTM3zOPQyiPYX-PkRX4X7mgUqnLCx9-0UE84CmKIVYA9k2lDhS0QsBcvRMWficNOWmm8fwOrB23xG80cDFR8WGXKhGPIx02_Sme2sVjXJIph1u1xiAa3Iu_zTwO3cnWGW7-1j45fa301q8Zd7a8ybioidBp3ZpIv0C-A5w3yqBYSx4bps0HlZW23qPtSv11Trj66bRzRZTiwYWVzfJn13bKe1_XYefNPHpyKcVe8i6-AXuP6kplK91DKc2_qa5k6V2um_QrSKI8L_8QLQrwGa_C58U2O7LHToihrJvvqgJyK1sDNn21xBX3iFzy1emrVqpkkQntN9v1lT9koGsXu38FuIZotyuHypj0IxMqBGpytL20OiayD5OxYWbI5wkjkh55vdlRzDuTYIa1DwbYrcP2TI59jI0Uh7SVWo8M5CK05cMjb2pCJ6o9ni1KnGLYeMsXK_pGeHnkn4_Ka51SN0F7loyigBGVhtxyySn-ivpDBCHEfNtlSlRY2JoqIlNbYBANDtQ9DSo-ol17jhZfwzO3uUdMtIkorJTJ_9vMFcit2Pk4iR_Z7i99Of2FcfijHgry_NSb1_9KJ-7iE0AOEb94NHuNLJGZHM0zjYDFXsqhLjyPsw2c54o0zIfOx1ges3weamcpqPBimQS2ZYCgPYdIg9nhbO7dn453Lwwb39If2aV6Ir0QVzDuERMa6nDNSNd2u2aVsK0ggVgm47PT82ox5J1EOsEX_-9LfKVM8DhGNYuLA63fbSgUo0K-0jdOww_DCQYT_h0sZDfORHt60iCYquFJw0KXvKD12W82MnsSXVXeINP6J3Zuzii8CwaLctm8NNh-GZMdzwsuta4qoO-WW8Z5uTmkS7lbxcRiNQh3RAcwEPBXbFbu89QMRc588S-wF-uiQk9R63J6r0rJpXIAUzMbZBNX6XnAtHAUNX5nPy-uZrJd3ouW53We0u3ieALcNZ2ipsMxuMhILKYYjJbLi6LSUOoQYhApvWXdoTN23dM2wKHIVP7oJmPONfqzvrvmois9JoHvR9-JRiXhvMXumJhLY25WFr82L7DMy9ywTl1s7L8NXbTkW2X6_q7TAF2tcCoK5JmyepJG2iWmbhVM0f3aQj1-eM1ocbC9Uiq6DMWyhb1P7XjAO7PcAex9n63MBScepYItFv_rpiYnwgQMcVm9IuQNvcRhONzRfuEBd_ULv4SuXDsKgsBPQp4OlJHSZqRQ7MXh5U1n9HcQCAh9jNcI_62zbu0wZ2CQ7QZSl-EfZxPFXVb7hv-f67b76EX-GKqU7JeN32tUSlWrsCHkaD7YVvQ3yrqp8xa8Z4m-6PheVUg4SGMF0iu4VpyuULCkTvODxDoWg4x2DcVQwJB_rLZYjukntO9BYaFy7]--></g></svg>