<?xml version="1.0" encoding="us-ascii" standalone="no"?><svg xmlns="http://www.w3.org/2000/svg" xmlns:xlink="http://www.w3.org/1999/xlink" contentStyleType="text/css" height="346px" preserveAspectRatio="none" style="width:550px;height:346px;background:#FFFFFF;" version="1.1" viewBox="0 0 550 346" width="550px" zoomAndPan="magnify"><defs/><g><!--class PROGRAMA--><g id="elem_PROGRAMA"><rect codeLine="4" fill="#F1F1F1" height="56.1358" id="PROGRAMA" rx="2.5" ry="2.5" style="stroke:#181818;stroke-width:0.5;" width="54" x="263" y="7"/><text fill="#000000" font-family="sans-serif" font-size="14" lengthAdjust="spacing" textLength="34" x="273" y="26.9659">Edlin</text><line style="stroke:#181818;stroke-width:0.5;" x1="264" x2="316" y1="36.0679" y2="36.0679"/><text fill="#000000" font-family="sans-serif" font-size="14" lengthAdjust="spacing" textLength="42" x="269" y="55.0339">main()</text></g><!--class MODELO--><g id="elem_MODELO"><rect codeLine="8" fill="#F1F1F1" height="75.2038" id="MODELO" rx="2.5" ry="2.5" style="stroke:#181818;stroke-width:0.5;" width="90" x="245" y="203.5"/><text fill="#000000" font-family="sans-serif" font-size="14" lengthAdjust="spacing" textLength="38" x="271" y="223.4659">Datos</text><line style="stroke:#181818;stroke-width:0.5;" x1="246" x2="334" y1="232.5679" y2="232.5679"/><text fill="#000000" font-family="sans-serif" font-size="14" lengthAdjust="spacing" textLength="78" x="251" y="251.5339">document[]</text><text fill="#000000" font-family="sans-serif" font-size="14" lengthAdjust="spacing" textLength="67" x="251" y="270.6018">activeLine</text></g><!--class CONTROLADOR--><g id="elem_CONTROLADOR"><rect codeLine="13" fill="#F1F1F1" height="140.4075" id="CONTROLADOR" rx="2.5" ry="2.5" style="stroke:#181818;stroke-width:0.5;" width="121" x="422.5" y="171"/><text fill="#000000" font-family="sans-serif" font-size="14" lengthAdjust="spacing" textLength="85" x="440.5" y="190.9659">Operaciones</text><line style="stroke:#181818;stroke-width:0.5;" x1="423.5" x2="542.5" y1="200.0679" y2="200.0679"/><text fill="#000000" font-family="sans-serif" font-size="14" lengthAdjust="spacing" textLength="109" x="428.5" y="219.0339">processActions()</text><line style="stroke:#181818;stroke-width:1.0;stroke-dasharray:1.0,2.0;" x1="423.5" x2="542.5" y1="227.1358" y2="227.1358"/><text fill="#000000" font-family="sans-serif" font-size="14" lengthAdjust="spacing" textLength="34" x="428.5" y="246.1018">edit()</text><text fill="#000000" font-family="sans-serif" font-size="14" lengthAdjust="spacing" textLength="96" x="428.5" y="265.1697">setActiveLine()</text><text fill="#000000" font-family="sans-serif" font-size="14" lengthAdjust="spacing" textLength="108" x="428.5" y="284.2376">exchangeLines()</text><text fill="#000000" font-family="sans-serif" font-size="14" lengthAdjust="spacing" textLength="50" x="428.5" y="303.3055">delete()</text></g><!--class VISTA--><g id="elem_VISTA"><rect codeLine="22" fill="#F1F1F1" height="197.6113" id="VISTA" rx="2.5" ry="2.5" style="stroke:#181818;stroke-width:0.5;" width="150" x="7" y="142"/><text fill="#000000" font-family="sans-serif" font-size="14" lengthAdjust="spacing" textLength="87" x="38.5" y="161.9659">Presentaci&#243;n</text><line style="stroke:#181818;stroke-width:0.5;" x1="8" x2="156" y1="171.0679" y2="171.0679"/><text fill="#000000" font-family="sans-serif" font-size="14" lengthAdjust="spacing" textLength="41" x="13" y="190.0339">print()</text><line style="stroke:#181818;stroke-width:1.0;stroke-dasharray:1.0,2.0;" x1="8" x2="156" y1="198.1358" y2="198.1358"/><text fill="#000000" font-family="sans-serif" font-size="14" lengthAdjust="spacing" textLength="87" x="13" y="217.1018">clearScreen()</text><text fill="#000000" font-family="sans-serif" font-size="14" lengthAdjust="spacing" textLength="138" x="13" y="236.1697">printHorizontalLine()</text><text fill="#000000" font-family="sans-serif" font-size="14" lengthAdjust="spacing" textLength="73" x="13" y="255.2376">separator()</text><text fill="#000000" font-family="sans-serif" font-size="14" lengthAdjust="spacing" textLength="62" x="13" y="274.3055">askChar()</text><text fill="#000000" font-family="sans-serif" font-size="14" lengthAdjust="spacing" textLength="71" x="13" y="293.3734">askString()</text><text fill="#000000" font-family="sans-serif" font-size="14" lengthAdjust="spacing" textLength="49" x="13" y="312.4414">askInt()</text><text fill="#000000" font-family="sans-serif" font-size="14" lengthAdjust="spacing" textLength="58" x="13" y="331.5093">askLine()</text></g><!--link PROGRAMA to MODELO--><g id="link_PROGRAMA_MODELO"><path codeLine="34" d="M290,63.09 C290,99.18 290,157.16 290,197.48 " fill="none" id="PROGRAMA-to-MODELO" style="stroke:#181818;stroke-width:1.0;"/><polygon fill="#181818" points="290,203.48,294,194.48,290,198.48,286,194.48,290,203.48" style="stroke:#181818;stroke-width:1.0;"/><text fill="#000000" font-family="sans-serif" font-size="13" lengthAdjust="spacing" textLength="21" x="291" y="107.897">usa</text></g><!--reverse link MODELO to CONTROLADOR--><g id="link_MODELO_CONTROLADOR"><path codeLine="35" d="M341.25,241 C367.21,241 394.14,241 422.32,241 " fill="none" id="MODELO-backto-CONTROLADOR" style="stroke:#181818;stroke-width:1.0;"/><polygon fill="#181818" points="335.25,241,344.25,245,340.25,241,344.25,237,335.25,241" style="stroke:#181818;stroke-width:1.0;"/><text fill="#000000" font-family="sans-serif" font-size="13" lengthAdjust="spacing" textLength="51" x="353.25" y="233.897">modifica</text></g><!--link VISTA to MODELO--><g id="link_VISTA_MODELO"><path codeLine="36" d="M157.09,241 C186.53,241 213.33,241 238.98,241 " fill="none" id="VISTA-to-MODELO" style="stroke:#181818;stroke-width:1.0;"/><polygon fill="#181818" points="244.98,241,235.98,237,239.98,241,235.98,245,244.98,241" style="stroke:#181818;stroke-width:1.0;"/><text fill="#000000" font-family="sans-serif" font-size="13" lengthAdjust="spacing" textLength="51" x="175.5" y="233.897">consulta</text></g><!--link PROGRAMA to CONTROLADOR--><g id="link_PROGRAMA_CONTROLADOR"><path codeLine="37" d="M315.63,63.09 C342.7,91.7 382.2266,133.4814 418.1666,171.4714 " fill="none" id="PROGRAMA-to-CONTROLADOR" style="stroke:#181818;stroke-width:1.0;"/><polygon fill="#181818" points="422.29,175.83,419.0106,166.5431,418.8538,172.1978,413.1991,172.041,422.29,175.83" style="stroke:#181818;stroke-width:1.0;"/><text fill="#000000" font-family="sans-serif" font-size="13" lengthAdjust="spacing" textLength="32" x="358" y="107.897">llama</text></g><!--link PROGRAMA to VISTA--><g id="link_PROGRAMA_VISTA"><path codeLine="38" d="M262.81,62.67 C236.05,88.91 198.2437,125.9888 161.4037,162.1188 " fill="none" id="PROGRAMA-to-VISTA" style="stroke:#181818;stroke-width:1.0;"/><polygon fill="#181818" points="157.12,166.32,166.3464,162.8741,160.6898,162.819,160.7448,157.1624,157.12,166.32" style="stroke:#181818;stroke-width:1.0;"/><text fill="#000000" font-family="sans-serif" font-size="13" lengthAdjust="spacing" textLength="32" x="229" y="107.897">llama</text></g><!--SRC=[NL5BJiCm4Dtx55PNi0W7w08fQYkerE8ghTWW5eCzD1R-H1uNyH6duWXS33TnWwbNy-RpvirpgnLogOCqoDfZZBQBxzoYVS90Z4a3H7ooK4Qx2GVYcqRSDFMwvf-CfsT1kujBzZLspY5wwZlNOhvOYTodl3nOTF7XiOSWetx5bNPOZ8eE0qZj7Gu4Ct6tQyIgdeicitJ1IoIgqxHtbFOUarVfzG4g7NEECDRZYfp3Dzc2s_Ufqwn2Wn7_7R09I4be4lBpFPnylzpkwb61Tl5ySJ8FmbO6H9TBVTkj3_h39ofJg23i82IFGiP0BxCM2hIDQNR_XvVZlWGoKL8x_aEbgkkJrrD-862bRvKfgzOh_QmbiE6aAfH5cImzc0Xdr2NRb1i3zhnZ8CkrNm00]--></g></svg>