<?xml version="1.0" encoding="us-ascii" standalone="no"?><svg xmlns="http://www.w3.org/2000/svg" xmlns:xlink="http://www.w3.org/1999/xlink" contentStyleType="text/css" height="232px" preserveAspectRatio="none" style="width:493px;height:232px;background:#FFFFFF;" version="1.1" viewBox="0 0 493 232" width="493px" zoomAndPan="magnify"><defs/><g><!--class PROGRAMA--><g id="elem_PROGRAMA"><rect codeLine="4" fill="#F1F1F1" height="56.1358" id="PROGRAMA" rx="2.5" ry="2.5" style="stroke:#181818;stroke-width:0.5;" width="54" x="205.5" y="7"/><text fill="#000000" font-family="sans-serif" font-size="14" lengthAdjust="spacing" textLength="34" x="215.5" y="26.9659">Edlin</text><line style="stroke:#181818;stroke-width:0.5;" x1="206.5" x2="258.5" y1="36.0679" y2="36.0679"/><text fill="#000000" font-family="sans-serif" font-size="14" lengthAdjust="spacing" textLength="42" x="211.5" y="55.0339">main()</text></g><!--class MODELO--><g id="elem_MODELO"><rect codeLine="8" fill="#F1F1F1" height="75.2038" id="MODELO" rx="2.5" ry="2.5" style="stroke:#181818;stroke-width:0.5;" width="90" x="187.5" y="146"/><text fill="#000000" font-family="sans-serif" font-size="14" lengthAdjust="spacing" textLength="38" x="213.5" y="165.9659">Datos</text><line style="stroke:#181818;stroke-width:0.5;" x1="188.5" x2="276.5" y1="175.0679" y2="175.0679"/><text fill="#000000" font-family="sans-serif" font-size="14" lengthAdjust="spacing" textLength="78" x="193.5" y="194.0339">document[]</text><text fill="#000000" font-family="sans-serif" font-size="14" lengthAdjust="spacing" textLength="67" x="193.5" y="213.1018">activeLine</text></g><!--class CONTROLADOR--><g id="elem_CONTROLADOR"><rect codeLine="13" fill="#F1F1F1" height="83.2038" id="CONTROLADOR" rx="2.5" ry="2.5" style="stroke:#181818;stroke-width:0.5;" width="121" x="365" y="142"/><text fill="#000000" font-family="sans-serif" font-size="14" lengthAdjust="spacing" textLength="85" x="383" y="161.9659">Operaciones</text><line style="stroke:#181818;stroke-width:0.5;" x1="366" x2="485" y1="171.0679" y2="171.0679"/><text fill="#000000" font-family="sans-serif" font-size="14" lengthAdjust="spacing" textLength="109" x="371" y="190.0339">processActions()</text><line style="stroke:#181818;stroke-width:1.0;stroke-dasharray:1.0,2.0;" x1="366" x2="485" y1="198.1358" y2="198.1358"/><text fill="#000000" font-family="sans-serif" font-size="14" lengthAdjust="spacing" textLength="12" x="371" y="217.1018">...</text></g><!--class VISTA--><g id="elem_VISTA"><rect codeLine="19" fill="#F1F1F1" height="83.2038" id="VISTA" rx="2.5" ry="2.5" style="stroke:#181818;stroke-width:0.5;" width="93" x="7" y="142"/><text fill="#000000" font-family="sans-serif" font-size="14" lengthAdjust="spacing" textLength="87" x="10" y="161.9659">Presentaci&#243;n</text><line style="stroke:#181818;stroke-width:0.5;" x1="8" x2="99" y1="171.0679" y2="171.0679"/><text fill="#000000" font-family="sans-serif" font-size="14" lengthAdjust="spacing" textLength="41" x="13" y="190.0339">print()</text><line style="stroke:#181818;stroke-width:1.0;stroke-dasharray:1.0,2.0;" x1="8" x2="99" y1="198.1358" y2="198.1358"/><text fill="#000000" font-family="sans-serif" font-size="14" lengthAdjust="spacing" textLength="12" x="13" y="217.1018">...</text></g><!--link PROGRAMA to MODELO--><g id="link_PROGRAMA_MODELO"><path codeLine="25" d="M232.5,63.21 C232.5,86.46 232.5,114.12 232.5,139.76 " fill="none" id="PROGRAMA-to-MODELO" style="stroke:#181818;stroke-width:1.0;"/><polygon fill="#181818" points="232.5,145.76,236.5,136.76,232.5,140.76,228.5,136.76,232.5,145.76" style="stroke:#181818;stroke-width:1.0;"/><text fill="#000000" font-family="sans-serif" font-size="13" lengthAdjust="spacing" textLength="21" x="233.5" y="107.897">usa</text></g><!--reverse link MODELO to CONTROLADOR--><g id="link_MODELO_CONTROLADOR"><path codeLine="26" d="M283.75,183.5 C309.71,183.5 336.64,183.5 364.82,183.5 " fill="none" id="MODELO-backto-CONTROLADOR" style="stroke:#181818;stroke-width:1.0;"/><polygon fill="#181818" points="277.75,183.5,286.75,187.5,282.75,183.5,286.75,179.5,277.75,183.5" style="stroke:#181818;stroke-width:1.0;"/><text fill="#000000" font-family="sans-serif" font-size="13" lengthAdjust="spacing" textLength="51" x="295.75" y="176.397">modifica</text></g><!--link VISTA to MODELO--><g id="link_VISTA_MODELO"><path codeLine="27" d="M100.06,183.5 C127,183.5 154.73,183.5 181.41,183.5 " fill="none" id="VISTA-to-MODELO" style="stroke:#181818;stroke-width:1.0;"/><polygon fill="#181818" points="187.41,183.5,178.41,179.5,182.41,183.5,178.41,187.5,187.41,183.5" style="stroke:#181818;stroke-width:1.0;"/><text fill="#000000" font-family="sans-serif" font-size="13" lengthAdjust="spacing" textLength="51" x="118.25" y="176.397">consulta</text></g><!--link PROGRAMA to CONTROLADOR--><g id="link_PROGRAMA_CONTROLADOR"><path codeLine="28" d="M259.74,56.68 C288.73,78.68 330.5712,110.4419 366.9912,138.0919 " fill="none" id="PROGRAMA-to-CONTROLADOR" style="stroke:#181818;stroke-width:1.0;"/><polygon fill="#181818" points="371.77,141.72,367.0205,133.092,367.7877,138.6966,362.1831,139.4638,371.77,141.72" style="stroke:#181818;stroke-width:1.0;"/><text fill="#000000" font-family="sans-serif" font-size="13" lengthAdjust="spacing" textLength="32" x="329.5" y="107.897">llama</text></g><!--link PROGRAMA to VISTA--><g id="link_PROGRAMA_VISTA"><path codeLine="29" d="M205.31,58.25 C177.44,81.06 138.2032,113.1799 104.7732,140.5399 " fill="none" id="PROGRAMA-to-VISTA" style="stroke:#181818;stroke-width:1.0;"/><polygon fill="#181818" points="100.13,144.34,109.6282,141.7353,103.9993,141.1732,104.5614,135.5444,100.13,144.34" style="stroke:#181818;stroke-width:1.0;"/><text fill="#000000" font-family="sans-serif" font-size="13" lengthAdjust="spacing" textLength="32" x="160.5" y="107.897">llama</text></g><!--SRC=[TO_FIWCn4CRlUOhGanxM1-X126uHOMlAMho8Xp4PwK3-B9ci8E9J-GY-c6btkuI2Svha- -RtpHp8eZIKZ4DnEFReX_mfFVetJ2o4SS0iLnlhAAmaiDpr-hvNMoM_X2pbWSBLjVXUd2tao2VdLhURJiy-6yteCUINrzCJJAOFx2XWDQe7J60e1fm0T_fnt-jEjRgVAKEA1fbLcOw1I-xnywRKkQbekuHS0WlmzsTQ_VdXQQyM4eNy3s0viR7DxVcCjHmPHBrIushLHqllP41CAKsgHLEs7Ls62tHDMqldm5yw9jYi_G40]--></g></svg>