<?xml version="1.0" encoding="us-ascii" standalone="no"?><svg xmlns="http://www.w3.org/2000/svg" xmlns:xlink="http://www.w3.org/1999/xlink" contentStyleType="text/css" height="289px" preserveAspectRatio="none" style="width:499px;height:289px;background:#FFFFFF;" version="1.1" viewBox="0 0 499 289" width="499px" zoomAndPan="magnify"><defs/><g><!--class PROGRAMA--><g id="elem_PROGRAMA"><rect codeLine="4" fill="#F1F1F1" height="56.1358" id="PROGRAMA" rx="2.5" ry="2.5" style="stroke:#181818;stroke-width:0.5;" width="54" x="211.5" y="7"/><text fill="#000000" font-family="sans-serif" font-size="14" lengthAdjust="spacing" textLength="34" x="221.5" y="26.9659">Edlin</text><line style="stroke:#181818;stroke-width:0.5;" x1="212.5" x2="264.5" y1="36.0679" y2="36.0679"/><text fill="#000000" font-family="sans-serif" font-size="14" lengthAdjust="spacing" textLength="42" x="217.5" y="55.0339">main()</text></g><!--class MODELO--><g id="elem_MODELO"><rect codeLine="8" fill="#F1F1F1" height="75.2038" id="MODELO" rx="2.5" ry="2.5" style="stroke:#181818;stroke-width:0.5;" width="90" x="193.5" y="174.5"/><text fill="#000000" font-family="sans-serif" font-size="14" lengthAdjust="spacing" textLength="38" x="219.5" y="194.4659">Datos</text><line style="stroke:#181818;stroke-width:0.5;" x1="194.5" x2="282.5" y1="203.5679" y2="203.5679"/><text fill="#000000" font-family="sans-serif" font-size="14" lengthAdjust="spacing" textLength="78" x="199.5" y="222.5339">document[]</text><text fill="#000000" font-family="sans-serif" font-size="14" lengthAdjust="spacing" textLength="67" x="199.5" y="241.6018">activeLine</text></g><!--class CONTROLADOR--><g id="elem_CONTROLADOR"><rect codeLine="13" fill="#F1F1F1" height="121.3396" id="CONTROLADOR" rx="2.5" ry="2.5" style="stroke:#181818;stroke-width:0.5;" width="121" x="371" y="151.5"/><text fill="#000000" font-family="sans-serif" font-size="14" lengthAdjust="spacing" textLength="85" x="389" y="171.4659">Operaciones</text><line style="stroke:#181818;stroke-width:0.5;" x1="372" x2="491" y1="180.5679" y2="180.5679"/><text fill="#000000" font-family="sans-serif" font-size="14" lengthAdjust="spacing" textLength="109" x="377" y="199.5339">processActions()</text><line style="stroke:#181818;stroke-width:1.0;stroke-dasharray:1.0,2.0;" x1="372" x2="491" y1="207.6358" y2="207.6358"/><text fill="#000000" font-family="sans-serif" font-size="14" lengthAdjust="spacing" textLength="34" x="377" y="226.6018">edit()</text><text fill="#000000" font-family="sans-serif" font-size="14" lengthAdjust="spacing" textLength="108" x="377" y="245.6697">exchangeLines()</text><text fill="#000000" font-family="sans-serif" font-size="14" lengthAdjust="spacing" textLength="12" x="377" y="264.7376">...</text></g><!--class VISTA--><g id="elem_VISTA"><rect codeLine="21" fill="#F1F1F1" height="140.4075" id="VISTA" rx="2.5" ry="2.5" style="stroke:#181818;stroke-width:0.5;" width="99" x="7" y="142"/><text fill="#000000" font-family="sans-serif" font-size="14" lengthAdjust="spacing" textLength="87" x="13" y="161.9659">Presentaci&#243;n</text><line style="stroke:#181818;stroke-width:0.5;" x1="8" x2="105" y1="171.0679" y2="171.0679"/><text fill="#000000" font-family="sans-serif" font-size="14" lengthAdjust="spacing" textLength="41" x="13" y="190.0339">print()</text><line style="stroke:#181818;stroke-width:1.0;stroke-dasharray:1.0,2.0;" x1="8" x2="105" y1="198.1358" y2="198.1358"/><text fill="#000000" font-family="sans-serif" font-size="14" lengthAdjust="spacing" textLength="87" x="13" y="217.1018">clearScreen()</text><text fill="#000000" font-family="sans-serif" font-size="14" lengthAdjust="spacing" textLength="73" x="13" y="236.1697">separator()</text><text fill="#000000" font-family="sans-serif" font-size="14" lengthAdjust="spacing" textLength="62" x="13" y="255.2376">askChar()</text><text fill="#000000" font-family="sans-serif" font-size="14" lengthAdjust="spacing" textLength="12" x="13" y="274.3055">...</text></g><!--link PROGRAMA to MODELO--><g id="link_PROGRAMA_MODELO"><path codeLine="30" d="M238.5,63.34 C238.5,93.24 238.5,135.3 238.5,168.42 " fill="none" id="PROGRAMA-to-MODELO" style="stroke:#181818;stroke-width:1.0;"/><polygon fill="#181818" points="238.5,174.42,242.5,165.42,238.5,169.42,234.5,165.42,238.5,174.42" style="stroke:#181818;stroke-width:1.0;"/><text fill="#000000" font-family="sans-serif" font-size="13" lengthAdjust="spacing" textLength="21" x="239.5" y="107.897">usa</text></g><!--reverse link MODELO to CONTROLADOR--><g id="link_MODELO_CONTROLADOR"><path codeLine="31" d="M289.75,212 C315.71,212 342.64,212 370.82,212 " fill="none" id="MODELO-backto-CONTROLADOR" style="stroke:#181818;stroke-width:1.0;"/><polygon fill="#181818" points="283.75,212,292.75,216,288.75,212,292.75,208,283.75,212" style="stroke:#181818;stroke-width:1.0;"/><text fill="#000000" font-family="sans-serif" font-size="13" lengthAdjust="spacing" textLength="51" x="301.75" y="204.897">modifica</text></g><!--link VISTA to MODELO--><g id="link_VISTA_MODELO"><path codeLine="32" d="M106.23,212 C133.49,212 161.02,212 187.5,212 " fill="none" id="VISTA-to-MODELO" style="stroke:#181818;stroke-width:1.0;"/><polygon fill="#181818" points="193.5,212,184.5,208,188.5,212,184.5,216,193.5,212" style="stroke:#181818;stroke-width:1.0;"/><text fill="#000000" font-family="sans-serif" font-size="13" lengthAdjust="spacing" textLength="51" x="124.25" y="204.897">consulta</text></g><!--link PROGRAMA to CONTROLADOR--><g id="link_PROGRAMA_CONTROLADOR"><path codeLine="33" d="M265.74,60.7 C292.86,85.29 330.9653,119.8396 366.1553,151.7496 " fill="none" id="PROGRAMA-to-CONTROLADOR" style="stroke:#181818;stroke-width:1.0;"/><polygon fill="#181818" points="370.6,155.78,366.6199,146.7712,366.8961,152.4213,361.246,152.6975,370.6,155.78" style="stroke:#181818;stroke-width:1.0;"/><text fill="#000000" font-family="sans-serif" font-size="13" lengthAdjust="spacing" textLength="32" x="318.5" y="107.897">llama</text></g><!--link PROGRAMA to VISTA--><g id="link_PROGRAMA_VISTA"><path codeLine="34" d="M211.25,62.2 C183.59,88.8 144.4449,126.4413 110.6149,158.9713 " fill="none" id="PROGRAMA-to-VISTA" style="stroke:#181818;stroke-width:1.0;"/><polygon fill="#181818" points="106.29,163.13,115.5499,159.7752,109.8941,159.6644,110.0049,154.0086,106.29,163.13" style="stroke:#181818;stroke-width:1.0;"/><text fill="#000000" font-family="sans-serif" font-size="13" lengthAdjust="spacing" textLength="32" x="175.5" y="107.897">llama</text></g><!--SRC=[NL1BJiCm4Dtx55PNi0W7w08fQYg4bE8ghTWW5eCz40j_8e-3G8XJSGGkXfkOo7HMytdpthpfjK8kTP06MN_AqGxnWrkqJnY8CMc0YA-socYtua1ytucRhjxL_9Fn51QqkxXaNmkoWUXfGkv4isr5nYalHuikFZnE9SYetx3L3ejLCM00gRt3cM0ZxewTQEj6T9bb25uYKPsslQEaUsfUfPWIL3hc7hxB7jpBf53W2h5zG4ht9BsVxzdP_UtXM2z2siLp_lGZ20SP45qU4GuGak6GQw3NJG_Xl-3oiKfLrtzVMVEHW9KEArDEhLVwMKjWyrLLA8SocHzDX3FgactDZG5xZfZ9ykmN]--></g></svg>